<svg width="222" height="122" viewBox="0 0 222 122" fill="none" xmlns="http://www.w3.org/2000/svg">
<g clip-path="url(#clip0_170_1522)">
<path d="M81.5488 18.5474C82.6489 17.5274 85.0949 15.4991 87.0962 14.2799C89.0038 13.1309 90.5604 12.4861 91.5786 12.0757C94.1533 11.0323 95.5928 10.4461 97.6643 10.3289C98.6708 10.2702 100.637 10.1647 102.907 11.0909C105.985 12.3337 107.554 14.6081 107.846 15.0536C108.548 16.0971 108.923 17.0936 109.134 17.7971" stroke="black" stroke-width="0.5" stroke-miterlimit="10"/>
<path d="M103.738 11.4661C105.939 10.5868 108.104 11.3254 108.15 11.1612C108.221 10.8916 107.05 10.6923 106.407 9.63712C105.658 8.41782 106.126 6.96405 106.184 6.82336C106.231 6.68267 106.723 5.29924 108.01 4.77166C108.829 4.43166 109.18 4.77166 109.988 4.39649C110.795 4.02132 111.111 3.38823 111.509 2.87237C112.41 1.72342 113.686 1.34825 115.465 0.820669C116.237 0.586189 119.339 -0.281388 122.616 0.973081C128.854 3.35305 130.398 11.3723 130.211 12.6267C130.188 12.7674 130.071 13.3654 130.281 14.0688C130.445 14.5847 130.632 14.6902 130.808 15.1357C130.843 15.2177 131.311 16.4253 130.738 17.3398C130.199 18.2074 128.982 18.4184 128.151 18.2543C127.215 18.0784 126.618 17.3984 125.951 16.6598C125.062 15.6633 125.226 15.3467 124.664 15.0653C123.564 14.5026 122.007 15.206 121.469 15.4405C120.696 15.7922 120.72 15.9681 120.252 16.0502C118.871 16.2846 117.817 14.8778 117.513 15.1357C117.232 15.3702 118.192 16.4839 118.344 18.4067C118.403 19.1453 118.438 19.5674 118.192 20.0011C117.618 21.0211 116.319 20.7046 115.91 21.5956C115.524 22.4397 116.284 23.6004 116.366 23.7294C116.787 24.3507 117.139 24.339 117.501 25.019C117.654 25.3004 117.97 25.91 117.806 26.5431C117.642 27.1645 117.174 27.1411 116.589 27.9852C116.366 28.3135 115.839 29.0755 116.062 29.7321C116.226 30.2362 116.764 30.4707 116.975 30.5645C118.285 31.1858 119.198 32.4051 120.544 34.2224C122.44 36.7782 121.843 38.3961 123.435 39.0995C123.786 39.252 123.716 39.123 125.635 39.4044C126.384 39.5099 127.824 39.7209 128.982 40.014C130.551 40.4126 131.616 40.9871 132.938 41.6906C135.571 43.0974 135.7 43.7188 137.877 44.5864C138.579 44.8678 139.667 45.2429 141.072 45.3484C142.125 45.4305 143.81 45.5595 144.185 44.8209C144.7 43.8243 142.511 42.0188 142.968 41.4678C143.178 41.2216 143.834 41.3506 144.255 41.6202C145.203 42.2181 145.367 43.6602 145.32 43.6719C145.238 43.6954 143.53 39.3692 144.103 39.0292C144.419 38.8416 145.379 39.8968 145.777 40.4009C146.654 41.503 147.029 42.6636 147.298 43.5195C147.696 44.8091 147.555 45.0202 147.977 45.876C148.468 46.8491 148.773 46.8374 149.112 47.6229C149.276 47.9981 149.323 48.2912 149.334 50.5187C149.346 52.887 149.288 53.4028 148.878 53.7194C148.527 53.989 148.211 53.8835 147.895 54.247C147.485 54.7276 147.719 55.22 147.52 55.6187C147.052 56.5566 144.396 56.7207 142.125 55.689C140.077 54.7745 140.288 53.7663 138.169 52.7228C137.631 52.4649 136.882 52.1484 133.453 51.738C131.92 51.5504 129.825 51.3394 127.297 51.2104" stroke="black" stroke-width="0.5" stroke-miterlimit="10"/>
<path d="M109.496 4.5372C110.397 5.28754 112.539 7.04614 114.154 8.11302C116.424 9.60197 118.987 11.2785 122.592 12.2282C124.055 12.615 127.449 13.0137 130.152 12.9316" stroke="black" stroke-width="0.5" stroke-miterlimit="10"/>
<path d="M115.594 10.3992C115.406 10.4344 114.938 10.5399 114.681 10.9268C114.306 11.4895 114.493 12.4626 115.289 13.1309" stroke="black" stroke-width="0.5" stroke-miterlimit="10"/>
<path d="M115.898 12.1461C116.156 12.2398 116.518 12.4157 116.659 12.7557C116.928 13.3888 116.296 14.1626 115.898 14.655C114.576 16.2846 113.616 16.0384 112.481 17.4688C112.118 17.926 111.521 18.6881 111.416 19.7549C111.334 20.5991 111.638 20.8922 112.094 22.9556C112.305 23.8935 112.41 24.3625 112.469 25.0073C112.656 26.8949 112.247 27.3521 112.691 28.4307C112.843 28.8059 113.171 29.5797 113.979 29.9548C114.611 30.2479 115.828 29.9431 116.109 29.8845" stroke="black" stroke-width="0.5" stroke-miterlimit="10"/>
<path d="M112.399 29.7321C112.446 30.0252 112.492 30.4472 112.469 30.9514C112.434 31.9128 112.399 32.9914 111.708 33.5424C110.901 34.1872 109.637 33.7651 109.204 33.6127C107.987 33.2024 107.308 32.2996 107.074 31.9362" stroke="black" stroke-width="0.5" stroke-miterlimit="10"/>
<path d="M93.4043 26.8362C93.9661 26.7659 94.7853 26.6838 95.7567 26.6838C96.8568 26.6838 97.5122 26.6838 98.109 26.9066C98.7761 27.1528 99.49 27.7038 100.543 29.8024C101.14 31.01 101.491 31.9831 102.744 36.2037C103.352 38.2203 103.563 38.9706 104.183 40.014C104.757 40.952 105.365 41.6554 106.079 42.4526C107.542 44.1057 107.717 43.8947 108.818 45.196C109.707 46.2512 109.847 46.685 111.322 48.467C111.837 49.0767 112.27 49.5691 112.996 49.9091C113.768 50.2725 114.447 50.2725 114.973 50.2843C116.366 50.3194 117.759 50.5656 119.152 50.5891C120.521 50.6125 123.025 50.847 125.542 51.2456" stroke="black" stroke-width="0.5" stroke-miterlimit="10"/>
<path d="M117.045 47.025C117.536 46.9898 118.239 46.9546 119.093 46.9546C120.451 46.9312 121.129 46.9312 121.75 47.025C122.475 47.1422 123.669 47.494 125.015 48.7015" stroke="black" stroke-width="0.5" stroke-miterlimit="10"/>
<path d="M119.093 42.8278C119.526 42.7223 120.181 42.6285 120.918 42.8278C121.656 43.0271 121.82 43.3319 122.896 43.8947C123.376 44.1409 124.137 44.5278 125.097 44.7271C125.623 44.8326 126.431 44.9381 127.449 44.7974" stroke="black" stroke-width="0.5" stroke-miterlimit="10"/>
<path d="M115.219 31.2562C115.769 32.0534 116.085 32.7569 116.284 33.2376C116.811 34.5506 117.221 36.3327 117.267 36.5906C117.349 36.9541 117.443 37.4347 117.724 38.0327C117.934 38.4899 118.075 38.8416 118.403 39.1699C118.59 39.3575 118.859 39.592 119.69 39.8499C120.673 40.1547 121.352 40.1547 121.972 40.2251C122.721 40.3189 123.482 40.612 125.015 41.2099C126.431 41.7726 126.841 42.0188 128.28 42.6519C129.603 43.2381 131.428 44.0354 133.675 44.7036C134.635 44.985 135.817 45.2898 137.175 45.536" stroke="black" stroke-width="0.5" stroke-miterlimit="10"/>
<path d="M85.4223 35.8989C85.2935 35.4065 85.1882 34.7499 85.2701 33.9996C85.3286 33.4837 85.3754 33.0734 85.6446 32.9327C86.0542 32.7217 86.7915 33.2024 87.1661 33.7651C87.5757 34.3982 87.4937 35.0548 87.6225 35.0548C87.7629 35.0548 87.798 34.2575 88.231 33.2258C88.5236 32.5341 88.7226 32.0651 89.062 32.0065C89.612 31.9127 90.3494 32.8975 90.5015 33.8355C90.56 34.1755 90.5366 34.4686 90.5015 34.6679" stroke="black" stroke-width="0.5" stroke-miterlimit="10"/>
<path d="M95.23 35.8286C95.4172 36.0279 95.6981 36.3327 96.0609 36.661C96.7982 37.3527 97.6174 38.103 98.7995 38.6423C99.2793 38.8651 100.017 39.1347 101 39.252" stroke="black" stroke-width="0.5" stroke-miterlimit="10"/>
<path d="M81.0923 45.5712C81.4083 45.1843 81.97 44.5981 82.8361 44.2816C83.3744 44.0822 83.8426 44.0588 84.5096 44.0588C86.0779 44.0588 87.0493 44.1995 88.0792 44.2816C89.8815 44.434 90.7826 44.5043 91.6487 44.2816C92.386 44.094 93.5212 43.625 94.6915 42.3002" stroke="black" stroke-width="0.5" stroke-miterlimit="10"/>
<path d="M86.9438 48.7719C87.0258 48.6077 87.2715 48.174 87.7748 47.9395C87.9152 47.8691 88.6057 47.5526 89.1441 47.9395C89.5186 48.2091 89.5888 48.6664 89.6005 48.7719" stroke="black" stroke-width="0.5" stroke-miterlimit="10"/>
<path d="M81.5484 18.5474C81.0452 19.0632 80.3313 19.8136 79.5004 20.7515C77.6161 22.8735 76.6682 23.9287 75.9308 25.1714C75.1701 26.4376 75.4393 26.4845 73.8009 31.2679C72.6773 34.5389 72.2092 35.5354 71.9049 36.1451C70.9101 38.103 70.2079 39.463 68.7099 40.3306C67.4811 41.0457 66.7789 40.823 65.2106 41.245C63.1977 41.7843 61.9922 42.7926 59.7335 44.5981C56.9481 46.8257 55.4969 47.9746 54.5606 50.1553C53.7765 51.9842 53.6244 53.8835 53.5775 54.5752C53.4839 55.8062 54.0574 56.5566 53.6478 57.6235C53.3786 58.3386 52.9807 58.5731 51.9742 59.6048C51.1667 60.4372 50.6517 61.0703 49.6218 62.3482C48.0419 64.2944 47.2578 65.2792 46.9652 66.4634C46.8364 66.9792 46.4268 68.7378 47.3397 70.4964C47.5386 70.8716 48.0653 71.8681 49.1654 72.4778C50.5347 73.2398 51.822 72.8647 54.1861 72.5481C55.5554 72.3723 57.463 72.1847 59.8154 72.173" stroke="black" stroke-width="0.5" stroke-miterlimit="10"/>
<path d="M73.567 26.9183C72.9936 27.7976 72.1392 29.0052 70.9806 30.3417C68.9208 32.7334 67.0366 34.2341 64.7427 36.0513C62.4255 37.8803 61.2669 38.7947 59.4997 39.7795C56.9952 41.1747 56.211 41.1044 54.1747 42.523C52.3958 43.7657 51.2722 45.0084 50.3009 46.0988C49.6221 46.8608 48.2294 48.4905 46.4271 51.5035C44.1215 55.3607 44.2151 56.369 42.8576 58.5848C41.6755 60.5193 39.5689 63.0751 35.5664 65.3613" stroke="black" stroke-width="0.5" stroke-miterlimit="10"/>
<path d="M64.8949 38.0327C63.9703 38.912 62.683 40.0375 61.0211 41.1513C59.0315 42.4878 58.3293 42.605 56.0004 44.1995C54.1044 45.5009 53.1214 46.1809 52.1266 47.4705C51.401 48.4084 51.0148 49.2408 50.2307 50.8939C49.3178 52.8284 48.9316 54.0125 48.5571 54.927C47.9134 56.5214 46.7548 58.7138 44.4492 61.1759" stroke="black" stroke-width="0.5" stroke-miterlimit="10"/>
<path d="M51.6703 57.4476C50.4298 59.0186 49.353 60.2262 48.6274 61.0235C47.855 61.8676 47.3752 62.36 45.8187 63.9896C44.6249 65.2324 43.6769 66.2524 43.0801 66.8855" stroke="black" stroke-width="0.5" stroke-miterlimit="10"/>
<path d="M82.087 18.055C81.2444 18.1605 78.4356 18.5356 77.2184 19.2977C75.8491 20.1536 75.2523 21.1618 73.8713 23.108C72.6424 24.8432 71.2146 26.7307 70.3018 27.8328C68.3941 30.1072 66.5684 31.4789 65.1289 32.5576C62.2148 34.7382 61.2902 34.7382 56.012 37.6575C51.4595 40.1782 49.1773 41.4326 47.5037 43.1443C45.9472 44.7271 43.5129 47.2008 42.4128 50.9056C42.0851 52.0311 41.9213 53.1097 41.1254 54.7863C40.8563 55.3607 40.0136 57.049 38.3166 58.9717C37.6496 59.7338 36.4558 60.9648 32.6171 63.5441C29.4806 65.6427 27.9124 66.6979 25.8526 67.6592C20.984 69.922 16.9113 70.3206 16.8879 71.7744C16.8879 71.8799 17.0166 72.1495 17.2624 72.6888C17.7188 73.6619 18.2338 74.7522 18.7838 75.4322C19.8137 76.7102 21.382 77.0736 22.2012 77.2612C24.6121 77.8239 25.2558 76.7688 28.439 77.2612C29.4923 77.4253 30.0892 77.6481 31.0957 78.0233C32.3128 78.4688 33.1321 78.7853 33.1438 79.2425C33.1672 79.817 31.8096 80.2977 31.4 80.4618C28.2518 81.6694 27.6315 83.9087 21.2883 89.5245C17.356 93.0065 17.6252 92.1155 14.9803 94.7065C12.4992 97.1334 11.6916 98.4699 9.43289 99.2789C7.25607 100.053 5.17288 100.498 5.17288 100.498C3.87382 100.78 3.17162 100.838 2.28217 101.413C1.79063 101.729 0.678815 102.456 0.386232 103.851C0.0702429 105.34 0.912881 106.536 1.06502 106.747C1.47464 107.298 1.697 107.263 2.58645 107.966C2.89074 108.213 4.29514 109.338 5.2431 110.933C5.61761 111.554 5.83997 112.257 6.3081 113.676C7.20926 116.443 7.0103 116.841 7.67739 117.709C8.75409 119.092 10.3926 119.515 10.4862 119.538C11.9374 119.89 12.6045 119.28 14.36 119.843C14.9334 120.03 15.0973 120.171 15.7293 120.3C16.4783 120.452 17.5199 120.663 18.3157 120.077C18.8423 119.69 19.2988 118.905 19.0764 118.33C19.0179 118.178 18.8306 117.838 17.1805 117.416C15.2494 116.924 14.6292 117.17 13.8333 116.584C13.1779 116.103 12.9205 115.435 12.7683 115.059C12.5109 114.391 12.3236 113.418 12.9907 111.026C13.4705 109.315 13.8567 107.919 14.8866 106.384C15.659 105.223 16.5017 104.426 20.5861 101.659C23.2428 99.8533 24.577 98.9506 26.4378 97.8485C27.5379 97.192 30.6042 95.41 34.8759 93.4286C39.0891 91.4824 41.1957 90.5093 43.3842 90.0052C45.4674 89.5245 47.5271 88.9266 49.622 88.4811C51.1435 88.1528 52.1734 87.9652 53.1915 87.1094C53.882 86.5349 54.7247 85.5032 55.3215 84.2956C55.7077 83.4984 55.778 83.0646 56.3046 82.3963C56.8781 81.6811 57.4984 81.306 57.9782 81.0246C60.4125 79.5943 61.653 79.1136 62.9989 78.2812C63.6894 77.8591 64.6959 77.1557 65.8077 76.0771" stroke="black" stroke-width="0.5" stroke-miterlimit="10"/>
<path d="M11.0012 101.542C10.9193 101.506 10.1001 101.096 9.25742 101.542C8.46159 101.964 8.29774 102.784 8.27434 102.913C8.19242 103.347 8.28604 103.711 8.34456 103.898" stroke="black" stroke-width="0.5" stroke-miterlimit="10"/>
<path d="M36.7015 83.6508C36.3153 84.1432 35.7418 84.7997 34.9577 85.4797C33.3544 86.8514 31.8212 87.4845 30.9318 87.8363C29.9253 88.2349 28.4507 88.7156 26.6016 88.9031" stroke="black" stroke-width="0.5" stroke-miterlimit="10"/>
<path d="M25.4194 67.8468C25.6067 68.0579 26.0865 68.6441 26.4376 69.031C28.0527 70.813 28.1112 70.9771 28.4857 71.2351C29.3283 71.8213 30.2178 71.833 31.6807 71.8447C33.7639 71.8682 34.1852 71.2937 35.4024 71.6923C36.2216 71.962 36.7131 72.4309 37.4504 73.1344C38.0707 73.7323 39.1006 75.1626 39.8496 76.7336" stroke="black" stroke-width="0.5" stroke-miterlimit="10"/>
<path d="M33.1201 79.2308C33.7287 78.926 35.6363 78.2226 36.6896 77.8591C37.661 77.5191 38.8547 77.1088 40.4113 76.9447C42.4477 76.7336 43.1616 77.144 43.6765 76.5695C43.9808 76.2295 43.8755 75.9247 43.8989 73.9081C43.9223 72.513 43.934 71.8095 44.051 71.1647C44.1914 70.3792 44.5425 69.2889 45.4905 68.0461" stroke="black" stroke-width="0.5" stroke-miterlimit="10"/>
<path d="M43.9106 74.3536C44.133 74.6585 45.4789 75.7253 45.5842 76.335C45.7013 76.9798 45.5491 77.2729 45.7364 77.6246C45.9587 78.0467 46.4971 78.2812 47.4802 78.3867C49.3176 78.5743 50.8273 78.117 51.2018 78.0115C51.4593 77.9295 53.2733 77.6598 56.9013 77.0971C58.9728 76.7805 60.424 76.6281 63.2094 76.335C64.8713 76.1591 67.3641 76.1474 69.6345 75.9833" stroke="black" stroke-width="0.5" stroke-miterlimit="10"/>
<path d="M59.8037 72.1495C60.4474 72.0792 62.238 71.8213 63.5254 71.6923C65.2223 71.5164 66.9544 71.7275 68.6163 71.3875C69.0025 71.3054 69.576 71.1764 69.8334 71.4578C70.1143 71.7626 69.8334 72.3254 69.6813 73.2868C69.5409 74.1192 69.9154 76.7102 69.9505 77.1674" stroke="black" stroke-width="0.5" stroke-miterlimit="10"/>
<path d="M46.8016 93.3934C46.4622 93.8624 45.8887 94.601 45.0578 95.3748C43.2555 97.0396 42.1203 97.1568 38.7497 99.1851C37.4858 99.9471 37.8135 99.8299 35.3324 101.389C33.1906 102.737 32.1139 103.417 31.3064 103.828C28.4742 105.27 26.1336 106.184 26.1336 106.184C25.2792 106.524 24.027 106.993 24.0855 107.404C24.1206 107.72 24.8813 107.638 25.525 108.318C25.9112 108.717 26.3091 109.432 26.1336 110.065C26.0048 110.534 25.6888 110.569 25.2207 111.202C24.8111 111.777 24.6589 112.304 24.5419 112.726C24.1908 113.969 24.4015 115.036 24.5419 115.775C24.6472 116.29 24.9632 117.662 25.9814 119.128C26.4847 119.855 27.2922 120.98 28.72 121.484C29.1179 121.625 29.7265 121.848 30.0893 121.554C30.6978 121.074 30.1244 119.538 30.4638 119.421C30.6627 119.35 30.8383 119.866 31.6809 120.406C31.9267 120.558 32.3597 120.558 32.3597 120.558C32.3597 120.558 32.6055 119.479 32.5119 118.272C32.4182 117.099 32.0671 116.22 31.8331 115.61C31.3181 114.333 30.9787 114.403 30.6978 113.477C30.6276 113.266 30.1127 111.472 31.0021 110.276C31.482 109.631 32.1139 109.502 33.1321 109.139C33.3194 109.068 32.7108 109.291 37.3102 107.005C42.1203 104.625 41.5936 104.977 43.3959 104.039C47.0942 102.104 47.3516 101.635 49.1774 101.143C49.8913 100.944 50.4062 100.873 53.964 100.615C58.2942 100.299 60.471 100.135 61.0328 100.158C63.8416 100.252 66.6621 100.275 69.4709 100.381C69.7518 100.381 70.3955 100.416 71.0625 100.076C71.7881 99.7009 72.0573 99.1499 72.502 98.6341C72.7829 98.3175 73.2042 97.9189 75.2406 97.0396C77.7334 95.9493 78.9857 95.41 80.5656 95.1403C82.6488 94.7886 83.4212 95.1872 86.2651 95.3631C87.927 95.4686 91.3093 94.812 94.3989 94.3782" stroke="black" stroke-width="0.5" stroke-miterlimit="10"/>
<path d="M46.6846 93.5693C46.9069 93.1941 48.3464 91.8458 48.639 91.4121C48.9316 90.9783 48.9901 90.7438 49.2476 90.65C49.5285 90.5445 49.7508 90.7203 50.3828 91.0252C51.1903 91.4238 51.8106 91.7169 52.5128 91.7052C52.9107 91.7052 53.1916 91.6114 53.5778 91.4824C54.2917 91.2362 54.713 90.9079 55.4035 90.4155C56.1057 89.9114 56.7026 89.4893 57.2995 89.1259C58.2357 88.5631 58.856 88.1762 59.7338 87.9886C61.2669 87.6369 61.9691 88.2231 62.6947 87.6135C62.9171 87.4259 63.0224 87.2383 63.3735 86.3238C64.0289 84.6473 64.1108 84.2018 64.3566 83.5804C65.2694 81.388 67.1888 79.9694 67.4696 79.7701C67.9612 79.4184 68.4176 79.1722 68.9911 78.5508C69.2954 78.2108 69.7752 77.6246 70.1263 76.8039C70.3369 76.3233 70.4891 75.7957 70.6529 74.1426C70.8987 71.7157 70.6529 71.8212 70.8753 70.7192C71.2498 68.9137 71.9637 68.2571 71.5541 67.6709C71.2264 67.1903 70.3838 67.0847 69.8103 67.2958C69.1783 67.5185 69.2017 67.9758 68.2889 68.8902C67.7622 69.4178 67.1068 70.0626 66.1589 70.1799C65.8897 70.2151 65.363 70.2854 64.9417 69.9571C64.3332 69.4764 64.4736 68.5268 64.4853 68.433C64.5789 67.8703 64.8949 67.4951 65.0939 67.2958C66.1706 66.1351 67.4345 65.4786 68.1367 65.0917C69.7869 64.1772 69.3773 64.1772 71.0977 63.1924C72.7244 62.2545 73.9884 61.7503 76.1184 60.9062C78.3537 60.0152 79.4772 59.5697 80.8348 59.2297C83.117 58.6552 84.9427 58.5497 86.312 58.4676C86.8386 58.4442 88.6994 58.3504 91.2508 58.5379C93.3339 58.7021 97.196 59.0304 101.737 60.7421C102.966 61.211 104.277 61.7034 105.915 62.6413C108.443 64.0951 108.642 64.822 110.327 65.3848C112.106 65.9827 113.616 65.7482 115.875 65.3848C116.378 65.3027 121.562 64.4586 121.574 63.1807C121.574 62.4655 119.971 61.8793 119.374 61.6565C118.847 61.4689 117.946 61.1407 116.869 61.3517C116.085 61.5041 115.605 61.8558 114.891 62.3365C114.096 62.8876 111.615 64.4 110.093 65.3027" stroke="black" stroke-width="0.5" stroke-miterlimit="10"/>
<path d="M103.972 41.3154C103.609 41.9837 103.176 42.3471 102.907 42.5347C102.17 43.0506 101.374 43.1443 100.777 43.2147C100.051 43.3085 100.005 43.1912 99.5598 43.285C98.7406 43.4726 98.2608 43.9768 97.6639 44.5747C95.6977 46.5326 95.9435 46.005 95.0073 47.0836C93.439 48.8891 93.6497 49.3463 92.7251 49.745C91.9644 50.085 91.309 50.0029 90.3727 50.6594C90.1738 50.8001 89.9397 50.9877 89.5418 51.187C89.1439 51.3863 88.8747 51.4449 88.1725 51.6442C87.166 51.9256 86.6628 52.0546 86.3468 52.1718C85.7499 52.3946 85.7733 52.4532 84.9775 52.7815C84.1115 53.1332 83.6785 53.3091 83.3859 53.3091C82.4028 53.3091 82.3326 52.4415 81.1037 52.0194C80.3547 51.7615 80.2728 52.0546 77.9906 51.9491C77.148 51.9139 76.715 51.8905 76.4692 51.7967C75.1701 51.3043 74.5499 49.8974 74.1871 49.0532C73.953 48.5257 74.07 48.6312 73.5083 46.7671C73.0284 45.1843 72.9114 45.0085 72.6773 44.1057C72.6071 43.8478 72.3262 42.7926 72.1507 41.4444C71.9986 40.3306 71.8698 38.7947 71.9986 36.9541" stroke="black" stroke-width="0.5" stroke-miterlimit="10"/>
<path d="M58.891 50.0615C58.493 50.3194 57.9196 50.7767 57.4515 51.5035C56.8429 52.4415 56.7141 53.3559 56.6205 54.1649C56.4801 55.267 56.6556 55.3256 56.6205 56.9083C56.5854 58.3035 56.562 59.2414 56.1641 60.3317C55.9183 61.0234 55.5906 61.5276 54.9469 62.5358C54.2682 63.591 53.5777 64.4703 53.4255 64.6696C52.8052 65.4551 52.4541 65.7951 51.986 66.5689C51.7051 67.0379 51.5062 67.4365 51.3774 67.7061" stroke="black" stroke-width="0.5" stroke-miterlimit="10"/>
<path d="M61.9338 49.2994C61.7232 49.9325 61.454 50.8118 61.1731 51.8904C61.0561 52.3477 60.5411 54.3056 60.1081 57.1428C59.8389 58.8897 59.6985 59.769 59.6517 61.0234C59.5815 62.7351 59.6985 64.1186 59.8038 65.291C59.9091 66.5337 60.0613 67.5772 60.1783 68.3392" stroke="black" stroke-width="0.5" stroke-miterlimit="10"/>
<path d="M63.7598 49.5339C63.8183 50.1553 63.9119 51.1401 63.9821 52.3477C64.1343 54.6339 64.2045 56.7676 64.2045 56.7676C64.2396 57.8111 64.4503 58.8428 64.4269 59.8862C64.4269 60.5193 64.3683 61.0586 64.7311 61.4807C64.8716 61.6448 65.2344 61.9848 66.2526 62.0083C67.8208 62.0552 68.7103 61.2814 70.2785 60.6366C71.9638 59.9449 73.2511 59.8511 73.6959 59.8042C74.4566 59.7221 75.0886 59.7104 75.5216 59.7338" stroke="black" stroke-width="0.5" stroke-miterlimit="10"/>
<path d="M68.0078 43.5898C68.0429 44.2581 68.1014 45.2547 68.16 46.4857C68.2536 48.3967 68.2653 49.1236 68.3823 50.3663C68.4525 51.1401 68.5696 52.1249 68.8387 53.3325C69.225 55.0676 69.5409 55.4663 69.8218 55.689C70.407 56.158 71.0858 56.158 71.9518 56.1463C73.5552 56.1345 74.1052 55.5835 75.9778 55.4663C76.5278 55.4311 76.9842 55.4428 77.2651 55.4663" stroke="black" stroke-width="0.5" stroke-miterlimit="10"/>
<path d="M77.5112 53.8718C78.5177 53.8484 79.255 53.8249 79.7934 53.8015C80.0743 53.7897 80.32 53.778 80.6243 53.8718C81.1744 54.0594 81.3148 54.4228 81.7595 54.7042C81.9585 54.8332 82.2394 54.9504 83.281 55.009C84.5449 55.0794 85.2003 55.1146 86.0195 54.9387C86.9909 54.7159 87.2952 54.3877 89.1326 53.3442C90.1391 52.7698 90.9817 52.336 91.5669 52.0546" stroke="black" stroke-width="0.5" stroke-miterlimit="10"/>
<path d="M89.6824 54.4111C89.3781 54.7159 89.0504 55.0207 88.6993 55.3256C87.8333 56.0759 86.9789 56.6738 86.1948 57.1545" stroke="black" stroke-width="0.5" stroke-miterlimit="10"/>
<path d="M95.148 52.8049C94.7033 52.8284 94.0596 52.9222 93.4744 53.3325C92.8541 53.7663 92.6552 54.2939 92.187 55.009C91.8359 55.5483 91.2625 56.287 90.3613 57.0607" stroke="black" stroke-width="0.5" stroke-miterlimit="10"/>
<path d="M91.5781 50.1436C92.2686 50.0967 94.3401 50.9994 95.5338 51.1284C95.9903 51.187 97.7224 51.398 100.402 52.418C101.877 52.9808 101.725 53.0629 104.054 54.0946C106.734 55.2787 107.237 55.3139 109.145 56.2283C110.011 56.6387 113.101 58.3504 114.657 59.3235" stroke="black" stroke-width="0.5" stroke-miterlimit="10"/>
<path d="M98.4131 52.887C98.0971 53.0746 97.6407 53.3911 97.1959 53.8718C96.7863 54.3173 96.6108 54.6573 96.0607 55.4663C95.8384 55.7945 95.499 56.2752 95.0776 56.838" stroke="black" stroke-width="0.5" stroke-miterlimit="10"/>
<path d="M100.391 53.4146C99.9698 53.5201 99.3729 53.7194 98.7994 54.1766C98.2728 54.587 98.0153 55.009 97.6642 55.5483C97.2663 56.1463 96.6928 57.0021 95.9204 58.0573" stroke="black" stroke-width="0.5" stroke-miterlimit="10"/>
<path d="M126.197 16.9295C125.729 17.6329 124.851 19.0046 124.558 19.4501C123.903 20.4701 123.563 20.986 123.493 21.1267C123.013 22.0763 123.002 22.4749 122.662 22.5687C122.206 22.6977 121.644 22.1467 121.293 21.8067C120.661 21.1853 120.544 20.7046 120.31 20.7398C120.076 20.7749 120.099 21.2674 119.701 22.2639C119.467 22.8618 119.479 22.9673 119.093 23.5535C118.777 24.0342 117.724 24.9956 117.642 25.3004" stroke="black" stroke-width="0.5" stroke-miterlimit="10"/>
<path d="M151.054 50.3429C151.604 49.5574 152.845 47.6932 154.062 46.3333C156.929 43.1326 158.03 43.0857 159.457 40.694C160.007 39.7913 160.909 38.0209 161.658 36.3561C162.301 34.9258 162.723 33.8237 163.706 33.5424C164.256 33.3782 164.864 33.5072 165.449 33.0148C165.812 32.71 165.8 32.4872 166.058 32.1824C166.936 31.1272 169.311 31.0217 170.166 32.03C170.412 32.3348 170.482 32.71 170.622 33.472C170.845 34.703 170.599 35.2189 170.997 35.6058C171.336 35.9341 171.664 35.7113 172.132 36.063C172.67 36.4734 172.787 37.1651 172.811 37.3527C173.021 38.6775 171.875 39.3223 171.219 41.0809C170.962 41.7726 170.915 42.605 170.845 44.2816C170.728 46.8491 171.067 47.1774 170.915 49.4636C170.868 50.1905 170.868 49.698 170.458 52.969C170.458 52.969 170.295 54.329 170.084 57.2366C170.002 58.3973 169.979 58.9483 170.154 59.6752C170.4 60.6365 170.751 60.8476 171.137 61.7269C171.956 63.5675 171.079 64.06 171.746 65.7599C172.343 67.2841 173.162 67.1551 173.946 69.0309C174.285 69.8516 174.391 70.4964 174.555 71.4695C174.695 72.3488 174.789 73.3102 174.777 75.4322C174.777 77.3432 174.765 78.7384 174.555 80.6846C174.309 82.9122 174.192 84.0142 173.724 85.1045C173.01 86.7459 171.98 87.7424 170.681 88.9852C168.832 90.7438 168.364 90.5914 165.894 92.6431C164.291 93.9796 163.12 94.941 161.938 96.6058C160.955 97.9892 160.464 99.1499 159.738 100.873C159.352 101.776 159.106 102.82 158.603 104.906C158.427 105.645 158.299 106.219 158.603 106.501C159.071 106.935 160.3 106.431 160.885 106.196C161.634 105.891 161.622 105.739 162.172 105.586C163.179 105.317 164.045 105.586 164.302 105.657C165.028 105.903 165.344 106.278 165.894 106.724C166.631 107.31 167.427 107.615 169.007 108.248C169.862 108.588 171.406 109.186 173.49 109.537C174.999 109.795 175.596 109.725 176.755 110.217C177.668 110.616 178.311 110.897 178.733 111.589C179.306 112.55 178.768 113.184 179.493 114.555C179.727 114.989 179.915 115.188 179.95 115.622C179.997 116.22 179.692 116.701 179.341 117.217C178.99 117.744 178.51 118.459 177.668 118.893C176.755 119.362 175.877 119.257 175.233 119.198C173.49 119.046 171.734 119.303 169.99 119.198C169.663 119.174 167.474 119.163 163.074 119.128C156.122 119.069 156.894 119.221 152.74 119.128C148.866 119.034 148.48 118.905 146.958 119.128C145.495 119.339 144.524 119.667 142.932 119.432C141.856 119.28 142.195 119.116 139.819 118.448C138.356 118.037 136.94 117.475 135.489 117.006C135.15 116.888 134.506 116.689 134.506 116.396C134.506 116.103 135.138 115.868 135.337 115.786C135.98 115.54 136.484 115.564 137.081 115.564C138.661 115.54 139.456 115.528 140.123 115.188C140.697 114.895 140.943 114.544 141.341 114.661C141.657 114.755 141.692 115.036 142.253 115.423C142.523 115.61 142.768 115.775 143.084 115.798C143.494 115.833 143.763 115.61 144.454 115.118C145.367 114.461 145.811 114.133 146.045 114.051C146.666 113.828 147.157 113.981 148.093 114.204C148.093 114.204 148.152 114.215 151.359 114.813C152.283 114.989 152.728 114.954 155.841 114.813C159.387 114.661 161.154 114.579 161.997 114.59C163.366 114.59 163.682 114.649 167.088 114.813C169.37 114.93 171.219 115.001 172.413 115.036" stroke="black" stroke-width="0.5" stroke-miterlimit="10"/>
<path d="M138.86 96.3596C138.696 97.5086 138.556 99.0444 138.556 100.85C138.556 103.546 138.907 105.598 139.082 106.56C139.492 108.728 139.714 109.889 140.522 111.284C141.4 112.785 143.354 114.778 144.126 115.341" stroke="black" stroke-width="0.5" stroke-miterlimit="10"/>
<path d="M167.1 91.6935C167.954 92.5259 168.715 93.1472 169.3 93.5927C170.915 94.8238 171.723 95.4451 172.718 95.6444C173.268 95.7617 173.712 95.75 174.309 96.1017C174.602 96.2775 174.941 96.5706 175.597 97.1686C176.334 97.8368 176.264 97.8134 176.427 97.9306C177.095 98.3761 177.703 98.2941 178.71 98.3879C179.318 98.4465 179.061 98.4699 181.062 98.8451C181.483 98.9272 182.864 99.1851 185.778 99.6072C188.845 100.053 190.378 100.275 190.869 100.287C193.198 100.346 194.111 99.9823 196.265 100.44C196.803 100.557 197.552 100.709 198.465 101.12C199.565 101.612 199.998 102.057 201.508 103.101C202.701 103.922 202.526 103.722 204.246 104.848C204.621 105.094 205.99 106.008 207.745 107.286C210.25 109.115 210.437 109.432 211.467 109.795C211.982 109.983 212.556 110.124 213.515 110.557C214.018 110.78 214.65 111.073 215.341 111.542C216.289 112.199 216.383 112.562 217.541 113.746C218.501 114.731 219.613 115.669 221.111 117.404C221.403 117.732 221.778 118.178 221.637 118.541C221.473 118.987 220.654 119.139 220.046 119.069C219.285 118.999 219.215 118.635 217.998 118.084C217.225 117.732 216.628 117.463 215.797 117.404C215.095 117.346 214.826 117.498 214.428 117.252C213.948 116.959 213.749 116.408 213.597 115.962C213.328 115.2 213.609 114.872 213.375 114.673C212.965 114.321 212.158 115.13 211.022 115.048C210.285 115.001 209.782 114.602 209.349 114.286C209.349 114.286 207.687 113.055 202.807 109.795C201.695 109.057 202.339 109.549 198.324 107.134C197.95 106.911 197.423 106.583 196.651 106.302C195.317 105.797 194.193 105.727 193.608 105.692C189.875 105.493 188.014 105.387 187.826 105.387C184.608 105.34 182.209 105.188 180.453 105.082C176.767 104.848 174.929 104.731 174.297 104.473C173.467 104.133 172.296 103.5 170.95 103.863C170.318 104.039 170.108 104.297 169.359 104.695C168.61 105.094 166.363 105.68 164.748 105.821" stroke="black" stroke-width="0.5" stroke-miterlimit="10"/>
<path d="M213.562 115.786C214.288 115.247 216.453 115.364 216.991 115.329C217.354 115.306 219.18 115.786 219.18 115.352" stroke="black" stroke-width="0.5" stroke-miterlimit="10"/>
<path d="M142.652 115.634C142.652 116.595 141.107 118.553 140.206 118.553" stroke="black" stroke-width="0.5" stroke-miterlimit="10"/>
<path d="M76.6567 96.4299C76.2471 96.5472 74.8661 98.0009 74.0936 98.7982C73.1691 99.7478 72.9584 100.826 72.8765 101.237C72.7595 101.858 72.502 103.253 73.3329 104.355C73.9415 105.164 74.8193 105.411 75.381 105.575C76.5045 105.891 77.2067 105.704 78.3419 105.645C79.2665 105.598 80.4368 105.797 82.7541 106.173C84.6149 106.477 85.9725 106.806 87.4705 107.157C88.1844 107.333 88.3834 107.38 92.5615 108.529C97.5471 109.889 98.1673 110.053 98.8695 110.581C99.3143 110.909 99.876 111.202 101 111.8C101.538 112.081 101.83 112.222 102.217 112.175C102.755 112.117 102.825 111.777 103.656 111.343C104.078 111.12 104.674 110.815 105.4 110.886C105.763 110.921 106.009 111.026 106.383 111.19C106.898 111.413 107.39 111.624 107.67 112.105C107.893 112.48 107.776 112.644 107.975 112.867C108.267 113.207 108.817 113.113 109.719 113.019C110.35 112.961 110.982 112.926 111.614 112.867C112.656 112.785 113.452 112.832 115.032 112.937C116.623 113.043 117.209 113.172 117.384 112.867C117.63 112.445 116.893 111.613 116.858 111.577C116.389 111.061 116.015 111.038 114.423 110.44C112.691 109.784 112.071 109.42 111.614 109.068C111.474 108.963 111.193 108.74 111.029 108.599C110.222 107.955 110.046 107.779 109.648 107.462C109.005 106.958 108.455 106.653 108.127 106.477C107.67 106.219 107.027 105.856 106.301 105.645C105.213 105.317 104.628 105.504 103.188 105.493C103.188 105.493 102.182 105.493 100.075 105.188C97.5588 104.824 97.3949 104.179 94.0712 103.206C90.8996 102.28 89.3079 101.811 87.9855 101.764C87.2131 101.729 86.0427 101.753 85.7853 101.155C85.5512 100.627 86.1481 99.8768 86.3938 99.5602C86.979 98.8099 87.6578 98.4582 88.2898 98.1182C91.5667 96.383 91.2039 96.5003 91.555 96.3713C92.5381 95.9961 95.2415 95.0699 97.2662 94.9996" stroke="black" stroke-width="0.5" stroke-miterlimit="10"/>
<path d="M106.395 111.214C106.746 110.956 108.092 109.678 108.899 109.467C109.578 109.291 111.544 109.268 111.942 109.303" stroke="black" stroke-width="0.5" stroke-miterlimit="10"/>
<path d="M94.3872 94.3782C95.698 94.2493 96.5406 94.5541 97.0439 94.8355C98.0503 95.3982 98.144 96.0665 99.326 96.7348C100.098 97.1686 100.391 97.063 101.456 97.4148C102.1 97.6258 102.743 97.9189 104.803 99.2437C106.559 100.381 107.284 100.932 108.607 101.835C109.847 102.679 110.058 102.761 112.715 104.426C117.852 107.638 117.56 107.638 119.257 108.541C120.626 109.268 122.417 110.206 124.956 110.979C125.974 111.284 127.589 111.765 129.743 111.964C131.416 112.117 132.037 111.976 134.611 111.964C135.829 111.964 138.696 111.964 140.92 112.117" stroke="black" stroke-width="0.5" stroke-miterlimit="10"/>
<path d="M169.183 32.4755C169.183 32.7451 169.16 33.2024 168.961 33.6948C168.598 34.5741 167.919 35.0196 167.591 35.2189C167.322 35.383 166.866 35.6293 166.222 35.7465" stroke="black" stroke-width="0.5" stroke-miterlimit="10"/>
<path d="M165.684 32.8507C165.66 32.9093 165.543 33.5189 165.684 33.8355C165.871 34.2693 166.327 34.3631 166.362 34.3631" stroke="black" stroke-width="0.5" stroke-miterlimit="10"/>
<path d="M170.927 36.5085C170.927 36.7782 170.927 37.1768 170.927 37.6458C170.927 38.572 170.915 39.0292 170.857 39.3223C170.74 39.8499 170.552 40.2016 170.178 40.9168C169.92 41.3975 169.675 41.7843 169.499 42.054" stroke="black" stroke-width="0.5" stroke-miterlimit="10"/>
<path d="M157.245 48.7015C156.801 49.1353 156.438 49.4987 156.18 49.7684C155.747 50.2139 155.045 50.9525 154.203 51.9725C153.84 52.4063 153.559 52.7815 153.372 53.0394" stroke="black" stroke-width="0.5" stroke-miterlimit="10"/>
<path d="M162.044 47.6346C161.81 47.9277 161.435 48.385 160.979 48.9243C159.762 50.3663 159.586 50.4836 159.387 50.976C158.907 52.1249 159.153 53.1918 159.235 53.4849C159.376 54.0359 159.563 54.7746 160.066 54.927C160.792 55.1497 161.95 54.0828 162.196 52.9456C162.418 51.8905 161.892 50.5187 161.892 50.507" stroke="black" stroke-width="0.5" stroke-miterlimit="10"/>
<path d="M168.2 52.3477C168.024 52.758 167.767 53.3208 167.369 53.9421C166.878 54.7159 166.363 55.5366 165.391 56.2283C164.537 56.838 163.741 57.0607 163.191 57.2131C162.629 57.3773 161.857 57.5883 160.839 57.518C160.382 57.4828 159.352 57.4125 158.252 56.7559C157.047 56.0407 156.45 55.0325 156.204 54.5518" stroke="black" stroke-width="0.5" stroke-miterlimit="10"/>
<path d="M153.302 61.0352C153.524 60.6483 153.992 59.9683 154.823 59.4407C155.174 59.218 155.947 58.749 157.023 58.7607C157.749 58.7607 158.311 58.9952 158.615 59.1359" stroke="black" stroke-width="0.5" stroke-miterlimit="10"/>
<path d="M157.48 60.191C157.246 60.191 156.567 60.191 156.11 60.6483C155.794 60.9765 155.736 61.3869 155.654 62.0903C155.584 62.7469 155.654 62.9696 155.654 63.9896C155.654 64.9627 155.666 65.4434 155.584 65.8186C155.385 66.651 154.928 67.4247 154.753 67.7178C154.367 68.3627 154.121 68.5971 154.226 68.7847C154.413 69.113 155.513 68.8082 155.595 68.7847C156.485 68.5268 156.965 68.0813 158.1 67.1082C159.972 65.5255 160.008 65.6193 160.382 65.1268C161.084 64.1889 161.389 63.2393 161.517 62.6179" stroke="black" stroke-width="0.5" stroke-miterlimit="10"/>
<path d="M165.766 60.4959C166.128 60.5662 166.702 60.7538 167.053 61.2579C167.229 61.5159 167.299 61.7621 167.357 62.9345C167.416 63.9427 167.416 64.7165 167.427 65.3731C167.439 66.0531 167.474 66.6275 167.498 67.0496" stroke="black" stroke-width="0.5" stroke-miterlimit="10"/>
<path d="M151.172 50.1436C150.926 50.5422 150.598 51.1401 150.341 51.8905C149.884 53.2153 149.884 54.2939 149.884 55.5484C149.884 57.0256 149.884 58.2097 150.341 59.6635C150.914 61.5276 151.499 61.5041 152.084 63.5441C152.178 63.8841 152.506 65.08 152.541 66.6627C152.564 67.8703 152.588 68.8903 152.014 70.0158C151.815 70.4027 151.406 71.1765 150.575 71.6923C149.615 72.2785 148.644 72.2082 147.614 72.1495C147.614 72.1495 146.268 72.0792 142.066 72.1495C139.574 72.1964 137.654 72.6068 136.975 72.7592C135.747 73.0406 133.008 73.6971 130.059 75.5026C128.21 76.6281 127.835 77.2612 126.641 77.3316C124.991 77.4253 123.809 76.3585 122.381 75.2798C120.79 74.0723 118.004 72.2902 114.669 70.7544" stroke="black" stroke-width="0.5" stroke-miterlimit="10"/>
<path d="M105.938 62.6296C105.868 62.911 105.622 64.1538 105.868 64.7634C106.137 65.4551 106.711 65.8186 107.085 66.0531C107.471 66.2993 107.53 66.2524 108.829 66.8151C109.683 67.1903 109.847 67.2958 109.964 67.4951C110.268 68.0227 109.987 68.7027 109.894 68.9372C109.695 69.4178 109.344 69.8399 108.677 70.3089C107.413 71.1882 106.137 71.4226 105.938 71.4461C102.041 72.1026 98.6704 70.5433 98.2608 71.3758C98.0969 71.704 98.5065 72.2082 98.6353 72.3606C99.2907 73.1695 100.356 73.1812 102.135 73.275C106.184 73.4861 105.751 73.6502 107.307 73.5799C109.157 73.4861 110.081 73.4392 111.263 72.9702C112.398 72.513 113.147 71.9268 114.224 71.0709C115.746 69.8634 115.851 69.453 117.115 68.4096C117.922 67.7413 118.987 67.1199 121.141 65.9006C121.948 65.4434 123.669 64.4703 125.927 63.3917C127.414 62.6765 128.116 62.3952 128.97 62.1724C129.275 62.0903 130.328 61.8207 131.779 61.7152C133.183 61.6097 133.476 61.7738 135.501 61.7855C137.303 61.7972 138.204 61.809 138.766 61.6331C139.644 61.3635 141.06 60.7186 142.417 59.7338C142.897 59.3821 143.377 58.9952 143.553 59.1242C143.752 59.2766 143.494 59.9683 143.248 60.4138C142.932 61 142.569 61.3166 141.423 62.2428C140.381 63.0869 139.854 63.5207 139.679 63.6145C138.38 64.3062 137.326 64.2007 137.326 64.3765C137.326 64.5876 138.707 64.9627 140.135 64.6813C141.68 64.3765 142.698 63.4034 143.026 63.0869C144.723 61.4455 144.582 59.8276 145.917 59.5111C146.186 59.4407 146.139 59.5228 147.508 59.5111C148.386 59.5111 149.779 59.3938 150.235 59.3704" stroke="black" stroke-width="0.5" stroke-miterlimit="10"/>
<path d="M106.278 62.8289C106.453 62.7117 107.413 61.7855 107.471 61.4924C107.553 61.0586 107.214 60.6483 106.254 59.7455C104.932 58.4911 104.838 58.5849 104.429 58.069C103.656 57.0959 103.223 55.7828 103.516 55.5601C103.797 55.3373 104.686 56.0642 104.803 56.1697C105.377 56.6738 105.54 57.0607 105.868 57.4593C106.383 58.1042 107.015 58.3387 108.15 58.749C108.618 58.9249 109.262 59.1124 113.171 59.429C114.482 59.5345 114.997 59.5579 115.067 59.3586C115.125 59.2062 114.926 58.9717 113.089 57.5297C111.907 56.6035 111.708 56.4745 111.415 56.0876C110.713 55.138 110.491 53.9304 110.737 53.8015C110.854 53.7311 111.064 53.9773 112.41 55.2435C112.48 55.3139 113.077 55.8766 113.545 56.3104C114.33 57.0373 114.915 57.5649 115.675 58.1393C116.647 58.878 117.138 59.2414 117.653 59.2766C118.789 59.3704 119.655 58.4324 119.854 58.2097C120.111 57.9283 120.38 57.6469 120.31 57.3773C120.216 56.9904 119.549 56.9318 118.566 56.6152C118.566 56.6152 117.408 56.2401 116.366 55.6304C115.09 54.8683 114.341 53.8718 114.084 53.4966C113.382 52.4884 113.171 51.5973 113.031 50.9291" stroke="black" stroke-width="0.5" stroke-miterlimit="10"/>
<path d="M113.065 51.058C113.452 51.5973 115.149 52.5939 115.863 53.1215C116.471 53.5787 117.349 54.0477 118.414 54.5518C119.011 54.8449 119.549 54.9739 120.614 55.2318C122.065 55.5835 122.791 55.7711 123.575 55.689C124.383 55.607 124.511 55.3959 125.775 55.0794C126.77 54.8332 127.648 54.669 128.186 54.6221" stroke="black" stroke-width="0.5" stroke-miterlimit="10"/>
<path d="M133.593 58.7138C133.055 58.5497 131.428 57.5297 130.41 57.4594C128.666 57.3304 127.285 57.6587 125.998 57.9869C124.301 58.4207 124.629 58.5731 122.955 58.9718C121.679 59.2766 120.778 59.3586 120.673 59.8042C120.603 60.109 120.907 60.4724 121.199 60.6366C121.75 60.9531 122.206 60.5545 123.329 60.4842C124.348 60.4255 124.313 60.7304 125.155 60.6366C125.916 60.5545 126.033 60.2848 127.437 59.7221C128.221 59.4055 128.783 59.1828 129.567 59.0421C130.059 58.9483 130.305 58.96 132.002 58.8897C132.762 58.8545 133.371 58.8311 133.745 58.8193" stroke="black" stroke-width="0.5" stroke-miterlimit="10"/>
<path d="M143.623 56.2049C143.248 56.2869 141.844 56.9435 141.142 57.2249C139.808 57.7759 139.574 58.1745 138.789 58.2097C137.877 58.2566 137.139 57.7759 136.741 57.5297C136.109 57.1193 136.063 56.8731 135.372 56.3104C134.752 55.8063 134.237 55.5601 133.394 55.1732C131.686 54.3759 131.44 54.5401 130.199 53.9539C128.818 53.2973 127.812 52.8284 127.308 51.8201C126.559 50.296 127.507 48.6194 127.004 48.3967C126.7 48.256 126.138 48.7836 125.869 49.2291C125.307 50.167 125.682 51.2573 125.869 51.8201C126.232 52.8635 126.864 53.5083 127.156 53.8014C127.905 54.5401 128.666 54.8801 129.813 55.3959C131.194 56.0173 131.568 55.9704 132.399 56.5331C133.09 57.0021 133.523 58.5028 133.441 59.0186" stroke="black" stroke-width="0.5" stroke-miterlimit="10"/>
<path d="M130.398 51.4215C130.714 51.5387 131.885 52.5001 132.4 53.0394C132.985 53.649 133.219 54.6808 133.313 55.0207" stroke="black" stroke-width="0.5" stroke-miterlimit="10"/>
<path d="M133.769 51.7849C134.611 52.3477 136.004 53.8953 136.203 54.3408C136.425 54.8097 136.39 55.0442 136.659 55.2553C137.034 55.5366 137.49 55.4077 138.707 55.2553C139.339 55.1732 140.603 54.9035 140.966 54.8801" stroke="black" stroke-width="0.5" stroke-miterlimit="10"/>
<path d="M24.3428 114.18C24.6822 114.555 25.9695 115.634 26.7888 116.079C27.4793 116.455 28.1815 116.853 29.1177 116.795C30.171 116.724 31.552 115.786 31.8797 115.493" stroke="black" stroke-width="0.5" stroke-miterlimit="10"/>
<path d="M143.26 45.3016C143.67 45.3016 144.009 45.3133 144.243 45.3367C144.981 45.3954 145.554 45.454 146.186 45.7588C146.514 45.9112 149.007 46.9429 149.182 47.8105" stroke="black" stroke-width="0.5" stroke-miterlimit="10"/>
</g>
<defs>
<clipPath id="clip0_170_1522">
<rect width="222" height="122" fill="white"/>
</clipPath>
</defs>
</svg>
