<svg width="228" height="125" viewBox="0 0 228 125" fill="none" xmlns="http://www.w3.org/2000/svg">
<g clip-path="url(#clip0_84_1231)">
<path d="M30.9353 7.07121C30.6875 6.24247 31.7431 4.50964 32.3463 3.70243C33.6605 1.93732 35.3516 1.2162 35.9548 0.957896C38.0445 0.0861029 39.8756 0.247546 40.7373 0.333649C42.9562 0.559669 45.8215 1.54985 47.0063 3.07818C47.211 3.34725 47.6526 3.99303 48.4928 4.48812C49.1498 4.87558 49.3545 4.75719 49.8285 5.11236C50.4317 5.57517 50.9487 6.41467 50.9271 7.38333C50.9271 7.59859 50.8841 8.72869 50.1408 9.18073C49.613 9.50362 49.2037 9.20226 47.1679 9.01929C45.9076 8.91166 45.6491 8.99776 45.4445 9.09463C44.949 9.35294 44.9382 9.68659 44.195 10.8167C43.484 11.893 43.107 12.4311 42.4715 12.6141C41.8037 12.8078 41.3082 12.4634 41.222 12.6141C41.0605 12.8832 44.1734 14.0671 44.0442 15.1218C44.0011 15.477 43.6456 15.4662 43.344 16.0582C43.0209 16.6825 42.8808 17.7157 43.344 18.1677C43.9365 18.7597 44.9705 17.8664 45.9292 18.4799C46.6401 18.9427 46.8124 19.9113 46.8663 20.2773C47.0171 21.1921 46.6401 21.3428 46.7047 22.6989C46.7478 23.4954 46.8878 23.7214 46.7047 24.1088C46.4462 24.6685 45.7999 24.9699 45.2937 25.0452C44.2596 25.2066 43.3871 24.4748 42.7839 23.9474C41.5667 22.8926 41.7606 22.3437 40.4357 20.6647C39.1324 19.0072 38.4861 18.9427 38.3245 17.9202C38.1953 17.1237 38.4645 16.3596 38.7985 15.4124C39.1216 14.4868 39.3693 14.2716 39.6602 13.2168C40.0695 11.7423 39.811 11.3548 39.7356 11.258C39.4124 10.8382 38.7877 10.8059 38.4861 10.7844C38.2168 10.7736 37.6674 10.7844 36.838 11.258C35.9656 11.7531 35.7393 12.2051 35.19 12.6679C34.2098 13.4966 32.5618 14.0563 31.1184 13.6043C30.2782 13.346 28.9964 12.571 28.8456 11.3333C28.7487 10.4723 29.1795 9.29912 29.8689 8.987C30.0197 8.92242 30.4613 8.75022 30.7952 8.33046C30.903 8.19055 30.9568 8.08292 30.9676 8.05063C31.1615 7.59859 30.9999 7.13578 30.9676 7.02816L30.9353 7.07121Z" stroke="#231F20" stroke-width="0.5" stroke-miterlimit="10"/>
<path d="M30.6982 8.67489C32.4217 8.96549 34.6298 9.27761 35.6316 9.26684C40.2633 9.1915 43.7425 7.72775 45.4229 6.99588C46.64 6.4685 48.5143 5.15543 49.1498 4.78949" stroke="#231F20" stroke-width="0.5" stroke-miterlimit="10"/>
<path d="M48.2025 9.12692C48.3102 9.99872 48.3102 11.4194 48.321 11.9468C48.3318 12.4527 48.321 12.3558 48.321 12.9693C48.3425 14.39 48.4502 14.6483 48.2456 14.8528C47.8901 15.2079 47.2977 14.7021 46.7591 15.0896C46.6837 15.1434 46.4683 15.3156 46.2098 16.338C46.1021 16.7578 45.9728 17.5865 45.9189 18.3399" stroke="#231F20" stroke-width="0.5" stroke-miterlimit="10"/>
<path d="M30.6986 13.4966C30.5586 13.9056 30.0416 15.2833 29.4491 15.6062C28.9536 15.8645 28.4797 15.7999 28.0381 15.7676C26.3254 15.6062 26.8532 15.9183 24.2788 15.7676C22.383 15.66 22.3184 15.5093 21.2197 15.4555C19.7333 15.3909 17.5036 15.2833 15.5755 16.478C14.1752 17.339 14.6168 17.9955 12.5164 20.7078C11.0514 22.5913 10.599 22.559 8.68172 24.7008C7.75537 25.734 6.15042 27.5314 4.6855 30.1038C4.6855 30.1038 2.72509 33.5479 1.78797 37.3795C1.24939 39.5966 1.47559 40.2639 0.689275 41.6846C0.473845 42.0828 0.161472 42.5564 0.301501 43.0945C0.484617 43.8264 1.33556 43.9986 2.33731 44.7413C3.2098 45.3763 3.50063 45.9359 4.22232 46.8508C6.03193 49.1648 8.26163 50.8761 9.08026 51.4681C11.8162 53.4484 12.6241 52.9641 13.7766 54.6001C14.9076 56.2037 15.5001 58.1195 15.5001 58.1195C15.7801 59.0451 15.8555 59.7017 16.4372 60.6273C16.868 61.3161 17.0188 61.2515 17.6113 62.1879C18.0421 62.8767 18.1714 63.2319 18.6346 63.4364C18.6777 63.4579 19.3347 63.7377 19.8087 63.4364C20.2395 63.1673 20.1749 62.6507 20.5088 62.5753C20.735 62.5215 20.8104 62.726 21.2951 62.8875C21.5536 62.9736 22.103 63.1458 22.3938 62.8875C22.5877 62.7153 22.717 62.3063 22.6308 62.0802C22.6308 62.0587 22.62 62.048 22.6308 62.0264C22.6954 61.908 23.2986 62.3493 23.7295 62.1879C24.2142 62.0049 24.1065 61.1977 24.5158 61.0901C24.8605 61.004 25.0759 61.5529 25.4529 61.4775C25.8407 61.413 26.1315 60.7672 26.0777 60.229C26.013 59.6478 25.5499 59.2711 25.3775 59.1312C24.6127 58.5285 24.0311 58.8514 23.6541 58.3455C23.4063 58.0119 23.611 57.7966 23.4925 56.7849C23.3956 55.9346 23.3417 55.4503 23.0186 55.0629C22.5231 54.4494 21.866 54.6646 20.7458 54.1265C20.0995 53.8144 19.7117 53.4484 19.2593 53.0287C17.9021 51.7802 17.5682 50.2411 16.9111 48.6482C16.8142 48.4114 15.6186 45.5915 13.3027 43.1699C11.3854 41.1572 9.62961 40.4038 9.85581 39.3383C9.94198 38.9508 10.222 38.8109 11.0299 38.1651C12.0532 37.3472 12.958 36.3893 13.9274 35.5067C14.2183 35.2376 15.9309 33.6663 17.2989 31.7505C18.1175 30.5988 19.2162 28.7476 19.9595 26.1107" stroke="#231F20" stroke-width="0.5" stroke-miterlimit="10"/>
<path d="M8.44531 43.4713C8.79 44.3753 9.32857 45.4731 10.1687 46.6032C11.903 48.9388 14.0142 50.155 15.2637 50.747" stroke="#231F20" stroke-width="0.5" stroke-miterlimit="10"/>
<path d="M12.6031 23.194C12.6677 24.3349 12.6031 25.2282 12.5277 25.8524C12.4846 26.2399 12.4307 26.5305 12.6031 26.7135C12.8939 27.0041 13.5833 26.7888 14.7143 26.326C15.5329 25.9816 16.6747 25.4757 17.9996 24.7654" stroke="#231F20" stroke-width="0.5" stroke-miterlimit="10"/>
<path d="M17.084 32.0303C17.2132 32.9774 17.6441 35.3668 18.0103 36.9705C18.5704 39.4136 18.8505 40.6298 19.5722 41.8999C20.5739 43.6434 21.1664 43.4605 22.1574 45.344C22.9975 46.9369 23.256 48.3361 23.3314 48.8634C23.6115 50.6931 22.8683 53.7067 22.6098 54.7184" stroke="#231F20" stroke-width="0.5" stroke-miterlimit="10"/>
<path d="M15.6945 58.7868C15.3606 58.9482 14.2404 59.551 13.7772 59.9815C13.4325 60.3044 12.7647 61.0147 12.4415 62.0157C12.0322 63.2749 12.6139 63.5978 12.4415 65.1477C12.3015 66.3639 11.8168 67.2249 11.2675 68.2043C10.5888 69.4098 10.0934 70.2923 9.07007 70.8627C8.59612 71.1318 8.72538 70.9273 6.56031 71.5623C4.93382 72.0359 4.27676 72.3265 3.89976 72.4987C3.22115 72.8108 2.68258 73.1337 2.33789 73.3597" stroke="#231F20" stroke-width="0.5" stroke-miterlimit="10"/>
<path d="M26.0777 15.7891C26.0238 16.5533 25.9484 18.4476 25.9161 19.8252C25.8838 21.4827 25.9376 21.9132 25.9161 22.7958C25.8945 23.6137 25.8084 25.8309 24.8928 28.1234C24.742 28.5001 24.7959 28.3171 22.0707 32.9774C20.9935 34.8286 20.8643 35.0654 20.735 35.5605C20.595 36.1202 20.5734 36.6045 20.1857 36.8951C19.7117 37.2503 18.5161 36.809 17.9883 36.626" stroke="#231F20" stroke-width="0.5" stroke-miterlimit="10"/>
<path d="M18.8721 31.2554C18.9367 31.6105 19.0767 32.1595 19.4214 32.7406C19.7876 33.3649 20.2293 33.7631 20.5201 33.9891" stroke="#231F20" stroke-width="0.5" stroke-miterlimit="10"/>
<path d="M30.1494 18.1031C30.828 18.1247 31.3235 18.2861 31.6359 18.4153C32.7884 18.8996 33.5963 19.8252 33.5963 19.8252C33.8763 20.1481 33.9948 20.3634 34.2964 20.4495C34.6304 20.5463 34.8027 20.3741 35.4705 20.1373C35.4705 20.1373 35.6536 20.0728 37.5063 19.6638H38.6804" stroke="#231F20" stroke-width="0.5" stroke-miterlimit="10"/>
<path d="M46.7917 21.9563C47.7827 22.6989 49.086 23.5815 49.5708 24.1411C50.7772 25.5403 51.4989 26.369 51.5312 27.5099C51.5312 27.8113 51.4989 28.1342 51.6927 28.5324C52.0482 29.2643 52.8561 29.5333 53.1038 29.6302C54.2779 30.0715 55.0858 31.1047 56.7123 33.1497C57.854 34.6026 58.4788 35.8942 59.6852 38.3912C59.9222 38.8755 59.9329 39.6504 60.5469 40.2747C61.2794 41.0173 62.2488 41.1249 62.8951 41.211C62.8951 41.211 65.0171 41.5124 67.9038 42.3842C71.1568 43.3744 74.2375 45.6238 74.9591 46.1404C75.2069 46.3234 75.8209 46.7862 76.758 47.1629C77.1242 47.3136 77.9321 47.6042 79.0308 47.7118C79.8602 47.7979 79.9463 47.6795 81.6913 47.7118C82.9085 47.7333 83.1563 47.7979 83.4148 47.9486C83.7056 48.1208 83.9103 48.3576 84.5135 49.5953C85.1705 50.9514 85.5044 51.651 85.5368 52.2538C85.5691 52.9749 85.429 54.1373 84.8366 54.3633C84.4811 54.5032 84.1041 54.2556 83.9749 54.4386C83.8349 54.6539 84.3196 54.9983 84.2119 55.4611C84.1365 55.784 83.8025 55.9885 83.5117 56.1607C82.9839 56.4728 82.7146 56.3759 82.5746 56.6342C82.3807 56.9679 82.7469 57.2693 82.5746 57.5706C82.3699 57.9258 81.6267 57.9365 81.0881 57.8074C80.5065 57.6675 80.3126 57.3876 79.6017 56.871C78.783 56.2683 78.783 56.4513 77.4905 55.6225C76.4995 54.9875 76.004 54.6754 75.6916 54.2879C74.9161 53.3516 75.1961 52.7919 74.5929 52.1784C73.882 51.4573 72.8479 51.5757 71.4584 51.5542C71.4584 51.5542 69.0241 51.5111 66.4497 50.8546C64.8986 50.4564 63.3583 49.7568 60.2561 48.3468C59.8791 48.1746 59.2974 47.9056 58.4572 47.7226C57.5309 47.5181 57.4232 47.6795 56.9708 47.4858C55.9798 47.0768 56.0121 46.1727 55.0858 45.2902C54.2994 44.5475 53.7178 44.6767 52.6622 44.1924C51.3911 43.6112 50.8633 42.7932 49.2153 40.5868C48.3967 39.489 47.1364 37.8315 45.4561 35.7327" stroke="#231F20" stroke-width="0.5" stroke-miterlimit="10"/>
<path d="M50.5934 32.8268C50.4965 33.634 50.5611 34.3228 50.6688 34.8609C51.412 38.4557 55.1497 40.1563 55.7637 40.4146" stroke="#231F20" stroke-width="0.5" stroke-miterlimit="10"/>
<path d="M66.3418 46.5172C67.0096 46.8723 67.936 47.2813 69.0885 47.5396C70.7042 47.9056 72.0938 47.8195 73.0093 47.7011" stroke="#231F20" stroke-width="0.5" stroke-miterlimit="10"/>
<path d="M46.5326 37.3902C46.231 38.1221 45.714 40.0594 45.5847 41.4263C45.4555 42.7824 45.3478 43.9663 45.8971 45.2579C46.4465 46.5494 47.1681 46.7862 47.6206 48.3899C47.836 49.154 47.7175 49.2401 47.9329 49.8752C48.3961 51.2098 49.3224 51.9093 49.8933 52.4583C51.1213 53.6422 51.5521 54.9445 52.4031 57.463C53.3187 60.186 52.6401 60.369 53.5018 63.1027C54.1912 65.2876 55.1714 66.9343 55.9254 68.1936C57.9073 71.4762 59.3507 72.4772 58.8983 73.4351C58.629 74.0163 57.5411 74.3176 55.376 74.9204C54.2127 75.2433 53.965 75.211 53.2648 75.5446C52.8986 75.7168 51.8214 76.2334 50.9166 77.342C50.0011 78.4613 50.3673 78.8381 49.5056 79.9251C49.2255 80.2803 48.2776 81.475 46.7588 81.8086C45.4016 82.11 43.8828 81.6472 43.6243 81.5718C42.8811 81.3458 42.4287 81.0767 41.8255 81.2597C41.3946 81.3889 41.2331 81.6256 40.6514 82.1961C39.9189 82.9172 39.2296 83.5952 38.5402 83.9181C37.8831 84.2302 37.2368 84.2087 35.955 83.9935C33.0898 83.5307 31.668 83.2939 30.4724 82.5835C27.7149 80.9368 27.4994 78.5152 25.9268 78.5905C25.1943 78.6228 25.0004 79.1609 23.8156 80.2372C20.5087 83.2185 17.6866 82.9925 17.4712 84.7038C17.3958 85.2635 17.8159 85.9415 18.6453 87.2869C19.6039 88.8368 20.1102 89.009 20.7565 90.1068C21.3381 91.0754 21.5105 92.1517 21.8552 94.2505C22.1891 96.3492 21.909 97.1026 22.4045 99.4167C22.4907 99.8364 22.5984 100.213 22.7923 100.977C23.2231 102.602 23.7186 104.464 24.5157 106.768C25.4744 109.523 25.9483 110.89 26.7131 112.171C27.2948 113.139 27.6502 113.807 28.3611 115.141C28.9428 116.228 29.2444 116.842 29.2983 117.724C29.3306 118.198 29.3844 119.091 28.8243 119.834C28.3073 120.533 27.5425 120.716 26.7131 120.932C25.3774 121.265 24.2357 121.136 23.1908 121.007C21.8336 120.846 21.7905 120.652 20.6811 120.62C19.8624 120.587 18.9792 120.566 18.0959 121.007C17.245 121.427 17.3204 121.803 16.6095 122.255C15.8231 122.751 15.3061 122.557 12.0639 122.417C10.0496 122.32 9.54336 122.363 8.77858 121.943C7.72298 121.373 7.36752 120.576 7.29212 120.383C7.19517 120.146 6.89357 119.403 7.21672 119.048C7.52909 118.704 8.14306 119.027 9.32793 119.123C10.6528 119.242 11.6761 118.994 12.1501 118.887C12.4624 118.811 13.615 118.521 14.8968 117.714C15.263 117.477 15.5108 117.283 17.4819 115.367C19.27 113.624 19.41 113.451 19.5178 113.096C19.8301 112.095 19.3993 111.191 18.4945 109.415C16.9541 106.359 16.1894 104.83 15.9093 104.411C12.1824 98.674 11.2129 99.4167 9.5649 95.9618C8.11075 92.9159 8.6601 91.9365 6.81817 89.0735C6.44117 88.4816 5.68717 87.3838 5.01933 85.7048C4.44844 84.2733 3.96373 83.0033 4.39459 81.7117C4.69619 80.7969 5.20245 80.6247 6.2796 79.4408C7.45369 78.1385 7.11977 78.0524 9.02633 75.211C10.9221 72.3803 11.6438 71.896 11.8485 70.3569C11.9346 69.7111 11.8592 69.399 12.0854 68.7102C12.5055 67.4186 13.3457 66.7621 14.1966 65.8903C14.8752 65.1907 16.2001 62.9198 17.1049 61.3807" stroke="#231F20" stroke-width="0.5" stroke-miterlimit="10"/>
<path d="M25.6797 113.215C25.6905 113.301 25.7766 113.817 25.4427 114.237C25.098 114.657 24.4625 114.797 23.8809 114.549" stroke="#231F20" stroke-width="0.5" stroke-miterlimit="10"/>
<path d="M15.8877 91.2153C15.64 92.0656 15.3168 93.5939 15.6508 95.4451C16.2001 98.4587 18.1282 100.278 18.7853 100.848" stroke="#231F20" stroke-width="0.5" stroke-miterlimit="10"/>
<path d="M16.9115 72.5848C16.793 73.0691 16.5883 73.6826 16.2113 74.3069C15.1557 76.0289 13.4646 76.6855 12.8398 76.89" stroke="#231F20" stroke-width="0.5" stroke-miterlimit="10"/>
<path d="M11.8594 69.991C12.2148 69.9264 13.3135 69.5497 13.9383 69.5282C16.1572 69.4743 17.8268 70.2062 19.2702 70.8628C21.2306 71.7561 22.2108 72.1974 23.191 73.2844C24.5159 74.7804 24.9252 78.1169 25.076 79.021" stroke="#231F20" stroke-width="0.5" stroke-miterlimit="10"/>
<path d="M16.75 68.2043C17.4932 68.0644 18.8397 67.9245 20.2723 68.5164C21.0586 68.8393 21.748 69.3237 22.8574 70.5506C23.8376 71.6377 25.1733 73.3275 26.3797 75.7168" stroke="#231F20" stroke-width="0.5" stroke-miterlimit="10"/>
<path d="M20.6709 64.9109C21.3495 65.1154 22.3728 65.5351 23.3315 66.3962C24.0424 67.0312 24.4301 67.6662 24.7425 68.1936C25.3996 69.3021 26.3798 71.0888 27.4892 73.5965" stroke="#231F20" stroke-width="0.5" stroke-miterlimit="10"/>
<path d="M37.6355 9.13766C37.5816 9.49284 37.4308 10.6768 37.377 11.0212" stroke="#231F20" stroke-width="0.5" stroke-miterlimit="10"/>
<path d="M34.1673 24.3887C33.9088 24.7654 33.6719 25.1959 33.4672 25.6802C32.4439 28.1019 32.9609 30.4589 33.2949 31.546" stroke="#231F20" stroke-width="0.5" stroke-miterlimit="10"/>
<path d="M28.3932 15.7891C28.3394 17.1022 28.2532 19.7606 28.5871 21.8594C28.7164 22.6774 29.395 26.6919 32.0556 31.3738C34.5545 35.7758 37.549 38.5311 40.9313 41.6523C42.5147 43.1161 45.2075 45.0857 46.2201 45.8821" stroke="#231F20" stroke-width="0.5" stroke-miterlimit="10"/>
<path d="M38.3896 37.4763C38.9175 37.5732 39.693 37.6485 40.6193 37.5301C41.1256 37.4656 42.3105 37.3149 43.56 36.5292C44.9387 35.6682 45.6281 34.5273 46.0913 33.7739C46.4252 33.225 46.6514 32.7299 46.7914 32.364" stroke="#231F20" stroke-width="0.5" stroke-miterlimit="10"/>
<path d="M42.3861 34.3121C42.4723 34.3443 43.0863 34.5488 43.0863 34.904C43.0863 35.2269 42.5477 35.496 42.1492 35.5498C42.0522 35.5605 41.3198 35.6574 41.0936 35.1946C40.9751 34.9471 41.0397 34.6242 41.212 34.4304C41.5675 34.0322 42.2569 34.269 42.3861 34.3121Z" stroke="#231F20" stroke-width="0.5" stroke-miterlimit="10"/>
<path d="M27.4668 21.7518C27.3914 22.2576 27.2837 23.0326 27.176 23.9797C26.9175 26.326 26.9713 27.2731 26.8205 28.7369C26.5728 31.2662 25.948 33.1712 25.7649 33.7308C25.0755 35.765 24.3862 37.7023 22.5335 38.8432C21.941 39.2092 21.3809 39.3921 21.0039 39.489" stroke="#231F20" stroke-width="0.5" stroke-miterlimit="10"/>
<path d="M27.823 23.8613C27.8015 24.8945 27.8661 26.3906 28.2323 28.1449C28.3293 28.597 28.6632 30.093 29.9989 33.1389C30.5805 34.4735 31.453 36.4539 32.821 38.7141C34.1459 40.9097 36.4187 44.1708 40.1025 47.5827" stroke="#231F20" stroke-width="0.5" stroke-miterlimit="10"/>
<path d="M28.641 34.6026C28.5656 35.0547 28.5225 35.6682 28.641 36.3677C28.7271 36.8628 28.8349 37.4871 29.2873 38.0683C29.6535 38.5418 29.8474 38.4773 30.2244 39.0046C30.5798 39.489 30.7091 39.9518 30.8168 40.2962C31.0646 41.1572 30.9353 41.4909 31.0538 42.0613C31.2261 42.9116 31.7647 43.4282 32.4648 44.117C33.5097 45.1502 34.6299 46.2911 35.9871 47.701" stroke="#231F20" stroke-width="0.5" stroke-miterlimit="10"/>
<path d="M33.0468 51.7479C33.2514 51.5757 33.5746 51.2635 33.5746 50.8653C33.5746 50.8546 33.5746 50.8223 33.5746 50.79C33.5423 50.4456 33.3053 50.1119 33.0468 49.9828C32.5836 49.7567 31.8834 50.1119 31.7003 50.5747C31.431 51.242 32.2174 52.2107 33.0468 52.512C33.5638 52.695 33.9516 52.5659 34.6302 52.4582C35.7935 52.2645 35.7289 52.4582 37.8616 52.3398C39.6174 52.2537 40.953 52.0492 41.7932 51.9308C44.3891 51.5434 45.2078 51.199 45.7894 50.8761C46.4249 50.5317 47.6206 50.1765 47.9222 49.8967" stroke="#231F20" stroke-width="0.5" stroke-miterlimit="10"/>
<path d="M33.5752 50.79C34.0168 50.79 35.3525 50.5209 36.1065 50.5102C36.7636 50.5102 37.4637 50.4886 38.1638 50.4563C38.1638 50.4563 39.7042 50.3702 41.0398 50.1012C43.3234 49.6599 46.1886 48.2822 47.3088 47.5719" stroke="#231F20" stroke-width="0.5" stroke-miterlimit="10"/>
<path d="M23.3955 49.8644C23.9449 50.1873 25.4744 50.5963 26.293 50.8653C28.038 51.4358 30.6016 51.3281 31.6034 51.2313" stroke="#231F20" stroke-width="0.5" stroke-miterlimit="10"/>
<path d="M33.047 51.7479C32.9608 52.3829 31.1727 53.7928 31.1081 54.4494C30.8604 56.8818 30.7742 59.1743 30.8173 61.3161" stroke="#231F20" stroke-width="0.5" stroke-miterlimit="10"/>
<path d="M23.5254 57.4737C24.2255 57.7105 26.8753 57.6029 28.1679 57.9688C31.5609 58.8944 34.1892 59.2496 36.0957 59.4972C44.142 60.5412 48.1705 61.0578 50.8419 61.1439C55.1074 61.273 57.2401 61.3376 60.0084 60.9071C64.5109 60.2075 68.7118 58.6361 73.462 56.8603C74.6792 56.4082 76.8012 55.8701 77.4582 55.6118" stroke="#231F20" stroke-width="0.5" stroke-miterlimit="10"/>
<path d="M28.814 59.0882C28.7494 59.8093 28.6847 60.7887 28.6955 61.9619C28.6955 62.3278 28.7171 63.4794 28.9863 65.7827C29.1264 66.9989 29.3526 68.581 29.6865 70.4215" stroke="#231F20" stroke-width="0.5" stroke-miterlimit="10"/>
<path d="M36.1599 57.0863C35.352 58.2917 34.361 59.96 33.4562 62.0802C33.0792 62.9736 31.7866 66.1378 31.2265 70.5291C30.9895 72.4234 30.828 74.9526 31.108 77.9232" stroke="#231F20" stroke-width="0.5" stroke-miterlimit="10"/>
<path d="M37.9798 63.0812C37.6567 63.6732 37.2258 64.5342 36.8058 65.6105C36.181 67.2141 35.8902 68.538 35.2762 72.714C34.5761 77.4819 34.533 78.7089 34.9854 78.8811C35.3193 79.0103 35.5563 78.4075 36.7519 77.8802C37.6782 77.4604 38.4646 77.4174 39.6925 77.3528C41.2221 77.2667 41.9868 77.2236 42.3962 77.7079C42.8486 78.2353 42.7516 79.0856 42.5685 79.5915C42.5685 79.5915 42.3423 80.2265 41.7499 80.7108C40.6835 81.5718 37.7967 80.2803 34.9961 78.8919" stroke="#231F20" stroke-width="0.5" stroke-miterlimit="10"/>
<path d="M42.2027 77.525C42.8275 77.5573 44.2493 77.0622 44.4432 76.6317C44.6586 76.1796 44.4217 75.7061 44.3894 75.6307C44.0339 74.9311 43.183 74.8558 41.6857 74.4576C39.5853 73.9087 38.3896 73.575 37.9265 72.6386C37.7003 72.1758 37.6249 71.5301 37.9265 71.1749C38.2065 70.852 38.6805 70.9381 39.693 70.9381C39.693 70.9381 40.8132 70.9381 42.3966 70.7659C43.4846 70.6367 44.1416 70.4538 45.1003 70.1739C46.479 69.7865 46.5975 69.6035 46.6298 69.4744C46.7375 69.0116 45.9404 68.4196 44.8094 67.5908C43.5061 66.6437 43.0537 66.5684 42.8167 66.0087C42.5259 65.3091 42.8383 64.545 43.2907 63.6624C44.3678 61.5314 45.1541 60.7457 46.2851 59.0236C48.2994 55.9347 48.4502 54.331 48.461 53.5668C48.461 52.9964 48.3963 52.5228 48.3425 52.2215" stroke="#231F20" stroke-width="0.5" stroke-miterlimit="10"/>
<path d="M47.556 58.7868C47.7068 60.0676 47.4699 60.9609 47.2006 61.5421C46.8559 62.3063 46.4573 62.5969 46.1988 63.4256C45.9403 64.2759 46.0265 65.0508 46.145 65.5997" stroke="#231F20" stroke-width="0.5" stroke-miterlimit="10"/>
<path d="M46.3174 69.7542C46.285 70.4861 45.6064 72.3803 45.391 73.0584C45.1756 73.7364 45.0032 75.7599 44.5293 76.3518" stroke="#231F20" stroke-width="0.5" stroke-miterlimit="10"/>
<path d="M44.3896 56.0853C44.045 56.645 43.5495 57.4522 42.9786 58.4316C41.8153 60.4228 40.8997 61.9834 40.2749 63.361C39.6179 64.8033 38.196 68.172 37.9268 71.1641" stroke="#231F20" stroke-width="0.5" stroke-miterlimit="10"/>
<path d="M57.5739 74.2746C57.6062 74.7159 57.714 75.9967 57.8432 76.8146C58.1879 78.9242 58.5111 79.204 58.7803 80.8077C59.222 83.38 58.6295 84.0473 59.4266 85.0913C59.7929 85.5756 60.0621 85.6079 61.4194 86.4366C62.9812 87.3945 64.2199 88.3201 64.7047 88.7291C66.3527 90.0745 67.1606 91.5921 68.0546 93.2495C69.2071 95.4021 69.7565 97.3179 70.2304 98.9431C71.006 101.645 70.9629 102.57 71.9969 104.163C72.5678 105.035 73.1172 105.896 74.1728 106.628C75.2284 107.37 75.8747 107.338 76.5856 108.21C77.2965 109.071 77.4365 110.04 77.4689 110.438C77.5012 110.804 77.6197 112.192 76.7687 113.139C76.0578 113.925 75.4331 113.581 73.8927 114.603C73.4403 114.904 73.1387 115.174 72.5463 115.722C71.2645 116.885 71.1568 117.262 70.1981 118.187C68.7763 119.565 68.5285 119.21 67.0205 120.652C65.8033 121.814 65.8572 122.159 65.1355 122.417C64.2092 122.751 63.9722 122.223 61.9041 122.299C60.9239 122.331 60.5469 122.471 59.8467 122.245C59.4374 122.116 59.1035 121.879 58.4357 121.427C57.477 120.77 56.9923 120.437 57.0246 120.081C57.0569 119.619 57.8001 119.328 57.9617 119.263C58.6403 118.994 59.0065 119.22 59.7821 119.091C60.3853 118.984 60.7946 118.736 61.247 118.445C62.4857 117.671 63.0782 116.497 63.7783 115.389C65.7818 112.214 66.9559 112.246 67.0098 110.815C67.0528 109.684 66.3312 109.049 65.0709 107.413C62.7658 104.421 63.7245 104.669 61.0208 100.837C59.5774 98.7924 57.8324 96.3062 55.3766 94.1429C54.4287 93.3034 53.5454 92.3993 52.5544 91.6136C51.348 90.6557 50.734 90.3113 50.2062 89.3857C49.6569 88.417 49.9693 88.1695 49.3876 87.1578C48.8275 86.1783 48.3428 86.0599 47.3303 84.9298C46.9102 84.467 45.693 82.9279 45.1113 81.8947" stroke="#231F20" stroke-width="0.5" stroke-miterlimit="10"/>
<path d="M61.2471 91.0754C61.5918 92.0118 62.1734 93.2818 63.1859 94.5949C64.4785 96.2847 65.9219 97.3071 66.8913 97.8776" stroke="#231F20" stroke-width="0.5" stroke-miterlimit="10"/>
<path d="M72.4163 107.93C72.4163 107.93 73.0411 108.092 73.1811 108.576C73.3211 109.049 72.9765 109.674 72.2979 109.867" stroke="#231F20" stroke-width="0.5" stroke-miterlimit="10"/>
<path d="M114.652 48.11C114.48 48.4114 113.866 49.0787 113.596 49.6922C112.724 51.6618 112.659 52.8565 112.304 52.8672C112.207 52.8672 112.024 52.7919 110.893 49.9935C110.548 49.1325 110.376 48.659 110.074 48.6482C109.622 48.6159 109.212 49.6276 109.137 49.8213C108.415 51.6187 109.342 52.6412 108.609 53.4592C108.275 53.8359 107.694 54.0189 106.552 54.3956C106.207 54.514 105.927 54.5785 105.55 54.8046C105.141 55.0521 105.065 55.2243 104.731 55.3319C104.354 55.4503 104.193 55.3104 103.794 55.3319C103.073 55.3642 102.545 55.8378 102.383 55.9777C102.297 56.053 101.478 56.8064 101.5 57.7966C101.5 58.141 101.608 58.2702 101.5 58.4424C101.317 58.733 100.843 58.6577 99.9166 58.733C99.3134 58.7868 99.0118 58.8083 98.6779 58.9052C97.967 59.1205 97.8916 59.4218 96.739 60.1968C95.748 60.8641 95.5972 60.7779 95.2741 61.1977C94.9294 61.639 94.4986 62.4892 94.8002 63.0812C95.0587 63.5548 95.5972 63.4579 95.9742 64.0821C96.1358 64.3512 96.1681 64.588 96.2112 64.9647C96.4374 66.8159 96.5667 67.7523 96.976 68.1398C97.3961 68.5272 97.7623 68.3765 98.0316 68.8393C98.2147 69.1515 98.1285 69.3452 98.2039 70.0125C98.2039 70.0125 98.2901 70.7228 98.5594 71.4762C98.7641 72.0467 99.2272 73.0584 99.4965 73.0046C99.6796 72.9615 99.7119 72.4664 99.7873 71.4762C99.8951 70.0663 99.7874 69.5174 100.143 69.3021C100.358 69.173 100.681 69.2053 100.843 69.356C101.08 69.5712 100.918 69.9587 100.897 70.5937C100.897 70.5937 100.875 71.3686 101.134 72.122C101.478 73.1445 102.416 73.984 102.717 73.8225C102.9 73.7257 102.717 73.3275 102.717 71.8852C102.717 70.8735 102.803 70.4215 102.954 70.0017C103.083 69.6358 103.18 69.3667 103.428 69.1192C104.01 68.5165 104.591 68.8716 105.722 68.4196C106.746 68.0106 106.735 67.5263 107.715 67.3002C107.952 67.2464 108.523 67.1496 109.18 67.3002C110.171 67.5263 110.753 68.1828 111.237 68.7102C112.261 69.8403 112.616 71.0457 112.702 71.4117C113.004 72.5956 112.875 73.4889 112.702 74.6943C112.465 76.3088 112.315 77.3851 111.528 77.751C110.807 78.0846 109.945 77.6434 109.708 77.5142C109.439 77.3743 108.997 77.0945 108.006 75.5769C107.09 74.167 106.81 73.4028 106.595 73.4674C106.304 73.5427 106.466 74.9742 106.476 75.0495C106.563 75.7922 106.767 76.3734 106.95 76.8146C107.532 78.2676 108.609 79.3116 108.598 79.3224C108.566 79.3439 105.302 74.4683 104.667 74.7589C104.322 74.9204 104.742 76.5348 104.785 76.6962C105.012 77.5357 105.324 78.0416 105.959 79.1071C107.575 81.7871 107.607 81.8947 107.898 82.0454C109.051 82.6266 110.494 81.9162 111.658 81.3458C113.241 80.5709 113.262 80.0327 115.589 78.4075C117.259 77.2451 117.539 77.3205 118.411 76.524C119.682 75.3724 121.093 73.7042 121.481 72.7678" stroke="#231F20" stroke-width="0.5" stroke-miterlimit="10"/>
<path d="M85.3965 51.5649C86.269 51.9847 87.9601 52.3614 89.3927 53.3838C91.6009 54.9552 92.1718 55.9454 93.7982 57.2047C95.6617 58.6469 96.7389 58.776 100.143 60.1967C103.59 61.639 104.376 62.3063 108.07 64.1252C114.178 67.1388 119.337 68.9254 122.935 70.1739C122.935 70.1739 129.021 72.2834 137.326 74.0486C140.891 74.802 143.207 75.1464 145.846 74.2853C147.031 73.8979 147.02 73.6826 151.835 70.7013C155.842 68.2366 156.445 68.0106 158.589 66.5361C160.732 65.0616 162.37 63.7162 163.404 62.8336" stroke="#231F20" stroke-width="0.5" stroke-miterlimit="10"/>
<path d="M130.852 77.6972C132.187 77.6003 133.932 77.4281 135.451 77.1698C138.284 76.6855 141.806 75.4693 143.939 74.7266" stroke="#231F20" stroke-width="0.5" stroke-miterlimit="10"/>
<path d="M130.594 76.1043C132.263 75.2755 134.019 74.7374 135.215 74.6405C136.216 74.5652 136.378 74.6836 137.444 74.5867C138.295 74.5006 139.146 74.3284 141.731 73.4135C143.573 72.757 144.521 72.4234 145.9 71.8314C147.893 70.9704 149.315 70.1847 150.596 69.4851C153.149 68.0859 154.668 67.2464 156.467 65.9011C157.856 64.8678 160.172 64.0606 162.133 61.7896" stroke="#231F20" stroke-width="0.5" stroke-miterlimit="10"/>
<path d="M121.179 72.7678C121.664 72.8216 122.407 72.9185 123.291 73.123C124.842 73.4889 125.122 73.7795 127.287 74.5329C129.549 75.3186 130.001 75.254 130.464 75.8783C130.744 76.2657 130.766 76.5348 130.938 78.5797C131.218 81.927 131.283 82.3145 130.938 82.8096C130.518 83.4123 130.098 83.3369 128.353 84.2195C128.353 84.2195 127.018 84.8976 125.531 85.92C123.765 87.147 123.118 88.6215 121.535 91.4414C120.372 93.5186 119.499 94.8855 117.829 97.4901C114.975 101.967 113.532 103.614 111.657 105.003C111.42 105.175 110.516 105.53 109.546 106.348C109.169 106.671 108.458 107.263 107.898 108.167C107.123 109.405 107.478 109.835 106.843 111.396C106.422 112.418 105.787 113.99 104.376 114.625C103.73 114.915 103.697 114.668 101.5 115.098C99.8734 115.41 99.5072 115.626 99.324 115.744C99.1517 115.852 97.8699 116.702 97.7406 117.918C97.7191 118.144 97.7406 118.262 97.6868 118.618C97.5791 119.274 97.3959 119.457 97.2775 119.963C97.159 120.501 97.1267 121.319 97.3959 121.427C97.6006 121.513 97.8053 121.125 98.6347 120.426C99.2702 119.888 99.701 119.651 100.574 119.188C101.026 118.951 101.263 118.854 101.392 118.951C101.565 119.08 101.435 119.414 101.392 120.006C101.381 120.167 101.284 121.545 101.683 121.707C101.942 121.814 102.178 121.319 103.094 120.652C103.6 120.286 104.042 120.071 104.914 119.651C106.013 119.123 106.185 119.167 106.261 119.242C106.476 119.425 106.164 119.855 106.207 120.706C106.229 121.33 106.444 122.137 106.735 122.169C106.993 122.202 107.564 121.577 108.351 121.05C108.62 120.878 109.266 120.523 110.257 120.114C110.828 119.877 110.882 119.662 111.14 119.468C111.754 119.016 111.194 117.305 111.14 117.057C111.011 116.476 110.839 116.11 111.022 115.938C111.259 115.722 111.722 116.196 112.142 115.991C112.659 115.733 112.67 114.635 112.67 113.817C112.67 113.129 112.584 113.107 112.67 112.816C112.875 112.095 113.564 111.859 114.436 111.288C115.751 110.416 115.481 110.093 116.612 109.351C117.722 108.619 118.066 108.877 119.671 108.178C120.404 107.855 120.619 107.683 122.903 106.187C126.264 103.98 126.145 104.142 126.307 103.959C128.084 102 127.47 100.041 129.183 99.2014C129.592 98.9969 129.581 99.1368 130.949 98.8462C132.802 98.4588 134.224 97.9099 134.655 97.7269C137.089 96.6937 138.608 93.9599 139.297 92.5069" stroke="#231F20" stroke-width="0.5" stroke-miterlimit="10"/>
<path d="M127.351 89.6655C126.942 90.0852 126.425 90.7203 126.059 91.6028C125.154 93.7877 125.833 95.8326 126.059 96.4138" stroke="#231F20" stroke-width="0.5" stroke-miterlimit="10"/>
<path d="M124.346 100.471C123.549 100.558 122.246 100.805 120.878 101.645C118.53 103.087 117.625 105.293 117.355 106.047" stroke="#231F20" stroke-width="0.5" stroke-miterlimit="10"/>
<path d="M97.8809 117.789C98.1825 117.67 99.0226 117.541 99.5504 117.617C100.477 117.735 100.466 118.661 101.317 118.671C101.845 118.671 102.006 118.101 102.965 117.972C103.719 117.864 104.29 117.94 104.495 117.972C104.958 118.047 105.313 118.166 105.432 118.209C106.283 118.51 105.895 119.468 106.25 119.263C106.757 118.973 107.543 118.435 108.038 118.262C108.534 118.09 110.214 118.424 111.388 118.973" stroke="#231F20" stroke-width="0.5" stroke-miterlimit="10"/>
<path d="M136.098 83.7459C136.195 84.7684 136.432 86.2644 137.035 87.9757C137.724 89.913 138.349 91.7104 140.029 93.0881C142.097 94.7779 145.512 94.8855 146.611 94.8532" stroke="#231F20" stroke-width="0.5" stroke-miterlimit="10"/>
<path d="M159.601 68.4196C159.041 69.0438 158.168 69.9587 156.962 70.8843C155.594 71.939 155.174 71.9606 154.377 72.7678C153.246 73.9194 152.815 75.1679 152.32 76.6424C151.996 77.5896 151.458 79.1825 151.436 81.2812C151.415 82.8203 151.695 83.423 151.264 84.5639C151.027 85.1989 150.865 85.2097 150.025 86.6734C149.39 87.7928 149.045 88.4062 148.786 89.1381C148.539 89.8485 148.237 91.4521 148.453 93.045" stroke="#231F20" stroke-width="0.5" stroke-miterlimit="10"/>
<path d="M151.027 91.958C150.219 92.141 148.959 92.55 147.795 93.5401C146.578 94.5734 146.018 95.768 145.264 97.361C144.553 98.8678 144.09 100.364 143.853 101.117C143.325 102.818 143.347 103.194 142.851 103.991C142.129 105.175 141.171 105.831 140.503 106.283C139.017 107.284 138.521 107.037 136.507 108.221C135.645 108.727 135.085 109.06 134.449 109.684C133.577 110.556 133.168 111.407 132.564 112.677C131.476 114.991 131.466 114.991 130.539 116.11C130.055 116.691 129.591 117.111 128.514 117.369C127.189 117.692 126.435 117.821 125.811 118.37C125.294 118.833 125.358 119.812 125.401 120.426C125.444 121.093 125.606 121.136 125.692 121.954C125.821 123.084 125.595 123.622 125.811 123.719C126.037 123.816 126.371 123.267 127.513 122.255C128.385 121.481 128.816 120.996 129.311 121.018C129.43 121.018 129.645 121.018 129.839 121.276C130.022 121.534 130.087 122.083 130.033 122.664C129.99 123.095 129.947 124.096 130.205 124.193C130.41 124.257 130.593 123.719 131.326 123.02C131.853 122.503 132.371 122.245 133.383 121.728C133.685 121.577 133.975 121.448 134.32 121.491C134.697 121.545 134.956 121.782 135.085 121.9C135.57 122.342 135.71 122.934 135.785 123.31C135.947 124.031 135.817 124.365 135.957 124.43C136.227 124.537 136.55 123.418 137.724 122.546C138.446 122.019 138.855 122.051 139.07 121.545C139.264 121.104 139.07 120.813 139.017 119.963C139.017 119.963 138.952 118.984 139.189 118.026C139.523 116.713 140.46 115.884 140.837 115.561C141.989 114.549 142.528 114.872 145.07 113.796C145.189 113.742 146.524 113.053 149.185 111.686C150.38 111.073 150.984 110.75 151.361 110.513C152.826 109.555 153.58 108.651 154.355 107.876C156.854 105.358 157.716 105.982 159.881 103.829C161.68 102.032 160.936 101.741 163.112 99.1368C164.696 97.2318 166.344 95.3053 169.047 94.6164C169.704 94.455 171.223 94.089 172.925 94.6164C173.733 94.8747 174.616 95.5313 176.394 96.8443C178.031 98.0605 178.548 98.6094 179.916 99.309C180.821 99.7718 180.864 99.6642 181.618 100.073C183.233 100.934 183.955 101.881 184.903 102.775C185.302 103.151 185.334 103.13 189.718 105.713C192.874 107.564 193.456 107.941 194.716 108.414C196.385 109.049 197.473 109.448 198.831 109.179C199.682 109.006 199.703 108.759 201.825 107.941C203.064 107.467 203.689 107.231 204.583 107.058C206.134 106.757 206.252 107.091 207.76 106.822C209.721 106.477 209.925 105.853 210.938 106.057C211.735 106.219 212.295 106.832 213.404 108.048C213.609 108.264 213.868 108.565 215.289 110.513C216.485 112.149 216.84 112.687 217.228 113.451C218.047 115.077 217.928 115.615 217.875 115.798C217.702 116.379 217.347 116.357 216.464 117.38C216.022 117.897 215.473 118.542 215.117 119.489C214.762 120.415 214.751 121.211 214.762 121.545C214.794 122.74 215.246 124.225 215.763 124.247C216.065 124.257 216.13 123.762 216.884 122.901C217.444 122.255 218.036 121.577 218.65 121.664C219.264 121.75 219.641 122.557 219.824 122.955C220.266 123.891 220.137 124.623 220.352 124.656C220.589 124.699 220.772 123.805 221.408 122.955C221.548 122.772 222.603 121.276 223.293 121.491C223.659 121.61 223.583 122.116 224.111 123.138C224.542 123.956 225.231 124.839 225.522 124.72C225.802 124.613 225.318 123.708 225.813 122.783C226.072 122.299 226.33 122.331 226.987 121.491C227.407 120.964 227.623 120.695 227.687 120.372C227.881 119.532 227.127 118.79 226.395 117.843C226.395 117.843 226.233 117.638 224.402 114.495C223.777 113.43 223.831 113.182 222.291 107.801C220.772 102.516 220.697 102.646 220.643 101.752C220.567 100.461 220.697 99.5566 220.05 98.5233C219.156 97.0919 217.53 96.6291 217.174 96.5322C216.614 96.3708 215.936 96.2739 213.351 96.6506C209.667 97.1888 209.3 97.6515 208.008 97.3502C206.575 97.0165 205.627 96.1448 204.723 95.2945C202.611 93.3356 203.096 92.2271 201.437 91.2476C199.778 90.2682 198.594 90.9463 197.678 89.7839C197.43 89.461 197.409 89.2673 197.032 87.2546C196.342 83.5307 196.256 83.2939 195.976 82.971C195.104 81.9808 193.94 82.0454 193.563 80.9153C193.499 80.7216 193.305 80.2695 193.509 79.8605C193.682 79.5053 193.994 79.4838 194.328 79.2148C194.942 78.7304 195.017 77.9017 195.093 77.0407C195.147 76.3949 195.287 74.8988 194.684 74.6298C194.554 74.576 194.35 74.5544 192.982 75.4477C192.163 75.9859 191.754 76.3088 190.87 76.9115C190.106 77.4389 189.718 77.7079 189.524 77.7941C188.458 78.2676 187.585 78.0093 186.53 77.9124C183.998 77.6864 183.61 78.6874 181.596 78.5044C179.959 78.3537 178.817 77.568 177.665 76.7393C173.259 73.6181 169.941 67.7308 169.026 66.0518" stroke="#231F20" stroke-width="0.5" stroke-miterlimit="10"/>
<path d="M214.805 121.018C215.376 120.759 215.882 120.652 216.216 120.609C216.862 120.523 217.411 120.447 217.918 120.727C218.478 121.039 218.575 121.534 218.855 121.491C219.156 121.448 219.07 120.878 219.501 120.49C220.05 119.995 221.138 120.049 221.849 120.437C222.345 120.706 222.442 121.018 222.851 121.028C223.25 121.028 223.465 120.759 223.853 120.501C224.391 120.135 226.729 119.662 227.73 120.124" stroke="#231F20" stroke-width="0.5" stroke-miterlimit="10"/>
<path d="M216.83 103.227C216.895 103.959 217.013 104.766 217.239 105.638C217.94 108.307 219.286 110.255 220.298 111.45" stroke="#231F20" stroke-width="0.5" stroke-miterlimit="10"/>
<path d="M188.329 97.9529C188.846 98.857 189.589 99.9225 190.677 100.945C193.564 103.657 196.957 104.292 198.433 104.464" stroke="#231F20" stroke-width="0.5" stroke-miterlimit="10"/>
<path d="M170.534 76.8146C170.405 77.342 170.168 78.203 169.769 79.2255C168.767 81.8086 167.744 84.4455 165.418 86.2106C164.653 86.7918 163.791 87.2439 163.597 88.2017C163.468 88.8368 163.737 89.2027 163.953 90.1391C164.287 91.6028 164.114 92.819 164.006 93.4863C163.888 94.3043 163.543 95.7788 162.358 97.4148" stroke="#231F20" stroke-width="0.5" stroke-miterlimit="10"/>
<path d="M181.435 99.9548C181.079 100.213 180.282 100.956 179.819 101.526C179.463 101.967 179.28 102.193 179.226 102.527C179.173 102.947 179.345 103.302 180.045 104.292C180.928 105.53 181.273 105.53 181.391 106.057C181.596 106.94 180.864 107.812 180.508 108.231C179.593 109.318 178.731 109.523 177.104 110.341C174.649 111.589 173.033 112.956 172.527 113.398C172.246 113.645 171.492 114.463 169.995 116.099C169.371 116.777 169.069 117.122 168.94 117.681C168.778 118.349 169.209 118.801 168.864 119.328C168.649 119.651 168.509 120.081 168.164 120.307C167.733 120.587 167.679 120.695 167.259 120.953C166.71 121.298 166.171 121.793 165.891 122.083C165.46 122.535 165.062 122.643 164.976 122.611C164.588 122.492 165.708 118.704 165.019 118.381C164.793 118.273 164.469 118.521 163.845 118.973C163.263 119.393 162.875 119.802 162.671 120.028C161.313 121.502 161.13 122.632 160.71 122.611C160.193 122.589 159.784 121.158 159.73 120.437C159.665 119.543 160.269 118.973 160.085 118.79C159.87 118.585 158.954 119.134 158.265 119.672C156.779 120.824 156.466 122.148 155.949 122.062C155.346 121.954 155.206 120.071 155.658 119.306C155.928 118.844 156.186 118.725 156.563 117.918C156.606 117.81 156.639 117.724 156.703 117.552C156.973 116.777 156.929 116.53 157.091 116.164C157.339 115.615 157.823 115.335 157.91 115.281C158.459 114.958 158.998 114.614 159.848 114.549C161.529 114.42 162.401 114.033 162.789 113.936C163.769 113.688 163.629 113.699 165.342 112.913C166.484 112.386 166.236 112.386 166.753 112.031C168.261 111.008 168.724 110.093 169.187 109.006C169.769 107.661 169.478 107.101 169.424 106.951C169.22 106.38 168.8 106.1 168.078 105.541C168.078 105.541 166.968 104.68 165.73 103.55C165.008 102.893 163.845 100.956 163.371 98.8785" stroke="#231F20" stroke-width="0.5" stroke-miterlimit="10"/>
<path d="M125.423 120.587C125.541 120.437 126.414 119.586 126.931 119.436C127.534 119.263 128.213 119.436 128.633 119.791C128.87 119.995 129.021 120.824 129.322 121.029C129.441 121.104 129.904 120.523 130.162 120.2C130.442 119.866 130.432 119.78 130.776 119.597C131.315 119.306 132.004 119.296 132.564 119.554C133.017 119.758 133.103 119.952 133.501 120.555C133.663 120.802 134.439 121.814 134.622 121.276C134.751 120.867 134.913 120.361 135.419 120.071C135.763 119.877 136.334 119.737 136.593 119.748C136.776 119.748 137.304 119.845 137.885 120.394C138.187 120.684 138.898 121.534 138.973 121.75" stroke="#231F20" stroke-width="0.5" stroke-miterlimit="10"/>
<path d="M139.975 110.567C139.102 111.127 138.435 111.676 137.982 112.095C137.164 112.838 136.442 113.484 135.871 114.56C135.44 115.378 135.257 116.121 135.171 116.616" stroke="#231F20" stroke-width="0.5" stroke-miterlimit="10"/>
<path d="M146.913 104.464C146.676 104.863 146.352 105.433 146.029 106.165C145.652 107.004 145.685 107.144 145.738 107.22C145.878 107.424 146.374 107.489 148.614 106.692C150.553 106.004 151.523 105.659 152.611 104.992C154.377 103.916 155.616 102.646 156.435 101.645" stroke="#231F20" stroke-width="0.5" stroke-miterlimit="10"/>
<path d="M114.706 43.7618C114.674 43.482 114.641 42.3627 115.008 41.9429C115.223 41.6954 115.568 41.5124 116.709 41.4155C117.657 41.3402 118.39 41.3832 118.821 41.4155C121.32 41.5877 121.987 41.7599 122.408 41.2971C122.688 40.9958 122.548 40.759 122.935 40.2962C123.129 40.0702 123.474 39.758 124.174 39.532C125.65 39.0584 126.124 39.7903 128.224 39.5858C129.258 39.489 129.678 39.2629 130.518 39.4674C130.831 39.5428 131.132 39.6719 131.283 39.5213C131.531 39.2845 131.003 38.7033 131.111 37.9391C131.143 37.67 131.251 37.4225 132.048 36.5292C133.136 35.313 133.685 34.7102 133.987 34.8286C134.31 34.9578 134.299 35.6574 134.278 37.0566C134.245 38.9185 134.019 39.8226 134.278 39.9302C134.472 40.0056 134.73 39.5643 135.624 38.5849C136.4 37.7346 137.089 37.1104 137.854 36.5938C138.468 36.1848 139.179 35.7004 139.556 35.948C139.803 36.1094 139.793 36.5076 139.793 36.766C139.771 40.0056 140.073 39.489 139.847 40.6944C139.534 42.438 138.985 43.0622 139.373 43.5143C139.653 43.8372 140.062 43.6757 140.956 43.8695C141.699 44.0309 142.216 44.3538 143.25 44.9888C144.22 45.5807 145.243 46.2158 146.245 47.3351C147.505 48.7343 147.494 49.52 148.302 49.6814C148.539 49.7352 149.078 49.7675 150.769 48.4437C152.395 47.1737 152.449 46.7109 153.828 45.57C155.207 44.4291 156.111 43.6757 157.469 43.4605C159.009 43.2129 160.151 43.8049 160.528 43.2237C160.732 42.9116 160.485 42.5779 160.291 41.6954C160.118 40.9204 160.183 40.1024 160.291 38.4665C160.431 36.4646 160.506 35.4529 160.937 35.2914C161.26 35.1731 161.68 35.4852 162.521 36.1094C163.371 36.7444 163.932 37.1642 164.406 37.9283C164.923 38.7786 164.901 39.3383 165.644 39.9841C165.806 40.124 166.183 40.4469 166.409 40.3392C166.603 40.2424 166.571 39.8441 166.528 39.2199C166.528 39.2199 166.409 37.6162 166.409 36.6368C166.409 35.6036 166.409 34.9363 166.7 34.8179C167.206 34.6241 168.251 36.1525 168.466 36.4646C168.757 36.8951 168.994 37.2395 169.167 37.7561C169.673 39.2199 169.016 40.0486 169.522 40.5114C169.877 40.8451 170.298 40.5007 171.935 40.4576C172.452 40.4469 173.098 40.5114 174.401 40.6298C176.33 40.8128 176.567 40.942 176.75 41.1572C177.181 41.6631 176.911 42.2765 177.45 42.6855C177.558 42.7609 177.73 42.8685 178.387 42.9223C179.216 42.9869 179.615 42.89 180.681 42.8039C182.125 42.6963 182.372 42.89 182.62 42.9761C183.18 43.1914 183.223 43.0945 183.579 43.3636C184.042 43.708 184.085 43.8156 184.494 44.0847C185.065 44.4506 185.281 45.1072 185.281 45.7637C185.281 46.3342 185.13 46.3772 184.774 47.1952C184.548 47.701 184.548 47.7871 184.505 49.0141C184.451 50.3487 184.419 51.016 184.031 51.4788C183.708 51.8663 183.32 51.9954 183.331 52.3614C183.331 52.6304 183.546 52.7273 183.74 53.0609C183.988 53.5022 183.988 53.922 183.977 54.4709C183.967 55.1705 183.794 56.3759 183.45 56.4082C183.234 56.4297 183.137 55.9562 182.512 54.9983C182.297 54.6754 181.629 53.6637 181.392 53.7605C181.263 53.8143 181.381 54.1803 181.392 54.9983C181.414 55.9777 181.252 56.6557 181.22 56.8172C181.155 57.0755 180.854 58.3455 180.455 58.3455C180.1 58.3455 179.809 57.3015 179.636 56.645C179.227 55.1597 179.475 54.7292 179.044 54.2987C178.775 54.0296 178.495 54.0188 176.75 53.8897C174.369 53.7175 174.434 53.7067 174.165 53.7175C172.937 53.7605 171.245 53.8143 170.987 54.5355C170.793 55.0844 171.633 55.418 172.452 57.0647C172.915 57.9796 172.775 58.1303 173.454 59.82C174.035 61.2945 174.38 62.134 174.746 62.1125C175.102 62.0802 175.155 61.273 176.093 59.5294C176.642 58.507 176.771 58.5177 176.793 58.5285C176.922 58.5715 176.793 59.1635 176.674 60.1752C176.567 61.09 176.437 62.726 176.62 62.7583C176.75 62.7798 176.933 61.9511 177.558 60.5842C178.042 59.5187 178.408 58.7115 178.678 58.7653C179.012 58.8298 179.076 60.2828 178.915 61.4668C178.829 62.1018 178.742 62.1771 178.387 63.4579C177.741 65.8149 177.881 66.1163 177.385 66.7406C177.277 66.8805 176.48 67.8491 175.274 67.9783C174.391 68.0644 174.003 67.6339 172.516 67.0419C171.31 66.5576 171.267 66.7406 169.339 66.1594C167.519 65.6105 166.528 65.3199 165.515 64.7494C164.643 64.2543 163.318 63.3072 162.111 61.4668" stroke="#231F20" stroke-width="0.5" stroke-miterlimit="10"/>
<path d="M164.481 51.0375C164.028 51.0914 162.553 51.3281 161.486 52.5659C160.258 53.9973 160.064 56.1714 161.012 58.0872" stroke="#231F20" stroke-width="0.5" stroke-miterlimit="10"/>
<path d="M182.954 43.1053C182.103 43.3421 181.855 45.1503 181.931 45.3978C182.006 45.6669 182.232 46.4741 182.986 47.0983C183.277 47.3459 184.387 47.8087 184.581 47.8948" stroke="#231F20" stroke-width="0.5" stroke-miterlimit="10"/>
<path d="M95.7158 60.8102C95.8235 60.8318 97.45 61.23 97.9132 61.6067C98.3117 61.9403 98.4949 62.317 98.204 62.7798C98.0101 63.0812 96.793 63.8669 96.0713 64.2866" stroke="#231F20" stroke-width="0.5" stroke-miterlimit="10"/>
<path d="M114.716 43.6434C114.63 44.0524 115.125 44.8273 115.125 45.753C115.125 46.9046 114.49 47.1952 114.651 48.0993C114.802 48.9172 115.319 49.0249 115.351 49.8644C115.384 50.4563 115.136 50.5855 114.996 51.2743C114.727 52.6304 115.308 53.9866 115.588 53.9758C115.793 53.9758 115.772 53.2654 116.407 52.0923C116.569 51.8017 116.881 51.2205 117.053 51.2743C117.215 51.3174 117.172 51.9201 117.107 52.6842C117.01 53.9327 116.859 54.2233 117.053 54.74C117.236 55.2458 117.657 55.6871 117.872 55.6225C118.12 55.5364 117.883 54.8476 118.163 53.9758C118.184 53.8897 118.572 52.7488 119.574 52.2107C120.296 51.8232 120.554 52.1784 122.396 52.0385C123.613 51.9416 123.753 51.7694 124.744 51.8017C125.563 51.8232 126.188 51.8555 126.737 52.2753C127.275 52.6735 127.459 53.2224 127.674 53.8574C128.137 55.235 127.986 56.4297 127.911 57.0324C127.739 58.3455 127.286 59.3357 126.974 59.9061C126.457 60.8533 125.584 62.4569 124.626 62.3708C123.786 62.2955 123.236 60.9717 122.633 59.4971C121.901 57.7105 121.804 56.4835 121.577 56.5051C121.319 56.5266 121.179 58.1841 121.168 59.2065C121.147 60.3689 121.265 61.0685 121.168 61.09C120.91 61.1439 120.005 56.5051 119.348 56.5696C118.981 56.6019 118.831 58.0764 118.701 59.3249C118.54 60.8748 118.464 61.639 118.701 62.6076C118.831 63.1458 119.326 65.1369 120.931 65.8903C121.448 66.1378 122.127 66.1163 123.462 66.0625C124.927 66.0087 126.371 65.9549 128.277 65.4705C129.871 65.0723 130.722 64.8571 131.746 64.2328C133.835 62.9628 134.062 61.5744 135.268 61.5959C135.591 61.5959 135.796 61.7035 137.853 63.361C139.103 64.3727 139.727 64.8786 140.492 65.5351C141.3 66.2347 142.366 67.1603 143.605 68.2904" stroke="#231F20" stroke-width="0.5" stroke-miterlimit="10"/>
<path d="M136.216 51.4573C136.604 51.5865 137.476 51.9416 137.982 52.8027C138.542 53.7713 138.316 54.783 138.101 55.7409C137.788 57.1401 137.099 58.2056 136.517 58.916" stroke="#231F20" stroke-width="0.5" stroke-miterlimit="10"/>
<path d="M117.473 41.3725C117.667 41.4801 118.421 41.9752 118.41 42.4703C118.41 42.7716 118.518 43.2237 118.152 43.7188C117.344 44.8273 116.989 45.0857 116.407 45.2794C116.148 45.3655 115.254 45.2579 115.061 45.2256" stroke="#231F20" stroke-width="0.5" stroke-miterlimit="10"/>
<path d="M118.271 53.8251C118.971 54.2341 119.703 54.7185 120.446 55.2889C122.719 57.0325 124.873 59.96 125.951 61.5636" stroke="#231F20" stroke-width="0.5" stroke-miterlimit="10"/>
<path d="M156.435 117.886C156.618 117.853 157.21 117.714 157.555 117.681C158.363 117.606 158.75 117.606 159.084 117.907C159.278 118.079 159.354 118.166 159.612 118.359C159.709 118.435 159.871 118.628 160.162 118.564C160.474 118.51 160.539 118.133 160.872 117.821C161.249 117.477 161.885 117.358 162.337 117.531C162.854 117.724 162.768 117.8 163.21 117.886C163.662 117.972 163.921 117.886 164.567 118.004C164.772 118.036 164.729 118.079 164.944 118.123C165.45 118.219 165.655 117.864 166.398 117.714C166.851 117.617 167.131 117.714 167.357 117.767C167.895 117.886 168.585 118.962 168.746 119.296" stroke="#231F20" stroke-width="0.5" stroke-miterlimit="10"/>
</g>
<defs>
<clipPath id="clip0_84_1231">
<rect width="228" height="125" fill="white"/>
</clipPath>
</defs>
</svg>
