<svg width="249" height="130" viewBox="0 0 249 130" fill="none" xmlns="http://www.w3.org/2000/svg">
<g clip-path="url(#clip0_170_1590)">
<path d="M24.6577 61.0785C25.5534 60.0686 26.9891 58.6915 29.0571 57.5111C31.0987 56.3438 32.8769 55.8848 34.7605 55.3995C37.25 54.77 37.9876 54.8749 41.5967 54.2585C44.231 53.8125 45.8907 53.524 47.7874 52.96C49.1046 52.5666 52.8059 51.36 56.7443 48.5795C60.0504 46.245 59.8265 45.4056 63.7517 42.7431C65.8855 41.3004 67.2027 40.4086 69.2838 39.8184C72.7348 38.8479 75.6326 39.4118 76.7786 39.661C78.5041 40.0282 80.256 40.3955 81.8234 41.7726C82.6664 42.5071 82.7059 42.8743 83.7728 43.7137C84.1153 43.9891 85.2744 44.8547 87.5136 45.6548C89.0679 46.2056 89.687 46.2056 91.4257 46.6253C94.2181 47.2942 95.8119 47.6745 97.4583 48.7369C99.5658 50.1009 100.712 51.8977 101.7 53.4453C102.622 54.9011 103.109 56.0815 103.82 57.8259C104.453 59.3866 104.966 60.9473 105.941 63.9901C107.034 67.3739 107.14 67.951 107.89 68.8559C109.063 70.2724 110.564 71.0331 111.236 71.3741C112.514 72.0036 113.686 72.2922 114.489 72.4233" stroke="black" stroke-width="0.5" stroke-miterlimit="10"/>
<path d="M83.3778 75.2694C83.3778 74.548 83.4832 73.4725 84.0233 72.3446C85.2351 69.8658 87.5401 69.4592 87.606 67.8067C87.6323 66.9673 87.0528 66.8099 86.1439 65.2098C85.3931 63.8852 85.3931 63.3212 84.5106 60.1866C83.2856 55.793 82.5217 54.2847 83.0485 53.9437C83.1671 53.865 83.4174 53.8125 84.9189 54.7569C86.2229 55.57 87.3557 56.2914 88.7519 57.6816C89.6871 58.6259 90.9516 60.0817 92.0976 62.1408" stroke="black" stroke-width="0.5" stroke-miterlimit="10"/>
<path d="M62.1182 58.1537C62.2762 57.1176 62.645 55.6094 63.5802 54.0224C64.0281 53.2617 65.095 51.5042 67.242 50.2058C68.9412 49.1828 70.4954 48.9467 71.3121 48.8287C74.987 48.291 78.0034 49.5763 79.3732 50.2845" stroke="black" stroke-width="0.5" stroke-miterlimit="10"/>
<path d="M44.5337 58.639C43.9541 59.3997 43.2692 60.3834 42.5843 61.5637C42.2023 62.2064 41.3066 63.8065 40.4636 65.9443C39.7523 67.7673 38.8961 70.5085 38.5142 74.0496" stroke="black" stroke-width="0.5" stroke-miterlimit="10"/>
<path d="M67.0839 66.023C66.6756 66.6263 66.2014 67.4395 65.7799 68.4494C65.6482 68.7772 65.174 69.9576 64.8842 71.6102C64.713 72.6201 64.5681 74.0365 64.7261 75.7415" stroke="black" stroke-width="0.5" stroke-miterlimit="10"/>
<path d="M29.4652 64.9738C28.8593 65.3934 28.0032 66.0623 27.1865 67.0853C26.6465 67.7542 25.8693 68.7116 25.4742 70.1675C25.0263 71.82 25.2898 73.2496 25.4742 74.2201C25.6454 75.1382 25.9484 76.0825 26.0406 76.4104C26.4094 77.6039 26.7387 78.2859 26.686 79.3351C26.6728 79.7942 26.5806 80.1614 26.5279 80.3844" stroke="black" stroke-width="0.5" stroke-miterlimit="10"/>
<path d="M22.1289 68.292C21.3649 68.8166 20.9171 69.3805 20.6668 69.7478C20.4165 70.1019 20.2058 70.4167 20.1004 70.8888C19.8897 71.7544 20.298 72.0036 20.1004 72.6725C19.9424 73.1971 19.534 73.4988 18.7174 74.1283C18.1115 74.5874 17.5714 74.9021 17.1763 75.0989" stroke="black" stroke-width="0.5" stroke-miterlimit="10"/>
<path d="M49.1705 78.4302C48.67 78.9941 48.3407 79.5056 48.1168 79.886C47.7875 80.45 47.6163 80.7385 47.5504 81.1844C47.524 81.368 47.4187 82.0894 47.8007 82.8107C48.1431 83.4665 48.5119 83.3747 48.9466 84.1091C49.2364 84.6075 49.3154 85.0666 49.3549 85.3289C49.4603 85.9847 49.3549 86.483 49.2759 86.9552C49.1705 87.4798 48.9598 88.2667 48.4593 89.1455" stroke="black" stroke-width="0.5" stroke-miterlimit="10"/>
<path d="M54.9527 79.0859C54.5971 79.6761 54.2414 80.0958 53.978 80.3844C53.5565 80.8434 53.3194 80.9614 53.0033 81.4336C52.7135 81.8533 52.4764 82.2074 52.5159 82.6533C52.5555 83.1124 52.8584 83.4534 53.1614 83.7944C53.6092 84.2796 53.7673 84.1878 53.978 84.5288C54.2546 84.9748 54.1756 85.4863 54.057 86.2338C53.9253 87.0339 53.6487 87.611 53.5697 87.7683C53.3984 88.1093 53.1482 88.4372 52.674 89.0668C52.3052 89.5389 52.0022 89.9324 51.7783 90.2078" stroke="black" stroke-width="0.5" stroke-miterlimit="10"/>
<path d="M58.8646 80.4631C58.4827 81.0926 58.1797 81.591 57.969 81.9189C57.4289 82.7845 57.2577 83.0075 57.1523 83.4534C57.0864 83.7026 56.9679 84.2403 57.1523 84.8305C57.2709 85.1977 57.3894 85.224 57.5606 85.6437C57.8372 86.2994 57.8109 86.9028 57.8109 87.0995C57.7977 87.611 57.6528 87.9913 57.2445 88.8832C56.9547 89.4996 56.5596 90.2996 56.0195 91.2308" stroke="black" stroke-width="0.5" stroke-miterlimit="10"/>
<path d="M63.0931 81.5123C62.6584 81.9976 62.2896 82.3779 62.0394 82.6533C61.2359 83.4796 60.9988 83.6763 60.8934 84.1091C60.7749 84.6469 60.9724 85.1321 61.0515 85.3289C61.2754 85.8928 61.5257 85.906 61.7891 86.4699C62.0262 86.9814 62.0262 87.4405 62.0394 87.7683C62.0394 88.0044 62.0394 88.4241 61.7101 89.4734C61.5652 89.9717 61.3281 90.6406 60.9724 91.4144" stroke="black" stroke-width="0.5" stroke-miterlimit="10"/>
<path d="M24.6575 61.0785C23.5643 62.272 21.4041 63.8983 20.5875 64.5672C19.0859 65.8 17.9794 66.8099 17.0838 67.6493C15.8061 68.8297 15.1738 68.9871 14.805 69.8396C14.5811 70.3511 14.5021 70.8888 13.9884 71.6233C13.883 71.7807 13.6591 72.0692 13.0137 72.6725C12.6053 73.0529 12.0521 73.525 10.893 74.3775C9.81292 75.1644 9.28604 75.5579 8.61428 75.912C7.58688 76.476 7.56054 76.3186 6.66485 76.8039C5.66379 77.3416 5.04472 77.8925 3.89877 78.9155C2.91089 79.7942 2.41036 80.2401 2.02837 80.8565C1.80445 81.2107 1.60688 81.7484 1.21172 82.7976C0.711192 84.1223 0.474099 84.7781 0.395068 85.3158C0.250179 86.4306 0.421412 87.2569 0.55313 87.8339C0.69802 88.4373 0.84291 89.1061 1.11952 89.1324C1.43564 89.1586 1.5937 88.293 2.26547 87.1913C2.47622 86.8241 3.13481 85.7486 4.21489 84.9223C5.69014 83.7944 6.73071 84.096 7.15221 83.1386C7.33661 82.732 7.27076 82.2468 7.15221 81.2762C6.99415 79.9909 6.67802 79.6499 6.90194 79.1647C7.03366 78.8892 7.28393 78.7187 8.61428 78.2728C9.91829 77.84 10.6164 77.6039 11.8677 77.381C13.4747 77.0924 14.2913 76.9613 14.6338 77.3023C14.9631 77.6301 14.8445 78.0367 14.8841 79.8991C14.8841 80.5549 14.9499 81.1975 14.9631 81.8402C15.029 84.3452 16.6096 87.8339 18.1375 92.6211C18.3219 93.1981 18.6512 94.2867 18.2165 95.3753C18.0058 95.913 17.6765 96.2672 17.1628 96.8311C16.2539 97.8279 15.9115 97.7754 15.1212 98.6935C14.5811 99.323 14.7128 99.3755 14.0674 100.149C13.3956 100.949 12.7634 101.474 12.6053 101.605C11.7492 102.3 11.5384 102.248 10.6559 102.982C9.99732 103.533 9.66803 103.809 9.43093 104.281C9.32556 104.491 9.22018 104.792 9.18067 106.222C9.14115 107.533 9.22018 107.586 9.18067 108.491C9.15433 108.91 9.08847 109.501 8.9304 110.681C8.81186 111.638 8.746 112.124 8.68014 112.465C8.50891 113.409 8.29816 114.104 8.03472 114.983C7.75811 115.875 7.74494 115.809 7.21807 117.409C7.07318 117.868 6.92829 118.34 6.65168 119.272C6.38824 120.163 6.29604 120.491 6.24335 120.977C6.21701 121.252 6.24335 121.278 6.24335 122.275C6.24335 123.521 6.25653 124.151 6.24335 124.387C6.16432 125.305 6.01943 125.659 6.24335 125.842C6.49362 126.052 6.99415 125.829 7.13904 125.764C7.75811 125.488 8.02155 124.911 8.11375 124.714C8.42988 124.006 8.31133 123.429 8.44305 123.416C8.58794 123.39 8.66697 124.124 9.18067 124.872C9.56265 125.449 10.0105 125.764 10.2344 125.921C10.4056 126.039 10.9984 126.433 12.7634 126.734C13.9093 126.931 14.9631 127.088 16.2671 126.813C16.9784 126.656 17.7423 126.498 17.9004 126C17.9794 125.764 17.9004 125.475 16.9257 124.295C15.7929 122.918 15.2002 122.223 14.5679 122.105C14.2255 122.039 14.0279 122.105 12.6975 122.511C11.5648 122.852 10.6559 123.193 10.2081 123.337" stroke="black" stroke-width="0.5" stroke-miterlimit="10"/>
<path d="M17.9797 125.633C17.9797 125.633 19.4023 125.764 19.9292 125.554C20.2585 125.423 20.6405 125.108 20.6668 124.741C20.6931 124.321 20.2321 124.111 19.2047 123.285C19.1125 123.206 18.1905 122.459 17.3343 121.58C16.5572 120.793 16.7284 120.793 16.0303 120.124C15.2137 119.324 14.8975 119.219 14.4892 118.59C14.3443 118.367 14.0545 117.868 13.9228 117.212C13.8306 116.753 13.7779 116.045 14.3312 114.458C14.5551 113.829 15.0029 112.675 15.9645 111.127C16.8601 109.684 17.308 108.963 18.1642 108.373C19.0071 107.782 19.7711 107.586 20.9302 107.323C22.8665 106.864 23.6436 107.061 25.3296 106.838C26.9761 106.615 28.1089 106.169 29.729 105.54C31.6126 104.805 31.5467 104.582 35.5905 102.458C38.4751 100.949 38.9098 100.844 39.6606 100.031C40.385 99.2443 40.846 98.2607 41.7812 96.3065C42.7164 94.3261 42.8086 93.6178 42.7559 92.9752C42.7296 92.6998 42.6506 91.7292 42.0183 90.7849C41.5836 90.1291 41.2675 90.0636 40.385 89.0012C39.8318 88.3323 39.5552 88.0044 39.4103 87.6241C39.2786 87.2831 38.9361 86.1814 39.9767 84.3846" stroke="black" stroke-width="0.5" stroke-miterlimit="10"/>
<path d="M18.1377 105.199C18.7699 104.228 19.389 103.494 19.85 103.008C21.0092 101.776 22.0234 100.7 23.1957 100.818C23.5513 100.858 23.9201 101.002 24.4997 101.225C25.2373 101.513 25.5271 101.723 25.8827 101.867C26.4096 102.09 27.2394 102.235 28.4907 101.867" stroke="black" stroke-width="0.5" stroke-miterlimit="10"/>
<path d="M21.8915 107.1C21.9178 107.52 21.8915 109.081 21.8915 109.802C21.8915 110.051 21.8652 110.668 21.6939 112.32C21.6149 113.002 21.549 113.698 21.4041 114.629C21.3383 115.114 21.1012 116.675 20.6665 118.721C20.3636 120.163 20.1528 120.95 20.1396 122.249C20.1396 122.721 20.2582 123.836 20.2714 124.098" stroke="black" stroke-width="0.5" stroke-miterlimit="10"/>
<path d="M20.5215 125.095C20.64 125.147 21.786 125.554 22.0889 125.383C22.4051 125.2 22.4841 124.78 22.5368 124.531C22.6158 124.137 22.5368 123.914 22.6158 123.888C22.7343 123.849 22.9583 124.269 23.4325 124.859C23.7091 125.2 23.9857 125.501 24.1306 125.633C24.6838 126.144 25.3424 126.249 26.4093 126.406C26.7386 126.459 27.1864 126.498 29.3071 126.485C31.0985 126.485 31.4936 126.433 31.6253 126.157C31.7834 125.856 31.5463 125.462 31.138 124.78C30.7165 124.072 30.2686 123.613 29.7549 123.114C29.1227 122.498 28.8066 122.183 28.4509 122.065C28.148 121.96 27.8582 121.947 26.5015 122.144C25.8166 122.249 24.4599 122.524 24.012 122.603" stroke="black" stroke-width="0.5" stroke-miterlimit="10"/>
<path d="M31.6653 125.685C31.7707 125.711 33.2327 126.013 33.7333 125.685C33.7728 125.659 34.3655 125.252 34.3392 124.675C34.3392 124.4 34.1811 124.19 33.5225 123.587C32.8112 122.918 32.2448 122.472 32.2185 122.446C30.8881 121.396 30.8881 121.423 30.4667 121.068C29.729 120.452 29.3602 120.137 28.9651 119.652C28.6489 119.258 28.1221 118.616 27.8191 117.671C27.4898 116.648 27.582 115.783 27.6611 115.114C27.8323 113.553 28.425 112.452 28.7543 111.835C29.3075 110.812 30.111 109.343 31.7311 108.386C32.2712 108.071 33.2854 107.822 35.3139 107.337C38.2249 106.628 37.9878 106.878 38.8176 106.523C39.9767 106.038 40.9251 105.369 42.5584 104.897C42.8745 104.805 43.3619 104.687 43.9414 104.818C44.4288 104.936 44.6 105.133 45.3245 105.632C46.3914 106.353 46.9314 106.707 47.5242 106.681C48.2618 106.655 48.8018 106.143 48.9072 106.038C49.579 105.395 49.3024 104.871 49.8029 104.412C50.2376 104.018 50.7117 104.15 52.9773 104.254C54.6896 104.333 54.4394 104.254 55.5063 104.333C57.1791 104.451 58.4304 104.674 58.7597 104.74C59.9715 104.963 60.0637 105.054 61.7761 105.382C62.7639 105.566 63.2776 105.671 63.8177 105.71C65.2139 105.815 66.2808 105.632 66.6628 105.553C68.2302 105.238 69.205 105.054 69.6792 104.254C70.1929 103.389 69.8372 102.287 69.6001 101.579C69.2708 100.569 68.6913 99.9263 68.2961 99.4673C67.901 99.0214 67.7034 98.9033 66.3467 97.841C64.3182 96.2671 63.844 95.8343 63.4094 95.1654C63.0669 94.6277 62.8693 94.1162 62.7639 93.7883" stroke="black" stroke-width="0.5" stroke-miterlimit="10"/>
<path d="M42.6501 103.809C42.3735 103.599 41.9652 103.271 41.5042 102.838C41.1749 102.523 39.9235 101.317 40.1211 101.054C40.2528 100.871 41.0168 101.199 42.3999 101.789C43.0716 102.077 43.4799 102.274 44.3493 102.681C45.1132 103.035 45.7323 103.31 46.1406 103.494" stroke="black" stroke-width="0.5" stroke-miterlimit="10"/>
<path d="M69.8765 103.795C69.9423 104.189 70.5087 104.753 70.4297 105.435C70.3507 106.196 70.298 106.615 70.4297 107.14C70.6404 107.953 71.141 108.478 71.5756 108.924C72.0498 109.422 72.3001 109.514 73.1167 110.143C73.8412 110.694 74.3944 111.127 74.8291 111.599C75.0135 111.796 75.4745 112.334 76.2911 114.603C76.5941 115.442 76.9761 116.504 77.3449 118.091C77.8718 120.321 77.5951 120.255 78.0825 121.908C78.425 123.049 78.7148 123.639 78.9782 124.99C79.1231 125.738 79.5841 126.839 79.9661 127.075" stroke="black" stroke-width="0.5" stroke-miterlimit="10"/>
<path d="M100.396 68.8559C100.58 69.21 100.87 69.6691 101.291 70.1544C101.528 70.4167 101.989 70.9413 102.674 71.3741C103.781 72.0561 104.887 72.1086 104.874 72.1872C104.861 72.2659 103.491 71.82 102.187 72.3446C101.555 72.6069 101.107 73.0397 100.804 73.3939" stroke="black" stroke-width="0.5" stroke-miterlimit="10"/>
<path d="M77.7007 119.967C77.0948 119.993 74.4736 120.085 73.8414 120.111C71.7207 120.177 70.7592 120.216 69.442 120.268C67.0447 120.386 66.5047 120.465 66.1886 120.518C63.9098 120.885 63.1195 121.449 62.8429 121.659C62.4741 121.934 61.3018 122.852 61.4599 123.77C61.5653 124.36 62.1843 124.833 64.6343 125.633C67.6901 126.642 69.6791 126.931 69.6791 126.931C73.5648 127.508 75.501 127.784 78.715 127.98C82.7587 128.229 85.8146 128.164 86.4468 128.138C91.4126 128.02 90.9384 127.574 97.6033 127.167C100.844 126.97 103.425 126.918 106.639 126.026C107.416 125.816 108.905 125.357 110.63 124.4C111.71 123.796 112.804 123.193 113.805 122.052C115.003 120.701 115.438 119.324 115.925 117.75C116.334 116.412 116.465 115.521 116.9 111.914C117.335 108.386 117.545 106.615 117.638 105.671C117.993 101.933 117.914 101.264 118.204 98.6148C118.467 96.2409 118.718 94.6933 119.073 92.9752" stroke="black" stroke-width="0.5" stroke-miterlimit="10"/>
<path d="M101.423 124.57C102.029 124.544 103.135 124.439 104.228 124.492C105.322 124.544 106.086 124.636 107.482 124.819C111.96 125.396 112.066 125.41 112.448 125.383C114.937 125.252 116.241 124.347 116.597 124.085C117.058 123.744 118.243 122.878 118.059 121.973C117.927 121.265 116.992 120.832 116.347 120.675C114.74 120.295 113.883 121.462 111.71 121.816C110.92 121.947 109.853 121.986 108.536 121.659" stroke="black" stroke-width="0.5" stroke-miterlimit="10"/>
<path d="M119.323 91.139C119.35 90.6275 119.429 89.5652 119.455 89.0537" stroke="black" stroke-width="0.5" stroke-miterlimit="10"/>
<path d="M120.272 78.6531C120.272 78.0761 120.272 76.8301 120.272 75.6759C120.272 73.5381 120.272 72.9479 120.272 71.9512C120.272 71.1511 120.246 69.9445 120.193 68.4625" stroke="black" stroke-width="0.5" stroke-miterlimit="10"/>
<path d="M108.457 55.8061C108.799 55.6487 109.247 55.452 109.8 55.2815C110.024 55.2159 110.248 55.1372 110.498 55.0848C111.486 54.8356 112.29 54.6388 113.264 54.8356C113.686 54.9274 115.266 55.8979 116.057 56.5537" stroke="black" stroke-width="0.5" stroke-miterlimit="10"/>
<path d="M78.9783 92.6998C78.6885 93.6178 78.4778 94.4179 78.3329 95.0474C77.9114 96.8705 77.9773 97.3689 78.0036 97.5656C78.0826 98.064 78.2012 98.1164 78.9783 99.6772C79.3603 100.451 79.7818 101.303 80.2033 102.353C80.4931 103.074 80.6775 103.572 80.8487 104.294C81.0199 105.028 81.0858 105.605 81.178 106.484C81.2439 107.114 81.2834 107.73 81.3361 108.517C81.4019 109.461 81.4019 109.697 81.4941 110.143C81.4941 110.143 81.6522 110.878 81.9815 111.599C82.561 112.858 83.7202 113.75 84.8266 114.76C85.1822 115.088 86.3677 116.517 88.7386 119.377C88.9494 119.639 89.5816 120.413 89.8846 121.567C90.0163 122.078 90.2402 122.931 89.8055 123.508C89.7133 123.639 89.6343 123.678 88.6596 124.242C87.5795 124.859 87.5927 124.872 87.5136 124.885C86.618 125.2 86.3545 124.688 85.393 124.885C84.5105 125.069 84.471 125.554 83.5226 125.698C82.9825 125.777 82.5742 125.698 82.2186 125.619C81.2043 125.41 80.4404 124.898 79.9398 124.478" stroke="black" stroke-width="0.5" stroke-miterlimit="10"/>
<path d="M82.7455 103.717C82.6665 104.858 82.5216 106.484 82.4821 107.219C82.4294 108.333 82.4426 108.622 82.5611 109.002C82.7719 109.632 83.0748 109.868 84.1022 110.943C85.2218 112.124 85.7882 112.727 86.1439 113.37C86.5654 114.157 86.4732 115.914 86.5258 116.596" stroke="black" stroke-width="0.5" stroke-miterlimit="10"/>
<path d="M90.8065 100.346C91.0699 100.818 91.9129 102.733 92.1764 103.651C92.5979 105.107 92.5978 106.379 92.5847 107.219C92.5715 108.687 92.3608 108.832 92.5057 109.815C92.5452 110.051 92.6769 110.93 93.2433 112.084C93.757 113.147 94.2311 113.619 95.522 115.166C96.7338 116.609 97.5636 117.685 98.3671 118.891C99.2364 120.203 99.737 121.16 99.5131 122.052C99.4604 122.236 99.3023 122.721 98.9994 123.246C98.7491 123.691 98.4988 123.993 98.2881 124.242C97.7875 124.846 97.5241 125.147 97.2343 125.292C96.6021 125.606 96.3255 125.226 95.0346 125.292C93.9019 125.344 93.7438 125.659 93.1642 125.449C92.7559 125.305 92.6637 125.082 91.8602 124.4C91.3992 123.993 90.3455 123.377 90.082 123.18" stroke="black" stroke-width="0.5" stroke-miterlimit="10"/>
<path d="M99.5658 121.383C100.159 121.855 101.383 124.518 101.621 124.872C102.016 125.449 101.937 125.987 101.95 126.524C101.95 127.364 101.344 127.941 101.304 127.98C101.002 128.256 100.83 128.216 100.159 128.544C99.355 128.938 99.3682 129.108 98.8545 129.357C98.0905 129.725 97.3924 129.672 96.2465 129.607C95.3771 129.554 94.9293 129.515 94.4551 129.2C93.9678 128.872 91.992 126.459 91.228 124.203" stroke="black" stroke-width="0.5" stroke-miterlimit="10"/>
<path d="M89.8187 123.521C90.0295 123.744 90.9647 124.728 91.2808 125.147C91.6101 125.58 91.7814 125.803 91.8472 125.96C92.3609 127.102 91.5179 128.439 91.4389 128.557C91.2413 128.846 91.0042 129.226 90.5432 129.449C89.9636 129.738 89.5948 129.515 88.5016 129.449C87.0395 129.357 86.8419 129.711 85.6564 129.528C85.1559 129.449 84.7476 129.331 84.0231 129.043C83.0484 128.662 81.6259 128.02 79.874 127.01" stroke="black" stroke-width="0.5" stroke-miterlimit="10"/>
<path d="M80.7036 103.743C81.5993 103.782 84.1941 103.743 85.7352 103.245C87.0788 102.812 87.4739 102.379 90.2927 100.648C92.4397 99.3362 93.6778 98.5886 95.3375 97.8935C96.7732 97.2902 98.0246 96.4639 98.8412 96.2672" stroke="black" stroke-width="0.5" stroke-miterlimit="10"/>
<path d="M88.6729 94.4048C89.0812 94.9031 89.7398 95.5589 90.7145 95.9393C91.8736 96.3983 92.8483 96.2147 93.9679 96.0966C95.9964 95.8999 95.2983 96.2671 99.9084 96.254C101.305 96.254 101.094 96.2147 105.283 96.0966C110.446 95.9393 110.578 95.9917 111.315 95.7688C114.108 94.9294 114.081 93.5916 116.689 93.0932C119.166 92.6211 120.957 93.4736 121.168 92.9358C121.352 92.4768 120.246 91.4013 118.968 90.9947C117.677 90.5751 116.505 90.9423 114.569 91.5587C112.764 92.1358 112.606 92.4506 110.828 92.9358C108.654 93.526 107.851 93.3424 107.403 93.185C107.153 93.0932 105.691 92.5686 105.533 91.4013C105.427 90.6406 105.928 89.9193 106.428 89.5389C106.955 89.1324 107.456 89.1455 109.195 89.0537C109.8 89.0274 110.881 89.2897 112.04 89.211" stroke="black" stroke-width="0.5" stroke-miterlimit="10"/>
<path d="M109.01 93.3162C109.51 92.7129 111.038 90.6013 111.802 89.5389C112.895 88.0438 113.673 86.9683 114.41 85.4863C114.937 84.4108 115.596 83.0993 115.872 81.3549C116.004 80.5549 116.096 79.3876 115.464 75.9251C114.674 71.5708 113.804 69.551 114.081 69.433C114.384 69.3018 115.859 71.6102 116.689 74.2988C116.781 74.6005 116.86 74.9021 116.86 74.9021C116.86 74.9021 116.873 74.9546 116.887 75.0071C117.189 76.1874 117.334 77.5514 117.334 77.5514C117.94 83.0468 117.585 86.4699 117.585 86.4699C117.506 87.2306 117.058 89.6439 116.794 90.9423" stroke="black" stroke-width="0.5" stroke-miterlimit="10"/>
<path d="M117.335 77.5383C118.56 74.2332 116.702 69.7609 116.926 69.6691C117.269 69.5379 118.48 71.2692 118.968 73.1578C119.192 74.0627 119.244 74.9546 119.297 75.7546C119.35 76.7252 119.192 78.2335 119.165 78.8105" stroke="black" stroke-width="0.5" stroke-miterlimit="10"/>
<path d="M117.69 79.1122C118.678 78.981 120.403 78.8105 121.088 78.7581C122.037 78.6925 122.774 78.6794 123.288 78.6794C124.329 78.6663 124.855 78.64 125 78.6794C126.173 79.0204 126.739 80.3844 127.121 81.2762C127.819 82.955 127.74 84.4501 127.687 84.9223C127.621 85.6305 127.463 87.0995 126.383 88.411C125.975 88.9094 125.422 89.5914 124.434 89.7881C124.276 89.8144 123.341 89.9849 122.484 89.4602C121.747 89.0143 121.497 88.3192 121.101 87.1913C120.812 86.365 120.403 85.1977 120.535 83.6239C120.588 82.8894 120.68 81.8926 121.352 80.8696C121.76 80.2401 123.143 78.6531 123.736 78.6531" stroke="black" stroke-width="0.5" stroke-miterlimit="10"/>
<path d="M117.229 89.2111H122.116" stroke="black" stroke-width="0.5" stroke-miterlimit="10"/>
<path d="M123.209 83.0599C123.209 83.4665 123.209 83.8993 123.209 84.3584C123.222 84.8436 123.248 85.3027 123.288 85.7355" stroke="black" stroke-width="0.5" stroke-miterlimit="10"/>
<path d="M125.277 83.1124V85.3813" stroke="black" stroke-width="0.5" stroke-miterlimit="10"/>
<path d="M109.853 70.5872C109.655 70.915 108.76 71.9774 108.47 72.3446C108.167 72.725 107.851 73.0529 107.574 73.3152" stroke="black" stroke-width="0.5" stroke-miterlimit="10"/>
<path d="M112.013 71.9512C111.631 72.3184 110.749 72.9742 110.327 73.4726C109.906 73.9841 109.55 74.4824 109.273 74.9284" stroke="black" stroke-width="0.5" stroke-miterlimit="10"/>
<path d="M113.12 72.1086C113.12 72.6987 112.698 74.2595 112.698 74.8628V76.8957" stroke="black" stroke-width="0.5" stroke-miterlimit="10"/>
<path d="M105.651 90.6013C105.915 90.6669 107.482 90.8898 107.812 90.9292C108.668 91.021 110.485 90.7456 111.012 90.6013" stroke="black" stroke-width="0.5" stroke-miterlimit="10"/>
<path d="M122.748 55.7798C122.169 55.6356 119.982 55.1765 118.968 55.2421C117.835 55.3077 116.821 55.3602 116.281 56.0553C115.82 56.6455 116.215 57.0652 115.636 58.0882C115.306 58.6652 115.043 58.7439 114.819 59.3079C114.582 59.8981 114.793 60.0161 114.661 60.8424C114.45 62.049 113.936 62.3376 114.174 62.8753C114.174 62.8753 114.397 63.5179 115.069 63.7671C115.767 64.1737 116.176 63.9508 116.215 64.095C116.281 64.318 115.86 64.4885 115.649 65.0656C115.596 65.1967 115.451 65.4721 115.688 65.8918C115.886 66.2328 116.281 66.3115 116.702 66.364C116.966 66.3902 116.782 66.705 116.953 67.3345C117.058 67.7542 117.15 68.0952 117.361 68.3051C117.664 68.6198 118.178 68.633 118.902 68.5543C120.193 68.41 120.825 68.3313 121.747 67.9116C124.158 66.7837 124.079 65.3279 126.147 64.1868C127.121 63.6491 128.149 63.5311 130.217 63.295C132.798 63.0064 133.72 63.2425 136.566 63.2163C139.938 63.1901 141.913 63.1769 144.39 62.4031C145.101 62.1802 147.208 61.4719 149.527 59.885C151.134 58.7702 151.371 58.2455 153.518 56.3963C154.611 55.452 154.637 55.5175 158.655 52.501C163.028 49.209 163.963 48.4221 164.766 46.9007C165.28 45.9433 165.965 44.5924 165.662 42.9267C165.241 40.5791 163.199 39.3069 162.725 39.0315" stroke="black" stroke-width="0.5" stroke-miterlimit="10"/>
<path d="M122.551 55.7274C123.051 55.8717 123.776 56.0553 124.671 56.134C125.975 56.252 127.2 56.1078 129.479 55.4913C132.509 54.6651 134.787 53.7076 135.341 53.4584C138.199 52.2387 138.173 51.9108 139.819 51.5174C140.939 51.255 141.821 51.1895 143.072 50.5468C143.415 50.3763 144.245 49.9042 145.114 49.091C146.431 47.8188 146.945 46.5335 147.393 45.6023C148.618 43.1104 150.317 41.5496 152.201 39.8446C153.373 38.7692 157.443 37.9691 157.601 35.1362" stroke="black" stroke-width="0.5" stroke-miterlimit="10"/>
<path d="M143.889 52.8813C143.336 53.2355 142.664 53.6027 141.847 53.9306C140.635 54.4159 139.529 54.6388 138.673 54.7437" stroke="black" stroke-width="0.5" stroke-miterlimit="10"/>
<path d="M160.34 39.1758C160.169 39.6217 159.932 40.2119 159.603 40.8808C159.603 40.8808 158.944 42.2185 158.141 43.3989C156.441 45.8515 153.741 47.8319 153.254 48.186" stroke="black" stroke-width="0.5" stroke-miterlimit="10"/>
<path d="M157.601 35.228C157.601 34.8477 157.43 33.8902 157.733 32.8541C158.101 31.6213 158.865 30.8737 159.195 30.5851" stroke="black" stroke-width="0.5" stroke-miterlimit="10"/>
<path d="M152.529 8.93159C152.714 8.36762 153.952 7.18724 154.65 6.74131C155.23 6.36097 155.533 6.3085 156.033 6.00685C156.902 5.49535 157.192 4.99696 157.904 4.22315C157.996 4.11823 159.168 2.87227 160.67 1.95419C161.065 1.70499 162.342 0.970531 164.173 0.577068C164.924 0.419683 166.557 0.14426 168.573 0.498376C169.626 0.681992 171.339 0.996762 173.051 2.28207C174.987 3.73788 175.817 5.67896 176.067 6.25604C176.897 8.21024 177.306 9.18078 177.451 9.82344C177.49 9.99394 177.595 10.4661 177.938 10.9645C178.294 11.4629 178.583 11.5284 178.913 11.8563C179.611 12.5646 179.637 13.6138 179.65 14.5319C179.663 15.4106 179.677 16.1713 179.163 16.8795C178.61 17.6402 177.793 17.8894 177.372 18.0206C175.936 18.4534 174.671 18.0206 174.026 17.7714C173.446 17.5615 171.826 16.9713 170.68 15.5024C170.325 15.0434 170.061 14.5581 169.455 14.3614C168.889 14.1909 168.336 14.3614 167.822 14.5188C167.163 14.7286 166.742 14.8598 166.518 15.2532C166.426 15.4106 166.347 15.6729 166.768 17.1943C167.018 18.0861 167.111 18.2173 167.335 19.0567C167.545 19.8436 167.677 20.4732 167.743 20.8404C167.809 21.2207 167.914 21.8765 167.993 22.7028C168.072 23.7127 168.125 24.2242 167.993 24.5652C167.743 25.2734 167.321 25.2209 166.689 26.0997C166.478 26.3882 166.399 26.5718 165.793 28.1326C164.95 30.2835 164.99 30.2441 164.898 30.4015C164.648 30.8081 163.712 32.3557 162.29 32.4344C161.315 32.4869 160.591 31.818 159.603 30.8999C159.023 30.3622 158.47 29.8244 158.22 28.9588C158.009 28.2112 158.127 27.5817 158.22 27.0964C158.391 26.2046 158.641 26.0472 159.194 24.4209C159.55 23.3585 159.55 23.1356 159.524 22.9651C159.431 22.3355 158.286 20.7223 158.628 21.2601C156.889 21.6404 156.455 21.1683 156.349 21.0109C156.139 20.7223 156.257 20.3945 156.349 19.1485C156.415 18.2304 156.362 18.3747 156.428 17.4435C156.639 14.4532 157.219 13.4171 156.679 12.9843C156.297 12.6826 155.928 13.1416 154.887 12.9056C154.518 12.8269 153.623 12.5646 153.017 11.7645C152.108 10.5972 152.477 9.12832 152.529 8.93159Z" stroke="black" stroke-width="0.5" stroke-miterlimit="10"/>
<path d="M155.322 6.36096C155.823 6.78066 157.193 8.03973 158.141 8.6037C159.353 9.32505 160.459 9.74474 162.619 10.5448C165.636 11.6727 167.019 11.9612 167.664 12.0793C167.664 12.0793 168.428 12.2236 169.14 12.3154C172.024 12.6695 176.028 11.6989 178.136 11.1874" stroke="black" stroke-width="0.5" stroke-miterlimit="10"/>
<path d="M169.126 14.3089C169.073 14.0335 168.863 12.5646 168.81 12.2892" stroke="black" stroke-width="0.5" stroke-miterlimit="10"/>
<path d="M156.679 12.9843C156.995 12.8925 158.444 12.2629 159.116 12.499C159.695 12.6957 160.038 13.063 160.42 13.4695C161.118 14.2171 161.025 14.5188 161.724 15.2532C162.224 15.7779 162.527 16.0926 163.028 16.2238C163.818 16.4205 164.318 15.9615 164.74 16.3025C164.99 16.5123 165.096 16.9058 164.99 17.1943C164.845 17.5747 164.397 17.5353 163.686 17.9288C163.37 18.0993 162.764 18.4403 162.382 19.0698C161.908 19.8567 162.026 20.7224 162.053 20.9322C162.158 21.6667 162.435 21.6929 162.461 22.3093C162.514 23.2274 161.934 23.9356 161.816 24.093C161.157 24.9062 159.195 25.1029 158.944 25.1423" stroke="black" stroke-width="0.5" stroke-miterlimit="10"/>
<path d="M173.13 25.798C173.789 25.2865 174.869 24.5914 176.305 24.3422C177.688 24.1061 178.36 24.4471 179.558 24.2635C180.507 24.1192 181.863 23.634 183.391 21.9945" stroke="black" stroke-width="0.5" stroke-miterlimit="10"/>
<path d="M169.39 30.913C169.166 32.2901 169.047 33.4312 168.981 34.2443C168.744 37.2347 169.113 37.1035 168.981 40.8939C168.955 41.7595 168.916 42.3234 169.14 43.0841C169.245 43.4382 169.719 44.8678 171.01 45.7597C172.525 46.8089 174.277 46.4941 176.055 46.1663C176.845 46.022 178.794 45.5761 180.783 44.1334C181.771 43.4251 183.009 42.5071 183.721 40.802C184.129 39.8315 184.208 38.9397 184.208 38.3757" stroke="black" stroke-width="0.5" stroke-miterlimit="10"/>
<path d="M177.767 41.8513C177.411 41.8251 176.818 41.9431 176.621 42.4153C176.515 42.6513 176.529 42.9792 176.7 43.2284C176.937 43.5694 177.398 43.6088 177.675 43.5563C178.28 43.4252 178.768 42.7038 178.57 42.2579C178.412 41.8907 177.833 41.8513 177.754 41.8513H177.767Z" stroke="black" stroke-width="0.5" stroke-miterlimit="10"/>
<path d="M171.154 45.9695C171.089 46.1663 170.707 47.1893 170.285 47.5303C169.534 48.1336 168.217 47.8188 168.072 47.7926" stroke="black" stroke-width="0.5" stroke-miterlimit="10"/>
<path d="M165.583 44.8285C165.609 45.1301 166.149 46.1925 166.558 46.8351C167.071 47.6221 167.677 47.727 168.152 47.8319" stroke="black" stroke-width="0.5" stroke-miterlimit="10"/>
<path d="M168.889 47.9893C169.126 48.868 169.706 51.5042 170.114 53.1305C170.852 56.0946 170.891 56.5012 171.418 58.5603C171.418 58.5603 172.077 61.0916 173.21 64.4754C174.066 67.046 174.421 67.7411 175.08 68.4493C176.331 69.7871 177.82 70.2462 178.333 70.3904C180.533 71.0462 182.39 70.4954 182.97 70.3117C185.591 69.4986 187.106 67.5706 187.606 66.9017C188.528 65.6951 188.502 65.1574 189.806 63.5704C190.689 62.495 191.136 61.9703 191.927 61.4588C193.125 60.6981 193.692 60.908 196.405 59.9243C198.183 59.2817 198.407 59.0194 198.526 58.8751C199.198 57.9832 198.789 56.9602 198.526 54.6519C198.46 54.1011 198.249 52.2125 198.368 50.2714C198.539 47.1368 199.408 46.4023 198.776 44.6711C198.644 44.3301 198.21 43.2546 197.143 42.4808C195.957 41.6152 194.627 41.6152 194.205 41.589C192.612 41.4972 190.122 40.2512 186.302 35.0182" stroke="black" stroke-width="0.5" stroke-miterlimit="10"/>
<path d="M173.13 50.5337C173.539 50.7698 174.21 51.0977 175.08 51.3469C176.898 51.8584 177.688 51.4649 178.254 52.0813C178.663 52.5272 178.412 52.9076 178.504 55.1634C178.557 56.6455 178.597 57.4062 178.913 58.2456C179.321 59.3341 180.032 60.0817 180.546 60.5145" stroke="black" stroke-width="0.5" stroke-miterlimit="10"/>
<path d="M184.208 46.8876C184.722 46.4023 185.433 45.8515 186.329 45.3531C187.58 44.658 188.739 44.317 189.582 44.1334" stroke="black" stroke-width="0.5" stroke-miterlimit="10"/>
<path d="M187.541 49.314C187.791 48.9336 188.12 48.5139 188.515 48.0942C189.45 47.1106 190.451 46.5073 191.202 46.1531" stroke="black" stroke-width="0.5" stroke-miterlimit="10"/>
<path d="M191.294 50.0484C191.373 49.7337 191.558 49.1566 192.032 48.5926C192.533 47.9762 193.112 47.6746 193.415 47.5434" stroke="black" stroke-width="0.5" stroke-miterlimit="10"/>
<path d="M189.832 32.2115C191.031 32.0541 191.834 32.3295 192.269 32.5394C192.69 32.7361 193.125 33.0377 194.627 34.8083C195.246 35.5297 195.746 36.1461 196.089 36.592" stroke="black" stroke-width="0.5" stroke-miterlimit="10"/>
<path d="M178.412 17.5616C178.662 17.7976 179.321 18.5846 179.887 18.8337C180.836 19.2403 181.692 19.1747 182.087 19.1616C182.39 19.1485 183.734 19.2928 186.407 19.5682C188.897 19.8305 190.78 20.6699 191.94 21.1945C194.943 22.5323 196.839 24.2898 198.209 25.5751C200.04 27.2932 201.173 28.8277 203.425 31.8967C206.126 35.5821 205.678 35.6084 207.337 37.4052C208.76 38.9528 209.801 39.7135 210.591 41.5365C211.105 42.7038 211.236 43.6612 211.408 45.0252C211.71 47.3467 211.592 48.8812 211.487 51.3469C211.394 53.6945 211.526 51.5436 211.328 58.8095C211.263 61.0523 211.394 63.295 211.249 65.5377C211.131 67.3214 210.946 69.1051 211.895 70.8888C212.474 71.9774 212.988 73.1447 213.199 73.2758C214.121 73.8791 215.188 73.4201 216.136 73.3152C217.928 73.1185 218.81 72.948 219.232 73.4726C219.495 73.8005 219.429 74.3513 219.232 74.6923C218.876 75.2956 218.257 75.2694 217.111 75.5841C216.373 75.794 215.359 75.6235 214.542 77.3285C214.147 78.1548 214.174 79.0728 213.199 79.2302C212.33 79.3745 212.698 80.2139 212.303 80.45C211.605 80.8565 211.131 80.3188 210.433 80.6992C209.748 81.0664 209.972 81.709 209.287 82.0763C208.734 82.3648 208.483 81.9976 207.416 82.155C206.363 82.3124 206.297 82.3648 205.823 82.1943C205.006 81.8795 204.808 80.6729 204.808 80.5287C204.782 79.6893 205.072 79.6237 205.217 78.5876C205.283 78.1417 205.48 76.7252 204.808 75.4268C204.4 74.653 204.084 74.6792 203.913 74.0496C203.676 73.1578 204.123 72.4364 204.4 71.702C204.664 71.0069 204.664 69.8789 204.65 67.6493C204.637 65.2361 204.598 62.7835 203.913 59.7014C203.478 57.7472 203.057 56.8029 202.859 56.3701C202.108 54.7962 201.357 54.088 200.817 53.2879C200.001 52.0682 198.394 49.8255 199 46.1532" stroke="black" stroke-width="0.5" stroke-miterlimit="10"/>
<path d="M196.827 28.8015C196.866 29.6802 196.945 30.6376 197.077 31.6344C197.169 32.3426 197.275 33.0246 197.406 33.6673" stroke="black" stroke-width="0.5" stroke-miterlimit="10"/>
<path d="M205.059 45.5105C205.744 47.045 206.165 48.3434 206.442 49.2353C207.192 51.7403 207.574 54.1273 207.825 55.8061C208.088 57.5111 208.141 58.3243 208.233 58.3243C208.391 58.3243 208.338 55.5438 208.391 50.5337C208.417 48.4746 208.444 46.7827 208.47 45.6679" stroke="black" stroke-width="0.5" stroke-miterlimit="10"/>
<path d="M174.751 68.0559C173.512 67.6493 171.141 67.61 170.364 67.4919C168.915 67.2821 167.559 67.0722 165.886 67.4132C165.017 67.5837 164.951 67.728 163.936 67.8985C162.698 68.1083 162.448 67.951 161.17 68.1477C160.354 68.2657 159.603 68.3838 158.734 68.7903C157.798 69.2363 157.825 69.4986 157.021 69.8396C156.126 70.233 155.889 69.9838 154.334 70.2462C152.806 70.4954 151.766 70.6659 150.989 71.4659C150.435 72.0299 150.501 72.4233 149.935 72.6856C149.145 73.0397 148.631 72.4758 147.893 72.843C147.38 73.1053 147.419 73.4988 146.839 74.2201C146.22 74.9808 145.654 75.1907 145.048 75.5972C143.454 76.6858 142.769 78.4302 142.611 78.8368C141.689 81.1844 142.493 83.4796 142.769 84.2665C143.454 86.2207 144.166 86.0765 145.206 88.6471C145.852 90.234 145.628 90.3783 146.352 92.0571C146.958 93.4473 147.603 94.4703 148.394 95.7032C149.566 97.5525 149.816 97.618 150.514 98.9427C151.186 100.241 151.133 100.503 151.739 101.618C152.503 103.035 153.201 103.704 153.939 104.622C155.954 107.114 155.151 107.586 157.93 112.412C158.101 112.714 158.905 114.104 159.563 116.058C160.011 117.409 160.064 118.078 159.893 118.734C159.603 119.836 158.773 120.491 158.431 120.767C157.561 121.449 157.193 121.239 155.586 121.908C155.098 122.105 154.123 122.668 152.161 123.77C150.251 124.846 150.238 124.898 149.882 124.99C149.329 125.134 148.42 125.187 146.629 125.318C145.944 125.37 145.667 125.37 145.325 125.567C144.627 125.934 143.981 126.8 144.179 127.6C144.297 128.072 144.666 128.334 144.995 128.57C145.746 129.121 146.55 129.239 147.116 129.305C148.328 129.436 149.474 129.423 150.778 129.305C152.635 129.134 153.557 129.056 154.769 128.662C155.665 128.374 156.191 128.085 157.377 127.849C158.497 127.639 159.168 127.679 159.326 127.692C160.235 127.757 160.894 128.006 161.526 128.256C162.87 128.78 162.843 129.069 163.805 129.397C165.096 129.829 166.242 129.698 166.65 129.646C167.611 129.515 168.784 129.357 169.587 128.426C170.496 127.377 170.378 125.96 170.325 125.187C170.272 124.492 170.048 123.862 169.587 122.59C169.113 121.265 168.876 120.859 168.441 119.757C168.441 119.757 167.954 118.485 167.467 116.596C166.926 114.524 166.703 112.504 166.492 109.383C166.176 104.74 166.018 102.405 166.004 100.136C165.991 97.4869 166.084 96.1098 165.188 94.4572C164.332 92.8965 163.423 91.6374 162.474 91.0865" stroke="black" stroke-width="0.5" stroke-miterlimit="10"/>
<path d="M151.792 93.2768C152.213 94.1293 152.635 95.1392 153.017 96.2803C153.465 97.6574 153.741 98.9165 153.913 100.005" stroke="black" stroke-width="0.5" stroke-miterlimit="10"/>
<path d="M159.695 97.4082C159.708 98.4705 159.985 99.2837 160.183 99.7558C160.446 100.372 160.973 101.631 162.303 102.353C162.975 102.72 163.621 102.812 164.016 102.838" stroke="black" stroke-width="0.5" stroke-miterlimit="10"/>
<path d="M166.202 119.298C166.307 119.35 166.874 119.691 167.019 120.347C167.164 121.016 166.808 121.75 166.123 122.131" stroke="black" stroke-width="0.5" stroke-miterlimit="10"/>
<path d="M201.068 75.6628C199.659 76.0301 195.22 76.9875 192.599 77.6302C185.183 79.4139 182.654 79.7942 177.688 80.9615C173.289 81.9845 168.073 83.2173 161.882 85.4207C160.446 85.9322 148.539 90.1685 148.934 91.6636C149.276 93.0014 159.142 91.5456 161.065 91.2571C164.872 90.6931 166.347 90.2341 176.779 87.6897C185.828 85.4863 186.948 85.2896 191.189 84.1223C195.378 82.9681 199.856 81.7353 202.306 80.9484" stroke="black" stroke-width="0.5" stroke-miterlimit="10"/>
<path d="M155.533 89.7094C157.798 89.1586 161.684 88.2143 166.531 87.0339C177.635 84.3452 181.468 83.4403 187.79 81.8402C190.478 81.1582 194.693 80.0827 199.922 78.6794" stroke="black" stroke-width="0.5" stroke-miterlimit="10"/>
<path d="M147.09 73.8529C147.366 73.9972 148.71 74.6136 149.026 75.0333C149.592 75.794 149.408 76.4629 149.672 77.7088C149.79 78.2859 150.014 79.3351 150.725 80.3057C151.358 81.1582 152.135 81.6172 152.925 82.0894C154.084 82.7714 154.387 82.6665 155.046 83.1386C155.652 83.5714 156.6 85.4076 157.035 87.0864" stroke="black" stroke-width="0.5" stroke-miterlimit="10"/>
<path d="M151.226 73.407C151.133 73.9185 151.041 74.6792 151.147 75.5973C151.239 76.4891 151.291 76.935 151.634 77.3023C151.976 77.6695 152.24 77.5646 153.834 78.1941C154.558 78.4826 154.756 78.6138 154.887 78.8368C155.124 79.2565 154.861 79.545 155.045 80.1352C155.177 80.5549 155.401 80.6992 155.941 81.2762C156.6 81.9713 156.613 82.1156 157.166 82.732C157.667 83.296 158.496 84.1223 159.853 85.0797" stroke="black" stroke-width="0.5" stroke-miterlimit="10"/>
<path d="M153.333 71.2954C153.241 71.6495 153.136 72.1873 153.175 72.8299C153.201 73.4726 153.241 74.2464 153.741 74.771C154.308 75.3874 154.861 75.0202 155.612 75.5842C156.284 76.0825 156.481 76.8301 156.758 77.8531C156.929 78.4827 157.113 79.4925 157.008 80.7779" stroke="black" stroke-width="0.5" stroke-miterlimit="10"/>
<path d="M160.143 69.6297C159.879 69.7871 158.812 70.0101 158.457 70.4035C157.719 71.2167 157.271 71.82 157.166 72.1872C156.81 73.5644 157.126 74.7054 157.245 75.112C157.772 76.8957 159.036 77.8924 160.34 78.9286C162.698 80.7909 165.056 81.4205 166.123 81.6828C167.361 81.9976 168.441 82.1156 169.218 82.1681" stroke="black" stroke-width="0.5" stroke-miterlimit="10"/>
<path d="M164.174 68.7772C163.923 68.9871 163.528 69.3018 163.028 69.6691C162.04 70.4166 161.803 70.5085 161.566 70.8888C161.065 71.702 161.289 72.6463 161.315 72.7512C161.592 73.8004 162.527 74.3513 163.265 74.7841C164.687 75.5972 165.214 75.2562 166.847 75.9251C168.362 76.5415 169.35 77.4072 169.864 77.8662C171.181 79.0466 171.984 80.345 172.472 81.3549" stroke="black" stroke-width="0.5" stroke-miterlimit="10"/>
<path d="M168.283 68.41C168.046 68.41 166.241 68.0821 165.477 69.1051C165.398 69.2101 164.713 70.115 165.069 70.8101C165.332 71.3348 166.031 71.4659 166.452 71.5446C167.282 71.702 167.506 71.4134 168.652 71.4659C169.31 71.4921 169.679 71.5053 170.114 71.7151C170.983 72.1217 171.418 72.948 171.655 73.4201C172.129 74.3251 171.905 74.5611 172.3 74.9546C172.867 75.5317 173.42 75.1513 174.579 75.5973C174.803 75.6891 176.054 76.1875 176.779 77.4597C177.095 78.0236 177.213 78.5613 177.266 78.9155" stroke="black" stroke-width="0.5" stroke-miterlimit="10"/>
<path d="M163.106 90.9816C165.122 92.4112 167.493 94.6146 168.402 95.7032C170.338 98.0115 171.523 100.372 171.984 101.303C172.827 102.995 172.906 103.559 173.855 105.12C175.04 107.061 174.922 106.182 176.463 108.451C176.766 108.91 177.069 109.369 177.437 109.343C177.543 109.343 177.898 109.265 178.662 107.402C178.965 106.641 179.439 105.841 179.571 105.369" stroke="black" stroke-width="0.5" stroke-miterlimit="10"/>
<path d="M173.947 68.8559C174.276 69.5248 174.935 70.6265 176.146 71.5315C178.491 73.2758 181.139 73.0004 181.929 72.9086C182.337 72.8692 186.052 72.4102 188.041 69.6691C188.752 68.6854 188.844 67.951 189.99 66.7443C190.754 65.9443 191.439 65.5115 192.427 64.882C193.665 64.095 194.429 63.7803 197.063 62.5343C198.222 61.9835 199.158 61.5244 199.75 61.2359" stroke="black" stroke-width="0.5" stroke-miterlimit="10"/>
<path d="M198.908 58.6784C199.263 58.9145 200.383 59.767 200.739 60.4227C201.015 60.9473 201.002 61.2752 201.226 62.5343C201.371 63.3606 201.345 63.0196 201.713 64.8033C201.779 65.118 202.056 66.4689 202.201 67.3214C202.385 68.3969 202.346 69.4986 202.359 71.6102" stroke="black" stroke-width="0.5" stroke-miterlimit="10"/>
<path d="M200.251 63.2688C198.381 63.754 196.879 64.3311 195.773 64.8033C194.113 65.5246 193.573 65.9312 193.165 66.5083C192.756 67.0722 192.822 67.3345 192.19 68.4494C191.847 69.0395 191.479 69.7084 190.886 70.3117C190.464 70.7577 189.648 71.4659 188.278 71.9381" stroke="black" stroke-width="0.5" stroke-miterlimit="10"/>
<path d="M189.582 74.7841C189.081 75.1514 188.515 75.6104 187.949 76.1612C187.224 76.8695 186.671 77.5777 186.236 78.1941" stroke="black" stroke-width="0.5" stroke-miterlimit="10"/>
<path d="M197.314 70.8101C197.235 71.2692 197.103 71.7544 196.906 72.2659C196.063 74.4824 194.442 75.8202 193.481 76.4891" stroke="black" stroke-width="0.5" stroke-miterlimit="10"/>
<path d="M213.199 73.2758C213.199 73.5775 213.871 74.3775 213.976 74.771C214.148 75.5054 214.372 76.8957 214.372 77.6564" stroke="black" stroke-width="0.5" stroke-miterlimit="10"/>
<path d="M201.95 71.138C201.726 70.797 201.147 70.9675 200.897 71.1642C200.567 71.4265 200.778 71.7938 200.738 72.8299C200.686 74.0496 201.068 74.089 201.068 75.1776C201.068 76.1219 201.068 76.7252 201.226 77.0793C201.568 77.84 201.344 78.0761 201.792 78.8236C202.398 79.8335 202.266 80.8959 202.372 81.3811C202.741 83.2566 202.464 83.7813 203.096 84.66C203.518 85.2502 204.295 85.683 204.73 85.4732C205.072 85.3027 205.098 84.7518 205.138 83.9386C205.191 82.7583 204.953 82.3517 204.888 80.8565C204.888 80.568 205.006 79.9778 205.046 79.3614C205.112 78.0761 205.151 78.181 205.138 77.4465C205.138 76.7776 205.349 76.8039 204.822 75.4136C204.624 74.9021 203.636 74.0759 203.399 73.6299C203.03 72.9479 202.187 71.3872 201.884 71.0331" stroke="black" stroke-width="0.5" stroke-miterlimit="10"/>
<path d="M171.418 89.7881C171.695 90.221 172.103 90.8636 172.564 91.6505C173.302 92.8965 173.828 93.8277 174.355 95.0605C174.619 95.677 174.948 96.5557 175.251 97.6574" stroke="black" stroke-width="0.5" stroke-miterlimit="10"/>
<path d="M186.645 85.3027C186.171 85.8798 185.604 86.9552 184.932 87.5979C184.313 88.2012 184.01 88.3717 182.891 89.3029C180.955 90.9292 180.77 91.2964 180.77 91.6505C180.77 92.1489 181.179 92.5162 181.995 93.2768C182.97 94.1818 185.42 96.1098 185.42 96.1098C185.591 96.2409 185.894 96.4901 185.907 96.8442C185.934 97.3295 185.393 97.723 185.262 97.8148C184.682 98.1951 184.129 98.1164 182.983 98.064C181.06 97.9722 181.402 98.182 179.809 98.064C178.123 97.9459 177.556 97.7099 177.28 98.064C176.964 98.4837 177.385 99.3231 177.688 99.9264C178.215 100.976 178.729 101.199 179.229 102.274C179.453 102.772 179.716 103.363 179.769 103.651" stroke="black" stroke-width="0.5" stroke-miterlimit="10"/>
<path d="M181.824 93.1063C181.349 93.5129 180.138 94.5884 179.637 95.0605C178.992 95.6638 178.135 97.1459 177.819 97.8803" stroke="black" stroke-width="0.5" stroke-miterlimit="10"/>
<path d="M180.836 91.3751C181.415 91.3357 183.102 91.021 183.707 91.0078C185.393 90.9554 187.422 91.2177 188.937 91.3095" stroke="black" stroke-width="0.5" stroke-miterlimit="10"/>
<path d="M191.531 85.001C191.347 86.0634 191.097 86.9421 190.886 87.5979C190.636 88.3323 190.346 89.1979 189.74 90.1947C189.226 91.0603 188.936 91.2571 188.357 92.0571C187.87 92.726 187.211 93.7621 186.645 95.2179" stroke="black" stroke-width="0.5" stroke-miterlimit="10"/>
<path d="M182.983 98.0508C182.614 98.2345 181.323 99.4673 180.862 100.084C180.454 100.608 180.322 101.12 180.045 102.117C179.9 102.641 179.808 103.323 179.637 104.713C179.545 105.409 179.545 105.54 179.637 105.684C180.032 106.3 181.586 106.143 182.732 105.684C184.313 105.054 184.313 104.163 186.157 102.93C187.158 102.261 187.263 102.445 189.252 101.474C191.439 100.399 192.519 99.8739 193.402 99.0476C195.601 96.9754 194.864 95.336 196.905 94.2605C197.511 93.9457 198.341 93.6834 199.026 92.8047C199.144 92.6604 199.553 92.0964 199.764 91.2702C199.882 90.798 199.882 90.4832 199.764 88.752C199.645 87.0077 199.632 86.9159 199.685 86.6404C199.79 86.0896 201.66 84.2272 202.635 83.3747" stroke="black" stroke-width="0.5" stroke-miterlimit="10"/>
<path d="M188.528 95.7032C189.543 94.7982 190.175 93.9457 190.57 93.3555C191.466 91.9784 191.4 91.3882 192.282 90.5226C192.691 90.116 193.362 89.7619 194.719 89.0668C196.287 88.2536 197.011 88.0438 197.893 87.2044C198.328 86.7978 198.618 86.4043 198.789 86.1552" stroke="black" stroke-width="0.5" stroke-miterlimit="10"/>
<path d="M181.929 102.51C183.312 101.54 184.603 100.871 185.67 100.398C187.303 99.6903 187.83 99.7034 188.923 99.0214C189.78 98.4836 189.977 98.1558 191.94 96.0179C193.771 94.0244 194.719 93.0014 195.852 92.044C197.103 90.9947 198.223 90.2734 198.947 89.8537" stroke="black" stroke-width="0.5" stroke-miterlimit="10"/>
<path d="M192.032 103.651C191.834 104.491 191.913 105.107 192.032 105.514C192.309 106.497 192.914 106.812 193.257 107.861C193.481 108.53 193.468 109.146 193.415 109.566" stroke="black" stroke-width="0.5" stroke-miterlimit="10"/>
<path d="M179.571 105.894C179.835 106.733 180.638 109.146 181.099 110.786C181.323 111.586 181.89 113.645 182.812 117.514C183.984 122.446 183.892 122.655 184.445 123.836C185.222 125.528 186.078 127.377 188.028 128.544C190.438 129.974 193.099 129.528 195.035 129.187C197.05 128.846 197.564 128.374 201.384 126.839C202.293 126.472 204.782 125.593 209.774 123.836C216.861 121.344 215.86 121.777 217.677 121.082C222.129 119.363 223.196 118.629 226.476 117.842C229.795 117.029 231.389 117.134 232.588 117.357C234.419 117.711 235.815 118.458 237.066 119.14C239.543 120.491 238.871 120.793 241.308 122.144C242.085 122.577 243.178 123.114 243.349 124.085C243.415 124.492 243.297 124.806 243.507 125.055C243.968 125.593 245.285 125.121 245.457 125.055C247.301 124.387 248.117 122.498 248.223 122.223C248.816 120.78 248.947 118.734 247.893 117.278C247.261 116.386 246.589 116.268 245.365 115.573C243.138 114.288 241.887 112.675 240.069 110.301C238.041 107.651 238.278 106.982 236.236 104.871C234.722 103.297 233.51 102.549 232.166 102.523C231.863 102.523 230.652 102.497 230.046 103.258C229.624 103.782 229.822 104.268 229.558 105.291C229.558 105.291 229.255 106.458 228.412 107.481C227.583 108.504 226.371 108.845 224.013 109.265C220.602 109.881 218.231 110.078 218.231 110.078C213.686 110.458 211.421 110.642 209.511 110.484C207.759 110.34 206.481 110.078 204.545 110.484C203.834 110.629 202.675 110.878 201.371 111.625C200.607 112.058 200.225 112.425 198.025 113.973C196.721 114.891 196.444 115.062 196.234 114.943C195.759 114.681 196.194 113.317 196.642 110.642C196.905 109.094 197.011 108.032 197.208 106.025C197.34 104.727 197.538 102.72 197.538 100.189C197.538 98.7722 197.551 96.2934 197.287 94.0769" stroke="black" stroke-width="0.5" stroke-miterlimit="10"/>
<path d="M229.414 110.629C229.572 110.419 229.875 110.051 230.388 109.815C231.376 109.356 232.338 109.737 232.509 109.815" stroke="black" stroke-width="0.5" stroke-miterlimit="10"/>
<path d="M201.634 115.901C204.361 116.517 206.626 116.557 208.154 116.465C210.604 116.334 212.04 115.862 212.396 115.73C213.752 115.258 214.793 114.655 215.491 114.196" stroke="black" stroke-width="0.5" stroke-miterlimit="10"/>
</g>
<defs>
<clipPath id="clip0_170_1590">
<rect width="249" height="130" fill="white"/>
</clipPath>
</defs>
</svg>
