<svg width="215" height="145" viewBox="0 0 215 145" fill="none" xmlns="http://www.w3.org/2000/svg">
<g clip-path="url(#clip0_170_1396)">
<path d="M27.4598 7.1564C30.8746 7.40522 34.6793 7.98579 38.2476 8.35309C43.5766 8.90996 49.5199 9.21801 56.822 10.8412C60.8985 11.7417 61.3593 12.1209 61.3357 12.3341C61.2648 13.1635 53.5136 13.1635 51.9894 13.1398C46.1878 13.0332 38.8384 9.75119 26.7627 10.5687" stroke="black" stroke-width="0.5" stroke-miterlimit="10"/>
<path d="M24.3642 9.49051L24.5532 10.0237C24.5178 11.3389 22.2019 10.8294 21.3393 12.263C21.1857 12.5118 20.9376 12.8436 20.784 14.0047C20.0869 19.3246 20.2287 23.0095 20.2287 23.0095C20.2287 25.545 20.5359 26.2441 20.5949 28.3531C20.6186 29.1706 20.6304 29.5734 20.5949 29.846C20.5122 30.4384 20.3586 30.7701 20.5359 30.9597C20.7604 31.2085 21.363 31.0071 21.5284 30.9597C23.5843 30.3436 26.361 32.2986 26.4792 32.3934C26.9873 32.7607 28.6651 33.9455 29.2677 35.3791C29.3386 35.545 29.5395 36.0663 30.0121 36.2441C30.4375 36.4099 30.8392 36.2204 31.1228 36.1256C32.7416 35.5569 34.6085 36.4573 34.9629 36.6232C35.92 37.0853 36.0027 37.5118 37.1252 37.8673C37.6806 38.045 38.1296 38.0924 38.425 38.1161C38.8621 38.1635 40.0674 38.2583 41.4025 37.808C43.0922 37.2275 44.4865 35.9242 44.3092 35.5687C44.2147 35.3673 43.7184 35.6516 42.8204 35.4502C42.5723 35.391 41.6507 35.1896 41.0244 34.3957C40.1973 33.3412 40.4809 32.0024 40.5282 31.7891C40.7527 30.8175 41.2489 30.7346 41.7688 29.6801C42.4305 28.3294 41.9697 27.7251 42.3242 26.4573C42.8559 24.5853 44.5219 23.5308 45.668 22.7962C46.117 22.5118 48.0548 21.327 50.8079 21.2441C54.8253 21.1137 57.8856 23.4123 58.3582 24.0403C58.4054 24.1114 58.6299 24.4194 59.0435 24.6564C59.4098 24.8697 59.6934 24.8934 59.9769 24.9644C60.0478 24.9881 61.194 25.2844 61.7729 26.2085C61.8202 26.2915 62.3637 27.1801 62.0211 28.199C61.6902 29.1943 60.745 29.5971 60.5323 29.6919C59.0789 30.2843 58.24 29.1232 56.9994 29.6919C56.3259 30 56.5386 30.3554 55.3333 31.6825C54.0927 33.045 53.1474 33.4479 53.2892 33.9218C53.431 34.3957 54.4708 34.1469 54.9552 34.9171C55.2034 35.3199 55.1797 35.782 55.1443 36.4099C55.0734 37.5 54.7071 37.891 54.9552 38.2109C55.1207 38.4123 55.4751 38.4242 56.1959 38.4597C56.9757 38.4952 57.1648 38.3649 57.5547 38.5189C57.9564 38.673 58.1809 38.9692 58.3582 39.2062C58.5354 39.4431 58.8781 39.9526 59.0435 41.1967C59.1853 42.2749 59.3034 43.1753 58.8544 44.1825C58.6536 44.6208 58.3464 45.3317 57.6729 45.6161C56.6331 46.0545 55.3924 45.1896 54.5181 44.5616C53.3128 43.6967 50.7961 41.8839 50.4889 39.0403C50.1817 36.2085 52.3085 34.6208 51.2333 32.8317C51.186 32.7607 50.5716 31.7654 49.7445 31.7772C48.8583 31.7772 48.4447 32.8436 47.2041 33.9455C46.6015 34.4787 45.6798 35.1422 44.2974 35.6161" stroke="black" stroke-width="0.5" stroke-miterlimit="10"/>
<path d="M16.5896 12.654C15.9752 14.0877 15.3726 15.5569 14.77 17.0379C12.8203 21.8483 12.3005 22.5237 11.8751 24.4905C11.367 26.8602 11.9342 26.2085 11.4615 30.1185C11.3906 30.699 11.2607 31.6588 11.7924 32.5237C12.2414 33.2583 12.9267 33.5426 13.3639 33.7678C14.8645 34.5261 15.0535 35.3081 16.9913 37.2393C19.2245 39.4668 21.4695 40.9242 23.4309 42.2038C25.8295 43.7678 26.1249 43.6493 26.9757 44.609C28.6535 46.481 29.2443 48.8626 29.457 49.7393C29.906 51.6232 29.5161 51.7536 30.0359 53.128C30.6858 54.8697 31.4657 55.0948 32.5173 56.9313C32.9544 57.6896 32.8481 57.7251 34.0061 61.1493C34.6441 63.0569 35.2467 64.9645 35.9084 66.8602C36.7355 69.2536 37.149 70.2725 36.6528 71.327C36.4047 71.8602 36.0974 72.0379 35.164 72.9028C35.164 72.9028 34.6205 73.4242 32.6 75.6398C30.674 77.7488 31.5956 79.9171 29.9532 84.4194C28.9607 87.1446 27.4719 89.5024 26.2431 91.4574C24.9315 93.5427 24.4943 93.8863 24.0099 95.2607C23.1946 97.6066 23.8917 98.2464 23.1001 101.386C22.4857 103.839 22.1785 105.059 21.115 105.936C20.1934 106.694 18.9409 107.062 18.6337 108.258C18.5156 108.72 18.7282 108.886 18.6337 109.336C18.362 110.569 16.6487 111.161 16.2351 111.327C13.4938 112.429 12.2177 117.192 9.54738 123.412C6.65251 130.154 6.5698 131.256 5.17554 132.358C3.80491 133.424 2.7533 134.846 1.46538 135.995C1.20543 136.22 0.638276 136.73 0.390144 137.571C0.366512 137.654 -0.0234084 139.1 0.803696 139.976C1.15817 140.344 1.59535 140.45 2.45791 140.64C3.68675 140.912 3.97033 140.711 4.85651 140.889C5.08101 140.936 5.45911 141.031 7.50325 142.216C9.53556 143.4 9.44104 143.472 10.0673 143.709C10.5872 143.91 11.5206 143.981 13.3639 144.123C15.7388 144.301 16.5305 144.289 17.4049 143.874C17.6412 143.768 18.5274 143.341 18.4801 142.879C18.4328 142.417 17.4994 142.18 17.3222 142.133C16.3651 141.884 15.8452 142.204 15.089 142.216C13.8365 142.216 12.8794 141.351 12.1941 140.723C11.946 140.486 10.2563 138.898 10.1263 136.505C10.0555 135.19 10.4808 134.088 11.7806 131.955C13.612 128.934 15.4198 126.836 16.8968 125.083C24.5889 115.936 24.5652 116.801 25.4042 115.569C25.5223 115.403 25.8532 114.893 26.4794 114.491C27.3301 113.945 28.11 113.993 28.6299 113.91C30.9221 113.531 30.6976 110.107 33.8288 108.365C34.3251 108.092 35.6366 107.382 37.2081 107.701C37.988 107.855 38.0116 108.128 39.1105 108.614C39.4531 108.768 41.4854 109.645 43.8132 109.443C45.1011 109.325 44.9711 109.017 46.6253 108.697C47.0389 108.614 48.0078 108.448 51.4934 108.614C55.2508 108.791 55.8889 109.064 56.7751 108.448C57.8503 107.701 57.933 106.6 58.8428 106.54C59.599 106.493 60.2725 107.227 60.5797 107.784C60.7097 108.021 61.1705 108.969 60.6625 109.941C60.3552 110.521 59.8235 110.355 58.9255 111.102C58.5238 111.445 58.2757 111.754 58.0157 112.097C57.2004 113.164 56.8105 114.23 56.6096 114.834C55.8889 117.062 55.7353 119.443 55.6998 120.13C55.4753 124.182 55.8416 125.877 55.1209 129.147C54.6482 131.256 54.2819 131.528 54.0456 131.552C53.5139 131.6 52.8759 130.438 52.805 129.396C52.6868 127.666 55.3454 125.592 55.5817 125.403" stroke="black" stroke-width="0.5" stroke-miterlimit="10"/>
<path d="M20.0396 32.808C20.2286 33.5071 20.6658 34.6919 21.6465 35.8531C22.8872 37.3223 24.3405 37.9621 25.0494 38.2109" stroke="black" stroke-width="0.5" stroke-miterlimit="10"/>
<path d="M30.6855 36.9668C30.9573 37.9265 31.3354 39.064 31.8671 40.3199C32.6706 42.263 33.1078 43.3057 34.0294 44.4787C35.0692 45.8057 35.5655 45.8057 36.3808 47.1446C37.0897 48.2938 37.0306 48.8033 37.4914 49.8104C38.803 52.7014 41.686 54.0047 41.8869 54.0995C44.4746 55.2251 46.7905 54.6682 48.0784 54.3483C49.26 54.064 50.5715 53.7204 51.056 52.6777C51.2923 52.1682 51.1977 51.7773 51.115 50.2607C51.056 49.0758 51.0441 48.1043 51.056 47.4645" stroke="black" stroke-width="0.5" stroke-miterlimit="10"/>
<path d="M51.6704 53.2938C51.8713 53.6848 52.3085 54.4194 53.1592 54.9052C54.5298 55.7109 55.995 55.3317 56.6921 55.154C57.4011 54.9763 58.2164 54.763 58.8544 54.0403C60.0478 52.6896 59.5988 50.7583 59.5397 50.4976" stroke="black" stroke-width="0.5" stroke-miterlimit="10"/>
<path d="M62.6943 54.6682C63.0134 54.9052 63.4387 55.1659 63.9941 55.3554C65.3174 55.8175 66.499 55.5687 67.0307 55.4147" stroke="black" stroke-width="0.5" stroke-miterlimit="10"/>
<path d="M72.7261 58.6375C73.0924 58.7796 73.6713 58.9337 74.3921 58.9455C75.1719 58.9455 75.7982 58.7796 76.1881 58.6375" stroke="black" stroke-width="0.5" stroke-miterlimit="10"/>
<path d="M42.8206 50.5687C42.6788 50.5924 42.3834 50.6872 42.3834 50.6872C42.3834 50.6872 42.1353 51.0664 42.1353 51.3744C42.1353 51.6706 42.3952 52.0498 42.7497 52.1209C43.2223 52.2038 43.7304 51.7299 43.6831 51.2559C43.6359 50.8175 43.1278 50.5332 42.8206 50.5687Z" stroke="black" stroke-width="0.5" stroke-miterlimit="10"/>
<path d="M35.0809 51.0071C34.88 51.41 34.6792 51.8839 34.5256 52.4408C34.2656 53.3412 34.3011 53.9574 34.2183 55.3555C34.1829 55.8768 34.1356 56.6706 34.0293 57.654" stroke="black" stroke-width="0.5" stroke-miterlimit="10"/>
<path d="M55.8768 59.4431C55.7587 59.1469 55.5224 58.6256 55.0143 58.1398C54.9198 58.045 54.4353 57.6066 53.6555 57.3341C53.301 57.2156 52.7102 57.0142 52.0485 57.1446C51.7177 57.2156 51.4695 57.346 50.6188 58.0095C49.4727 58.9218 49.1182 59.3128 48.2084 59.9289C47.4049 60.4739 47.0859 60.5569 46.7787 60.545C46.1997 60.5332 45.8689 60.1777 45.5971 60.3555C45.3608 60.5095 45.4908 60.8649 45.408 61.5403C45.3135 62.4052 45.0063 62.5474 44.6637 63.7085C44.5573 64.0521 44.4392 64.5498 44.3564 65.2014" stroke="black" stroke-width="0.5" stroke-miterlimit="10"/>
<path d="M38.3657 53.6137C38.7675 53.8863 39.3346 54.3365 39.8545 55.0474C40.3508 55.7227 40.6225 56.019 40.5989 56.4099C40.5989 56.4455 40.5635 56.8839 40.3508 57.0261C40.0318 57.2393 39.1574 56.9194 36.6406 54.3602" stroke="black" stroke-width="0.5" stroke-miterlimit="10"/>
<path d="M37.2435 57.0261C37.598 57.2275 38.2715 57.654 38.7914 58.4597C38.9568 58.7204 39.6657 59.6327 39.4058 59.9526C39.2167 60.1896 38.5787 59.9644 38.3542 59.8934C37.9288 59.7393 37.0663 59.3483 36.3101 58.1517" stroke="black" stroke-width="0.5" stroke-miterlimit="10"/>
<path d="M43.1865 42.1801C44.0373 42.0971 44.7698 42.0379 45.3488 41.9905C46.9794 41.8839 47.2393 41.9194 47.5111 42.0498C48.4209 42.4763 48.4091 43.3294 49.059 43.3531C49.2717 43.3531 49.3425 43.2701 50.5478 42.6066C50.8313 42.4526 51.0677 42.3223 51.2331 42.2393" stroke="black" stroke-width="0.5" stroke-miterlimit="10"/>
<path d="M53.1 60.8057C53.4781 62.0616 53.3364 63.0332 53.2182 63.5427C52.9582 64.6801 52.332 65.5806 52.2257 65.7109C51.6585 66.4929 51.304 66.5877 51.1741 67.2038C51.0677 67.6896 51.2686 67.737 51.3631 68.8744C51.4222 69.7156 51.4576 70.2133 51.1741 70.6754C50.9023 71.1138 50.666 71.019 50.4887 71.4218C50.2879 71.872 50.4887 72.2275 50.6069 73.1635C50.666 73.6611 50.6778 74.0758 50.666 74.3483" stroke="black" stroke-width="0.5" stroke-miterlimit="10"/>
<path d="M49.437 75.5213C49.437 75.5213 49.0234 75.9716 49.1298 76.5166C49.2007 76.8602 49.4252 77.0735 49.4961 77.1327" stroke="black" stroke-width="0.5" stroke-miterlimit="10"/>
<path d="M58.9135 55.936C58.9135 56.4455 58.7245 58.0806 58.7363 59.0758C58.7599 60.9597 58.8308 61.2678 58.7363 62.0616C58.7008 62.346 58.6299 62.9265 57.9919 64.917C57.472 66.5521 57.3538 66.7061 56.9403 67.9621C56.3495 69.763 55.8532 71.3152 55.6996 73.3649C55.6051 74.5971 55.676 75.545 55.6996 75.782C55.8178 77.2393 56.1368 78.4715 56.1959 78.6967C56.5149 79.917 56.6922 80.0118 56.6922 80.6872C56.6922 81.5284 56.4204 81.9787 56.6922 82.4289C56.893 82.7488 57.2002 82.654 57.8737 82.9858C57.8737 82.9858 58.37 83.2346 59.0553 83.8507C60.1542 84.8578 60.4259 86.2322 61.4067 88.1398C61.7966 88.8862 61.7375 88.6611 62.7655 90.3791C63.4153 91.4573 63.9589 92.4407 65.6131 95.5332C68.2244 100.427 67.9762 100.118 68.4016 100.746C69.3232 102.145 70.1976 103.578 71.131 104.964C71.6391 105.735 72.1708 106.505 72.2417 107.63C72.3126 108.649 71.9818 109.467 71.8045 109.87C71.3319 110.995 70.7766 111.363 69.8904 112.417C69.2523 113.175 68.6615 114.206 67.48 116.268C67.22 116.718 66.5111 117.974 65.6249 119.739C64.9159 121.149 64.4315 122.239 62.2219 127.618C62.1747 127.725 62.1392 127.808 62.092 127.938M62.092 127.938C60.7332 131.256 60.0597 132.915 60.4259 133.211C60.7568 133.472 61.7848 132.879 62.3401 132.156C63.0136 131.291 62.5646 129.028 62.092 127.938Z" stroke="black" stroke-width="0.5" stroke-miterlimit="10"/>
<path d="M68.3896 114.668C69.713 114.55 72.537 114.621 74.6402 114.704C76.2826 114.775 78.953 114.893 82.0132 115.699C85.3926 116.588 88.0275 117.287 90.4379 119.609C94.1953 123.246 94.4907 128.045 94.5262 128.863C94.5971 130.355 94.7625 134.017 92.2339 137.062C89.4099 140.462 85.1444 140.723 83.1948 140.853C82.3205 140.912 77.3933 141.137 73.0451 137.808C71.6508 136.742 69.5003 135.095 68.9568 132.536C68.7678 131.647 68.685 130.249 68.5905 128.436C68.5196 127.168 68.5196 126.481 68.5314 126.019C68.5551 124.763 68.626 123.389 68.7323 122.642" stroke="black" stroke-width="0.5" stroke-miterlimit="10"/>
<path d="M76.8027 122.618C76.5191 123.069 75.7983 124.23 75.692 125.249C75.4675 127.441 76.7908 129.408 78.2915 130.403C78.7405 130.699 79.7566 131.363 81.139 131.268C81.5644 131.244 82.8169 131.161 83.5495 130.213C84.2584 129.301 84.0694 128.14 83.9158 127.299C83.833 126.837 83.5495 125.308 82.2497 124.076C80.7255 122.63 78.6105 122.654 77.2989 122.642C73.5297 122.642 68.8152 122.595 64.2661 122.63" stroke="black" stroke-width="0.5" stroke-miterlimit="10"/>
<path d="M73.376 114.597C74.0613 113.91 76.2236 111.517 77.736 110.782C79.3548 109.988 81.0326 109.633 83.7384 109.538C87.3068 109.408 90.438 109.301 94.0182 110.533C96.1095 111.256 98.7917 113.258 104.05 117.239C109.284 121.209 109.958 122.05 112.404 122.95C116.598 124.491 120.096 124.017 120.946 123.886C123.25 123.531 126.523 123.009 128.556 120.344C131.663 116.28 129.406 110.486 128.993 109.479C127.717 106.41 125.507 104.538 123.109 102.524C120.58 100.391 118.43 99.2654 117.721 98.8626C114.436 96.9787 110.218 91.3033 107.665 78.4597" stroke="black" stroke-width="0.5" stroke-miterlimit="10"/>
<path d="M56.9402 82.6303C56.8457 83.0213 56.5266 84.064 56.1367 84.6564C55.6405 85.4028 55.0615 85.8294 54.2226 86.3981C52.0012 87.8673 51.3395 87.9858 50.0752 89.064C48.6928 90.2488 48.6573 90.8057 48.6455 90.9834C48.6455 91.8602 49.4726 92.6777 50.2525 93.0332C50.6424 93.2109 51.3986 93.2701 51.6349 93.282" stroke="black" stroke-width="0.5" stroke-miterlimit="10"/>
<path d="M54.2107 86.3863C53.9153 86.7417 53.3481 88.2346 52.97 88.8744C52.2256 90.1422 51.9302 91.2441 51.8593 91.5403C51.4694 93.0569 51.8239 93.2346 51.4222 93.8981C50.7368 95.0474 49.2362 95.3318 48.6336 95.4502C48.2083 95.5332 47.842 95.5213 47.263 95.5095C46.2823 95.5095 46.0342 95.3791 45.2307 95.3199C44.4981 95.2725 43.1747 95.2014 41.8868 95.8175C41.6151 95.9479 40.8588 96.3033 40.8943 96.6825C40.9179 96.9313 41.2606 97.0261 42.135 97.4289C43.6001 98.1043 44.1791 98.5782 44.4272 98.7915C44.8998 99.2062 45.1598 99.4431 45.2307 99.846C45.3607 100.557 44.7817 101.28 44.2382 101.647C43.6237 102.062 43.0566 102.014 41.9459 102.014C41.0715 102.014 39.9136 102.121 37.6095 102.322C35.2818 102.524 34.821 102.725 34.7028 103.069C34.5374 103.519 34.9628 104.123 35.3172 104.431C35.8844 104.929 36.4161 104.787 37.3023 105.118C37.7631 105.284 38.3775 105.616 39.0392 106.303" stroke="black" stroke-width="0.5" stroke-miterlimit="10"/>
<path d="M47.6532 95.5213C47.4878 96.1256 46.9442 97.9028 46.4716 98.3768C46.0344 98.8152 45.3846 99.4431 45.231 99.8697" stroke="black" stroke-width="0.5" stroke-miterlimit="10"/>
<path d="M42.194 102.026C41.9458 102.417 40.4925 103.791 39.9608 104.573C39.689 104.976 39.0628 105.96 39.0273 106.315" stroke="black" stroke-width="0.5" stroke-miterlimit="10"/>
<path d="M18.2436 115.13C17.9246 115.794 17.5347 116.505 17.062 117.239C16.0104 118.886 14.8525 120.142 13.8481 121.09" stroke="black" stroke-width="0.5" stroke-miterlimit="10"/>
<path d="M18.6572 109.336C19.3307 109.005 20.8195 108.578 21.9538 108.306C23.7616 107.855 25.2741 107.879 26.1012 107.938C28.2753 108.081 30.9929 109.348 32.0563 109.858" stroke="black" stroke-width="0.5" stroke-miterlimit="10"/>
<path d="M30.0004 86.1967C30.284 86.9194 30.6266 87.9265 30.9338 89.1825C31.3238 90.8175 31.6428 92.1682 31.4892 93.7085C31.2647 95.9716 30.1304 97.5356 29.256 98.7322C27.6963 100.889 25.8058 102.192 24.4233 102.95" stroke="black" stroke-width="0.5" stroke-miterlimit="10"/>
<path d="M45.4788 85.4621C44.9116 86.2085 44.0136 87.263 42.7493 88.3768C41.2487 89.7038 40.5634 89.9289 38.4129 91.6706C36.8414 92.9503 36.0498 93.5901 35.3763 94.5261C34.2656 96.0782 34.2892 97.0379 33.5212 98.7441C32.954 100 31.9261 101.754 29.8701 103.59" stroke="black" stroke-width="0.5" stroke-miterlimit="10"/>
<path d="M50.9852 83.4123C50.3826 84.0166 49.4138 84.9763 48.1376 86.0782C46.0463 87.891 45.3491 88.1872 43.9312 89.6209C43.0096 90.545 42.3715 91.3981 41.0836 93.0924C40.7291 93.5663 39.453 95.2725 37.9288 97.6896C37.1253 98.9573 36.4873 100.059 36.0146 100.912" stroke="black" stroke-width="0.5" stroke-miterlimit="10"/>
<path d="M54.8961 90.9834C54.5771 91.327 54.1163 91.8957 53.7146 92.654C52.8874 94.2654 52.9347 95.6279 52.7811 96.6943C52.4975 98.7322 51.4341 100.107 49.9926 101.967C47.5231 105.154 44.4155 106.682 42.6904 107.37" stroke="black" stroke-width="0.5" stroke-miterlimit="10"/>
<path d="M55.4516 91.481C55.1562 93.0095 55.1208 94.2299 55.1444 95.0829C55.1681 95.9834 55.2744 96.6588 55.2035 97.8792C55.2035 97.8792 55.1444 98.981 54.9554 99.9289C54.3882 102.784 49.8155 106.102 49.5083 106.327" stroke="black" stroke-width="0.5" stroke-miterlimit="10"/>
<path d="M60.5204 116.991C60.5204 117.773 60.4377 118.72 60.2132 119.787C59.9415 121.078 59.5397 122.145 59.1616 122.95" stroke="black" stroke-width="0.5" stroke-miterlimit="10"/>
<path d="M58.7952 85.1422C58.8543 86.3389 58.9606 88.1517 59.1615 90.3555C59.5632 94.6801 59.9177 95.7346 59.7759 97.5C59.6341 99.3246 58.9842 101.908 56.562 104.953" stroke="black" stroke-width="0.5" stroke-miterlimit="10"/>
<path d="M62.4463 91.5995C62.4463 92.3934 62.4817 93.199 62.5054 94.0166C62.5645 95.6753 62.6708 97.263 62.8126 98.7915" stroke="black" stroke-width="0.5" stroke-miterlimit="10"/>
<path d="M67.0781 98.3057C66.251 99.5853 64.9513 100.936 64.3014 101.422C62.9308 102.441 62.0328 102.512 61.0166 103.531C60.1186 104.443 59.7287 105.948 59.5278 106.694" stroke="black" stroke-width="0.5" stroke-miterlimit="10"/>
<path d="M32.978 79.064C33.238 80.0711 33.4743 81.1493 33.6633 82.2867C34.1951 85.5332 34.2187 88.4716 34.0296 90.9123" stroke="black" stroke-width="0.5" stroke-miterlimit="10"/>
<path d="M43.3758 83.6611C42.4424 84.0995 41.2844 84.763 40.091 85.7701C38.1887 87.3934 37.0898 89.1825 36.499 90.3673" stroke="black" stroke-width="0.5" stroke-miterlimit="10"/>
<path d="M55.7232 76.019C54.4117 77.1683 52.7811 78.3175 52.2376 79.1232C51.5877 80.0711 51.1742 80.9005 50.1934 81.2915C49.39 81.6232 48.6456 81.481 48.2793 81.41C44.3446 80.7701 42.2651 82.7962 39.3584 81.5995C38.3068 81.1611 37.6215 80.3199 36.2036 78.7441C35.152 77.5829 33.7931 75.6872 33.2969 74.8934" stroke="black" stroke-width="0.5" stroke-miterlimit="10"/>
<path d="M36.251 71.9076C37.2435 72.2867 38.8623 73.0687 39.2994 73.4123C41.1427 74.8815 41.1309 76.3152 43.0805 77.5711C43.2223 77.6659 43.8722 78.0687 44.8174 78.3768C45.9872 78.7559 46.3771 78.4242 47.8541 78.7441C48.9529 78.9811 49.0593 79.2062 49.591 79.1114C50.4299 78.9692 50.8553 78.282 51.4461 77.6185C52.0605 76.9313 54.1046 75.628 55.6761 74.8934" stroke="black" stroke-width="0.5" stroke-miterlimit="10"/>
<path d="M36.0737 73.91C36.6645 74.7631 37.598 75.8768 38.9804 76.8958C41.1781 78.519 43.3759 79.0522 44.6165 79.2536" stroke="black" stroke-width="0.5" stroke-miterlimit="10"/>
<path d="M34.644 75.2725C35.2821 76.0782 36.2155 77.0735 37.4916 78.0095C39.4294 79.4194 41.32 80.0593 42.5724 80.3673" stroke="black" stroke-width="0.5" stroke-miterlimit="10"/>
<path d="M50.8078 85.3318C49.9571 86.1967 49.1181 87.0616 48.2674 87.9384C45.8688 90.4265 43.5293 92.9147 41.2725 95.391" stroke="black" stroke-width="0.5" stroke-miterlimit="10"/>
<path d="M54.0218 84.1469C53.3602 84.5853 52.5449 85.2133 51.7296 86.0663C50.8434 87.0024 50.229 87.9384 49.8154 88.673" stroke="black" stroke-width="0.5" stroke-miterlimit="10"/>
<path d="M4.80878 136.055C4.80878 136.055 4.71425 136.694 5.17507 137.109C5.62407 137.512 6.17941 137.37 6.22667 137.358" stroke="black" stroke-width="0.5" stroke-miterlimit="10"/>
<path d="M30.78 116.718C31.3708 115.924 32.6232 116.09 33.7221 116.066C36.7942 115.983 39.051 117.145 39.8545 117.559C40.9888 118.152 44.0846 119.834 45.6797 123.578C46.1878 124.763 47.7002 128.341 45.8687 132.026C45.6561 132.441 43.541 136.505 38.9919 136.872C36.1798 137.097 33.1431 135.865 31.5007 133.27C28.7713 128.946 31.9734 124.1 32.2451 123.709C32.6351 123.14 35.5417 119.028 38.9919 119.858C42.6548 120.746 43.1747 126.315 43.1984 126.623C43.2929 127.796 43.4819 130.178 41.8396 131.398C40.7998 132.168 39.1219 132.441 37.7513 131.588C36.5106 130.818 35.8962 129.36 36.0853 128.116C36.4516 125.64 39.8663 124.822 40.3626 124.704C41.0361 124.538 42.4303 124.609 42.8439 124.609" stroke="black" stroke-width="0.5" stroke-miterlimit="10"/>
<path d="M30.7803 116.718C30.6504 116.967 30.2959 117.583 30.4377 117.808C30.6504 118.152 31.3593 117.986 32.3518 117.927C32.4346 117.927 34.2542 117.832 35.8139 118.235C36.3338 118.377 39.8785 119.68 40.4929 120.592" stroke="black" stroke-width="0.5" stroke-miterlimit="10"/>
<path d="M42.4658 119.277C43.3166 119.194 45.278 118.957 46.1642 118.91C49.4253 118.744 52.9937 119.017 55.7822 119.277" stroke="black" stroke-width="0.5" stroke-miterlimit="10"/>
<path d="M56.1369 116.718C55.7706 116.943 54.6954 117.512 54.27 117.737C53.9274 117.915 52.3559 118.507 52.2495 118.898" stroke="black" stroke-width="0.5" stroke-miterlimit="10"/>
<path d="M46.0107 124.443C46.8615 124.254 48.9411 123.91 50.2408 123.945C52.1904 124.017 54.589 124.834 55.5933 125.249" stroke="black" stroke-width="0.5" stroke-miterlimit="10"/>
<path d="M48.9408 123.969C48.7753 124.419 47.9482 126.232 47.7592 127.05C47.4756 128.365 46.8848 131.066 47.8183 133.626C49.0589 137.026 52.3555 138.495 53.2653 138.898C54.057 139.254 58.2989 141.043 62.6707 138.839C63.4505 138.448 66.4872 136.801 67.7515 133.187C67.9287 132.678 69.4884 128.009 66.8889 125.178C66.2273 124.455 64.4903 123.626 63.935 123.389" stroke="black" stroke-width="0.5" stroke-miterlimit="10"/>
<path d="M52.2494 138.4C52.0485 138.626 51.1269 139.562 50.926 140.083C50.8197 140.355 50.4416 141.386 50.8669 142.571C50.9851 142.903 51.2451 143.649 51.9776 144.123C52.5566 144.491 53.1356 144.502 53.8918 144.491C54.4826 144.491 54.8725 144.408 56.6803 143.993C58.5472 143.566 58.559 143.555 58.7244 143.555C59.9769 143.614 60.1187 144.325 61.6311 144.609C62.4346 144.763 63.0963 144.692 63.8643 144.609C65.105 144.479 65.1522 144.254 66.2156 144.171C67.6335 144.064 68.0235 144.419 68.5079 144.052C69.2405 143.495 69.2641 142.002 68.8151 141.754C68.6143 141.635 68.4134 141.825 67.9526 142.002C66.7828 142.453 65.6721 142.216 64.9159 142.062C63.9943 141.872 63.3562 141.528 62.7536 141.197C61.9974 140.782 60.9222 139.964 60.5204 139.633" stroke="black" stroke-width="0.5" stroke-miterlimit="10"/>
<path d="M79.1538 115.095C80.489 114.692 82.6395 114.36 85.0381 115.438C86.7868 116.22 90.2016 117.595 94.6916 121.896C98.7798 125.806 98.0118 126.505 102.49 131.457C106.661 136.078 109.733 139.396 114.625 140.711C115.972 141.078 117.957 141.161 121.927 141.327C125.413 141.481 128.449 141.611 132.325 141.137C136.649 140.616 139.261 140.296 142.226 138.59C145.062 136.955 146.693 134.929 148.784 132.322C149.954 130.865 152.045 128.223 153.676 124.313C155.484 119.988 154.55 119.301 156.216 114.81C156.524 113.993 157.173 112.334 161.604 105.249C166.721 97.0498 166.614 98.0332 167.607 95.8175C170.584 89.1706 170.277 83.2346 170.147 81.481C169.899 78.2464 168.765 74.9171 168.115 73.1398" stroke="black" stroke-width="0.5" stroke-miterlimit="10"/>
<path d="M59.6699 24.8578C58.9019 25.6754 57.6849 26.6114 57.1768 26.9787C57.1768 26.9787 54.5419 28.8626 49.6856 29.8341C49.402 29.8934 49.1066 29.9408 49.1066 29.9408C49.1066 29.9408 48.9412 29.9645 48.7758 30C48.4449 30.0592 45.2074 30.237 41.2964 30.391" stroke="black" stroke-width="0.5" stroke-miterlimit="10"/>
<path d="M48.7876 30C48.8112 30.2014 48.9885 31.7891 49.0121 31.9905" stroke="black" stroke-width="0.5" stroke-miterlimit="10"/>
<path d="M59.2324 29.7749C59.2324 30.2844 59.3151 31.3981 59.4096 32.3104C59.5987 34.2417 59.9413 35.5213 59.5278 35.7227C59.4805 35.7464 59.4333 35.7464 58.5943 35.4739C57.8381 35.2251 57.7436 35.1896 57.6018 35.2251C57.1528 35.3317 56.7983 35.9123 56.7983 36.4692C56.7983 37.0379 56.9756 38.1872 57.5427 38.4597" stroke="black" stroke-width="0.5" stroke-miterlimit="10"/>
<path d="M58.7601 44.3128C59.8826 44.7867 60.9814 45.6754 61.395 46.1019C62.9192 47.6777 62.7538 49.2536 64.4907 50.4502C64.7861 50.6517 64.9279 50.6991 65.6723 51.1967C66.2276 51.564 67.0193 52.0972 67.6573 52.6303C69.1698 53.91 68.898 54.5024 69.8905 55.1185C70.9303 55.7583 71.5565 55.3081 73.1044 55.5569C75.0422 55.8649 75.2076 56.7654 77.748 58.045C79.8749 59.1114 81.6472 59.4194 83.7504 59.7867C86.2908 60.2251 87.5788 60.4384 88.4531 59.7867C88.8667 59.4787 89.5756 58.7441 90.8045 58.2346C91.0644 58.128 91.3362 58.0332 91.667 57.9858C91.9624 57.9384 92.8486 57.8081 93.6521 58.2938C93.9593 58.4834 94.2665 58.9337 94.8927 59.846C95.4481 60.6635 95.4835 60.8531 95.4481 61.0308C95.3535 61.5284 94.7509 61.5758 94.6446 62.1446C94.5619 62.5711 94.8455 62.7251 94.7037 63.0806C94.5382 63.4834 94.1129 63.4005 93.9593 63.7678C93.7584 64.2299 94.3374 64.6209 94.2074 65.1303C94.0656 65.6991 93.1794 65.9123 93.0967 65.936C92.4469 66.0901 91.8561 65.8886 89.6938 64.6919C88.0159 63.7559 87.945 63.6374 87.4606 63.5071C86.3617 63.2109 85.8418 63.7085 84.1167 63.9455C83.3014 64.0521 82.8643 64.0284 81.21 64.0047C74.8886 63.8981 74.416 64.0995 72.4782 63.6967C69.8787 63.1517 68.898 62.4052 68.638 62.2038C67.9055 61.6351 67.7519 61.2441 66.842 60.6517C65.8377 60 65.0815 59.846 63.9354 59.4668C61.7731 58.7559 60.7097 58.3412 60.1543 57.8555C59.6226 57.3815 58.9373 56.5166 58.6064 54.8697" stroke="black" stroke-width="0.5" stroke-miterlimit="10"/>
<path d="M22.6034 6.00711C22.5562 6.06635 23.7377 6.71801 24.0568 7.41706C24.1986 7.73697 24.2458 8.02133 24.3049 8.47157C24.364 8.90995 24.3758 9.2654 24.364 9.52607" stroke="black" stroke-width="0.5" stroke-miterlimit="10"/>
<path d="M16.5538 12.737C16.731 12.0735 16.4711 10.4976 16.3765 9.71563C16.282 8.95734 16.3293 8.74407 16.1875 8.41232C15.9275 7.76066 15.5612 7.65402 15.5022 7.109C15.4667 6.77725 15.5613 6.30331 15.8685 6.0545C16.1993 5.79383 16.4592 6.0545 16.9201 5.80568C17.3809 5.56872 17.2864 5.23696 17.7826 4.99999C17.8535 4.96445 18.3261 4.73933 18.6452 4.94075C18.8933 5.09478 18.8224 5.36729 19.0115 5.43838C19.2714 5.53317 19.4723 5.07109 20.0631 4.94075C20.2167 4.90521 20.5121 4.84597 20.6775 4.99999C20.9138 5.21326 20.6893 5.63981 20.8665 5.74644C21.1147 5.90047 21.6818 5.08293 22.1072 5.24881C22.2962 5.3199 22.4026 5.77014 22.6271 6.07819" stroke="black" stroke-width="0.5" stroke-miterlimit="10"/>
<path d="M15.5139 6.4455C15.1476 6.16114 14.096 5.92417 13.7297 6.17299C13.2453 6.4929 13.1389 7.1801 13.3634 7.47631C13.5879 7.78436 14.0488 7.78436 14.9113 7.9147C15.1831 7.95024 16.0929 8.32939 16.2111 8.41233" stroke="black" stroke-width="0.5" stroke-miterlimit="10"/>
<path d="M23.8442 7.09716C24.1869 7.23934 25.2621 7.19195 25.5457 6.99052C25.7584 6.8365 25.7584 6.57583 25.8529 5.80569C26.042 4.2891 26.1719 4.06398 26.3492 3.9455C26.6328 3.74408 27.0818 3.74408 27.2826 3.9455C27.5071 4.17062 27.3181 4.56161 27.2826 5.30806C27.259 5.86493 27.4953 6.95498 27.5662 7.23934" stroke="black" stroke-width="0.5" stroke-miterlimit="10"/>
<path d="M25.2622 10.1422C25.3685 10.4621 25.5694 10.9834 25.6049 11.6469C25.6403 12.3341 25.2622 12.7133 25.4867 13.0095C25.6639 13.2464 26.0775 13.3294 26.3493 13.1991C26.7155 13.0213 26.7746 12.4763 26.8455 11.7062C26.8928 11.1611 26.8692 10.6991 26.8455 10.4028" stroke="black" stroke-width="0.5" stroke-miterlimit="10"/>
<path d="M18.2434 12.3815C17.9598 12.7488 17.629 13.2939 17.3808 13.9929C17.0027 15.083 17.0146 16.0427 17.0736 16.5995" stroke="black" stroke-width="0.5" stroke-miterlimit="10"/>
<path d="M17.9954 22.7488C17.7946 23.2346 17.5937 23.7915 17.4401 24.4194C17.0856 25.9005 17.0974 27.2038 17.192 28.1398" stroke="black" stroke-width="0.5" stroke-miterlimit="10"/>
<path d="M78.1733 17.6066C77.618 17.4171 76.8617 17.6896 76.0701 18.1043C75.6329 18.3294 75.0776 18.6374 74.7703 19.2891C74.4986 19.8697 74.4395 20.7227 74.8294 21.0308C75.0657 21.2204 75.2548 21.0308 75.5147 21.2204C75.8574 21.481 75.6447 21.9431 75.9519 22.7725C76.1173 23.2346 76.3655 23.6019 76.4482 23.5782C76.5663 23.5427 76.2237 22.7844 76.5664 22.0853C76.6254 21.9668 76.7908 21.6351 77.1217 21.5284C77.4053 21.4336 77.6652 21.5403 78.1733 21.7772C78.7405 22.0379 79.0122 22.1682 79.1658 22.3934C79.4258 22.8081 79.1895 23.2109 79.0477 24.0047C78.8586 25.0592 79.154 24.9882 79.1067 26.9905C79.0831 28.3294 78.9413 28.7678 79.2249 28.981C79.6621 29.3009 80.5483 28.7559 80.8909 28.5427C81.08 28.436 81.848 27.9384 82.746 26.5521C83.4431 25.4858 83.7976 24.5261 84.1757 23.5071C84.6011 22.3578 84.4475 22.3578 84.672 22.0142C85.2982 21.0663 86.3734 20.9242 88.5712 20.4028C91.2061 19.7749 90.8516 19.7038 92.2813 19.4076C95.8261 18.6967 99.2527 18.0095 102.986 19.218C109.261 21.2559 111.896 27.2038 112.085 27.6659C113.113 30.0948 113.278 32.3104 113.266 33.6848" stroke="black" stroke-width="0.5" stroke-miterlimit="10"/>
<path d="M78.1733 17.6066C78.6932 17.7607 80.0875 17.9858 81.0209 17.9147C81.978 17.8436 82.5924 17.5711 83.6795 17.1683C84.802 16.7536 85.9599 16.4337 87.0824 16.0545C89.5165 15.2133 91.8324 15.0356 93.8883 14.8697C97.0904 14.6209 100.186 14.3721 103.92 15.4266C105.775 15.9479 109.367 17.0024 112.522 20.2014C115.96 23.673 116.941 27.6896 117.473 29.8815C118.134 32.6066 118.205 34.9526 118.158 36.5284" stroke="black" stroke-width="0.5" stroke-miterlimit="10"/>
<path d="M79.0713 23.8033C78.3624 24.2062 77.3462 24.6801 76.9327 24.8697C75.8338 25.3554 75.3848 25.4265 74.7704 25.9242C74.3569 26.2559 73.7424 26.7536 73.7779 27.3578C73.8133 27.9384 74.4396 28.0332 74.7704 28.7915C75.1131 29.5498 74.8767 30.3791 74.7704 30.6517C74.2741 31.8839 71.9701 32.6066 69.1934 31.8957" stroke="black" stroke-width="0.5" stroke-miterlimit="10"/>
<path d="M75.3257 19.9763C75.9047 19.9763 76.7554 19.9645 77.807 19.9763C80.0993 20.0119 80.1111 20.0948 80.7846 20.0356C83.325 19.8223 84.542 18.4597 84.991 18.9218C85.1919 19.1232 85.1446 19.5853 84.1875 21.718C83.4786 23.282 82.8169 24.5498 82.3324 25.4384" stroke="black" stroke-width="0.5" stroke-miterlimit="10"/>
<path d="M74.2739 37.9858C74.5575 37.1564 75.8691 35.9597 77.4878 35.2962C77.8423 35.154 79.9219 34.3365 82.3796 34.8578C83.3484 35.0711 83.3484 35.2606 84.1165 35.3554C85.9479 35.5687 87.4249 34.6327 88.2047 34.1706C90.6979 32.7133 92.8602 31.8602 95.3887 31.3744C96.4522 31.173 97.2438 31.1256 98.4845 31.0663C98.4845 31.0663 101.639 30.9005 104.676 31.3152C112.474 32.3815 118.17 36.5284 118.17 36.5284C120.745 38.4005 124.066 40.8294 125.602 45.2251C126.547 47.9147 126.452 50.2962 126.346 52.9265C126.287 54.4194 126.133 55.3791 124.68 62.5474C123.487 68.3886 123.345 68.9336 123.132 70.6161C122.4 76.481 123.002 78.8625 123.25 79.7393C124.101 82.6777 125.732 84.917 125.909 84.8341C126.039 84.7749 125.484 83.6137 125.165 81.6706C124.94 80.2843 124.94 79.1232 124.975 78.3175" stroke="black" stroke-width="0.5" stroke-miterlimit="10"/>
<path d="M125.838 73.3175C125.897 72.6777 126.039 71.2796 126.393 70.1185C127.256 67.3223 128.815 65.4265 130.6 63.2938C131.214 62.5592 132.23 61.327 133.388 60.2014" stroke="black" stroke-width="0.5" stroke-miterlimit="10"/>
<path d="M115.996 56.4692C115.866 57.2986 115.677 58.3768 115.44 59.6327C115.145 61.1848 114.897 62.5 114.507 64.0995C113.786 67.109 113.373 67.7844 113.077 70C112.959 70.9005 112.912 72.9384 112.888 73.4123" stroke="black" stroke-width="0.5" stroke-miterlimit="10"/>
<path d="M108.563 63.7559C108.563 64.4668 108.54 66.09 108.504 66.8365C108.41 68.9455 107.996 71.9905 107.736 73.8507" stroke="black" stroke-width="0.5" stroke-miterlimit="10"/>
<path d="M121.005 55.2251C120.958 56.5995 120.816 58.7441 120.32 61.3033C119.706 64.5735 119.127 65.3673 118.524 68.6967C117.969 71.7062 117.886 74.0758 117.839 75.5924C117.744 78.4597 117.673 80.7465 118.205 83.5427C118.843 86.8839 119.753 91.6114 123.534 93.7915C123.983 94.0521 126.63 95.5687 129.536 94.5972C129.856 94.4905 131.971 93.7559 133.188 91.6114C133.566 90.936 134.062 90.0711 133.932 89.0048C133.743 87.5593 132.585 87.1683 131.522 85.5332C131.002 84.7275 130.234 81.8484 130.056 79.9882" stroke="black" stroke-width="0.5" stroke-miterlimit="10"/>
<path d="M113.089 78.3649C112.983 79.3009 113.054 80.628 113.278 81.7891C114.259 86.8602 119.233 89.763 120.356 90.4147" stroke="black" stroke-width="0.5" stroke-miterlimit="10"/>
<path d="M102.679 73.1398C104.641 73.5426 106.862 73.8626 107.949 73.8389C110.029 73.7915 111.139 73.4479 113.951 73.3412C115.251 73.2938 117.272 73.4242 117.945 73.4597" stroke="black" stroke-width="0.5" stroke-miterlimit="10"/>
<path d="M99.7959 78.4716C102.088 78.3768 105.668 78.4123 108.079 78.3886C110.926 78.3531 115.121 78.4005 117.803 78.4716" stroke="black" stroke-width="0.5" stroke-miterlimit="10"/>
<path d="M91.3598 59.1943C91.3361 59.6327 91.2416 60.2607 90.8635 60.8649C90.4972 61.4573 90.1309 61.5877 89.871 62.109C89.6701 62.5 89.5283 63.1161 89.8119 64.0995" stroke="black" stroke-width="0.5" stroke-miterlimit="10"/>
<path d="M95.0225 2.16825C95.3651 1.57584 96.4876 1.69432 97.4801 1.71802C98.3073 1.72987 99.4888 1.74171 100.635 2.33413C101.604 2.83176 101.557 3.23461 102.372 3.76778C103.66 4.59716 104.971 4.38389 106.708 4.32465C108.563 4.26541 110.418 4.62086 112.285 4.69195C114.53 4.78674 118.418 5.54503 131.604 12.7607C133.802 13.9692 136.98 15.8057 140.62 17.9739" stroke="black" stroke-width="0.5" stroke-miterlimit="10"/>
<path d="M156.701 11.1493C154.728 10 152.329 8.61374 150.97 8.03317C148.808 7.12085 149.73 7.71327 145.464 6.17298C144.224 5.72275 143.231 5.3436 142.061 5.67535C141.754 5.75829 141.423 5.90047 140.206 6.86019C137.76 8.76777 137.524 9.44312 136.177 9.96445C135.622 10.1777 134.334 10.6754 133.448 10.0237C133.01 9.70379 132.715 9.14692 132.703 8.59004C132.68 7.70142 133.377 6.93128 134.251 5.98341C134.901 5.27251 135.244 5.07109 135.244 4.62085C135.244 4.15877 134.866 3.60189 134.31 3.50711C133.979 3.44786 133.613 3.56635 133.377 3.81516C133.01 4.22986 133.211 4.84597 133.07 4.86967C132.94 4.89336 132.609 4.40758 132.573 3.81516C132.538 3.15166 132.928 2.91469 132.762 2.51185C132.609 2.1564 132.231 2.20379 132.018 1.82464C131.805 1.45734 131.935 0.983409 132.077 0.639808C132.16 0.450234 132.384 0.426537 132.514 0.390992C133.318 0.165874 134.121 0.355447 134.251 0.390992C135.894 0.793836 136.165 0.0829355 137.654 0.509476C138.647 0.793836 138.611 1.13744 139.568 1.50474C141.045 2.07346 142.392 1.75355 143.16 1.62322C145.193 1.29147 146.87 1.75355 150.214 2.67772C153.239 3.50711 155.307 4.70379 158.45 6.52843C160.411 7.66587 162.302 8.98104 163.401 9.76303" stroke="black" stroke-width="0.5" stroke-miterlimit="10"/>
<path d="M155.614 11.3981C153.546 11.7891 151.183 12.4289 148.678 13.4479C145.641 14.6919 139.993 17.4645 134.995 23.128C133.495 24.8341 132.1 26.41 130.907 28.9692C129.158 32.7133 129.028 35.9716 128.922 39.7749C128.733 46.7772 130.21 52.0142 130.529 53.128C131.888 57.8081 133.743 61.0427 136.224 65.3554C138.54 69.4076 139.71 71.4336 141.671 74.1114C142.557 75.3199 143.455 76.4455 144.46 78.3294C145.003 79.3483 146.114 81.4573 146.752 84.2891C147.603 88.0569 147.355 91.9313 146.87 91.9905C146.374 92.0498 145.499 88.0095 145.204 86.3981C144.72 83.8863 144.59 79.9289 144.542 78.4834" stroke="black" stroke-width="0.5" stroke-miterlimit="10"/>
<path d="M140.631 72.6066C140.419 73.1753 139.84 74.7275 139.58 75.7109C139.261 76.9313 138.906 78.59 138.717 81.5521C138.587 83.5308 138.505 86.2085 138.717 89.4313" stroke="black" stroke-width="0.5" stroke-miterlimit="10"/>
<path d="M122.943 78.3649C125.106 78.1753 127.256 78.3886 128.071 78.7441C132.242 80.5569 133.566 85.1303 133.956 86.4455C134.405 87.9858 133.908 89.0521 133.92 89.9526" stroke="black" stroke-width="0.5" stroke-miterlimit="10"/>
<path d="M122.967 73.5901C125.188 73.3175 127.386 73.5545 128.378 73.8507C131.38 74.7512 133.282 76.718 135.314 78.8152C136.673 80.2251 137.961 81.9905 138.587 82.8792" stroke="black" stroke-width="0.5" stroke-miterlimit="10"/>
<path d="M130.187 74.5735C130.517 73.3412 131.486 70.5806 132.656 68.7559C133.613 67.263 135.09 65.5569 135.941 64.7986" stroke="black" stroke-width="0.5" stroke-miterlimit="10"/>
<path d="M139.698 61.0901C140.608 60.3081 142.782 58.519 143.68 57.7251" stroke="black" stroke-width="0.5" stroke-miterlimit="10"/>
<path d="M136.188 54.0521C137.287 54.4668 139.958 55.3199 141.257 56.09C144.33 57.9028 146.22 59.9763 146.894 60.7464C147.484 61.4336 149.387 63.7204 150.734 67.0735C153.203 73.282 151.632 79.7038 151.041 82.0972" stroke="black" stroke-width="0.5" stroke-miterlimit="10"/>
<path d="M149.399 64.3128C148.619 65.9005 146.906 69.7512 146.126 71.3507" stroke="black" stroke-width="0.5" stroke-miterlimit="10"/>
<path d="M136.614 54.7867C137.311 56.4455 138.469 59.0048 140.206 61.9905C141.801 64.7275 142.179 64.8934 144.602 68.8152C147.757 73.9218 148.926 76.564 149.304 77.4408C150.12 79.3247 150.675 80.9479 151.041 82.0972" stroke="black" stroke-width="0.5" stroke-miterlimit="10"/>
<path d="M134.109 47.9265C135.645 48.3294 138.718 49.2536 141.128 50.3199C144.165 51.6588 147.059 52.9384 149.801 55.6635C153.594 59.4313 154.893 63.8152 155.555 66.09C156.548 69.4668 156.713 72.4289 156.796 74.0403C156.902 76.1137 156.784 77.1682 156.737 81.6706C156.713 84.0877 156.725 86.0664 156.737 87.3815" stroke="black" stroke-width="0.5" stroke-miterlimit="10"/>
<path d="M172.085 57.2749C171.542 59.3957 170.821 61.1493 170.171 62.4881C168.47 65.9716 166.461 68.2109 165.835 68.8862C163.885 70.9834 163.271 70.9005 161.746 72.4881C160.34 73.9573 157.764 77.8317 156.725 81.9905" stroke="black" stroke-width="0.5" stroke-miterlimit="10"/>
<path d="M177.284 57.8318C177.012 58.9218 176.563 60.4265 175.854 62.1801C174.933 64.4668 173.645 67.6659 170.963 70.628C168.718 73.1043 167.772 72.891 166.012 75.4739C164.523 77.654 164.098 79.4194 163.968 80C163.779 80.8649 163.743 81.5995 163.66 83.045C163.554 84.8578 163.566 86.3507 163.601 87.3934" stroke="black" stroke-width="0.5" stroke-miterlimit="10"/>
<path d="M158.591 58.3886C158.78 60.0829 159.076 61.9431 159.525 63.9099C160.116 66.5758 161.451 69.9763 162.219 72.0142" stroke="black" stroke-width="0.5" stroke-miterlimit="10"/>
<path d="M150.533 56.4336C151.868 55.4621 154.799 53.8981 157.528 52.9858C160.683 51.9431 163.212 51.8957 166.13 51.872C169.521 51.8365 172.9 51.8128 177.083 53.0569C180.463 54.064 184.61 55.2962 187.977 58.827C189.762 60.699 191.073 62.9502 193.803 63.5426C194.559 63.7085 196.166 63.9099 197.206 64.0403C199.994 64.3839 200.065 64.2654 200.798 64.4787C203.149 65.154 205.512 67.3578 205.134 68.6967C204.744 70.0711 201.577 70.2488 200.549 70.3081C195.28 70.6161 191.428 67.5237 191.203 67.3223C188.946 65.4502 189.49 64.5735 187.174 62.4763C184.823 60.3436 182.436 59.5853 179.435 58.6256C173.68 56.7891 168.895 56.8957 167.43 56.955C162.585 57.1445 155.886 59.3365 153.298 60.3673" stroke="black" stroke-width="0.5" stroke-miterlimit="10"/>
<path d="M141.045 24.6682C142.274 25.4739 144.814 27.4408 146.267 30.0829C148.82 34.7393 147.839 39.5142 147.319 42.0024C146.929 43.8981 145.547 47.7014 143.042 51.1848" stroke="black" stroke-width="0.5" stroke-miterlimit="10"/>
<path d="M145.476 21.6706C146.835 22.9976 149.706 25.6754 151.159 28.8981C154.09 35.4029 152.896 41.3863 152.459 43.4242C151.49 47.9739 149.104 51.7891 147.603 53.7796" stroke="black" stroke-width="0.5" stroke-miterlimit="10"/>
<path d="M155.519 11.3981C158.001 10.9479 160.813 10.0593 162.243 9.90523C165.173 9.59717 168.139 9.28911 171.4 10.4621C172.51 10.8649 173.208 11.2678 176.291 12.4526C178.288 13.2109 178.796 13.3531 179.328 13.4479C180.415 13.6493 181.656 13.6019 184.09 13.5071C186.217 13.4242 186.737 13.3412 187.871 13.5071C189.702 13.7915 190.4 14.3247 190.659 14.5616C191.368 15.1896 192.125 16.3626 191.77 17.109C191.628 17.4052 191.404 17.4526 190.222 18.1043C189.301 18.6138 189.194 18.7204 188.733 18.9692C188.733 18.9692 187.138 19.8341 185.082 20.154C183.357 20.4266 181.55 20.1067 178.584 18.9692C173.857 17.1683 173.81 16.2085 171.033 15.3081C167.394 14.1232 164.204 14.7038 160.943 15.3081C157.422 15.9479 155.023 17.0498 150.852 18.9692C148.17 20.2014 145.984 21.2085 143.302 23.0687C140.584 24.9526 138.398 26.4692 136.496 29.3365C135.929 30.1896 134.109 33.0687 133.518 37.2157C133.412 37.9858 133.554 40.2133 133.826 44.6683C134.026 47.8673 134.251 50.2488 135.562 52.9266C135.752 53.3175 136.496 54.5735 136.614 54.7867" stroke="black" stroke-width="0.5" stroke-miterlimit="10"/>
<path d="M171.376 33.3412C170.289 34.1588 168.576 35.4976 167.134 36.9668C164.523 39.6209 163.01 42.0379 162.62 42.6777C160.801 45.6398 159.265 50.0711 158.591 52.6659" stroke="black" stroke-width="0.5" stroke-miterlimit="10"/>
<path d="M172.676 39.2773C171.825 39.8934 169.887 41.3507 168.989 42.3104C165.952 45.6043 164.688 49.7275 164.251 51.9076" stroke="black" stroke-width="0.5" stroke-miterlimit="10"/>
<path d="M162.668 15C165.338 18.8389 167.489 22.9384 168.682 25.6754C171.518 32.2038 172.499 37.8555 172.889 40.6991C173.479 44.9763 173.279 49.5024 173.137 52.1801" stroke="black" stroke-width="0.5" stroke-miterlimit="10"/>
<path d="M168.895 14.7867C170.526 17.5237 172.794 21.7891 174.378 26.2204C174.933 27.7725 176.705 32.9384 177.591 40C178.005 43.282 178.241 48.4242 177.97 53.2938" stroke="black" stroke-width="0.5" stroke-miterlimit="10"/>
<path d="M175.771 30.4502C178.56 29.4431 183.594 27.9976 188.674 28.2109C193.353 28.4123 196.756 29.6208 197.654 29.9526C201.506 31.3744 204.094 32.3341 205.512 34.4194C205.807 34.8578 206.351 35.782 207.426 36.1611C208.584 36.564 209.139 35.8886 210.333 36.2204C211.231 36.4692 211.798 37.1682 212.932 38.5782C213.901 39.7749 215.024 41.1611 214.598 41.872C214.326 42.3341 213.677 42.0142 212.991 42.6777C212.436 43.2227 212.566 43.7322 211.999 44.0403C211.432 44.3602 210.723 44.1706 210.699 44.0403C210.675 43.9218 211.219 43.8744 211.691 43.3531C211.786 43.2464 212.188 42.808 212.058 42.5474C211.892 42.1682 210.64 42.0853 209.895 42.6659C209.423 43.0332 209.529 43.3886 208.844 44.2772C208.359 44.917 208.253 44.7986 207.981 45.2133C207.166 46.4099 207.981 47.5592 207.296 48.3768C206.882 48.8744 206.055 49.0877 205.441 48.9336C203.728 48.5189 202.652 45.0829 202.901 42.2275C203.078 40.2133 203.799 39.6919 203.397 38.3768C203.208 37.7607 202.7 36.7298 200.242 35.3317C196.945 33.4597 193.85 33.0213 192.869 32.9147C192.077 32.8199 188.06 32.3934 183.085 33.9692C180.663 34.7393 178.442 36.0189 177.178 36.7891" stroke="black" stroke-width="0.5" stroke-miterlimit="10"/>
<path d="M74.274 37.9858C73.9904 39.2062 74.7111 40.0237 75.042 40.1422C75.4319 40.2844 75.81 40 76.0345 40.2251C76.259 40.4621 75.9164 40.8412 76.0936 41.4455C76.259 41.9905 76.7198 42.2749 76.838 42.3578C77.1688 42.5592 77.6651 42.7251 77.7832 42.5592C77.8423 42.4881 77.7832 42.3697 77.5587 41.7772C77.3224 41.1611 77.3106 41.0663 77.3579 40.9953C77.476 40.8057 77.866 40.8531 78.4095 40.9123C79.0239 40.9834 79.3311 41.019 79.6856 41.2204C79.9101 41.3389 80.3945 41.6232 80.5954 42.1682C80.7845 42.6896 80.619 43.1635 80.4536 43.6374C80.2409 44.2417 79.9101 44.6919 79.7092 44.9052C78.7167 45.9716 77.0152 45.5806 75.5146 45.8531C74.3212 46.0663 72.7615 46.8009 71.1191 49.0166" stroke="black" stroke-width="0.5" stroke-miterlimit="10"/>
<path d="M80.4419 43.6375C80.9382 44.9882 81.4462 46.7299 81.3872 47.4645C81.3044 48.5545 80.9854 49.2654 81.3872 49.9526C81.6944 50.4739 82.3206 50.9479 82.935 50.8886C83.5494 50.8294 83.7385 50.2844 84.6719 49.2773C85.7472 48.1043 85.9953 48.282 86.9642 47.2275C87.6495 46.4811 88.2994 45.7701 88.6302 44.7393C89.221 42.9502 88.2639 42.0972 88.7484 40.6991C89.0202 39.9408 89.6582 39.2062 91.785 38.2109C96.4168 36.0664 100.765 36.1019 100.765 36.1019C106.177 36.1019 110.005 38.0687 113.585 39.8934C117.532 41.9076 118.749 43.4123 119.41 44.4194C120.639 46.327 120.994 48.3175 121.147 49.1943C121.525 51.3981 121.254 54.0521 121.029 55.2133" stroke="black" stroke-width="0.5" stroke-miterlimit="10"/>
<path d="M113.692 39.9408C113.692 41.4337 113.538 44.1825 113.396 45.9005C113.231 47.9029 112.959 50.3792 112.652 52.0498" stroke="black" stroke-width="0.5" stroke-miterlimit="10"/>
<path d="M118.347 43.1043C118.3 43.8033 118.241 45.5332 118.158 46.2796C118.075 47.0972 117.898 48.1872 117.792 48.9455" stroke="black" stroke-width="0.5" stroke-miterlimit="10"/>
<path d="M90.8042 58.1991C91.2296 56.9787 92.2458 55.4621 92.7184 54.9763C93.3801 54.301 93.9236 54.0877 94.0772 53.4242C94.2426 52.7488 93.8882 52.1327 93.5219 51.5047C92.5766 49.8934 91.7377 49.8815 91.0405 48.6493C90.6388 47.9265 90.5915 47.2156 90.4852 45.7938C90.367 44.1232 90.2489 42.5592 91.2296 41.5758C91.2887 41.5166 92.0803 40.7346 92.7775 40.9597C93.2974 41.1256 93.4628 41.7536 93.7109 42.3223C94.4435 44.0284 96.1213 45.545 97.6692 45.7938C98.7208 45.9716 99.9378 45.7583 100.517 45.0474C100.611 44.9289 100.907 44.5616 100.824 44.1825C100.718 43.673 100.032 43.5071 100.08 43.3768C100.139 43.2228 101.119 43.1991 101.568 43.7441C101.828 44.0521 101.734 44.3365 101.935 44.4313C102.277 44.5853 102.62 43.8744 103.364 43.8152C103.754 43.7796 104.215 43.9337 104.475 44.2536C104.688 44.5024 104.723 44.7986 104.664 46.0545C104.617 47.1209 104.593 47.6422 104.546 47.8555C104.463 48.2228 104.239 48.9692 103.364 50.0237C102.632 50.9242 102.195 51.1019 100.387 52.5119C98.0591 54.3246 97.7755 54.7986 97.5983 55.2488C97.2556 56.1137 97.5038 56.4455 97.1611 57.5474C96.7948 58.6967 95.7787 59.7749 95.306 60.2844" stroke="black" stroke-width="0.5" stroke-miterlimit="10"/>
<path d="M88.1574 63.7915C88.0865 64.5853 88.1101 67.0972 88.4528 68.5071C89.0318 70.8886 90.3079 72.4289 91.2413 73.5308C91.9857 74.4194 94.2189 76.3033 96.0622 77.4408" stroke="black" stroke-width="0.5" stroke-miterlimit="10"/>
<path d="M92.4111 65.9123C92.6829 66.6825 93.1792 68.1991 94.0772 69.3128C95.2706 70.782 97.6455 72.0972 98.4608 72.5" stroke="black" stroke-width="0.5" stroke-miterlimit="10"/>
<path d="M120.947 48.2346C119.623 48.4005 116.858 48.981 114.814 50.2488C114.259 50.5924 113.455 51.1493 110.856 53.8507C109.013 55.7583 107.855 56.955 106.342 58.8152C105.196 60.2251 103.235 62.6422 101.391 65.8294C99.1464 69.7038 99.7844 70.0237 96.9959 75.699C96.9959 75.699 95.2354 79.2772 91.986 83.827C90.2491 86.2559 88.9376 87.7607 86.9761 88.045C85.8655 88.2109 85.0147 87.9147 83.9395 87.5474C83.4314 87.3697 78.1261 85.4739 77.4408 81.4692C77.1809 79.9645 77.8425 79.7038 77.3817 78.3649C76.6491 76.2678 74.3923 75.0711 72.62 74.8223C72.041 74.7393 71.0485 74.609 70.4577 75.1896C70.1032 75.545 70.0087 76.0426 70.0205 77.1801C70.0441 78.827 70.0796 79.8578 70.5168 81.1493C71.2848 83.4005 72.7736 84.7512 75.7157 87.3578C77.5235 88.9573 78.6696 89.9644 80.5484 90.9005C81.9072 91.5758 83.266 92.2512 85.192 92.3934C85.8418 92.4408 89.0557 92.6066 91.8206 90.4739C92.6005 89.8697 93.1912 89.0758 94.361 87.4881C95.9443 85.3436 96.9959 83.5426 97.953 81.8365C99.6545 78.8152 100.411 77.3341 101.545 75.2607C103.471 71.7299 104.546 69.7512 106.059 67.4407C107.949 64.5616 110.064 61.3507 113.668 58.1872C116.338 55.8531 119.517 54.064 121.289 53.1635" stroke="black" stroke-width="0.5" stroke-miterlimit="10"/>
<path d="M126.11 47.1564C126.831 47.0972 128.591 47.4408 129.312 47.3697" stroke="black" stroke-width="0.5" stroke-miterlimit="10"/>
<path d="M126.394 52.4289C126.724 52.3104 127.551 52.0498 128.19 52.0616C128.969 52.0616 130.033 52.3934 130.375 52.5474" stroke="black" stroke-width="0.5" stroke-miterlimit="10"/>
<path d="M96.2512 39.0758C96.4521 39.2417 96.7829 39.5735 96.9365 40.0711C97.1256 40.7228 96.8774 41.2796 96.6293 41.872C96.4402 42.3104 95.4832 43.3057 94.7979 43.981" stroke="black" stroke-width="0.5" stroke-miterlimit="10"/>
<path d="M75.3257 39.3839C75.7629 39.0877 76.46 38.6967 77.3698 38.5782C78.4096 38.4479 79.0595 38.7559 80.6546 39.0758C82.0489 39.3602 82.7578 39.4905 83.4431 39.4431C86.2435 39.2536 87.7559 36.4218 88.3939 36.8365C88.583 36.9668 88.6066 37.3223 88.0277 39.9408C87.6023 41.872 87.3778 42.8436 87.2242 43.2938C86.8461 44.372 86.0426 46.1137 84.2466 47.9502" stroke="black" stroke-width="0.5" stroke-miterlimit="10"/>
<path d="M103.672 44.7986C102.892 45.2725 101.828 45.9597 100.635 46.9076C98.8863 48.2938 98.012 48.9929 97.2912 50.2014C96.1569 52.0972 96.3696 53.6256 95.8024 53.673C95.2825 53.7204 95.1171 52.4526 93.6401 50.0711C92.6004 48.4005 92.0923 48.0687 91.7851 46.9076C91.4779 45.7583 91.6196 44.7038 91.7851 43.9929" stroke="black" stroke-width="0.5" stroke-miterlimit="10"/>
<path d="M85.0381 5.00001C85.4516 4.62086 86.137 4.13508 87.0231 4.06399C88.2992 3.9692 89.339 4.81043 90.6742 5.92418C92.4938 7.44077 92.5175 8.13982 93.5809 8.41233C95.1169 8.80333 96.6057 7.77252 96.7357 8.04503C96.8657 8.29385 95.9795 8.94551 95.8732 9.96446C95.8023 10.6398 96.9957 10.7109 97.7282 10.5569C99.5242 10.1659 100.588 9.97631 102.655 8.75593C103.093 8.49527 103.766 8.27015 104.546 7.98579C105.479 7.63034 106.318 7.83176 107.334 8.04503C111.529 8.95735 110.288 8.53081 111.541 8.90996C114.873 9.91707 117.508 11.0664 118.099 11.327C122.411 13.2228 125.85 14.7393 130.541 17.346C132.904 18.6611 135.421 20.2607 136.85 21.1611" stroke="black" stroke-width="0.5" stroke-miterlimit="10"/>
<path d="M95.1051 2.04977C94.5143 2.85546 94.8215 3.57821 95.0106 3.81518C95.2824 4.15878 95.6723 4.07584 95.8141 4.43129C95.9204 4.69195 95.7432 4.84598 95.625 5.67537C95.5896 5.94788 95.5305 6.32703 95.625 6.36257C95.7313 6.39812 95.8495 5.88864 96.3103 5.61612C96.3458 5.59243 96.9602 5.23698 97.4919 5.55688C97.9055 5.8057 98.0236 6.32703 97.9882 6.67063C97.9409 7.15641 97.2319 7.83176 96.7475 8.03319" stroke="black" stroke-width="0.5" stroke-miterlimit="10"/>
<path d="M127.941 5.93602C128.296 5.88863 128.851 5.81754 129.548 5.81754C130.576 5.81754 131.084 5.93602 132.207 6.00711C132.68 6.03081 133.377 6.0545 134.251 6.00711" stroke="black" stroke-width="0.5" stroke-miterlimit="10"/>
<path d="M133.578 2.51186C133.92 2.42892 134.405 2.36968 134.936 2.51186C135.669 2.71328 135.764 3.11612 136.484 3.50712C137.17 3.87442 137.819 3.89812 139.084 3.94551C140.384 3.9929 140.856 3.80333 140.998 4.06399C141.258 4.52608 140.171 5.62797 139.698 6.11376C138.847 6.97868 138.351 7.18011 137.217 8.16352C136.614 8.68485 136.153 9.14693 135.858 9.46684" stroke="black" stroke-width="0.5" stroke-miterlimit="10"/>
<path d="M178.879 15.4858C179.446 15.9479 180.356 16.5877 181.608 17.0379C181.998 17.1801 183.263 17.6066 184.952 17.5948C186.075 17.5948 187.091 17.5829 188.166 17.0379C188.627 16.8009 188.993 16.5284 189.655 16.4218C190.328 16.3033 190.919 16.4218 191.321 16.5403" stroke="black" stroke-width="0.5" stroke-miterlimit="10"/>
<path d="M212.826 41.6943C212.401 41.3033 211.692 40.782 210.723 40.4502C209.529 40.0592 209.104 40.3555 208.064 39.8934C207.296 39.5498 206.8 39.0521 205.961 38.2228C204.945 37.2038 204.543 36.5166 204.354 36.6114C204.153 36.7062 204.543 37.4763 204.602 38.8507C204.626 39.3957 204.555 39.9645 204.413 41.0901C204.153 43.1398 204.011 43.1991 204.047 43.827C204.071 44.5261 204.295 45.5332 205.228 46.7417" stroke="black" stroke-width="0.5" stroke-miterlimit="10"/>
<path d="M208.596 44.6208C209.021 44.9645 210.179 46.019 210.663 46.8483C211.467 48.2227 211.538 49.5616 211.526 50.2014" stroke="black" stroke-width="0.5" stroke-miterlimit="10"/>
<path d="M194.866 67.3341C195.421 67.6896 196.213 68.1161 197.217 68.3886C199.06 68.8981 200.655 68.6493 201.494 68.4479" stroke="black" stroke-width="0.5" stroke-miterlimit="10"/>
<path d="M70.7412 76.2678C71.6392 76.8839 72.1473 77.5829 72.4072 78.0095C73.0335 79.0166 73.2107 80.0118 73.2698 80.4265C73.4352 81.4218 73.2343 81.5758 73.4588 82.2275C73.5888 82.6066 73.8488 83.1161 74.8886 84.0284C75.5384 84.5971 76.5546 85.3791 77.9843 86.0782" stroke="black" stroke-width="0.5" stroke-miterlimit="10"/>
<path d="M53.5962 131.28C53.9507 131.623 55.1795 132.63 55.8294 132.95C57.4836 133.768 60.2485 133.329 60.9102 133.211" stroke="black" stroke-width="0.5" stroke-miterlimit="10"/>
<path d="M24.5176 9.83414C24.5176 9.83414 24.7066 9.73935 24.8957 9.79859C25.1556 9.86968 25.2502 10.1185 25.262 10.1422" stroke="black" stroke-width="0.5" stroke-miterlimit="10"/>
</g>
<defs>
<clipPath id="clip0_170_1396">
<rect width="215" height="145" fill="white"/>
</clipPath>
</defs>
</svg>
