<svg width="251" height="148" viewBox="0 0 251 148" fill="none" xmlns="http://www.w3.org/2000/svg">
<g clip-path="url(#clip0_173_2)">
<path d="M0.379395 121.262C0.657777 121.401 1.48027 119.492 3.87183 117.217C5.66867 115.497 6.13686 115.687 7.55408 114.094C8.69291 112.805 9.78114 111.578 10.0342 109.771C10.0469 109.669 10.0848 108.506 10.1481 106.168C10.1481 106.092 10.1734 105.384 10.224 104.436C10.2999 103.083 10.3379 102.413 10.4138 102.413C10.5657 102.413 10.9706 105.472 11.1477 108.671C11.211 109.771 11.2616 111.136 11.7931 112.906C12.0082 113.614 12.4637 115.143 12.894 115.118C13.2862 115.08 13.4887 113.778 13.8177 110.516C14.134 107.331 14.2985 105.725 14.3745 103.892C14.6528 97.2803 14.8806 93.9681 15.1969 93.9681C15.4627 93.9681 15.8929 96.1551 16.0194 98.0135C16.1207 99.4673 16.0448 100.694 16.6648 102.337C16.8419 102.805 17.1962 103.753 17.4873 103.715C17.8795 103.664 17.8289 101.907 18.044 98.5698C18.2339 95.6242 18.3224 94.1577 18.6894 92.5016C19.1702 90.3398 19.8662 88.7975 20.5242 87.3563C21.8275 84.5118 23.8142 81.2628 24.295 81.4778C24.5481 81.5915 24.1938 82.5776 23.8395 85.2451C23.4978 87.7608 23.3966 90.087 23.5611 90.1122C23.7256 90.1375 23.8142 87.9505 25.1302 85.2451C25.8641 83.7407 26.1298 83.8165 27.1548 81.9329C27.8127 80.7445 28.7365 79.0379 29.2679 76.7876C29.7488 74.7775 29.4071 74.4488 30.0018 71.8193C30.4068 70.0494 30.9382 68.5703 31.1027 68.5955C31.3178 68.6335 30.7737 70.9343 31.1913 74.2086C31.204 74.3477 31.4444 76.1428 31.6468 76.1428C31.8493 76.1428 31.8999 74.3603 32.2922 70.4413C32.5199 68.1531 32.6085 67.7106 32.9375 67.1291C33.6461 65.8649 34.4813 65.7637 35.5189 64.3731C36.1263 63.564 36.2781 62.9951 36.8981 61.339C38.1762 57.8751 38.8215 56.1432 39.6567 54.8158C39.9857 54.2848 41.1118 52.5781 43.1491 50.96C44.3133 50.0371 45.7052 49.2027 48.122 48.2925C49.9948 47.5845 53.7023 46.2318 58.8904 45.9916C60.8011 45.9031 66.6725 45.802 73.1512 48.204C75.7705 49.1774 76.302 49.7463 78.4025 50.0371C82.6162 50.6439 84.8812 48.9878 86.8678 50.4922C87.7789 51.1749 88.0826 52.2368 88.7026 54.348C89.7023 57.7487 88.9304 58.6716 89.8035 62.0723C90.3223 64.0824 90.8664 66.1051 92.6506 67.4072C93.4858 68.014 94.3336 68.2036 96.0545 68.6082C98.8383 69.2529 101.356 69.2782 103.596 68.9748C105.583 68.7093 106.684 68.545 107.557 67.5968C108.493 66.5728 108.607 65.2454 108.658 64.4743C108.784 62.7676 108.291 61.6804 107.557 59.5059C107.557 59.5059 106.671 56.9017 105.988 54.171C105.19 50.9852 104.874 48.3304 104.697 46.8134C104.558 45.625 104.469 43.7793 104.419 43.0461" stroke="#231F20" stroke-width="0.5" stroke-miterlimit="10"/>
<path d="M48.1348 48.2672C36.1897 45.5492 23.2575 55.7007 22.2705 56.5477C20.4737 58.1027 18.1454 60.1507 17.0192 63.5387C16.7915 64.2088 16.9813 65.0431 16.4625 66.0166C15.7539 67.3819 14.5264 68.014 14.1595 68.2289C11.7553 69.6069 10.4013 73.0329 9.00941 76.5979C7.78199 79.7205 7.46565 82.9442 6.89623 89.2905C6.23823 96.4965 6.73173 95.8138 6.16231 99.8592C5.25124 106.37 3.46706 111.907 2.9356 113.462C1.51838 117.722 -0.0253776 121.085 0.354235 121.275" stroke="#231F20" stroke-width="0.5" stroke-miterlimit="10"/>
<path d="M91.5751 45.3216C90.2338 45.6629 89.1582 45.5997 87.8043 45.5112C85.9062 45.3848 84.2486 44.9676 82.3758 44.4999C80.212 43.9563 79.4022 43.6276 78.3266 44.0448C78.1874 44.0953 76.7702 44.6642 76.669 45.7009C76.5677 46.7628 77.9217 47.6351 78.5037 48.0017C79.5034 48.6338 80.4904 48.8867 82.2746 49.1016C85.0204 49.4429 87.1463 49.3923 87.7916 49.3797C89.3354 49.3418 91.1449 49.2786 93.4985 48.8235C95.5357 48.4316 96.9276 47.9512 98.6485 47.357C100.838 46.5985 101.939 46.0422 102.976 45.1446C104.241 44.0574 104.406 43.3368 104.444 43.0334C104.659 41.5669 103.432 40.4418 103.343 40.366C101.888 39.0891 99.8633 39.658 99.6608 39.7212C98.3575 40.1131 98.3195 40.8463 96.4341 42.4772C95.3712 43.4 93.8021 44.7527 91.5624 45.3216H91.5751Z" stroke="#231F20" stroke-width="0.5" stroke-miterlimit="10"/>
<path d="M78.5039 47.9891C78.8709 48.7223 78.8076 49.3923 79.1746 50.1256" stroke="#231F20" stroke-width="0.5" stroke-miterlimit="10"/>
<path d="M37.6322 59.3795C37.202 61.6677 36.4681 68.8484 36.544 70.3781C36.5946 71.5791 36.8224 75.5486 38.7584 79.8975C39.1127 80.6939 39.9985 82.5776 40.9728 85.2703C41.4031 86.4587 41.6435 87.2551 41.6688 88.3044C41.6941 89.5181 41.3778 90.1881 40.7071 92.1603C39.3152 96.2057 39.6442 96.231 38.7711 97.9503C37.8474 99.7834 37.2526 100.15 36.1518 100.845C35.0888 101.528 34.4435 101.996 33.5324 102.919C33.33 103.121 32.7859 103.715 32.2924 105.257C31.9507 106.319 31.2421 108.557 31.8748 111.186C32.3809 113.272 33.2794 113.753 33.6716 116.433C33.7602 117.078 33.7855 117.533 33.8108 118.089C34.1018 124.65 34.2031 123.765 34.2284 126.23C34.2663 130.87 34.279 133.184 33.8108 134.094C33.6716 134.372 33.6843 135.08 34.0133 135.611C34.3296 136.117 34.5574 135.927 35.7342 136.433C36.6073 136.812 36.4048 137.077 37.8094 137.95C38.6192 138.443 39.0242 138.582 39.0495 138.91C39.0874 139.328 38.4801 139.429 38.0878 140.149C37.6322 140.984 37.86 141.919 37.9486 142.223C38.2017 143.082 38.6572 143.082 39.3279 144.157C40.0744 145.345 39.7707 145.75 40.2895 146.369C40.6185 146.748 41.2259 147.166 44.0224 147.191C47.2997 147.229 48.9447 147.241 49.5394 146.23C50.0836 145.295 49.5901 143.942 49.2611 143.057C49.0712 142.539 48.97 142.463 48.021 140.845C46.6417 138.519 46.743 138.468 46.3633 138.089C45.2245 136.938 44.3514 137.318 43.0481 136.433C41.6435 135.484 41.15 134.031 40.5679 132.299C40.1883 131.199 40.0491 130.251 40.0112 124.992C40.0112 124.992 39.9858 121.262 40.4287 116.167C40.4793 115.535 40.5679 114.625 40.9855 113.551C41.4284 112.387 41.7321 112.337 42.2256 111.212C43.0227 109.391 42.4533 108.987 43.1873 107.621C43.6301 106.8 44.2249 106.294 45.4017 105.283C46.5658 104.271 47.363 103.879 47.6161 103.766C48.3373 103.424 48.641 103.412 49.1345 103.209C50.615 102.615 51.3995 101.338 51.893 100.592C53.7152 97.8618 56.3092 95.7253 58.5236 93.2854C60.4217 91.1868 61.3707 90.1375 61.8389 89.6951C63.8508 87.7988 65.0656 87.1161 66.2551 85.283C67.0269 84.0946 67.4192 82.9821 67.6343 82.2489" stroke="#231F20" stroke-width="0.5" stroke-miterlimit="10"/>
<path d="M38.4802 52.5149C38.1259 52.8942 37.6324 53.4883 37.1009 54.2342C35.7976 56.0926 35.2914 57.597 34.4816 59.5438C33.9754 60.7828 33.2035 62.5147 32.1406 64.5754" stroke="#231F20" stroke-width="0.5" stroke-miterlimit="10"/>
<path d="M36.2657 52.8689C35.5191 53.6148 34.4815 54.7146 33.2921 56.1053C31.6218 58.0774 30.2678 59.6829 29.2175 61.693C28.3951 63.2859 28.2052 64.2846 27.2815 68.4565C26.8639 70.3528 26.1806 73.4122 25.2822 77.3565" stroke="#231F20" stroke-width="0.5" stroke-miterlimit="10"/>
<path d="M31.4322 55.6248C30.4199 56.8006 29.0406 58.5072 27.6361 60.7322C25.7506 63.7031 24.713 66.1177 23.3591 69.3541C22.2962 71.8825 20.9802 75.2579 19.7021 79.3539" stroke="#231F20" stroke-width="0.5" stroke-miterlimit="10"/>
<path d="M28.1925 57.2809C26.5601 58.5957 24.1939 60.7575 21.9795 63.9054C19.7904 67.0279 18.7907 69.6575 17.0065 74.3224C15.564 78.1023 14.4631 81.01 13.7672 85.1439C13.1345 88.9112 13.1092 92.1223 13.2104 94.3852" stroke="#231F20" stroke-width="0.5" stroke-miterlimit="10"/>
<path d="M16.184 70.8585C15.197 72.1479 13.8557 74.1201 12.6662 76.7244C10.4645 81.541 10.0596 85.776 9.62934 90.7191C9.30035 94.5117 8.95869 101.591 8.87012 103.336C8.80685 104.524 8.68031 107.394 7.21248 110.643C6.74429 111.692 6.25079 112.501 5.89648 113.057" stroke="#231F20" stroke-width="0.5" stroke-miterlimit="10"/>
<path d="M43.4405 70.0999C43.3266 71.2124 43.2507 73.2225 44.0605 75.5486C45.0096 78.2667 46.6546 79.9607 47.515 80.7192" stroke="#231F20" stroke-width="0.5" stroke-miterlimit="10"/>
<path d="M43.0353 96.5091C42.0609 97.748 41.3903 98.8352 40.96 99.6064C39.9477 101.439 39.9604 102.021 39.0999 102.78C37.9358 103.791 37.1133 103.437 36.1263 104.36C35.1899 105.245 34.9368 106.522 34.8862 107.596" stroke="#231F20" stroke-width="0.5" stroke-miterlimit="10"/>
<path d="M33.6465 116.446C33.8996 117.242 34.8866 118.759 35.1649 120.301C35.418 121.692 35.4813 122.627 35.6458 124.435C35.7597 125.636 35.9368 127.419 36.2025 129.606" stroke="#231F20" stroke-width="0.5" stroke-miterlimit="10"/>
<path d="M38.4043 143.057C38.7966 142.981 40.5428 142.804 41.6437 142.577C43.6809 142.159 44.1871 142.058 44.883 141.755C45.4145 141.515 46.6166 140.604 47.4138 139.871" stroke="#231F20" stroke-width="0.5" stroke-miterlimit="10"/>
<path d="M65.8755 49.8348C66.4449 50.3405 67.2041 51.1117 67.9507 52.1736C68.4442 52.8815 69.2161 54.0193 69.6716 55.6881C69.8741 56.4466 70.1145 57.6349 70.0133 59.1393" stroke="#231F20" stroke-width="0.5" stroke-miterlimit="10"/>
<path d="M74.0247 62.3757C73.4427 63.2606 72.8353 64.3352 72.3038 65.612C71.3801 67.8117 71.0131 69.8218 70.8486 71.3389" stroke="#231F20" stroke-width="0.5" stroke-miterlimit="10"/>
<path d="M66.8373 63.4882C66.521 64.2972 66.0907 65.4224 65.6605 66.8004C65.2303 68.1657 64.6355 70.0999 64.4204 71.9077C64.2306 73.4248 64.1674 76.067 65.458 79.4929" stroke="#231F20" stroke-width="0.5" stroke-miterlimit="10"/>
<path d="M65.1924 86.5978C66.9133 86.1932 70.469 85.599 73.5312 86.0415C76.0367 86.4081 77.049 87.0655 80.4275 88.2539C84.9323 89.8215 88.5006 90.5294 91.2591 91.0857C95.6753 91.958 97.915 92.4004 101.192 92.4004C104.988 92.4004 108.342 91.781 112.163 91.0857C114.124 90.7317 116.301 90.1754 117.427 89.9226" stroke="#231F20" stroke-width="0.5" stroke-miterlimit="10"/>
<path d="M113.011 78.1023C114.086 79.8217 114.833 81.3766 115.352 82.5903C116.187 84.5245 116.82 85.9783 117.149 88.039C117.465 90.0111 117.629 90.9972 117.629 91.8316C117.629 93.0578 117.503 93.7532 117.971 94.1703C118.49 94.6381 119.249 94.3347 120.527 94.1703C122.159 93.9554 123.362 94.1198 125.146 94.3726C127.297 94.676 127.613 95.2449 129.701 95.8264C131.068 96.2057 131.966 96.2436 136.952 96.1678C141.456 96.1046 142.266 95.2576 144.341 96.0287C145.101 96.3068 147.34 97.1539 147.998 98.9996C148.214 99.6064 148.163 100.062 148.618 101.073C149.112 102.16 149.428 102.223 149.795 103.146C149.896 103.412 149.972 103.677 150.213 105.7C150.39 107.255 150.479 108.039 150.491 108.456C150.529 110.162 150.238 110.238 150.352 111.553C150.428 112.387 150.504 113.247 150.972 114.246C151.453 115.27 151.997 115.662 151.87 116.382C151.795 116.8 151.516 117.229 151.111 117.419C150.618 117.647 150.251 117.356 149.529 117.28C149.529 117.28 148.416 117.154 147.252 117.76C146.075 118.38 145.594 119.555 145.316 120.238C144.683 121.793 144.848 123.108 145.113 125.27C145.139 125.485 145.328 126.964 146.151 128.582C146.48 129.227 146.708 129.517 147.049 129.619C147.758 129.833 148.568 129.125 149.188 128.582C150.352 127.558 150.415 126.875 151.402 126.509C151.946 126.306 152.035 126.471 152.503 126.306C153.326 126.003 153.857 125.232 154.578 123.411C155.312 121.553 155.287 121.047 156.034 118.86C156.578 117.267 156.666 117.293 157.134 115.826C157.716 113.98 158.02 113.045 158.033 112.097C158.058 110.605 157.615 109.48 156.932 107.748C156.287 106.117 156.071 106.155 155.553 104.777C155.325 104.17 154.92 103.02 154.515 100.087C153.92 95.8517 154.452 96.054 153.958 94.6381C152.984 91.7557 150.567 90.0996 149.542 89.3917C147.796 88.1907 146.126 87.6723 144.164 87.0529C142.861 86.6357 141.393 86.2817 139.052 85.3968C136.876 84.5751 136.192 84.1452 136.154 83.6016C136.104 82.9569 137.028 82.7546 138.09 81.4651C138.888 80.4917 139.191 79.5815 139.672 78.1529C140.368 76.0796 140.482 74.3982 140.495 73.9431C140.596 71.9457 138.571 66.5223 138.242 65.3466" stroke="#231F20" stroke-width="0.5" stroke-miterlimit="10"/>
<path d="M146.138 118.696C146.923 119.404 148.682 121.022 149.593 122.438C150.415 123.727 151.06 125.56 151.389 126.509" stroke="#231F20" stroke-width="0.5" stroke-miterlimit="10"/>
<path d="M118.604 94.4105C118.92 95.3966 119.426 97.5963 120.122 99.48C121.577 103.399 122.121 104.145 122.678 106.585C123.197 108.86 123.45 109.998 123.374 111.477C123.285 112.906 122.982 113.753 123.437 114.929C123.88 116.041 124.525 116.193 125.297 117.204C125.677 117.697 126.132 118.456 126.677 122.236C127.006 124.486 127.259 126.243 127.297 128.721C127.322 130.352 127.6 131.983 127.499 133.613C127.448 134.41 127.347 135.421 127.98 136.167C128.309 136.559 128.777 136.799 129.435 137.128C130.561 137.709 130.764 137.532 131.093 137.886C131.624 138.455 131.245 139.062 131.434 140.781C131.548 141.831 131.801 142.589 132.054 143.335C132.485 144.65 132.725 145.333 133.295 145.952C133.978 146.685 134.75 146.9 136.053 147.267C138.103 147.836 139.659 147.709 141.646 147.545C143.569 147.381 143.911 147.14 144.063 146.85C144.468 146.104 143.747 144.89 143.304 144.157C142.747 143.221 142.367 143.108 141.785 141.944C141.583 141.553 141.519 141.338 141.228 140.845C141.19 140.769 140.722 139.947 140.267 139.391C139.545 138.518 138.925 138.392 137.926 137.735C136.863 137.027 136.23 136.293 135.585 135.522C134.269 133.98 133.674 132.488 133.244 131.388C132.358 129.138 132.143 127.292 131.928 125.383C131.675 123.146 131.839 122.691 131.65 119.454C131.498 116.989 131.359 116.585 131.169 114.208C130.941 111.528 130.928 108.658 130.89 103.032C130.89 101.452 131.03 98.7341 131.042 96.054" stroke="#231F20" stroke-width="0.5" stroke-miterlimit="10"/>
<path d="M132.207 143.752C132.675 143.499 133.953 142.741 134.763 142.374C136.155 141.73 136.977 141.35 138.078 141.135C138.723 141.009 140.077 140.743 141.254 140.857" stroke="#231F20" stroke-width="0.5" stroke-miterlimit="10"/>
<path d="M64.2178 92.5774C64.3063 92.9188 64.4329 93.475 64.6353 94.1577C65.0023 95.4472 65.1795 95.8264 65.3313 96.5723C65.4325 97.0653 65.5211 97.8112 65.4705 98.7846" stroke="#231F20" stroke-width="0.5" stroke-miterlimit="10"/>
<path d="M79.0355 87.7355C78.6812 88.8607 78.2004 90.9719 77.6056 92.9946C76.2896 97.5584 75.619 99.8719 75.0496 103.058C74.7079 104.992 74.3156 107.192 74.2271 110.162C74.1891 111.338 74.1511 113.917 74.5687 117.191C75.0116 120.643 75.7455 123.184 75.948 123.879C76.2137 124.764 77.1754 127.912 79.1873 131.603C80.5919 134.182 81.4524 135.067 82.2242 135.674C83.401 136.597 84.9195 137.393 84.9195 137.393C86.4126 138.177 86.7416 138.101 87.3996 138.708C88.3234 139.555 87.8931 139.922 89.0573 141.54C89.7153 142.45 90.2214 142.829 90.8541 144.018C91.3982 145.042 91.3349 145.333 91.2717 145.472C91.1072 145.826 90.7782 146.47 88.5764 146.597C86.7374 146.698 85.3118 146.694 84.2995 146.584C82.9961 146.445 82.452 146.394 81.8952 146.028C81.4018 145.699 81.503 145.408 80.7184 144.309C80.1364 143.487 79.9339 143.436 79.2 142.374C78.542 141.426 78.4534 141.097 78.504 140.794C78.6053 140.276 79.0735 140.175 79.0608 139.757C79.0355 139.176 78.1497 138.771 77.884 138.658C77.0742 138.291 76.7325 138.506 75.8847 138.24C75.7835 138.202 74.7079 137.874 74.0879 137.141C73.3033 136.218 73.5817 135.067 73.5311 133.904C73.4678 132.299 72.8225 131.78 71.1902 128.734C68.6088 123.942 69.5072 123.955 67.5965 121.085C66.6475 119.657 66.1919 119.303 64.0028 116.117C62.6995 114.221 62.3325 113.588 62.0668 112.666C61.4215 110.428 61.8896 108.443 62.0668 107.697C62.4844 106.003 62.9526 105.915 63.4461 104.385C64.1041 102.375 63.8889 100.744 63.5093 97.9756C63.2816 96.231 62.3199 92.982 61.2949 90.1881" stroke="#231F20" stroke-width="0.5" stroke-miterlimit="10"/>
<path d="M79.1997 142.374C79.5414 142.084 81.1863 141.173 81.9582 140.794C83.173 140.2 84.2612 140.061 85.6911 139.896C86.2352 139.833 87.0197 139.77 87.9688 139.757" stroke="#231F20" stroke-width="0.5" stroke-miterlimit="10"/>
<path d="M101.623 39.5316C102.053 39.2914 104.255 37.787 105.14 37.4836C106.861 36.902 107.76 37.0664 108.873 36.725C110.872 36.1182 111.91 34.4621 112.252 33.9691C112.998 32.9071 113.416 31.7694 113.289 31.6935C113.125 31.5924 112.366 33.476 110.455 34.7276C108.468 36.0297 106.14 36.0803 106.039 35.7642C105.95 35.4988 107.532 35.2459 108.519 33.691C109.05 32.8566 108.911 32.4141 109.696 31.2763C109.987 30.8591 110.328 30.3535 110.936 29.8984C111.568 29.418 111.821 29.4938 113.15 28.9376C114.947 28.1917 115.542 27.6228 115.845 27.2815C115.972 27.1424 116.63 26.3965 116.465 26.1816C116.225 25.8529 114.416 26.8011 113.365 27.3573C111.67 28.2422 110.822 28.6847 109.772 29.4306C109.329 29.7466 109.025 29.9868 108.949 29.911C108.785 29.7593 109.759 28.2928 110.809 27.155C111.429 26.485 112.302 25.5369 113.707 24.8163C114.302 24.5002 115.327 24.2094 117.364 23.6406C119.49 23.0464 120.072 22.9326 120.059 22.8188C120.034 22.6039 118.262 22.389 116.402 22.8188C114.061 23.3498 112.783 24.6266 112.606 24.3991C112.404 24.1589 113.808 22.4775 115.58 21.1627C116.541 20.4421 117.541 19.6962 119.034 19.3043C120.451 18.9251 121.793 19.0136 123.109 19.1021C124.855 19.2159 125.538 19.494 126.487 19.0389C127.424 18.5964 128.107 17.6862 127.942 17.3828C127.765 17.0667 126.728 17.5977 124.627 17.8632C123.159 18.0528 121.426 18.0907 121.388 17.8632C121.35 17.6482 122.944 17.3448 125.804 16.2829C127.107 15.8025 128.322 15.3474 129.739 14.5636C131.637 13.5143 132.979 12.3892 132.915 12.288C132.839 12.1743 131.131 13.4132 128.36 14.1464C127.196 14.4625 125.994 14.6394 125.943 14.4877C125.88 14.2981 127.904 13.9694 130.081 12.3512C131.194 11.5169 131.397 11.0491 132.359 10.771C133.257 10.5055 133.826 10.6825 134.636 10.1515C135.256 9.74699 135.13 9.49415 135.737 9.11489C136.484 8.64713 137.256 8.63449 138.078 8.63449C138.432 8.63449 139.268 8.64713 140.419 8.97583C141.697 9.34244 141.963 9.68378 142.836 10.0125C143.722 10.3412 145.114 10.24 147.872 10.0125C150.213 9.82284 150.631 9.70906 151.668 9.87341C152.276 9.97454 153.25 10.1389 154.288 10.771C155.654 11.5927 156.337 12.6926 156.983 13.7419C157.388 14.3992 159.033 15.9669 159.425 17.2437" stroke="#231F20" stroke-width="0.5" stroke-miterlimit="10"/>
<path d="M129.65 24.0451C128.967 24.6898 128.271 25.3599 127.575 26.0425C125.487 28.1032 123.564 30.1512 121.78 32.1739" stroke="#231F20" stroke-width="0.5" stroke-miterlimit="10"/>
<path d="M116.124 39.2787C115.643 39.7718 114.884 40.4923 113.846 41.2129C112.138 42.4139 111.037 42.6794 109.227 43.6908C108.316 44.1965 107.051 44.9803 105.634 46.1686" stroke="#231F20" stroke-width="0.5" stroke-miterlimit="10"/>
<path d="M157.767 47.0915C156.211 47.7868 153.06 49.2153 150.289 50.5175C143.013 53.9561 142.406 54.6008 139.862 55.549C133.08 58.1027 126.88 57.4832 124.956 57.2683C120.198 56.7373 116.896 55.2835 110.468 52.439C106.342 50.6186 103.23 48.9246 101.559 47.9511C99.1172 46.5352 96.5864 44.8412 94.9414 43.6781" stroke="#231F20" stroke-width="0.5" stroke-miterlimit="10"/>
<path d="M156.843 49.0763C155.667 50.2646 153.971 51.8069 151.731 53.3493C150.934 53.9055 147.821 56.0041 142.684 57.9004C139.913 58.9244 134.193 60.9724 126.399 61.0735C124.855 61.0862 118.654 61.0862 111.075 58.6589C107.684 57.5717 101.989 55.688 96.2319 50.8714C94.1188 49.1016 91.955 46.7501 90.8794 45.4733" stroke="#231F20" stroke-width="0.5" stroke-miterlimit="10"/>
<path d="M100.648 69.1392C100.648 72.2997 100.458 75.9153 100.534 78.1023C100.724 83.8545 101.002 86.5093 101.711 89.4802C101.926 90.3525 102.306 91.8695 102.445 92.3499" stroke="#231F20" stroke-width="0.5" stroke-miterlimit="10"/>
<path d="M103.305 68.9874C103.115 71.9583 103.103 75.2579 103.153 77.1921C103.229 80.1377 103.331 83.374 104.191 87.47C104.507 88.9618 104.836 91.3006 105.089 92.1602" stroke="#231F20" stroke-width="0.5" stroke-miterlimit="10"/>
<path d="M122.223 51.4783C123.121 51.9966 124.386 52.8436 125.627 54.1457C126.867 55.4479 127.563 56.6615 128.663 58.7474C129.663 60.6564 130.903 63.1342 132.257 66.1051" stroke="#231F20" stroke-width="0.5" stroke-miterlimit="10"/>
<path d="M123.045 45.3216C124.045 46.3456 124.918 47.1168 125.525 47.6224C126.639 48.5453 127.322 48.9751 128.005 49.9233C128.562 50.6945 128.853 51.4403 129.017 51.946" stroke="#231F20" stroke-width="0.5" stroke-miterlimit="10"/>
<path d="M137.407 44.6768C137.255 45.0435 137.066 45.6629 137.04 46.4214C137.015 47.4075 137.281 47.9258 137.496 49.2659C137.572 49.721 137.66 50.4163 137.686 51.2886" stroke="#231F20" stroke-width="0.5" stroke-miterlimit="10"/>
<path d="M133.725 49.0004C133.991 49.405 134.345 49.9991 134.649 50.745C135.003 51.63 135.142 52.3632 135.294 53.1344C135.408 53.7285 135.522 54.4997 135.573 55.4352" stroke="#231F20" stroke-width="0.5" stroke-miterlimit="10"/>
<path d="M132.434 53.7791C132.966 54.0446 133.687 54.525 134.18 55.3467C134.699 56.1937 134.661 56.9017 134.914 58.6589C135.015 59.3669 135.18 60.3782 135.471 61.6045" stroke="#231F20" stroke-width="0.5" stroke-miterlimit="10"/>
<path d="M145.379 38.6719C144.949 39.2661 144.114 40.4797 143.57 41.6554C142.621 43.7034 142.241 45.6756 142.001 48.7349C141.785 51.3771 141.95 51.4277 141.811 55.726C141.634 61.6045 141.241 64.2846 140.988 65.8396C140.76 67.1923 139.963 69.5563 139.786 70.3022" stroke="#231F20" stroke-width="0.5" stroke-miterlimit="10"/>
<path d="M148.441 24.5508C147.669 25.0944 146.417 26.1437 145.404 27.863C144.784 28.9123 144.012 30.619 143.937 32.8313C143.911 33.6151 143.759 37.2434 145.961 39.3546C146.126 39.5063 146.05 39.4178 147.707 40.8211C149.314 42.1738 149.643 42.4898 150.01 42.9323C150.82 43.931 150.567 44.1459 151.301 45.2331C152.908 47.6098 155.603 48.735 155.806 48.8235C156.831 49.2406 157.185 49.1774 157.552 49.6452C158.261 50.5681 157.489 51.5288 157.919 53.1344C158.337 54.6767 159.539 55.5743 159.855 55.8018C161.462 56.9396 163.259 56.6994 163.816 56.6236C165.726 56.3707 166.928 55.3088 167.409 54.879C167.966 54.3733 169.193 53.2229 169.522 51.2886C169.725 50.0877 169.472 49.1774 169.155 48.0649C168.434 45.4986 167.51 45.4101 166.941 43.1978C166.523 41.5669 167.004 41.5796 166.574 39.1523C166.144 36.7503 165.701 36.8388 165.562 35.1069C165.41 33.1474 165.979 32.844 165.65 30.7833C165.524 29.9616 165.385 29.0893 164.828 28.1158C164.41 27.4079 164.119 27.2562 163.816 26.5482C163.385 25.5748 163.461 24.7657 163.449 24.1589C163.423 23.1855 162.512 20.8088 161.335 18.9883" stroke="#231F20" stroke-width="0.5" stroke-miterlimit="10"/>
<path d="M154.515 19.6836C155.224 19.2664 156.73 19.3549 157.818 18.5206C158.552 17.9517 159.868 16.9277 161.272 15.3474C163.044 13.35 163.639 11.9467 164.107 12.1111C164.6 12.288 164.398 14.0326 164.385 14.1085C164.259 15.1325 163.828 15.8405 163.423 16.5231C163.423 16.5231 162.841 17.4839 161.943 18.4321C161.842 18.5332 161.74 18.6343 161.74 18.6343C161.74 18.6343 161.551 18.824 161.348 19.001C159.893 20.3536 157.413 21.6179 157.413 21.6179C156.983 21.8328 156.375 22.1362 155.616 22.4396" stroke="#231F20" stroke-width="0.5" stroke-miterlimit="10"/>
<path d="M161.854 19.5951C162.171 19.2411 163.575 18.0275 164.094 17.2816C164.942 16.068 165.208 15.36 165.473 15.4232C165.802 15.4991 165.815 16.738 165.752 17.4207C165.638 18.6849 165.144 19.5698 164.993 19.8353C164.55 20.5938 163.386 21.5925 162.981 21.9086" stroke="#231F20" stroke-width="0.5" stroke-miterlimit="10"/>
<path d="M158.362 15.4106C157.185 16.3967 154.755 18.647 153.604 21.4282C152.705 23.59 152.642 25.3219 152.503 28.533C152.313 33.0083 152.883 36.3079 153.123 37.5721C154.072 42.5024 155.477 44.4746 155.957 45.0941C156.59 45.9284 157.564 46.6996 158.033 47.1168" stroke="#231F20" stroke-width="0.5" stroke-miterlimit="10"/>
<path d="M156.173 19.2285C155.932 20.48 154.325 25.815 154.224 27.8377C154.186 28.5962 154.022 32.0348 154.844 36.6618C155.375 39.6706 155.78 41.7565 157.261 44.108C157.805 44.955 158.336 45.6124 158.716 46.0422" stroke="#231F20" stroke-width="0.5" stroke-miterlimit="10"/>
<path d="M166.764 41.8324C165.574 42.06 162.31 42.6921 160.095 44.5884C158.64 45.8273 157.349 48.1408 156.856 49.0763" stroke="#231F20" stroke-width="0.5" stroke-miterlimit="10"/>
<path d="M166.941 43.2104C165.777 43.4759 164.157 44.07 163.537 44.3861C161.652 45.3216 160.475 46.5226 159.88 47.1421C159.197 47.85 158.109 49.582 157.78 50.0624" stroke="#231F20" stroke-width="0.5" stroke-miterlimit="10"/>
<path d="M157.944 31.4912C158.362 31.0614 159.526 31.5544 160.083 31.9084C161.006 32.5026 161.31 33.3875 161.399 33.6277C161.538 34.0576 161.69 34.5253 161.462 34.8034C161.095 35.2586 159.893 35.0057 159.121 34.4621C158.007 33.6657 157.451 31.9843 157.944 31.4912Z" stroke="#231F20" stroke-width="0.5" stroke-miterlimit="10"/>
<path d="M166.511 52.1736C166.435 52.1609 165.612 51.9586 164.992 52.5149C164.562 52.9068 164.258 53.64 164.575 54.171C164.992 54.8789 166.308 54.8537 166.574 54.3733C166.751 54.0699 166.511 53.5389 166.093 53.0585" stroke="#231F20" stroke-width="0.5" stroke-miterlimit="10"/>
<path d="M156.843 49.0763C156.527 52.1609 156.578 55.4099 156.78 57.2177C157.21 61.2505 158.02 62.1987 158.438 62.5906C159.741 63.8548 161.791 64.3478 163.55 63.9053C165.524 63.3997 166.574 61.87 167.346 60.7322C168.232 59.4301 168.32 58.7095 169.902 53.2861C170.838 50.0876 171.079 49.4302 171.484 48.5959C172.445 46.6743 173.926 45.0055 174.774 44.1206" stroke="#231F20" stroke-width="0.5" stroke-miterlimit="10"/>
<path d="M156.844 49.0763C156.818 50.8462 155.945 55.195 156.148 58.1785C156.477 62.9698 156.907 63.9306 157.603 64.6639C159.248 66.4338 162.095 66.6866 164.157 66.1177C166.941 65.3465 168.346 63.0457 168.776 62.3251C169.637 60.9218 169.295 60.6437 170.775 53.9814C171.231 51.9334 171.623 50.3531 172.775 48.6085C173.42 47.6351 174.078 46.9271 174.572 46.472" stroke="#231F20" stroke-width="0.5" stroke-miterlimit="10"/>
<path d="M69.3047 121.085C70.0006 121.566 70.975 122.324 71.8861 123.474C72.2151 123.879 73.0882 125.042 73.7208 126.787C74.4548 128.797 74.518 130.592 74.4548 131.755" stroke="#231F20" stroke-width="0.5" stroke-miterlimit="10"/>
<path d="M121.388 96.2563C121.502 97.0906 121.717 98.0893 122.122 99.2018C122.716 100.807 123.501 102.034 124.146 102.881" stroke="#231F20" stroke-width="0.5" stroke-miterlimit="10"/>
<path d="M149.922 100.302C150.441 100.782 151.149 101.566 151.58 102.691C151.934 103.627 151.946 104.549 151.946 106.37C151.946 108.595 151.946 110.074 151.946 110.605" stroke="#231F20" stroke-width="0.5" stroke-miterlimit="10"/>
<path d="M221.251 3.81789C222.63 2.57897 225.224 0.973435 227.78 0.556249C229.008 0.353977 230.45 0.113778 232.196 0.644743C232.386 0.707953 235.119 1.58025 236.752 4.09601C237.486 5.23379 238.144 6.92782 238.27 7.26916C238.46 7.76219 238.599 8.20466 238.966 9.06432C239.434 10.1895 239.498 10.2274 239.662 10.7204C239.865 11.3652 240.105 12.1616 239.94 13.1603C239.877 13.5522 239.687 14.5257 238.84 15.3221C238.106 16.0048 237.372 15.6761 237.093 16.1944C236.764 16.8265 237.448 17.7873 237.789 18.2677C238.599 19.4055 239.561 20.0502 240.598 20.657C242.484 21.7695 242.864 21.7316 244.787 22.7683C246.609 23.7543 247.545 24.2727 248.558 25.3472C249.102 25.9161 249.937 26.8263 250.393 28.2928C250.544 28.7479 250.823 29.8351 250.671 31.1878C250.595 31.8452 250.43 32.4268 249.469 34.5C248.735 36.0929 248.127 37.2813 248.001 37.5341C246.407 40.6441 245.597 42.2117 245.242 42.73C244.357 44.0195 243.585 44.778 242.066 46.2698C241.155 47.1673 239.536 48.4568 236.309 51.0105C234.006 52.831 233.272 53.3872 231.981 53.7285C230.855 54.0193 230.286 53.8929 228.717 53.9182C226.047 53.9561 225.806 54.348 222.225 54.7399C218.075 55.2077 214.633 55.195 214.633 55.195C212.697 55.195 211.292 55.0939 209.711 55.8903C209.344 56.08 208.407 56.5856 207.37 57.3189C206.319 58.0521 206.206 58.2797 205.396 58.7474C204.32 59.3542 203.384 59.7082 202.587 59.6197C202.144 59.5691 201.321 59.291 201.207 58.6969C201.131 58.3302 201.195 58.1659 201.018 57.9636C200.777 57.6855 200.739 57.6476 200.195 57.4074C199.777 57.2304 199.461 57.0913 199.436 56.6488C199.411 56.2443 199.36 55.726 199.322 55.3467C199.284 54.9675 199.246 55.0812 198.955 54.5629C198.866 54.3986 198.499 53.7285 198.727 53.0964C198.828 52.8183 198.993 52.654 199.322 52.3632C199.436 52.2621 200.031 51.7185 200.701 51.4403C201.688 51.0358 202.549 51.3392 203.599 51.4909C204.333 51.592 205.358 51.4909 207.42 51.3013C208.622 51.1875 210.508 50.9094 214.506 49.6452C219.732 47.9891 218.834 47.7109 223.301 46.333C227.046 45.1825 229.16 44.9171 230.159 43.0713C230.488 42.4519 230.602 41.8324 231.361 40.5935C231.627 40.1637 232.285 39.1144 233.436 37.926C235.689 35.5999 237.068 35.5746 238.042 33.691C238.447 32.9071 238.587 32.1739 238.637 31.7188" stroke="#231F20" stroke-width="0.5" stroke-miterlimit="10"/>
<path d="M180.911 50.6313C181.594 50.783 182.91 51.276 184.099 51.4277C184.922 51.5415 187.427 51.8449 190.907 51.7058C193.362 51.6047 193.729 51.3771 196.386 51.3392C197.715 51.3139 199.297 51.7058 200.005 51.7438" stroke="#231F20" stroke-width="0.5" stroke-miterlimit="10"/>
<path d="M180.379 51.1622C180.974 51.5288 182.442 52.3379 183.606 52.7298C186.479 53.7032 188.984 53.4883 190.186 53.3746C192.363 53.1596 192.729 52.7298 196.121 52.3126C197.146 52.1862 198.727 52.3505 199.297 52.3126" stroke="#231F20" stroke-width="0.5" stroke-miterlimit="10"/>
<path d="M205.371 58.6968C205.421 58.8106 205.965 59.6956 206.067 59.8852C206.193 60.138 206.889 61.5287 207.534 63.1468C208.091 64.5248 208.597 65.789 209.002 67.5083C209.306 68.7852 209.42 70.4665 209.648 73.8546C209.698 74.5499 209.749 75.5107 209.331 76.6106C209.103 77.2047 208.686 78.292 207.762 78.4942C207.054 78.6586 206.307 78.2161 205.877 77.761C205.054 76.8634 205.193 75.6371 205.371 73.5259C205.535 71.5917 205.586 69.6575 205.738 67.7359C205.851 66.3579 205.801 60.9345 205.763 58.444" stroke="#231F20" stroke-width="0.5" stroke-miterlimit="10"/>
<path d="M222.377 18.47C221.567 18.5205 219.581 18.7607 218.164 19.3043C215.038 20.4801 213.203 22.743 212.685 23.4004C211.558 24.8163 211.672 25.284 210.344 26.7505C209.407 27.7871 208.926 28.0147 207.585 29.1398C204.763 31.4912 204.181 32.6796 200.954 35.2586C200.107 35.9286 199.461 36.3963 198.512 36.6871C197.184 37.0916 196.5 36.7756 195.02 36.9652C193.957 37.1043 193.147 37.4709 191.527 38.2041C188.731 39.481 188.554 40.0625 186.276 41.0107C184.973 41.5543 183.935 41.9841 182.455 42.1611C180.569 42.3886 179.253 42.0473 176.697 42.5783C175.938 42.73 175.318 42.9196 174.951 43.4506C174.749 43.7413 174.824 43.8425 174.584 45.7894C174.508 46.4341 174.445 46.7881 174.533 47.3064C174.597 47.6983 174.673 48.1028 174.989 48.4062C175.255 48.6591 175.444 48.6212 175.634 48.9119C175.837 49.228 175.685 49.3797 175.862 49.6957C176.077 50.075 176.368 49.9865 176.786 50.391C177.165 50.7577 177.064 50.9726 177.381 51.3518C177.735 51.7817 178.266 52.0345 178.671 52.0851C179.241 52.1609 179.772 51.8196 181.291 50.252C183.011 48.4695 183.062 48.1534 183.821 47.6351C184.644 47.0662 185.416 46.8639 186.909 46.5732C190.072 45.9537 192.021 45.802 194.273 45.4733C196.88 45.094 198.183 44.9044 199.613 44.4114C200.98 43.9436 202.46 43.0713 205.371 41.3267C209.141 39.0764 211.457 37.4203 212.039 37.0032C213.241 36.1435 214.241 35.385 214.987 34.7908" stroke="#231F20" stroke-width="0.5" stroke-miterlimit="10"/>
<path d="M202.283 35.347C202.232 35.6757 202.182 36.1814 202.232 36.7756C202.296 37.5341 202.334 37.9513 202.599 38.2926C203.219 39.0764 204.687 38.8615 205.775 38.7098C206.699 38.5708 207.433 38.3179 207.939 38.1156" stroke="#231F20" stroke-width="0.5" stroke-miterlimit="10"/>
<path d="M226.857 48.3557C227.375 48.3051 228.16 48.2546 229.109 48.2672C230.501 48.2672 231.361 48.2798 231.45 48.5832C231.576 48.9878 230.273 49.7969 229.286 50.2393C228.008 50.8209 227.072 50.8841 224.921 51.2001C224.085 51.3266 222.82 51.5162 221.238 51.7943" stroke="#231F20" stroke-width="0.5" stroke-miterlimit="10"/>
<path d="M240.194 34.6644C240.105 34.8667 239.574 36.0803 240.143 36.9147C240.687 37.6985 241.864 37.6479 242.99 37.61C244.547 37.5468 245.749 36.9779 246.445 36.6492C246.989 36.3837 247.432 36.1182 247.735 35.916" stroke="#231F20" stroke-width="0.5" stroke-miterlimit="10"/>
<path d="M236.942 50.4543C236.828 51.2381 236.739 52.8815 236.701 53.3619C236.575 54.7273 236.625 55.0939 236.651 55.2961C236.701 55.5996 236.803 56.0547 237.245 56.9522C237.777 58.0395 238.258 58.6336 238.675 59.2531C239.561 60.5805 240.017 61.7436 240.384 62.6538C240.776 63.6778 241.13 64.8409 241.396 66.4717C242.016 70.1884 241.851 73.8799 241.763 75.7636C241.484 81.503 241.358 84.3854 241.067 87.4448C240.624 92.3119 240.346 93.298 240.51 95.9908C240.649 98.0893 240.788 100.403 241.801 103.209C242.484 105.106 242.978 105.611 243.547 107.71C244.053 109.568 244.154 110.984 244.281 112.817C244.585 116.977 243.927 116.623 244.281 119.897C244.471 121.591 244.736 122.59 244.142 123.121C243.547 123.639 242.636 123.196 241.016 122.931C240.156 122.792 240.194 122.88 235.309 123.121C231.134 123.323 230.412 123.285 229.425 123.07C228.312 122.83 225.933 122.337 225.655 121.047C225.452 120.112 226.54 119.682 227.224 118.064C227.401 117.634 227.932 116.218 227.084 112.451C226.452 109.657 225.68 108.266 224.971 106.383C224.073 103.981 224.149 103.108 223.225 97.1918C222.466 92.3499 222.592 94.0565 221.112 85.3715C220.416 81.326 219.948 78.3552 219.138 73.1846C218.48 69.0127 218.214 67.2176 217.43 62.3757C216.987 59.6071 216.62 56.6109 216.367 55.1192" stroke="#231F20" stroke-width="0.5" stroke-miterlimit="10"/>
<path d="M228.375 37.6985C228.527 37.4583 228.957 37.5088 229.197 37.61C229.514 37.7364 229.881 38.0651 229.792 38.3938C229.729 38.6593 229.4 38.7604 229.375 38.7604C229.02 38.8615 228.666 38.6213 228.501 38.3938C228.476 38.3685 228.198 37.9639 228.362 37.6985H228.375Z" stroke="#231F20" stroke-width="0.5" stroke-miterlimit="10"/>
<path d="M219.404 18.9124C219.404 19.5193 219.341 21.0869 219.176 22.0097C219.062 22.6671 218.86 23.7923 218.303 25.0438C217.708 26.3839 217.86 26.662 216.949 28.3055C216.569 28.9755 216.063 29.8225 215.734 31.0614C215.304 32.667 214.95 33.691 215.089 35.524C215.139 36.2573 215.051 38.4444 214.861 42.8311C214.785 44.4999 214.646 47.2685 214.494 49.5946" stroke="#231F20" stroke-width="0.5" stroke-miterlimit="10"/>
<path d="M224.047 24.083C224.933 24.0451 225.541 24.2474 225.933 24.4496C226.439 24.7151 226.553 24.9427 227.223 25.2714C227.489 25.3978 228.008 25.6633 228.603 25.7265C229.286 25.8023 229.602 25.5874 230.678 25.2714C230.678 25.2714 232.007 24.8795 233.576 24.7151C234.183 24.6519 234.892 24.6266 235.689 24.6646" stroke="#231F20" stroke-width="0.5" stroke-miterlimit="10"/>
<path d="M221.517 3.4892C221.352 3.71675 221.087 4.0328 220.694 4.31093C220.327 4.56377 220.163 4.57641 219.631 4.86718C218.973 5.22115 218.644 5.39814 218.391 5.73947C217.885 6.4095 217.961 7.21859 217.974 7.34501C217.999 7.522 218.1 8.44486 218.758 8.81148C219.176 9.05168 219.467 8.87469 220.593 8.76091C221.77 8.64714 222.365 8.58393 222.934 8.81148C223.592 9.06432 223.984 9.53208 224.642 10.3285C225.427 11.2893 225.579 11.8961 226.3 12.1237C226.718 12.2501 227.072 12.1743 227.122 12.3512C227.198 12.5535 226.768 12.7937 226.3 13.2741C225.477 14.1085 225.123 15.0566 225.009 15.3474C224.63 16.3461 224.87 16.6242 224.453 17.0541C224.035 17.4713 223.706 17.3069 223.023 17.8379C222.795 18.0149 222.453 18.3309 222.2 18.7987C221.859 19.4055 221.821 19.9491 221.783 20.5053C221.719 21.4788 221.681 22.0224 222.01 22.4775C222.605 23.2992 223.934 23.236 224.402 23.2107C225.553 23.1475 226.325 22.6671 227.717 21.7822C229.21 20.8214 229.97 20.3536 230.476 19.3928C230.957 18.4953 230.982 17.6862 231.032 16.4473C231.083 15.1198 231.108 14.1211 230.577 13.0971C230.311 12.5914 230.045 12.3512 230.02 11.8076C229.982 11.0491 230.438 10.1768 230.944 10.1515C231.387 10.1263 231.754 10.771 232.007 11.2135C232.576 12.2248 232.311 12.6673 232.791 13.5522C233.272 14.4625 234.044 14.9176 234.31 15.0693C235.322 15.6635 236.638 16.2071 237.068 16.1691" stroke="#231F20" stroke-width="0.5" stroke-miterlimit="10"/>
<path d="M220.391 4.50055C220.871 4.87981 222.225 6.14401 223.174 6.66233C225.781 8.07824 228.122 8.35636 230.628 8.63449C232.424 8.83676 235.765 8.88733 238.777 8.59656" stroke="#231F20" stroke-width="0.5" stroke-miterlimit="10"/>
<path d="M230.4 8.68506C230.451 8.92526 230.539 9.20338 230.678 9.50679C230.78 9.73435 230.893 9.93662 230.995 10.101" stroke="#231F20" stroke-width="0.5" stroke-miterlimit="10"/>
<path d="M220.821 8.74826C220.897 9.58263 220.909 10.6951 220.909 11.1629C220.909 12.3133 220.909 12.8948 220.909 12.996C220.859 13.7545 220.745 14.1464 220.998 14.374C221.15 14.513 221.378 14.5257 221.82 14.5636C222.415 14.6015 222.542 14.4877 222.782 14.6142C223.187 14.8164 223.288 15.3221 223.288 15.3474C223.352 15.7014 223.2 15.9163 222.972 16.5863C222.833 16.9909 222.377 18.3435 222.327 18.5585" stroke="#231F20" stroke-width="0.5" stroke-miterlimit="10"/>
<path d="M214.621 55.1571C214.646 56.3707 214.861 58.9244 214.899 61.1368C215.051 70.416 215.291 72.464 215.544 74.7396C216.544 83.5763 216.468 90.3651 217.658 97.4446C218.391 101.768 219.113 106.104 219.96 110.403C220.049 110.883 220.176 111.503 219.96 112.236C219.505 113.791 218.024 114.069 218.024 115.181C218.024 116.003 218.834 116.61 219.125 116.837C220.024 117.52 221.036 117.507 222.251 117.482C223.035 117.47 226.123 116.888 227.54 116.382" stroke="#231F20" stroke-width="0.5" stroke-miterlimit="10"/>
<path d="M217.834 55.0559C218.391 58.7348 219.492 65.473 220.593 71.8066C223.086 86.1679 224.237 90.3904 225.009 92.9567C227.16 100.137 228.451 104.322 231.817 109.05C235.6 114.36 240.054 117.609 243.041 119.442" stroke="#231F20" stroke-width="0.5" stroke-miterlimit="10"/>
<path d="M218.455 59.0255C219.543 66.4085 222.327 75.2073 223.352 79.5309C226.895 94.4105 229.539 98.0514 231.172 99.9477C234.867 104.246 239.27 106.446 242.117 107.584" stroke="#231F20" stroke-width="0.5" stroke-miterlimit="10"/>
<path d="M221.884 54.7399C222.668 60.8333 223.87 67.3061 224.642 71.1619C227.11 83.4499 228.843 86.4966 231.361 88.6331C234.031 90.896 237.081 91.7051 239.181 92.0338" stroke="#231F20" stroke-width="0.5" stroke-miterlimit="10"/>
<path d="M224.731 54.348C225.807 59.6197 227.312 65.3339 228.325 68.5829C229.362 71.8951 230.45 74.9292 232.829 77.6851C235.006 80.2135 236.891 80.9215 238.081 81.1743C238.903 81.364 239.624 81.3766 240.105 81.364" stroke="#231F20" stroke-width="0.5" stroke-miterlimit="10"/>
<path d="M227.008 53.9688C227.73 57.1672 229.223 61.8321 229.893 63.8042C231.399 68.2163 232.247 69.392 233.386 70.239C235.119 71.5285 237.106 71.7687 237.435 71.8066C238.827 71.9583 239.966 71.7308 240.662 71.5285" stroke="#231F20" stroke-width="0.5" stroke-miterlimit="10"/>
<path d="M229.451 53.9688C229.995 54.8158 231.159 56.0168 231.539 56.2696C232.817 57.0787 234.133 57.104 234.765 57.0913C235.221 57.0913 236.98 57.0028 237.245 56.9523" stroke="#231F20" stroke-width="0.5" stroke-miterlimit="10"/>
<path d="M214.899 61.5919C214.443 63.2227 212.912 67.4957 212.495 70.6056C212.153 73.1972 212.064 75.3464 212.305 84.1199C212.457 89.3284 212.115 94.5496 212.495 99.7454C212.672 102.185 212.95 104.334 211.849 106.269C211.685 106.547 211.039 107.634 210.647 109.214C210.356 110.365 210.824 111.401 211.381 111.692C212.305 112.173 212.748 112.173 215.152 111.781C216.746 111.528 219.125 110.643 219.935 110.403" stroke="#231F20" stroke-width="0.5" stroke-miterlimit="10"/>
<path d="M212.191 78.9241C211.811 80.2768 210.04 84.0441 208.952 86.3323C208.243 87.8114 207.623 88.8228 206.421 90.7949C204.675 93.6267 203.106 95.9276 201.359 99.3915C200.398 101.3 200.069 102.211 200.398 103.159C200.929 104.688 202.84 105.308 204.029 105.687C206.763 106.56 210.293 106.724 211.849 106.281" stroke="#231F20" stroke-width="0.5" stroke-miterlimit="10"/>
<path d="M203.244 105.422C202.624 107.305 202.511 109.467 202.89 109.821C203.536 110.453 204.636 109.859 206.75 110.516C207.597 110.782 208.255 110.984 208.407 111.477C208.673 112.375 207.167 113.664 206.332 114.372C205.181 115.371 204.649 115.447 204.535 116.028C204.333 117.065 205.712 118.14 206.193 118.506C207.42 119.467 208.293 119.492 211.027 120.579C211.849 120.908 212.988 121.439 213.418 121.641" stroke="#231F20" stroke-width="0.5" stroke-miterlimit="10"/>
<path d="M222.757 123.614C223.605 124.372 225.414 125.371 227.325 126.091C228.122 126.395 230.552 127.153 233.677 126.648C234.55 126.509 235.044 126.509 235.524 126.332" stroke="#231F20" stroke-width="0.5" stroke-miterlimit="10"/>
<path d="M203.89 110.415C203.814 110.997 203.776 111.654 203.801 112.387C203.827 113.462 204.345 115.548 204.523 116.294" stroke="#231F20" stroke-width="0.5" stroke-miterlimit="10"/>
<path d="M213.279 112.084C213.355 114.739 213.406 118.089 213.418 120.858C213.431 125.826 213.279 126.635 213.279 130.744C213.279 131.919 213.203 133.108 213.19 134.283C213.178 135.788 213.19 136.205 213.001 136.812C212.634 137.988 211.862 138.683 210.837 139.568C210.369 139.985 208.445 141.59 205.13 142.741C204.548 142.943 203.599 143.247 202.409 143.474C201.397 143.676 200.651 143.563 199.284 143.841C198.79 143.942 198.297 143.828 197.993 144.157C197.702 144.473 197.664 145.029 197.804 145.446C197.905 145.737 198.082 145.939 198.259 146.091C199.044 146.774 200.106 146.85 200.423 146.875C203.017 147.039 204.32 147.128 205.117 147.064C206.218 146.976 207.635 146.862 209.445 146.42C210.736 146.104 211.318 145.851 212.393 145.914C213.355 145.977 213.444 146.217 214.873 146.508C216.518 146.85 217.961 146.786 218.695 146.053C219.024 145.724 219.087 145.573 219.201 144.536C219.264 143.967 219.302 143.221 219.15 141.73C218.986 140.086 218.847 140.099 218.733 138.784C218.682 138.165 218.606 137.141 218.733 135.889C218.809 135.219 218.91 134.701 219.29 133.272C219.935 130.819 220.251 129.593 220.719 128.354C221.415 126.496 221.77 126.155 222.289 124.903C222.909 123.399 223.554 120.579 223.377 117.368" stroke="#231F20" stroke-width="0.5" stroke-miterlimit="10"/>
<path d="M215.443 138.784C215.62 139.024 215.861 139.391 216.038 139.884C216.177 140.276 216.291 140.579 216.228 140.946C216.114 141.578 215.532 141.944 215.354 142.046" stroke="#231F20" stroke-width="0.5" stroke-miterlimit="10"/>
<path d="M235.322 123.108C235.487 125.396 235.601 127.76 235.689 129.265C235.993 134.802 235.98 131.49 236.157 135.725C236.233 137.596 236.157 138.405 235.677 139.328C235.145 140.377 234.12 140.819 232.424 141.767C230.223 142.994 228.54 143.929 226.161 144.106C224.453 144.233 223.364 143.891 222.757 144.663C222.327 145.193 222.264 146.116 222.668 146.685C223.061 147.241 223.845 147.418 227.312 147.14C231.109 146.85 231.324 146.546 233.437 146.584C233.576 146.584 233.5 146.357 237.347 146.534C239.321 146.622 240.156 146.622 241.029 146.394C242.231 146.078 242.611 145.421 242.788 144.827C243.256 143.221 241.991 141.59 241.586 139.909C241.409 139.163 241.801 134.852 242.408 130.895C242.623 129.492 243.003 128.645 243.18 126.9C243.332 125.485 243.18 124.296 243.041 123.5" stroke="#231F20" stroke-width="0.5" stroke-miterlimit="10"/>
<path d="M220.226 18.7481C220.327 19.4561 220.479 21.6431 220.593 22.9832C221.074 28.3434 220.568 31.3648 220.593 34.5633C220.618 37.0285 221.428 41.9336 223.01 46.3709" stroke="#231F20" stroke-width="0.5" stroke-miterlimit="10"/>
<path d="M220.821 18.647C220.821 20.1261 222.605 27.8504 222.997 30.2776C223.314 32.2624 223.82 34.6644 224.199 37.6226C224.44 39.481 225.25 42.73 227.262 45.0814" stroke="#231F20" stroke-width="0.5" stroke-miterlimit="10"/>
<path d="M220.821 18.647C220.909 20.1134 221.732 28.2675 221.998 30.758C222.339 33.8932 222.377 35.562 222.58 37.2687C222.769 38.8489 223.111 43.0587 224.718 45.6124" stroke="#231F20" stroke-width="0.5" stroke-miterlimit="10"/>
<path d="M219.897 18.9124C219.58 21.719 218.96 31.0867 218.96 32.8945C218.96 35.031 219.074 34.3231 219.163 37.8881C219.239 40.7578 219.188 42.3634 219.821 44.6137C220.011 45.3216 220.454 46.8134 220.605 47.2053" stroke="#231F20" stroke-width="0.5" stroke-miterlimit="10"/>
<path d="M217.759 26.5229C217.885 28.9249 218.113 32.9704 218.075 34.3484C218.012 36.7377 217.822 39.1144 217.759 39.7971C217.619 41.5543 217.505 42.3887 217.442 44.0069C217.392 45.4101 216.911 47.7615 216.936 48.52" stroke="#231F20" stroke-width="0.5" stroke-miterlimit="10"/>
</g>
<defs>
<clipPath id="clip0_173_2">
<rect width="251" height="148" fill="white"/>
</clipPath>
</defs>
</svg>
