<svg width="190" height="164" viewBox="0 0 190 164" fill="none" xmlns="http://www.w3.org/2000/svg">
<g clip-path="url(#clip0_88_2)">
<path d="M83.7439 18.2081C84.3893 17.4473 83.9717 14.9114 84.4146 13.3137C85.0599 10.968 86.4645 9.54784 87.3123 8.6983C88.0083 8.01359 89.5394 6.53006 92.0576 5.79464C94.2721 5.14797 96.1069 5.40156 97.1192 5.5664C99.0426 5.85803 100.245 6.21307 101.485 7.08797C102.219 7.60784 102.814 7.87412 103.598 8.29255C104.193 8.60954 104.433 8.36863 105.167 8.5715C106.028 8.79974 106.559 9.40837 106.736 9.6366C106.913 9.86484 107.66 10.8031 107.382 12.0331C107.204 12.8319 106.635 13.618 105.863 13.8716C105.382 14.0365 105.319 13.8336 104.028 13.8716C103.168 13.897 102.738 13.9097 102.231 14.1506C101.586 14.4549 101.206 14.9367 101.029 15.165C100.675 15.6341 100.662 15.8877 100.245 16.9655C99.7386 18.2969 99.4728 18.9562 99.0047 19.2732C98.2707 19.755 97.4735 19.5015 97.4356 19.7297C97.3976 19.9833 98.296 20.4398 99.1818 20.6046C99.7639 20.7187 99.9157 20.6173 100.283 20.7441C100.852 20.9343 101.46 21.4795 101.662 22.1769C101.852 22.8362 101.497 23.0518 101.751 23.6985C101.915 24.1169 102.282 24.6114 102.712 24.6241C102.991 24.6241 103.067 24.4212 103.408 24.3071C104.142 24.0535 104.977 24.6494 105.066 24.7255C105.281 24.8904 105.597 25.1947 106.167 26.843C106.458 27.6926 106.61 28.1237 106.724 28.6816C106.951 29.8989 107.179 31.1161 106.534 32.1812C106.357 32.4728 105.939 33.2336 105.104 33.4238C104.18 33.6394 103.307 32.8279 102.485 32.0925C101.46 31.1795 101.535 30.7864 100.51 30.0637C100.283 29.8989 99.7386 29.5565 99.1312 29.1888C98.5491 28.8464 98.4605 28.8211 98.1189 28.5928C97.7013 28.3139 97.2331 27.9969 96.8282 27.4897C96.4485 27.0079 96.284 26.5641 96.0942 26.0189C95.6767 24.8396 95.6387 23.8633 95.6387 23.6731C95.626 23.0898 95.6893 22.4685 95.8285 21.2259C95.9171 20.3764 95.993 19.9833 95.7399 19.6156C95.5248 19.2986 95.2084 19.1591 94.677 18.9182C94.3353 18.766 93.9304 18.6012 93.3863 18.6012C93.0826 18.6012 92.6523 18.6012 92.3233 18.8801C92.1082 19.0577 92.0576 19.2605 91.9057 19.6156C91.9057 19.6156 91.8678 19.7043 91.2098 20.9469C90.6404 22.0374 89.6407 22.6968 89.4129 22.8362C88.2108 23.6224 87.034 23.6985 86.7935 23.7111C86.0722 23.7492 84.7056 23.8126 83.7566 22.8362C82.972 22.0247 82.9341 20.9723 82.9341 20.668C82.8834 19.2859 83.6427 18.3222 83.8578 18.0813" stroke="#231F20" stroke-width="0.5" stroke-miterlimit="10"/>
<path d="M83.9092 17.9038C84.5039 17.8785 86.3008 17.9545 87.3005 17.8404C88.2115 17.739 90.2615 17.5234 91.9951 17.0162C92.0837 16.9909 92.4506 16.8641 92.9062 16.6866C94.8043 15.9385 96.1456 15.0002 97.1832 14.252C99.9671 12.2486 102.84 9.42106 103.877 8.55884" stroke="#231F20" stroke-width="0.5" stroke-miterlimit="10"/>
<path d="M93.5889 16.3949C93.9432 16.8007 94.0318 18.2462 93.6648 18.6012" stroke="#231F20" stroke-width="0.5" stroke-miterlimit="10"/>
<path d="M104.965 13.897C105.015 14.2267 105.142 15.2664 105.243 15.9511C105.407 17.0416 105.509 18.132 105.661 19.2225C105.812 20.351 105.876 20.7314 105.61 20.9723C105.382 21.1879 104.901 21.0991 104.319 21.023C103.737 20.9343 103.509 20.8075 103.395 20.9343C103.256 21.0864 103.509 21.4668 103.712 22.0374C103.927 22.6587 103.99 23.8887 103.99 24.2564" stroke="#231F20" stroke-width="0.5" stroke-miterlimit="10"/>
<path d="M83.4404 26.7416C84.3515 27.8955 85.25 28.3393 85.8827 28.5421C87.515 29.0493 88.3249 28.1871 90.0711 28.9098C90.6406 29.1508 90.9696 29.417 92.0072 29.7847C92.8297 30.0891 93.2473 30.2285 93.7155 30.2032C94.9556 30.1144 95.7781 28.8338 96.0565 28.3646" stroke="#231F20" stroke-width="0.5" stroke-miterlimit="10"/>
<path d="M85.9203 23.7112C85.1484 24.1169 83.5919 25.1059 82.4657 25.499C81.8457 25.7146 80.8081 26.0823 79.4288 26.3232C77.5433 26.6655 77.3662 26.3612 75.6579 26.6909C74.6582 26.8811 73.5447 27.0966 72.3425 27.8448C71.2543 28.5168 70.5203 29.2015 69.6599 30.0384C68.2047 31.4585 67.5846 33.0561 67.243 33.8803C66.4584 35.8076 66.0914 37.3039 66.0029 38.6859C65.9776 39.1044 65.7751 40.0046 65.522 40.8035C65.2816 41.5643 65.3575 41.6403 65.0412 42.4772C64.7248 43.3141 64.5097 43.9607 64.3452 45.2794C64.206 46.4333 64.0668 47.3082 64.0288 48.1831C63.9782 49.2989 63.9023 50.8458 63.8896 53.3945C63.8896 53.4705 63.9023 54.84 63.9403 57.5915C63.9529 58.8975 64.1174 60.2035 64.1301 61.5095C64.1301 62.321 64.1174 63.0184 64.5477 63.7665C64.9652 64.4893 65.5853 64.8696 65.8384 65.0091C66.7368 65.529 67.4201 65.4529 69.0651 65.6051C70.2167 65.7192 69.6978 65.7319 71.9123 66.0235C75.8477 66.5307 76.2147 66.3025 76.2779 66.1123C76.3918 65.8206 75.7338 65.5924 75.4048 64.5907C75.1644 63.8679 75.253 63.234 75.3162 62.8789C75.4175 62.2449 75.4934 61.7377 75.873 61.4968C76.202 61.2813 76.6069 61.37 77.4801 61.6363C78.4291 61.9153 78.8973 62.0547 79.7831 62.3717C80.5803 62.6634 81.7318 62.5746 84.0222 62.4225C87.4135 62.1815 87.9449 61.7885 88.16 61.3574C88.3878 60.9009 88.2739 60.3683 88.2486 60.2923C88.0462 59.4554 87.2869 59.392 86.7808 58.5424C86.2493 57.6549 86.3379 56.4376 86.6922 56.2855C86.7555 56.2601 86.9326 56.2221 87.9323 57.1604C88.6282 57.8197 89.0585 58.3142 89.3622 58.6312C89.7291 59.0243 90.6149 59.9879 91.3362 60.381C92.5257 61.0277 93.9176 60.5078 95.9423 59.7343C98.3086 58.8214 99.7511 57.7943 102.522 55.7656C104.534 54.2947 105.268 53.572 105.42 52.4942C105.483 52.0251 105.42 51.3911 105.053 50.2372C104.724 49.1594 104.623 48.8424 104.382 47.752C104.243 47.0926 104.028 45.9388 104.129 45.0005C104.218 44.227 104.294 44.1256 104.496 42.7054" stroke="#231F20" stroke-width="0.5" stroke-miterlimit="10"/>
<path d="M67.5596 41.3614C67.6861 41.6657 68.0404 42.4645 68.8882 43.0224C69.6222 43.5043 70.3181 43.555 70.5965 43.5803C72.3554 43.7071 74.3548 42.6167 74.5952 42.3758" stroke="#231F20" stroke-width="0.5" stroke-miterlimit="10"/>
<path d="M76.6455 41.3614C76.8353 41.8432 77.2782 42.4265 77.7844 43.0478C77.9236 43.2126 78.4803 43.7579 79.6192 44.6835C80.3911 45.3175 81.1377 45.9134 82.2006 46.4333C82.9725 46.8137 84.5669 47.5872 86.7054 47.4984C87.452 47.473 89.2236 47.3716 90.8433 46.167C91.3242 45.812 92.0834 45.2287 92.501 44.227C92.8553 43.3775 92.7667 42.7181 92.7288 41.5009C92.7034 40.5499 92.7035 39.2058 92.868 37.5321" stroke="#231F20" stroke-width="0.5" stroke-miterlimit="10"/>
<path d="M92.2734 44.6581C92.6277 45.0512 94.3234 46.1543 95.2092 46.6108C96.5758 47.3082 97.8539 47.6505 98.4739 47.6379C99.3976 47.6252 101.005 47.3589 102.409 46.4967C102.713 46.3065 103.991 45.1907 104.092 45.0131" stroke="#231F20" stroke-width="0.5" stroke-miterlimit="10"/>
<path d="M81.3656 43.3901C81.1758 43.4789 81.024 43.6818 80.9987 43.8973C80.9607 44.3031 81.353 44.5694 81.4542 44.6328C81.5048 44.6708 82.011 45.0131 82.3273 44.7722C82.5551 44.5947 82.5425 44.2143 82.4665 43.9861C82.3147 43.5423 81.7579 43.2126 81.3656 43.3901Z" stroke="#231F20" stroke-width="0.5" stroke-miterlimit="10"/>
<path d="M101.573 43.7071C101.257 43.6311 100.776 43.7071 100.612 44.0748C100.498 44.3284 100.561 44.6201 100.7 44.8103C100.941 45.1273 101.383 45.1907 101.712 45.0385C101.991 44.9117 102.282 44.6074 102.219 44.2524C102.143 43.8339 101.624 43.7071 101.573 43.6945V43.7071Z" stroke="#231F20" stroke-width="0.5" stroke-miterlimit="10"/>
<path d="M76.7212 42.5152C76.7718 42.9971 76.8351 43.6818 76.8604 44.4933C76.8984 45.6725 76.9237 46.5854 76.7212 47.7266C76.5314 48.8044 76.3416 49.9202 75.5697 51.0487C74.6333 52.4181 74.4309 52.8366 74.2537 53.7241C74.1398 54.3454 74.4435 54.7512 74.8358 55.0555C75.4179 55.512 75.3166 55.3345 76.253 55.8417C76.5441 55.9938 76.7972 56.0319 78.3663 57.0462C78.8724 57.3759 79.7582 58.3015 80.4668 58.8468" stroke="#231F20" stroke-width="0.5" stroke-miterlimit="10"/>
<path d="M82.2002 51.6827C82.1243 51.4798 82.0357 51.1628 82.0611 50.7571C82.099 49.9329 82.5799 49.3877 82.757 49.1848C83.1999 48.6776 83.7061 48.4874 84.0477 48.3606C84.8576 48.0563 85.5536 48.0943 86.0218 48.1324C86.7304 48.1831 87.5402 48.2465 88.2742 48.8297C88.5273 49.0326 89.2612 49.6032 89.2865 50.4401C89.2865 50.9473 89.0334 51.4037 88.7297 51.9109C88.5526 52.2026 88.4766 52.3547 88.3121 52.4688C87.9325 52.7478 87.6035 52.5703 86.743 52.6083C86.5406 52.6083 85.8573 52.659 85.0854 52.9253C84.7057 53.0648 84.402 53.1662 84.073 53.4325C83.8706 53.5973 83.3644 54.0158 83.1999 54.7639C83.1746 54.9033 83.0101 55.6388 83.4277 56.2854C83.7061 56.7039 84.0984 56.8941 84.5286 57.1096C84.8956 57.2871 86.1989 57.6422 86.4267 57.7056" stroke="#231F20" stroke-width="0.5" stroke-miterlimit="10"/>
<path d="M87.958 52.621C88.1605 52.7478 89.3246 53.1662 89.6536 53.4452C90.0839 53.8002 90.299 53.9904 90.4382 54.2694C90.6786 54.7766 90.5394 55.2964 90.4382 55.6515C90.1978 56.539 89.0083 57.4647 88.6919 57.7183" stroke="#231F20" stroke-width="0.5" stroke-miterlimit="10"/>
<path d="M84.0855 53.4452C83.8957 53.1662 82.9213 51.9997 82.2001 51.6954C81.1371 51.2389 79.8084 51.4164 78.9353 52.2026C78.1255 52.9253 77.9863 53.889 77.923 54.2821C77.8091 55.0555 78.2773 56.6912 78.3785 57.0462" stroke="#231F20" stroke-width="0.5" stroke-miterlimit="10"/>
<path d="M89.2617 50.6683C89.3503 50.5289 90.3753 49.8315 90.6663 49.654C90.7549 49.6032 90.9194 49.5272 91.7672 49.375C92.0836 49.3243 92.2481 49.2989 92.3619 49.2862C92.6277 49.2609 93.1592 49.2102 93.7412 49.375C94.1841 49.5018 94.4625 49.692 94.9813 50.0724C95.5001 50.4401 95.7659 50.6303 95.943 50.9473C96.2594 51.4925 96.1961 52.0631 96.1708 52.2787C96.0949 52.9507 95.7532 53.3818 95.4748 53.7495C95.2344 54.0792 95.0066 54.3708 94.6017 54.5737C94.5005 54.6244 94.1715 54.7893 93.273 54.8019C92.8428 54.8019 91.2737 54.6625 90.5524 54.5357" stroke="#231F20" stroke-width="0.5" stroke-miterlimit="10"/>
<path d="M94.1709 54.7385C94.424 54.7892 95.8665 55.2711 96.3221 55.8417C96.6258 56.2221 96.7017 56.6278 96.7776 56.9955C96.8536 57.3632 96.7776 58.5171 96.5878 59.3413" stroke="#231F20" stroke-width="0.5" stroke-miterlimit="10"/>
<path d="M96.1201 52.621C96.3985 52.5196 97.7778 52.2153 98.2586 52.1519C98.6636 52.1011 99.4861 52.0124 100.422 52.3801C100.941 52.583 101.561 52.8239 101.941 53.4832C102.397 54.2694 102.042 55.9431 101.979 56.1587" stroke="#231F20" stroke-width="0.5" stroke-miterlimit="10"/>
<path d="M84.541 57.1223C84.3006 57.0716 82.5543 57.0716 81.9596 57.3125C81.4408 57.5154 81.1624 57.8704 80.8967 58.1874C80.7195 58.403 80.3399 58.8848 80.1627 59.6202C79.9096 60.6853 80.555 62.0674 80.6942 62.3717" stroke="#231F20" stroke-width="0.5" stroke-miterlimit="10"/>
<path d="M76.5312 38.8635C76.5439 39.8271 76.6325 41.6657 76.7337 42.7308" stroke="#231F20" stroke-width="0.5" stroke-miterlimit="10"/>
<path d="M106.914 29.8355C107.508 30.3173 108.926 31.2303 109.761 32.1432C110.583 33.0435 111.229 33.7535 111.836 34.8693C112.342 35.8076 113.165 37.3292 113.076 39.2439C113.026 40.3977 112.823 40.8288 113.076 41.9827C113.228 42.7054 113.266 42.7688 113.671 43.8973C114.114 45.1273 114.278 46.1416 114.405 46.9405C114.443 47.1814 114.607 48.2338 114.633 49.7934C114.709 53.1155 114.076 53.0902 114.354 55.1823C114.493 56.2347 114.746 56.9448 114.304 57.7183C114.038 58.2001 113.722 58.3142 112.975 58.8214C112.608 59.075 111.672 59.9119 109.799 61.5856C107.901 63.2847 108.128 63.1579 107.863 63.3354C106.483 64.2737 105.129 64.4639 103.358 64.6668C100.954 64.9584 98.7392 64.7809 96.8664 65.2247C96.3855 65.3388 95.7401 65.529 95.0695 65.9601C94.538 66.3025 94.3988 66.518 94.1078 66.7463C93.0449 67.5197 91.7035 66.9745 90.3369 66.8857C88.4261 66.7589 87.3632 67.5831 85.9713 68.0396C84.1364 68.6482 80.9096 68.2425 76.2656 66.0996" stroke="#231F20" stroke-width="0.5" stroke-miterlimit="10"/>
<path d="M105.294 42.287C105.56 42.6801 105.965 43.2506 106.496 43.8973C107.217 44.7849 107.584 45.2414 107.964 45.4189C109.229 46.0022 110.963 44.7215 111.418 44.3538" stroke="#231F20" stroke-width="0.5" stroke-miterlimit="10"/>
<path d="M105.661 59.709C105.041 59.9499 104.357 60.2669 103.636 60.6726C102.067 61.5856 100.915 62.6634 100.144 63.5256" stroke="#231F20" stroke-width="0.5" stroke-miterlimit="10"/>
<path d="M72.4319 66.0996C72.1915 66.3151 71.3184 67.1774 71.0147 67.6465C70.5085 68.42 70.2807 69.2188 70.1415 70.1317C69.9138 71.6787 70.0277 72.8832 70.0909 73.8216C70.2175 75.4192 70.2301 77.0168 70.3187 78.6145C70.3946 80.022 70.4073 81.8352 70.4073 85.3982C70.4073 87.9848 70.5844 92.2199 70.3567 93.9316C70.3567 94.0204 70.2934 94.4515 70.2681 95.0221C70.2428 95.5293 70.2301 96.1633 70.3567 96.9241C70.4579 97.4947 70.5212 97.8877 70.7742 98.3569C70.9134 98.6232 71.2804 99.2698 72.065 99.6883C72.8368 100.094 73.5708 100.043 73.8618 100.005" stroke="#231F20" stroke-width="0.5" stroke-miterlimit="10"/>
<path d="M70.3184 94.3754C70.5967 94.4769 72.2797 95.3011 72.9504 94.7939C73.2921 94.5276 73.4312 94.1218 73.6843 93.323C73.9754 92.4354 73.8615 92.3086 74.0513 91.8522C74.4942 90.7744 75.5951 90.2799 75.8861 90.1404C76.1519 90.0136 76.4682 89.9122 78.6953 89.8234C80.9351 89.7346 81.3274 89.8234 81.5425 89.8741C82.3776 90.0897 83.352 90.3179 83.8455 91.1167C84.2884 91.8268 83.9594 92.3467 84.5794 93.7922C84.8578 94.4388 85.0476 94.6164 85.2248 94.7178C85.5664 94.9207 85.8195 94.8065 86.971 94.7685C87.6923 94.7431 88.0593 94.7305 88.4009 94.8192C88.6793 94.8953 89.3247 95.0601 89.7296 95.6054C90.0333 96.0111 90.1345 96.5183 90.2358 97.0762C90.337 97.5961 90.2864 97.7102 90.4256 97.8624C90.6913 98.1667 91.1469 98.0399 92.0327 98.0526C93.007 98.0526 93.5385 98.0653 94.0067 98.3696C94.4243 98.6358 94.6394 99.0796 95.0696 99.9799C95.4872 100.867 95.4366 101.083 95.8035 101.552C95.8921 101.666 96.335 102.237 97.0057 102.478C97.4739 102.643 98.2078 102.719 99.8528 101.831C100.815 101.311 101.915 100.563 103.447 99.0162C105.193 97.2537 106.053 96.3788 106.344 95.3264C106.699 94.0458 106.281 93.5005 106.762 91.3577C106.914 90.6856 107.066 90.0136 107.407 89.2782C108.154 87.6679 109.052 87.4142 111.773 84.8529C113.57 83.1665 113.228 83.2299 114.443 82.2282C115.81 81.0871 116.468 80.8081 116.607 80.1107C116.797 79.1597 115.822 78.2721 114.392 76.9281C113.178 75.7869 112.962 75.8757 110.938 74.1639C109.318 72.7818 108.837 72.1859 108.496 71.7167C107.926 70.9052 107.951 70.7023 107.344 69.9162C106.661 69.0413 106.117 68.6609 105.13 67.7987C104.497 67.2534 102.928 65.884 101.903 64.8316" stroke="#231F20" stroke-width="0.5" stroke-miterlimit="10"/>
<path d="M115.417 78.1834C115.012 78.399 113.734 79.0203 113.076 79.4894C111.912 80.3136 111.19 81.0998 109.988 82.3931C108.976 83.4836 108.331 84.3204 107.647 85.208C106.736 86.3872 106.268 86.9832 106.04 87.5157C105.623 88.4794 105.572 89.3416 105.484 91.0153C105.37 93.1962 105.623 93.5513 105.294 94.7051C104.99 95.7576 104.509 96.4803 104.092 97.0509C103.687 97.6342 103.13 98.2808 100.409 100.373C98.2075 102.059 97.1825 102.693 96.0436 103.226C94.7909 103.822 94.1076 103.974 93.3736 103.923C92.0956 103.822 91.1718 103.125 90.8934 102.909C89.7672 102.034 89.9697 101.413 88.7296 100.462C87.8185 99.7644 87.616 100.031 87.0719 99.4474C86.0723 98.3823 86.6164 97.3552 85.7433 96.7212C85.2751 96.3915 85.0979 96.6578 83.4402 96.2647C82.5544 96.0492 82.0989 95.9351 81.8332 95.7068C80.9221 94.9461 81.5042 93.8429 80.6816 93.0821C79.9857 92.4228 78.6317 92.3467 78.0117 92.8919C77.6953 93.1709 77.7839 93.4118 77.2271 95.3391C76.9361 96.3535 76.8348 96.531 76.6324 96.6705C75.9997 97.1016 75.3037 96.4296 74.6963 96.8607C74.3293 97.127 74.2408 97.6215 74.1016 98.433C74.013 98.9148 73.8611 99.7263 73.8738 100.005" stroke="#231F20" stroke-width="0.5" stroke-miterlimit="10"/>
<path d="M76.7341 66.3278C76.4431 66.8097 75.0258 69.0032 74.836 69.9923C74.6462 70.9559 74.7854 71.4758 74.7854 72.8072C74.798 74.6331 74.5576 74.557 74.5576 76.1293C74.5576 77.8157 74.8487 78.0439 75.0132 80.1868C75.1017 81.366 75.0511 81.7591 75.0638 83.6864C75.0638 84.9417 75.0891 86.7676 75.203 89.0373" stroke="#231F20" stroke-width="0.5" stroke-miterlimit="10"/>
<path d="M79.3916 67.3802C79.4422 69.9416 79.6194 73.885 79.8092 75.5207C80.0496 77.6635 80.3786 80.5292 81.3783 84.1429C81.9351 86.159 82.5298 87.82 82.9853 88.9866" stroke="#231F20" stroke-width="0.5" stroke-miterlimit="10"/>
<path d="M80.7197 67.9128C81.0487 69.3456 82.0357 73.4158 82.6937 75.7489C83.2632 77.765 84.3388 81.5689 85.7307 84.929C86.9582 87.8961 89.1093 92.1692 93.0068 96.9114" stroke="#231F20" stroke-width="0.5" stroke-miterlimit="10"/>
<path d="M85.6426 84.7008C85.845 85.4616 86.0728 87.5411 86.3386 88.3399C86.9966 90.4194 87.7305 92.3213 88.5024 94.0585" stroke="#231F20" stroke-width="0.5" stroke-miterlimit="10"/>
<path d="M82.7949 68.3058C83.7819 69.7513 86.7303 75.2163 88.1729 76.814C90.3873 79.2738 92.6144 81.1758 94.5632 82.6213" stroke="#231F20" stroke-width="0.5" stroke-miterlimit="10"/>
<path d="M87.6416 67.3802C88.2237 68.1664 90.0459 70.9559 90.7545 71.7928C91.2606 72.4014 92.1211 73.3905 92.6273 73.923" stroke="#231F20" stroke-width="0.5" stroke-miterlimit="10"/>
<path d="M95.0822 65.9855C94.943 66.4673 93.3612 72.0844 93.0069 72.7184C92.4501 73.7455 90.8431 76.5731 90.3369 77.0042" stroke="#231F20" stroke-width="0.5" stroke-miterlimit="10"/>
<path d="M97.7776 65.0852C97.7776 65.7699 98.2078 72.7184 98.1572 73.8216C98.0813 75.5206 97.8788 78.5258 97.1449 82.1648C96.5881 84.9164 95.6517 88.4794 93.9688 92.4988" stroke="#231F20" stroke-width="0.5" stroke-miterlimit="10"/>
<path d="M104.421 67.1393C104.383 67.5958 104.332 69.0793 104.282 69.9542C104.18 71.7928 104.231 71.9576 104.092 72.5409C103.813 73.7582 103.446 73.7075 103.029 75.1276C102.915 75.5207 102.864 75.7616 102.611 77.6635C102.383 79.388 102.27 80.2502 102.244 80.4785C102.13 81.7211 102.168 82.1268 102.156 85.1826C102.156 86.8056 102.143 87.6298 102.105 88.6442C102.042 90.6857 102.004 91.9536 101.827 93.3484C101.662 94.6671 101.308 96.5564 100.498 98.788" stroke="#231F20" stroke-width="0.5" stroke-miterlimit="10"/>
<path d="M107.369 69.9035C107.331 70.398 107.344 72.6677 107.053 73.5933C106.749 74.5697 106.446 74.95 106.091 75.9391C105.762 76.8647 105.636 77.5748 105.497 78.475C105.319 79.5782 105.269 80.4404 105.218 82.672C105.193 83.8639 105.522 88.9231 105.522 90.5969" stroke="#231F20" stroke-width="0.5" stroke-miterlimit="10"/>
<path d="M73.8619 99.4093C74.0138 100.944 74.3681 103.454 74.5959 104.253C75.0641 105.8 75.9372 107.981 76.9369 110.479C77.2153 111.151 77.5443 111.975 77.4177 113.04C77.3924 113.306 77.2912 113.826 76.5952 115.12C75.6082 116.92 75.1273 117.123 74.4567 118.442C73.8746 119.57 73.6595 120.534 73.495 121.282C73.1786 122.689 73.166 123.754 73.1533 125.428C73.1407 127.102 73.2545 127.267 73.2166 128.89C73.1913 130.259 73.09 131.286 73.0141 131.996C72.799 134.088 72.6092 135.864 71.9132 138.083C71.5969 139.084 71.1413 140.504 70.1923 142.165C70.0278 142.457 69.9898 142.508 68.3954 145.006C67.3704 146.616 66.8643 147.428 66.8137 148.112C66.8137 148.214 66.6998 149.964 67.8513 150.953C68.446 151.46 69.1926 151.561 70.6858 151.777C71.7993 151.942 71.85 151.815 72.5459 151.98C73.3052 152.17 73.8872 152.525 75.0261 153.222C77.7467 154.896 77.772 154.921 77.9998 155.023C79.3411 155.644 80.4926 155.86 81.176 155.986C82.0617 156.151 82.8969 156.303 84.0105 156.189C84.6938 156.126 85.6175 156.024 86.5666 155.428C87.0727 155.111 87.8699 154.604 87.8826 153.844C87.8826 153.324 87.503 152.842 87.1233 152.601C86.5919 152.259 86.1869 152.461 84.9089 152.398C84.1243 152.36 83.5929 152.335 82.9728 152.119C81.8972 151.751 81.2139 151.016 80.8343 150.597C80.5812 150.319 80.4167 150.103 79.5183 148.518C78.5945 146.895 78.1263 146.071 77.9998 145.614C77.9239 145.348 77.7594 144.651 77.9998 142.635C78.2655 140.365 78.7717 138.628 79.0374 137.791C79.1893 137.309 79.6828 135.788 80.8343 133.226C82.3275 129.929 82.9222 129.334 84.0737 126.722C85.7567 122.918 85.9212 122.169 85.9339 121.599C85.9339 120.94 85.8579 120.103 86.2755 119.038C86.5792 118.251 86.8197 118.226 87.4524 116.958C87.9585 115.944 88.2116 115.424 88.2749 114.676C88.3508 113.826 88.3888 113.699 88.5533 112.989C88.7557 112.102 89.11 111.214 89.1986 111.011C89.7048 109.845 90.3248 107.334 89.4643 101.146" stroke="#231F20" stroke-width="0.5" stroke-miterlimit="10"/>
<path d="M72.1148 143.877C71.9756 144.055 71.7858 144.359 71.6972 144.777C71.4948 145.792 72.1401 146.591 72.254 146.717" stroke="#231F20" stroke-width="0.5" stroke-miterlimit="10"/>
<path d="M116.619 80.0854C116.898 80.339 117.923 81.4674 118.365 81.9112C119.492 83.0144 120.276 83.7625 121.061 84.8149C122.01 86.0702 121.795 86.197 122.643 87.1607C122.832 87.3762 123.351 87.8834 124.363 88.8851C125.439 89.9375 125.553 90.039 125.743 90.3433C126.312 91.2182 126.439 92.0804 126.502 92.6256C126.565 93.1328 126.742 94.6798 125.945 96.2267C125.591 96.9114 125.439 96.8226 123.807 98.7119C122.87 99.7897 122.402 100.335 122.01 100.931C121.01 102.452 121.276 102.795 120.352 104.114C119.656 105.115 119.479 104.938 118.353 106.332C117.454 107.436 116.885 108.374 116.493 109.033C115.809 110.162 115.366 111.1 114.974 111.937C112.823 116.565 113.089 117.009 111.241 121.13C110.811 122.106 110.355 123.044 110.14 124.452C109.824 126.417 110.052 127.508 110.14 127.837C110.305 128.421 110.596 128.915 111.178 129.917C111.899 131.159 112.038 131.096 112.76 132.339C113.494 133.594 113.481 133.873 114 134.279C114.633 134.773 115.404 134.951 115.797 135.039C115.961 135.077 116.455 135.154 117.454 135.318C118.264 135.445 118.568 135.496 118.694 135.737C118.846 136.016 118.694 136.371 118.555 136.7C118.555 136.7 118.239 137.411 117.657 137.88C116.505 138.78 112.785 138.945 109.647 137.056C107.837 135.952 106.749 134.976 106.749 134.976C106.002 134.304 105.686 133.898 104.889 133.518C104.092 133.15 103.307 133.049 102.611 132.96C101.536 132.82 101.472 132.96 100.612 132.82C99.7388 132.681 99.0175 132.554 98.3342 131.996C98.0937 131.793 97.2459 131.045 97.1573 129.853C97.0941 128.979 97.4737 128.332 97.8533 127.711C98.3468 126.874 98.815 126.531 99.7894 125.568C100.587 124.782 101.434 123.881 101.865 123.349C102.637 122.398 103.079 121.409 103.801 118.923C104.851 115.272 105.509 113.027 105.8 109.731C105.99 107.626 105.889 106.814 106.357 105.026C106.698 103.733 107.065 102.313 108.078 100.88C109.837 98.3822 112.089 97.8497 111.874 96.7339C111.823 96.5056 111.684 96.3028 110.558 95.5547C109.229 94.6798 107.331 93.7795 106.509 93.3864" stroke="#231F20" stroke-width="0.5" stroke-miterlimit="10"/>
<path d="M3.23926 3.41087C4.01115 3.79126 5.13736 4.27309 6.55461 4.65348C7.21262 4.831 7.83266 5.0212 8.68048 5.14799C8.80702 5.17335 10.3635 5.38891 11.7934 5.21139C13.3878 5.0212 13.9446 4.38721 16.6272 3.13191C20.5753 1.29335 21.4357 1.03975 21.8786 0.912955C23.0554 0.595961 24.7384 0.152169 26.8516 0.355045C27.7627 0.443804 28.5599 0.634 31.4071 1.73714C37.19 3.98146 36.7471 4.28577 38.0378 4.36185C40.9609 4.53937 41.9479 2.87832 44.8077 3.66446C45.491 3.85466 46.6678 4.19701 47.1487 5.18603C47.5916 6.09898 47.0981 6.82172 46.8703 8.64761C46.6678 10.3087 46.8576 11.5893 47.0095 12.6544C47.2879 14.531 47.832 15.8244 48.528 17.4981C49.0721 18.7914 49.9073 20.5285 51.1473 22.4812" stroke="#231F20" stroke-width="0.5" stroke-miterlimit="10"/>
<path d="M5.17578 4.23505C6.20076 4.93243 11.4395 9.10407 13.1731 10.613C16.1342 13.1996 16.3746 14.0619 18.2853 15.0382C19.6773 15.7483 21.2464 16.0272 24.3593 16.5598C26.4472 16.9148 27.3709 16.9275 29.1931 17.5234C31.1039 18.1574 32.0909 18.4871 32.7868 19.4634C33.7992 20.8709 33.2171 22.2149 34.3053 22.925C34.8874 23.3054 35.0899 22.9504 36.6463 23.204C37.5574 23.3434 38.4179 23.6731 40.1009 24.3071C41.2397 24.7382 41.8218 24.9665 42.1761 25.1313C42.7962 25.4483 44.9347 27.3756 45.5294 32.5997" stroke="#231F20" stroke-width="0.5" stroke-miterlimit="10"/>
<path d="M4.59361 4.00681C5.49205 5.87073 6.89664 9.59858 7.3775 10.7398C8.76944 14.0492 9.04783 15.2284 9.17437 15.8624C9.50337 17.4981 9.75645 18.7787 9.31356 20.2876C9.04783 21.1752 8.44043 21.9994 7.2383 23.6097C5.25162 26.2598 4.92262 26.133 4.20134 27.477C3.9103 28.0223 2.9739 29.8228 2.96125 32.1812C2.93594 34.7045 3.97357 35.5921 3.37883 36.8854C2.98655 37.7223 2.0375 38.445 0.0634766 38.8254" stroke="#231F20" stroke-width="0.5" stroke-miterlimit="10"/>
<path d="M16.0454 13.3518C16.6275 14.0238 18.3231 17.8404 18.6901 19.4634C18.9432 20.5666 18.8672 21.4668 18.6901 23.2039C18.5762 24.3324 18.4244 25.8667 17.8676 28.0476C16.8806 31.8896 16.2605 31.5092 16.0707 33.4365C15.7417 36.7967 17.6145 38.0519 16.6275 39.9412C15.9315 41.2599 14.2232 42.1729 12.768 42.0207C10.4397 41.7671 9.36408 38.8634 8.35176 39.2565C7.71906 39.4974 8.1746 40.5879 7.39006 42.0207C6.55489 43.5169 5.37807 43.5676 3.113 45.3428C2.37907 45.9134 1.51859 46.6869 0.632812 47.6886" stroke="#231F20" stroke-width="0.5" stroke-miterlimit="10"/>
<path d="M19.7656 15.6215C20.7906 18.0306 22.385 20.5285 23.3847 21.3908C24.4223 22.291 24.9917 22.4432 26.7 23.7365C28.4716 25.0806 29.4206 26.1076 30.2938 26.9191C31.7237 28.2632 33.9761 30.0383 37.4686 31.7628" stroke="#231F20" stroke-width="0.5" stroke-miterlimit="10"/>
<path d="M25.5107 16.6866C27.219 18.1574 29.3323 20.947 29.6106 21.9487C30.0915 23.7238 29.5094 24.586 29.0539 28.9986C28.7881 31.5599 28.6616 32.8406 28.9147 33.9817C29.5221 36.7333 31.3063 38.6606 32.0908 39.5101C33.9763 41.5389 34.7608 41.2599 35.9503 43.1112C37.1777 45.0131 36.5577 45.6598 37.7472 46.9785C39.3416 48.7663 40.8601 48.0563 42.0242 49.7427C43.1125 51.315 42.3785 52.7858 43.4035 53.3437C44.4918 53.9397 45.8584 52.583 46.7189 53.2043C47.3263 53.6481 47.263 54.7639 47.1365 55.55" stroke="#231F20" stroke-width="0.5" stroke-miterlimit="10"/>
<path d="M25.9663 0.316986C25.2957 2.38379 24.8907 5.12262 25.0426 6.03556C25.4349 8.43203 26.7003 10.4608 26.7003 10.4608C27.2697 11.3864 27.6999 11.7795 27.8012 12.6798C27.9277 13.7829 27.3962 14.3915 27.8012 15.0255C28.1681 15.6215 28.8514 15.4693 29.4588 15.8497C30.1548 16.2935 30.0915 20.1735 29.7752 23.1406" stroke="#231F20" stroke-width="0.5" stroke-miterlimit="10"/>
<path d="M3.10054 160.83C2.98666 160.133 4.18879 159.296 6.13751 157.926C7.27637 157.128 8.76954 156.075 10.5538 155.707C13.0339 155.2 14.5271 156.341 17.3237 157.229C19.8798 158.041 19.6773 157.407 28.2314 157.926C33.2424 158.218 35.7352 158.37 39.1392 158.751C44.1375 159.308 45.6307 159.752 47.6933 158.751C49.2371 158.002 50.2241 156.887 52.1095 156.95C53.8811 157.013 54.2987 158.053 55.5641 157.774C57.5508 157.343 57.4495 154.566 59.4236 154.034C60.9294 153.628 61.4102 155.137 63.8398 155.276C66.1682 155.403 66.3833 154.059 68.8128 154.173C70.5971 154.249 70.6983 154.997 73.5075 155.416C75.0892 155.657 75.2158 155.441 76.6836 155.695C78.9614 156.075 79.1891 156.671 80.9607 157.077C83.327 157.609 87.0093 157.483 88.2747 155.555C88.8188 154.731 88.6037 154.034 89.3756 153.476C90.2361 152.867 90.9194 153.412 92.2734 153.057C93.5514 152.728 93.7412 152.043 95.4495 150.838C97.4868 149.406 97.8791 149.938 98.9041 149.038C101.194 147.034 99.4355 144.258 101.802 140.872C102.308 140.137 103.409 138.577 105.256 138.108C107.597 137.512 108.546 139.338 111.748 139.629C114.165 139.845 114.241 138.869 118.644 138.108C119.252 138.006 122.213 137.512 125.958 137.689C130.59 137.905 130.185 138.856 133.829 138.793C137.107 138.742 139.296 137.93 140.726 139.351C141.206 139.82 141.181 140.137 142.105 141.151C142.371 141.443 143.434 142.597 144.724 143.37C145.205 143.649 146.572 144.384 149.836 144.473C151.709 144.524 152.519 144.321 156.467 143.776C160.175 143.269 162.035 143.015 162.959 143.078C165.97 143.307 166.021 144.245 169.729 144.879C170.475 145.006 170.564 144.98 177.043 145.297C180.548 145.462 182.332 145.564 183.256 146.54C183.825 147.149 184.104 148.188 184.635 150.28C185.394 153.235 185.027 153.615 185.736 155.124C186.445 156.633 186.951 156.519 188.077 158.446C189.013 160.031 190 161.692 189.595 162.593C188.748 164.482 181.952 162.529 175.233 161.768C165.616 160.678 164.034 162.935 149.836 163.569C144.509 163.81 139.523 163.544 129.539 163.011C107.661 161.857 108.521 160.551 97.2337 160.526C82.3906 160.488 82.5424 162.745 65.624 162.605C54.3366 162.516 53.9823 161.502 42.986 161.781C35.6973 161.959 30.8635 162.529 19.7912 162.605C8.57973 162.694 3.30301 162.187 3.08789 160.805L3.10054 160.83Z" stroke="#231F20" stroke-width="0.5" stroke-miterlimit="10"/>
<path d="M22.7899 23.3815C22.6128 23.4449 21.5119 23.876 20.9551 25.0425C20.3224 26.3485 20.4743 28.3139 21.8789 29.2902C22.9418 30.0257 24.3717 29.9369 25.3714 29.2902C26.6115 28.4914 26.7886 27.084 26.8392 26.7036C26.9025 26.2598 27.067 24.9791 26.1939 24.0281C25.2954 23.0391 23.8149 23.0011 22.7899 23.3815Z" stroke="#231F20" stroke-width="0.5" stroke-miterlimit="10"/>
<path d="M43.8713 32.232C42.6059 32.3588 41.6189 33.3478 41.2899 34.4509C40.8344 35.9978 41.6695 37.7984 43.226 38.4197C44.9216 39.0917 46.9336 38.1661 47.4651 36.6699C47.9966 35.161 46.8071 33.7282 46.6426 33.538C46.4148 33.2717 45.4025 32.0925 43.884 32.2446L43.8713 32.232Z" stroke="#231F20" stroke-width="0.5" stroke-miterlimit="10"/>
<path d="M31.3441 2.53596C30.3191 2.71348 29.5852 3.77858 29.5978 4.84367C29.5978 5.90877 30.3697 6.73296 31.1669 7.06263C32.2931 7.53178 33.8496 7.16407 34.2925 6.13701C34.7353 5.12263 33.8369 3.98145 33.6471 3.74054C33.4067 3.43622 32.5335 2.33308 31.3441 2.53596Z" stroke="#231F20" stroke-width="0.5" stroke-miterlimit="10"/>
<path d="M26.3835 35.1863C26.2569 35.199 24.8523 35.3892 24.169 36.6572C23.7514 37.4306 23.6249 38.5845 24.2576 39.4214C25.0548 40.4865 26.6492 40.4865 27.6615 39.9793C28.6739 39.4594 29.0282 38.4704 29.1294 38.1407C29.2433 37.7603 29.5976 36.5938 28.851 35.7442C28.2816 35.0976 27.2946 34.882 26.3708 35.1863H26.3835Z" stroke="#231F20" stroke-width="0.5" stroke-miterlimit="10"/>
<path d="M19.386 2.53597C18.4116 2.71348 17.9308 3.55035 17.8169 3.74054C17.3487 4.55205 17.1842 5.84538 18.0067 6.78369C18.6394 7.50643 19.7023 7.84879 20.5881 7.51911C21.9927 7.01192 22.5115 4.99584 21.7903 3.74054C21.36 2.99244 20.3983 2.35845 19.3986 2.53597H19.386Z" stroke="#231F20" stroke-width="0.5" stroke-miterlimit="10"/>
<path d="M22.36 152.043C22.0437 152.144 20.9174 152.499 20.6391 153.425C20.2721 154.592 21.3856 156.113 22.7776 156.468C23.676 156.696 25.03 156.506 25.6754 155.428C26.2068 154.554 26.0803 153.4 25.4729 152.664C24.4606 151.422 22.651 151.954 22.3727 152.043H22.36Z" stroke="#231F20" stroke-width="0.5" stroke-miterlimit="10"/>
<path d="M42.5049 153.286C41.8089 153.362 41.2395 153.412 40.8472 153.844C40.1512 154.592 40.5308 155.923 40.708 156.544C40.8852 157.14 40.999 157.546 41.404 157.863C42.391 158.624 43.9221 157.85 44.0234 157.8C44.2764 157.673 44.6814 157.445 44.9851 156.975C45.4659 156.227 45.3014 155.416 45.2635 155.175C45.2128 154.921 45.0357 153.996 44.2258 153.514C43.669 153.184 43.1123 153.248 42.5049 153.311V153.286Z" stroke="#231F20" stroke-width="0.5" stroke-miterlimit="10"/>
<path d="M48.5786 153.146C48.2623 153.07 47.174 152.804 46.4401 153.488C45.5417 154.325 45.9972 155.771 46.0225 155.834C46.2883 156.62 46.9716 157.318 47.8827 157.495C48.8444 157.673 50.0085 157.267 50.4388 156.316C50.831 155.441 50.4008 154.566 50.2996 154.376C49.7934 153.425 48.8191 153.197 48.5786 153.133V153.146Z" stroke="#231F20" stroke-width="0.5" stroke-miterlimit="10"/>
</g>
<defs>
<clipPath id="clip0_88_2">
<rect width="190" height="164" fill="white"/>
</clipPath>
</defs>
</svg>
