<svg width="198" height="144" viewBox="0 0 198 144" fill="none" xmlns="http://www.w3.org/2000/svg">
<g clip-path="url(#clip0_170_1815)">
<path d="M20.8099 72.56C20.7099 72.09 20.7099 71.16 20.7099 70.45C20.7099 70.05 20.6099 69.02 20.5499 66.96C20.5499 66.69 20.5499 65.87 20.5499 64.23C20.5499 61.95 20.5699 61.9 20.5499 61.39C20.4999 59.88 20.4699 59.09 20.2199 58.06C19.9699 57.02 19.8099 57.06 19.6699 56.26C19.5999 55.88 19.3699 54.51 19.8899 53.15C20.4899 51.59 21.7799 50.81 23.0499 50.04C24.3399 49.26 25.3499 49.21 26.4899 48.62C27.1399 48.28 27.2899 48.21 27.6099 47.69C27.7699 47.43 28.0332 47.13 28.3999 46.79C28.4599 46.74 29.1799 46.5 29.6799 46.46C30.1499 46.43 30.1599 46.58 30.9599 46.87C31.1399 46.94 31.5599 47.07 32.1099 47.03C32.7199 46.99 33.1199 46.75 33.1999 46.7C33.4399 46.55 33.5599 46.48 33.6399 46.32C33.8999 45.75 33.1299 44.94 33.0899 44.9C32.7699 44.57 32.6699 44.66 32.4899 44.41C32.0999 43.85 32.0799 42.94 32.1999 42.57C32.3399 42.14 32.7999 41.73 33.2499 41.46C33.7999 41.14 34.4499 41.36 34.8299 41.46C35.5499 41.65 36.6399 41.61 38.8099 41.46C39.8799 41.39 42.2199 41.35 43.9399 40.61C44.5799 40.34 44.4299 40.48 47.0999 38.68C47.7399 38.25 49.1899 37.47 49.5699 37.28" stroke="black" stroke-width="0.5" stroke-miterlimit="10"/>
<path d="M33.6298 41.11C33.6998 40.56 33.8498 39.22 34.2298 38.33C35.0798 36.33 36.4898 35.26 36.8498 35C37.1298 34.8 38.2798 33.99 40.0098 33.64C40.4298 33.56 41.8498 33.3 43.6098 33.69C45.2598 34.06 46.3998 34.82 46.9898 35.22C47.6198 35.64 48.2898 36.09 48.8998 36.69C49.1298 36.92 49.3798 37.2 49.8298 37.51C50.1898 37.76 50.3098 37.78 50.5398 38C50.8998 38.36 51.0598 38.75 51.1398 38.98C51.2698 39.34 51.4398 39.79 51.2998 40.34C51.2698 40.48 51.1098 41.12 50.5898 41.38C50.2398 41.56 50.0598 41.38 49.1698 41.33C48.5298 41.29 48.0898 41.34 47.3198 41.44C46.5998 41.53 46.4298 41.61 46.2798 41.71C46.0298 41.89 46.0298 42.02 45.6298 42.64C45.3398 43.09 45.1098 43.37 44.8098 43.73C44.2398 44.43 44.0698 44.51 43.9398 44.55C43.5598 44.66 43.2798 44.5 43.1798 44.66C43.0798 44.81 43.2198 45.14 43.4498 45.31C43.7998 45.58 44.1198 45.31 44.6998 45.47C45.3498 45.66 45.6898 46.22 45.7398 46.29C46.0398 46.79 45.6898 47.11 45.9598 47.54C46.2098 47.95 46.5698 47.82 46.9998 48.19C47.6098 48.72 47.3698 49.39 47.7598 50.04C48.2298 50.84 49.2498 51.01 50.0198 51.16C50.8398 51.32 51.1498 51.2 52.7498 51.11C54.6698 51 56.0598 51.06 56.4898 51.08C57.7598 51.15 58.4498 51.18 59.3798 51.43C59.8698 51.56 60.1298 51.67 60.6898 51.76C60.9998 51.81 61.8298 51.91 62.8198 51.76C64.1898 51.55 64.2798 51.07 65.5998 50.72C65.8398 50.66 65.9898 50.63 68.4898 50.56C70.2098 50.51 71.0698 50.48 71.9498 50.48C73.3598 50.48 74.4599 50.5 74.8699 50.51C76.4599 50.55 78.0598 50.27 79.6398 50.46C79.7898 50.48 80.1698 50.53 80.5398 50.32C80.8098 50.17 80.9398 49.95 81.1898 49.56C81.6798 48.79 81.9298 48.4 82.0398 48.31C82.3398 48.04 82.9098 48 84.0298 47.9C84.1498 47.9 84.9498 47.83 86.0198 47.9C86.8598 47.96 87.0398 48.04 87.1898 48.17C87.5498 48.49 87.7298 49.12 87.5698 49.59C87.4698 49.87 87.3099 49.95 87.2999 50.24C87.2899 50.53 87.4398 50.57 87.4598 50.89C87.4798 51.23 87.3098 51.28 87.2398 51.74C87.1798 52.13 87.2898 52.16 87.2398 52.56C87.2198 52.73 87.1798 53.1 86.9398 53.46C86.6098 53.96 86.0798 54.12 85.9298 54.17C85.3898 54.33 85.0398 54.18 84.3998 54.09C83.4898 53.95 83.5198 54.15 81.7798 54.14C80.2698 54.14 80.3598 53.99 79.5998 54.06C78.7898 54.14 78.3898 54.33 77.0398 54.82C77.0398 54.82 75.8398 55.25 73.7698 55.91C72.9598 56.16 71.7598 56.52 70.2498 56.86C68.8398 57.14 67.7598 57.15 66.9998 57.11C66.4398 57.08 65.8498 57 65.0598 57.22C64.5998 57.35 64.4298 57.48 63.7798 57.68C63.1998 57.86 62.7398 57.93 62.2798 58.01C60.9398 58.22 60.2698 58.33 59.4398 58.42C57.3198 58.66 57.5698 59.03 55.0498 59.46C52.9398 59.82 51.9598 59.74 51.0698 59.57C50.6898 59.5 49.9498 59.27 49.7098 59.54C49.5598 59.7 49.7098 59.95 49.7098 60.39C49.7098 60.88 49.4898 61.22 49.0598 61.89C48.4498 62.83 47.8298 63.45 47.7198 63.55C46.4098 64.87 46.1098 64.68 45.3998 65.54C44.9798 66.05 44.6998 66.73 44.1498 68.08C43.6298 69.35 43.3598 70 43.1698 70.97C42.9298 72.2 43.0898 72.51 42.7298 73.67C42.5098 74.4 42.2398 74.95 42.0198 75.39C41.5598 76.32 41.2898 76.87 40.7698 77.52C40.3298 78.06 40.0598 78.23 39.9498 78.72C39.8198 79.3 40.0198 79.8 40.0898 79.95C40.3198 80.48 40.6998 80.78 41.1298 81.1C42.1098 81.82 42.5998 82.18 43.1998 82.52C43.7998 82.85 44.6298 83.56 46.2798 84.97C49.6098 87.82 49.7498 88.56 51.1098 89.42C51.3398 89.57 51.8198 89.84 52.1698 90.4C52.5398 90.98 52.4198 91.28 52.7398 91.93C52.9898 92.42 53.2198 92.58 53.9898 93.35C54.5198 93.88 55.0098 94.44 55.5198 94.99C57.1298 96.71 56.8698 96.98 58.4898 98.84C59.5698 100.07 60.1698 100.5 60.4298 101.57C60.5698 102.15 60.5298 102.58 60.4798 103.15C60.3598 104.7 60.3998 106.26 60.3198 107.81C60.1398 111.02 60.2698 110.75 60.0998 112.8C60.0298 113.72 59.9198 114.98 59.6598 116.65C59.3898 118.41 59.0698 119.74 58.8698 120.6C58.6098 121.7 58.3198 122.94 57.8098 124.55C57.4798 125.6 57.3398 125.91 57.1798 126.68C57.0898 127.11 57.0398 127.47 56.9098 129.57C56.7198 132.57 56.8598 131.16 56.7498 133.01C56.6898 133.98 56.6298 134.57 56.8598 135.36C57.0698 136.09 57.3998 136.56 57.5098 136.72C57.7598 137.07 57.9098 137.14 58.4598 137.65C59.2898 138.4 59.3798 138.6 60.4798 139.61C61.0298 140.11 61.2098 140.25 61.4898 140.37C61.9198 140.56 62.2898 140.58 62.9098 140.62C63.5098 140.65 64.0898 140.62 64.4898 140.59C65.4198 140.52 65.6498 140.4 65.9398 140.59C66.2598 140.8 66.3998 141.22 66.3998 141.54C66.3998 142 66.1298 142.31 65.9598 142.49C65.5298 142.97 64.9898 143.14 64.7098 143.23C63.7398 143.51 62.5098 143.65 60.6498 143.53C59.7298 143.47 59.0298 143.42 58.0898 143.2C57.1098 142.97 56.8898 142.79 55.9898 142.65C55.3498 142.55 54.8198 142.56 53.7498 142.57C52.1798 142.59 51.8898 142.69 50.9098 142.6C49.9598 142.51 49.4598 142.45 48.9998 142.05C48.3298 141.47 48.2298 140.61 48.2098 140.39C48.1098 139.51 48.4598 138.82 48.8398 138.1C49.4298 136.97 49.8198 136.93 50.1798 136.11C50.5498 135.27 50.4698 134.59 50.3998 133.49C50.2198 130.49 50.5498 130.95 50.3498 128.58C50.1098 125.72 49.6998 125.96 49.4998 123.34C49.3898 121.84 49.5498 122.24 49.4998 118.46C49.4698 116.01 49.3898 115.65 49.6098 114.72C49.9598 113.22 50.7998 111.47 50.8598 111.34C51.2298 110.58 51.5898 109.96 51.7298 108.94C51.8098 108.37 51.8898 107.71 51.5098 107.19C51.1998 106.78 50.8398 106.79 49.9598 106.4C49.6298 106.25 49.1298 105.94 48.1298 105.31C46.4898 104.28 46.0698 103.89 45.5098 104.06C45.1898 104.15 44.9898 104.38 44.7698 104.63C44.2798 105.2 44.1498 105.84 44.0298 106.73C43.8498 108.09 43.9398 108.3 43.8098 109.48C43.6598 110.89 43.4098 111.78 43.2898 112.15C42.9998 113.09 42.7198 113.6 42.4698 113.98C42.3298 114.18 42.0298 114.61 41.5198 115.02C41.1098 115.35 40.7098 115.66 40.4598 115.54C40.2398 115.44 40.2598 115.09 40.1898 113.88C40.0998 112.39 40.0298 112.16 39.8898 111.94C39.5498 111.42 38.9798 111.22 38.5498 111.07C37.9398 110.86 37.8198 110.99 36.4498 110.77C35.5398 110.62 35.2998 110.51 35.1698 110.44C34.5898 110.13 34.5898 109.86 34.1098 109.59C33.6598 109.35 33.3398 109.42 32.2798 109.43C31.1498 109.43 30.5898 109.43 30.1498 109.32C28.9798 109.02 29.0598 108.42 27.8298 107.98C27.1098 107.73 27.2198 107.98 25.2898 107.73C23.9398 107.56 23.3798 107.37 22.8598 107.73C22.5898 107.92 22.5098 108.14 22.2598 108.66C22.1698 108.85 21.4798 110.26 20.7298 111.28C20.4098 111.72 19.7898 112.55 18.7698 113.3C18.3798 113.59 18.0898 113.74 17.7098 114.15C17.3598 114.52 17.0598 114.98 16.7798 115.65C16.3498 116.68 16.3698 117.27 16.1498 118.35C15.9298 119.47 15.6398 120.23 15.1098 121.6C14.8698 122.22 14.4498 123.3 13.7498 124.63C13.1198 125.81 12.9998 125.8 12.1998 127.3C11.5198 128.56 11.1898 129.36 11.0498 129.67C10.8398 130.17 10.5898 130.8 10.3398 131.66C10.0798 132.56 9.92985 133.12 9.89985 133.9C9.86985 134.91 10.0798 135.67 10.2298 136.16C10.3698 136.65 10.6998 137.62 11.4298 138.67C12.0298 139.54 12.5598 140.3 13.5298 140.69C14.2498 140.98 14.8698 141.02 14.8698 141.02C15.5698 141.07 15.8498 140.89 16.2298 141.1C16.5598 141.29 16.8498 141.71 16.7998 142.16C16.7398 142.73 16.0198 143.02 15.6498 143.17C14.0798 143.82 12.4598 143.34 11.3698 143.01C10.6198 142.78 9.58985 142.48 8.52985 141.67C7.84985 141.15 6.83985 140.2 6.69985 140.06C5.99985 139.39 5.88985 139.22 5.46985 138.97C5.14985 138.78 5.00985 138.75 3.58985 138.26C2.38985 137.85 2.21985 137.77 2.03985 137.69C1.22985 137.3 0.819847 137.11 0.539847 136.71C-0.220153 135.63 0.539847 133.97 0.679847 133.68C0.989847 133 1.46985 132.52 2.42985 131.58C3.96985 130.06 4.26985 130.16 4.77985 129.4C5.02985 129.02 5.97985 128.43 6.14985 125.94C6.31985 123.46 6.08985 123.28 6.21985 121.43C6.29985 120.35 6.40985 118.2 7.45985 115.9C8.03985 114.62 8.51985 113.71 9.20985 112.77C10.0198 111.65 10.6498 111.32 11.6298 109.79C11.7698 109.57 12.1398 109.09 12.6098 108.37C12.7098 108.21 12.9998 107.77 13.2098 107.22C13.5498 106.34 13.4798 105.7 13.5098 104.79C13.5398 103.87 13.6898 103.03 13.9998 101.35C14.0598 101.05 14.2398 100.22 14.5998 98.57C14.9398 97.02 15.0198 96.71 15.1698 95.92C15.4098 94.72 15.5298 94.11 15.6098 93.47C15.6898 92.74 15.6998 91.98 15.7198 90.5C15.7398 88.87 15.7398 88.04 15.6398 87.45" stroke="black" stroke-width="0.5" stroke-miterlimit="10"/>
<path d="M56.43 2.70997C56.57 2.65997 56.95 2.49997 57.19 2.10997C57.22 2.06997 57.69 1.28997 57.24 0.689971C57.01 0.379971 56.63 0.219971 56.26 0.249971C55.75 0.289971 55.46 0.689972 55.39 0.799972C55.04 1.26997 55.04 1.90997 55.23 2.70997C55.72 4.78997 57.14 6.25997 57.14 6.25997C61.2 10.46 64.78 12.81 64.78 12.81C66.13 13.69 68.19 14.91 72.31 17.34C74.86 18.84 76.44 19.75 78.58 21.38C81.23 23.39 82.21 24.59 82.56 25.03C84.37 27.33 85.07 29.47 85.23 29.99C85.43 30.62 85.92 32.35 85.88 34.63C85.86 36.39 85.53 37.72 85.33 38.5C84.84 40.47 84.08 42.12 83.91 42.48C83.39 43.59 82.99 44.23 82.66 45.48C82.45 46.27 82.52 47.65 82.48 48.1" stroke="black" stroke-width="0.5" stroke-miterlimit="10"/>
<path d="M56.7202 2.72998C57.0002 3.70998 58.0602 5.79998 59.1602 6.95998C60.3202 8.17998 62.3102 10.12 64.9402 11.98C67.6902 13.92 67.9902 13.54 72.7902 16.23C76.0202 18.04 78.1602 19.25 80.6402 21.36C82.3902 22.84 84.0202 24.24 85.5502 26.6C86.4602 28 88.0202 30.48 88.3902 33.91C88.6002 35.87 88.2002 37.75 87.4102 41.44C86.8302 44.12 86.2202 46.29 85.7702 47.77" stroke="black" stroke-width="0.5" stroke-miterlimit="10"/>
<path d="M82.3402 54.14C82.5502 54.89 83.0002 56.67 83.5102 58.1C84.3802 60.54 84.7802 61.03 85.1702 62.71C85.4102 63.73 85.4902 64.66 85.6602 66.53C85.8202 68.3 85.8902 69.2 85.7102 70.21C85.4902 71.48 85.0302 72.38 84.6202 73.18C83.5902 75.19 82.3402 76.46 81.4302 77.38C79.9002 78.92 78.5502 79.85 77.0402 80.87C75.7102 81.77 75.5302 81.79 72.2902 83.71C69.5202 85.35 68.1102 86.19 66.5402 87.28C65.0002 88.35 63.8902 89.22 62.6902 90.17C61.0602 91.46 59.3802 92.88 57.5402 94.42C57.1802 94.73 56.3802 95.34 56.1802 95.51" stroke="black" stroke-width="0.5" stroke-miterlimit="10"/>
<path d="M85.9402 54.17C86.0202 54.95 86.4202 56.98 86.7602 58.51C87.3702 61.28 87.8702 61.91 88.2102 64.04C88.3602 64.99 88.6302 66.77 88.2802 68.99C87.8802 71.54 86.8702 73.33 86.3202 74.3C84.8402 76.88 83.0802 78.41 81.5902 79.68C79.9402 81.09 78.5002 81.95 75.6302 83.68C73.3302 85.06 73.0102 85.11 70.1002 86.81C68.1802 87.93 66.4002 88.97 64.6502 90.16C62.7502 91.45 59.7602 93.76 56.9502 96.57" stroke="black" stroke-width="0.5" stroke-miterlimit="10"/>
<path d="M55.5598 3.71997C55.4898 18.63 55.4098 35.91 55.3398 50.82" stroke="black" stroke-width="0.5" stroke-miterlimit="10"/>
<path d="M55.3398 59.41C55.4098 70.54 55.4598 83.84 55.5298 94.97" stroke="black" stroke-width="0.5" stroke-miterlimit="10"/>
<path d="M106.18 47.94C106.16 47.59 105.93 45.95 105.96 45.35C106.01 44.34 106.04 43.83 106.32 43.53C106.63 43.2 107.09 43.14 107.99 43.02C108.6 42.94 108.75 43.01 109.23 42.87C109.75 42.72 109.95 42.53 110.32 42.36C111.14 41.98 111.95 42.08 112.43 42.14C113.74 42.3 114.63 43.03 115.12 43.45C116.12 44.3 115.9 44.61 117.37 46.29C118.37 47.43 118.96 47.84 119.55 48.11C120.02 48.32 121.02 48.78 121.59 48.33C121.74 48.21 121.83 48.04 121.85 47.98C122.09 47.53 121.99 47.06 121.95 46.87C121.87 46.46 121.54 45.7 119.91 44.47C118.74 43.58 118.2 43.46 117.58 42.58C117.02 41.78 117.1 41.35 117.14 41.2C117.28 40.71 117.79 40.46 118.09 40.33C119 39.91 119.9 40.04 120.34 40.11C121.62 40.31 122.91 40.48 124.19 40.69C126.17 41.01 127.74 40.91 128.99 40.84C130.96 40.71 131.95 40.65 133.21 40.19C135.99 39.16 136.26 39.03 136.26 39.03C136.97 38.69 137.55 38.36 137.86 38.59C138.13 38.79 138.12 39.35 137.93 39.75C137.66 40.34 137.05 40.51 135.6 40.99C133.06 41.83 133.46 41.8 132.84 41.94C132.47 42.02 131.87 42.13 129.28 42.23C127.29 42.31 126.59 42.26 126.59 42.3C126.59 42.4 129.99 42.79 133.94 42.59C135.98 42.49 136.77 42.3 137.07 42.23C138.62 41.84 139.94 41.51 141.22 40.48C141.77 40.04 142.25 39.52 142.6 39.68C142.89 39.81 142.99 40.35 142.89 40.77C142.74 41.4 142.13 41.69 140.93 42.3C139.14 43.2 138.25 43.65 137.73 43.97C136.4 44.79 136.51 45.01 135.33 45.64C134.32 46.18 134.19 46.04 132.93 46.66C131.59 47.32 131.53 47.57 130.46 48.04C129.36 48.52 128.4 48.7 127.91 48.77C127.19 48.87 125.66 49.08 123.91 48.48C123.41 48.31 122.25 47.73 121.97 47.59" stroke="black" stroke-width="0.5" stroke-miterlimit="10"/>
<path d="M135.84 45.35C136.58 45.1 138.48 44.93 139.34 44.6C141.55 43.75 142.67 43.32 143.38 42.75C144.29 42.02 144.37 41.59 145.29 41.17C145.69 40.99 146.08 40.88 147.47 40.73C149.5 40.52 149.7 40.64 151.18 40.46C152.01 40.36 152.97 40.24 154.18 39.86C155.13 39.56 155.14 39.45 155.93 39.21C157.13 38.84 158.08 38.81 159.48 38.77C160.75 38.74 160.82 38.83 163.3 38.88C164.59 38.91 165.24 38.92 165.7 38.88C166.18 38.84 167.52 38.7 169.63 37.84C172.88 36.53 172.55 35.72 174.87 35.11C176.3 34.73 176.97 34.35 178.5 33.53C179.5 32.99 180.19 32.64 180.82 32.22C183.34 30.53 186.96 27.29 187.47 27.64C187.74 27.83 187.33 29.13 186.6 30.26C184.7 33.17 181.22 34.3 181.34 34.65C181.44 34.96 184.27 34.2 185.57 33.7C187.48 32.96 188.52 32.68 190.26 31.95C192.35 31.08 193.13 30.03 193.37 30.26C193.65 30.53 192.83 32.14 191.52 33.26C190.97 33.73 190.32 34.11 188.47 34.79C186.27 35.59 184.52 36.01 184.16 36.1C180.27 37.03 178.04 37.34 178.05 37.41C178.07 37.52 183.45 36.97 189.94 35.83C193.09 35.28 193.81 35.22 194.79 34.9C195.96 34.52 196.94 34.08 197.08 34.3C197.24 34.56 196.3 35.65 195.55 36.05C192.93 37.43 190.89 37.91 187.89 38.4C184.89 38.89 181.84 39.33 178.81 39.71C175.57 40.12 171.05 40.41 171.06 40.53C171.07 40.65 175.65 40.74 183.69 39.96C191.73 39.18 189.88 39.39 192.06 39.11C194.03 38.87 195.43 38.6 195.55 38.95C195.7 39.38 193.82 40.67 191.79 41.3C190.96 41.56 191.03 41.79 187.54 42.25C184.9 42.6 185.25 42.53 183.99 42.66C180.22 43.04 177.34 43.18 173.84 43.15C169.2 43.11 166.91 43.72 166.91 43.8C166.91 44.04 175.66 44.23 186 43.8C189 43.67 191.78 43.22 191.89 43.69C192 44.17 189.33 45.46 186.82 45.93C183.9 46.47 181.67 46.41 179.67 46.42C173.07 46.45 167.29 46.44 167.29 46.58C167.29 46.69 170.7 47.25 177.54 47.18C182.72 47.13 185.48 46.79 187.6 46.5C187.91 46.46 188.76 46.22 188.88 46.42C189.03 46.66 188.02 47.86 186.86 48.33C185.05 49.06 183.35 49.27 182.01 49.31C179.21 49.39 176.41 49.19 173.61 49.2C167.55 49.22 162.42 49.83 162.43 49.96C162.43 50.1 167.72 50.21 174.16 49.96C176.85 49.85 178.61 49.76 178.75 50.24C178.92 50.79 176.94 51.98 174.65 52.31C172.62 52.6 170.97 52.61 168.21 52.64C166.31 52.66 162.03 52.44 158.74 52.64" stroke="black" stroke-width="0.5" stroke-miterlimit="10"/>
<path d="M110.03 49.2C110.12 49.64 110.33 50.61 110.48 51.42C110.86 53.35 110.81 53.22 110.86 53.38C111.39 55.08 112.24 55.18 112.61 56.82C112.75 57.43 112.77 58.05 112.77 58.32C112.8 59.35 112.64 59.68 112.72 60.39C112.8 61.14 113.06 61.67 113.35 62.24C113.52 62.59 114.11 63.69 115.59 65.08C117.11 66.51 117.62 66.4 118.37 67.56C118.66 68.01 119.33 69.08 118.94 69.96C118.89 70.08 118.74 70.42 118.39 70.61C117.87 70.91 117.44 70.57 116.94 70.9C116.63 71.1 116.7 71.29 116.39 71.45C115.94 71.67 115.41 71.45 115.15 71.34C114.43 71.03 114.3 70.63 113.7 70.14C113.48 69.96 112.59 69.25 111.37 69.19C110.18 69.13 109.29 69.72 108.93 69.99C108.61 70.23 107.78 70.95 107.58 72.06C107.5 72.5 107.51 73.06 107.69 73.11C107.96 73.2 108.47 72.07 108.71 72.16C108.83 72.21 108.73 72.53 108.86 73.07C108.95 73.46 109.16 73.99 109.33 73.98C109.52 73.96 109.4 73.29 109.88 72.63C110.21 72.17 110.66 71.96 110.86 71.87C111.07 71.78 111.63 71.52 112.28 71.65C113.13 71.82 113.58 72.52 114.06 73.25C114.43 73.82 114.75 74.3 114.57 74.6C114.47 74.75 114.25 74.83 112.5 74.75C111.28 74.69 111.15 74.64 110.83 74.75C110.01 75.03 109.57 75.79 109.38 76.13C108.93 76.92 108.89 77.69 108.87 78.13C108.86 78.35 108.77 79 108.91 79.04C109.04 79.08 109.19 78.5 109.78 78.02C110.09 77.77 110.53 77.54 110.65 77.66C110.76 77.76 110.52 77.99 110.47 78.53C110.42 79.06 110.58 79.62 110.58 79.62C110.73 79.4 110.95 79.1 111.27 78.78C111.59 78.46 111.8 78.25 112.14 78.09C112.45 77.94 112.8 77.92 113.49 77.87C114.03 77.83 114.3 77.81 114.65 77.87C115.06 77.94 115.41 77.98 115.74 78.23C116.21 78.58 116.35 79.08 116.43 79.36C116.48 79.53 116.63 80.1 116.43 80.74C116.39 80.87 116.34 81.03 116.21 81.21C116.01 81.49 115.75 81.63 115.52 81.76C115.04 82.01 114.8 82 114.79 82.09C114.79 82.25 115.5 82.55 116.21 82.42C116.81 82.31 117.19 81.92 117.34 81.77C117.83 81.26 117.95 80.68 117.99 80.46C118.17 79.55 117.76 79.32 117.95 78.42C118 78.2 118.12 77.66 118.57 77.18C118.65 77.09 119.2 76.53 119.99 76.45C120.75 76.37 120.96 76.82 122.03 77.21C123.7 77.83 124.65 77.3 125.12 78.01C125.22 78.16 125.23 78.27 125.27 79.28C125.33 81.15 125.3 81.42 125.34 81.86C125.45 82.88 125.83 83.6 126.29 84.44C126.43 84.7 127.32 86.31 128.84 87.46C129.36 87.85 129.81 88.08 130.29 88.33C130.82 88.6 131.08 88.74 131.16 88.66C131.35 88.48 130.44 87.53 129.78 86.04C129.1 84.53 128.94 83.03 129.09 82.99C129.26 82.93 129.79 84.77 131.16 87.1C131.79 88.18 132.38 89.2 133.41 90.3C134.72 91.69 136.46 92.93 136.76 92.66C136.83 92.59 136.83 92.42 135.96 90.77C135.05 89.02 134.63 88.4 134.11 87.32C133.47 85.99 133.06 84.77 133.13 84.74C133.26 84.68 135.26 88.79 137.89 92.85C138.36 93.58 139.35 95.08 141.2 96.23C141.74 96.57 142.47 97.18 142.69 96.99C143.02 96.72 142 95 141.45 94.08C140.09 91.78 139.3 91.13 137.89 88.95C136.79 87.27 135.85 85.49 135.96 85.42C136.09 85.34 137.87 87.67 139.38 89.93C140.83 92.1 141.25 93.02 142.62 94.37C143.66 95.4 145.24 96.67 145.6 96.37C145.87 96.15 145.4 95.16 144.87 94.04C144.29 92.81 143.74 91.94 143.12 90.99C141.74 88.84 141.05 87.77 140.72 87.28C139.21 85.06 139.23 85.24 138.28 83.83C136.86 81.69 135.83 80.15 135.01 77.87C134.6 76.73 134.4 75.77 133.99 73.87C133.42 71.18 133.55 70.71 133.7 70.38C134.3 69.08 135.94 68.67 137.66 68.23C138.07 68.13 139.4 67.81 142.64 67.83C144.57 67.84 145.25 68.2 147 68.05C148.17 67.95 149.11 67.72 149.73 67.54" stroke="black" stroke-width="0.5" stroke-miterlimit="10"/>
<path d="M151.2 70.14C151.79 70.08 152.71 70.04 154.02 70.1M154.02 70.1C154.02 70.1 154.07 70.1 154.11 70.1C154.38 70.11 156.38 70.16 157.82 70.61C158.69 70.88 159.97 71.78 162.55 73.59C162.82 73.78 163.58 74.33 164 75.3C164.11 75.56 164.35 76.11 164.15 76.32C163.81 76.66 162.51 75.86 162.19 75.67C161.23 75.08 160.83 74.59 160.15 74C159.57 73.5 158.69 72.83 157.46 72.29C156.62 71.92 156.03 71.81 155.06 71.2C154.66 70.95 154.23 70.27 154.02 70.1Z" stroke="black" stroke-width="0.5" stroke-miterlimit="10"/>
<path d="M142.51 77.67C143.13 77.82 144.02 78.04 145.09 78.32C146.86 78.79 147.75 79.02 148.29 79.27C149.46 79.8 150.16 80.47 151.56 81.82C152.44 82.67 153.15 83.57 154.58 85.38C154.69 85.52 155.6 86.69 156.07 88.11C156.14 88.32 156.3 88.84 156.18 89.46C156.12 89.76 156.02 90.24 155.63 90.44C155.2 90.66 154.66 90.42 154.36 90.15C154.1 89.91 154.06 89.68 153.81 89.06C153.78 88.99 153.59 88.55 153.19 87.68C152.77 86.74 152.51 86.17 152.1 85.57C151.78 85.1 151.44 84.76 150.75 84.08C149.8 83.13 148.82 82.31 148.68 82.19C147.97 81.6 147.69 81.41 147.3 80.92C146.91 80.43 146.4 78.97 146.26 78.65" stroke="black" stroke-width="0.5" stroke-miterlimit="10"/>
<path d="M165.42 83.25C165.53 83.82 165.77 85.14 165.85 86.06C165.85 86.14 165.86 86.23 165.86 86.23C165.86 86.23 165.92 87.05 165.92 87.87C165.92 90.37 165.45 92.27 165.45 92.27C164.84 94.74 163.2 97.95 161.98 97.78C161.42 97.7 160.86 96.9 160.94 96.31C161 95.9 161.37 95.67 161.49 95.55C162.41 94.53 162.96 93.57 163.62 91.9C164.28 90.21 163.93 89.72 164.87 87.05C165 86.68 165.74 86.03 165.82 85.83" stroke="black" stroke-width="0.5" stroke-miterlimit="10"/>
<path d="M173.92 52.38C174.31 52.35 174.72 52.91 174.8 53.05C175.02 53.42 174.38 54.4 173.55 54.9C172.89 55.29 172.14 55.38 171.53 55.45C171.19 55.49 170.93 55.49 170.8 55.5C168.27 55.54 167.01 55.56 166.29 55.56C164.55 55.56 164.29 55.61 163.13 55.61C161.59 55.61 159.35 55.53 156.53 55.12" stroke="black" stroke-width="0.5" stroke-miterlimit="10"/>
<path d="M170.6 55.62C170.62 56.09 170.27 56.96 170.14 57.06C169.49 57.55 168.87 57.74 168.09 57.75C167.85 57.75 167.68 57.75 167.66 57.75C165.81 57.75 163.48 57.85 161.43 57.7C160.54 57.63 159.24 57.47 157.67 56.99" stroke="black" stroke-width="0.5" stroke-miterlimit="10"/>
<path d="M167.66 57.74C167.72 57.89 167.67 59 167.54 59.22C167.4 59.46 167.17 59.69 166.69 59.77C165.48 59.95 164.94 59.89 164.94 59.89C162.3 59.73 162.31 59.81 160.73 59.6C159.55 59.45 158.05 59.16 156.37 58.62" stroke="black" stroke-width="0.5" stroke-miterlimit="10"/>
<path d="M106.18 68.71C103.97 69.14 102.35 69.97 101.38 70.56C101 70.79 99.5901 72.19 96.8001 74.98C96.5301 75.25 95.6101 76.19 95.2201 77.6C95.1001 78.02 94.9301 78.68 95.2701 79.02C95.5201 79.27 95.9801 79.27 96.3101 79.13C96.8701 78.89 97.0401 78.25 97.2401 77.71C97.6201 76.67 98.0801 76 98.8201 74.93C99.2501 74.32 99.4201 74.23 101.77 71.98C102.45 71.33 102.49 70.13 102.84 69.78" stroke="black" stroke-width="0.5" stroke-miterlimit="10"/>
<path d="M133.89 70.08C136.48 70.37 139.87 70.8 142.47 71.1" stroke="black" stroke-width="0.5" stroke-miterlimit="10"/>
<path d="M142.47 70.25L147.09 71.71L142.47 72.07V70.25Z" stroke="black" stroke-width="0.5" stroke-miterlimit="10"/>
<path d="M94.1401 63.78L96.5201 65.46C103.73 66.29 111.46 67.24 118.67 68.06" stroke="black" stroke-width="0.5" stroke-miterlimit="10"/>
<path d="M94.1401 67.34L96.5301 65.46" stroke="black" stroke-width="0.5" stroke-miterlimit="10"/>
<path d="M106.17 47.84C106.24 47.59 106.69 46.79 107.01 46.4C107.29 46.06 107.6 45.68 108.06 45.67C108.57 45.66 109.1 46.1 109.19 46.58C109.29 47.13 108.81 47.62 108.32 48.11C107.59 48.84 106.99 49.01 107.05 49.2C107.12 49.45 108.23 49.37 109.01 49.31C109.39 49.28 109.29 49.27 110.03 49.2C111.19 49.09 111.36 49.12 111.78 48.98C112.18 48.85 112.61 48.7 112.87 48.29C112.91 48.22 113.19 47.79 113.05 47.34C112.96 47.06 112.76 46.9 111.96 46.47C110.73 45.8 110.64 45.86 110.32 45.56C110.15 45.4 109.64 44.9 109.56 44.11C109.51 43.66 109.94 42.73 110.02 42.52" stroke="black" stroke-width="0.5" stroke-miterlimit="10"/>
<path d="M119.34 48C118.63 47.86 117.52 47.97 117.38 48.26C117.07 48.89 119.9 50.87 119.74 51.1C119.6 51.3 117.33 49.73 117.01 50.08C116.66 50.47 118.91 52.88 118.68 53.1C118.46 53.31 116.19 51.23 116.03 51.39C115.85 51.57 118.38 54.23 118.18 54.44C117.98 54.64 115.39 52.32 115.13 52.59C114.84 52.87 117.5 55.89 117.17 56.23C116.92 56.48 115.19 55.03 114.92 55.32C114.68 55.57 115.91 56.74 115.57 57.43C115.31 57.98 113.77 58.04 112.77 57.95" stroke="black" stroke-width="0.5" stroke-miterlimit="10"/>
<path d="M164.11 60.25C164.02 60.45 163.89 60.67 163.67 60.85C163 61.41 161.82 60.63 161.54 61.01C161.42 61.18 161.63 61.32 161.54 61.72C161.45 62.11 161.13 62.51 160.72 62.65C160.26 62.81 159.91 62.55 159.74 62.76C159.59 62.94 159.83 63.16 159.69 63.41C159.5 63.74 158.83 63.8 158.38 63.74C158.06 63.69 157.87 63.59 157.78 63.69C157.65 63.84 157.96 64.19 157.83 64.34C157.79 64.39 157.66 64.47 156.47 64.12C156.02 63.99 155.81 63.91 155.71 64.01C155.6 64.12 155.82 64.32 155.76 64.61C155.69 64.98 155.24 65.19 155.19 65.21C154.57 65.48 154.02 65.05 153.83 65.29C153.67 65.48 153.99 65.8 153.83 66.05C153.68 66.27 153.35 66.15 152.66 66.27C152.13 66.36 151.75 66.54 151.43 66.68C151.16 66.8 150.08 67.5 149.52 67.62" stroke="black" stroke-width="0.5" stroke-miterlimit="10"/>
<path d="M5.45001 131.02C5.40001 131.02 4.90001 131.06 4.65001 131.46C4.41001 131.84 4.48001 132.4 4.87001 132.77" stroke="black" stroke-width="0.5" stroke-miterlimit="10"/>
<path d="M11.3398 115.38C11.3198 115.84 11.2798 116.5 11.1898 117.27C11.0398 118.61 10.9598 119.36 10.6798 120.18C10.4598 120.83 9.99977 121.83 9.00977 122.87" stroke="black" stroke-width="0.5" stroke-miterlimit="10"/>
<path d="M53.2298 112.76C53.4298 113.14 53.6698 113.71 53.8098 114.43C53.9398 115.13 53.9098 115.64 53.8798 116.18C53.7398 119.23 54.0498 119.56 53.6598 120.98C53.5498 121.38 53.3598 121.97 53.0098 122.65" stroke="black" stroke-width="0.5" stroke-miterlimit="10"/>
<path d="M14.3501 99.82C14.7601 100.77 16.0301 102.82 17.0101 104.04C18.5901 105.99 21.2801 107.71 22.4401 108.33" stroke="black" stroke-width="0.5" stroke-miterlimit="10"/>
<path d="M15.5 94.35C15.61 95.36 16.46 98.7 17.16 100.03C19.1 103.73 22.76 104.93 23.63 105.19C25.14 105.64 26.48 105.68 27.41 105.63" stroke="black" stroke-width="0.5" stroke-miterlimit="10"/>
<path d="M17.0899 90.14C17.0799 90.88 17.1399 94.32 17.5299 95.59C17.8199 96.55 18.7399 99.6 21.5999 100.97C22.1799 101.25 23.1599 101.61 24.5099 101.62" stroke="black" stroke-width="0.5" stroke-miterlimit="10"/>
<path d="M18.1099 93.2C18.8699 94.89 19.8599 96 20.5099 96.62C22.4199 98.45 24.5199 99.09 25.5299 99.38C26.3799 99.63 29.2499 99.75 29.7699 99.82" stroke="black" stroke-width="0.5" stroke-miterlimit="10"/>
<path d="M25.9298 99.47C25.8698 99.81 25.6798 101.36 25.9598 102.15C26.3798 103.32 27.2998 103.89 27.5598 104.04C28.3798 104.53 29.1898 104.54 30.7598 104.55C31.4798 104.55 33.7598 103.93 34.9498 103.75" stroke="black" stroke-width="0.5" stroke-miterlimit="10"/>
<path d="M20.6502 77.93C20.2602 78.42 19.7602 79.15 19.3402 80.11C18.4302 82.17 18.4502 83.98 18.4702 84.76C18.5402 88.05 19.9902 90.44 20.8002 91.74C21.4802 92.83 22.1702 93.66 22.6902 94.21" stroke="black" stroke-width="0.5" stroke-miterlimit="10"/>
<path d="M22.1099 79.67C22.0199 80.79 21.9499 82.37 22.0399 84.25C22.1699 86.93 22.2599 88.88 23.1299 91.16C24.3299 94.31 26.4199 96.53 27.0599 97.2C28.9799 99.21 30.5499 99.97 30.3299 100.76C30.1099 101.54 27.3999 101.6 25.8299 101.63" stroke="black" stroke-width="0.5" stroke-miterlimit="10"/>
<path d="M26.9099 84.84C26.8299 86.2 26.8599 87.77 27.1299 89.49C27.3399 90.83 28.1599 95.87 31.9299 100.33C33.7599 102.5 35.3699 103.44 35.0599 104.62C34.7899 105.63 33.2899 106.11 32.0799 106.37" stroke="black" stroke-width="0.5" stroke-miterlimit="10"/>
<path d="M32.1401 91.24C32.3801 93.37 32.8201 95.03 33.1601 96.11C34.0801 99.03 34.9001 101.67 36.8701 104.47C37.6601 105.59 38.3201 106.31 38.1101 107.16C37.8201 108.32 36.1101 108.89 34.6901 109.2" stroke="black" stroke-width="0.5" stroke-miterlimit="10"/>
<path d="M33.77 105.84C33.77 106.51 34.67 108.83 34.99 109.2" stroke="black" stroke-width="0.5" stroke-miterlimit="10"/>
<path d="M31.5098 104.53C31.5398 104.66 31.6598 105.14 31.6898 105.27C31.7498 105.53 32.2598 106.1 32.3298 106.36" stroke="black" stroke-width="0.5" stroke-miterlimit="10"/>
<path d="M28.1401 81.85C28.8901 82.46 30.2601 83.41 32.2101 83.89C33.1001 84.11 34.3801 84.42 35.9201 84.04C38.1201 83.5 40.0001 81.13 40.4501 80.5" stroke="black" stroke-width="0.5" stroke-miterlimit="10"/>
<path d="M31.4199 85.71C32.3799 86.04 32.9599 86.51 33.3099 86.87C34.3799 87.99 34.2299 89.09 35.4199 89.92C35.5899 90.04 36.4599 90.65 36.9499 90.36C37.4999 90.03 37.0399 88.86 37.2399 87.52C37.3799 86.62 37.8599 85.38 39.4199 84.03" stroke="black" stroke-width="0.5" stroke-miterlimit="10"/>
<path d="M34.6899 92.54C35.0099 93.55 35.4599 95.08 35.9299 96.98C36.5599 99.57 36.7399 100.92 37.0199 100.91C37.5099 100.9 37.7399 96.96 37.7499 96.76C37.8699 94.55 37.7499 92.72 37.5999 91.45" stroke="black" stroke-width="0.5" stroke-miterlimit="10"/>
<path d="M43.9398 83.01C43.2598 83.79 42.0498 85.2 41.2998 86.8C40.0998 89.35 39.9298 91.57 39.7698 93.85C39.6698 95.33 39.7698 97.48 39.9898 101.7C40.0698 103.33 40.1498 104.69 40.2098 105.63" stroke="black" stroke-width="0.5" stroke-miterlimit="10"/>
<path d="M46.2899 84.96C45.5699 85.47 44.2199 86.76 43.3399 88.03C42.2799 89.57 41.7999 91.19 41.4499 93.85C41.1399 96.18 40.8999 99.55 41.2999 103.74" stroke="black" stroke-width="0.5" stroke-miterlimit="10"/>
<path d="M48.9098 87.24C48.0898 87.98 46.8398 89.11 46.0398 90.22C42.9998 94.43 42.5798 98.98 42.5498 101.35" stroke="black" stroke-width="0.5" stroke-miterlimit="10"/>
<path d="M51.1199 89.41C49.8399 90.7 47.4899 94.08 46.1099 96.55C44.1699 100.03 43.4399 103.27 43.1299 105.42" stroke="black" stroke-width="0.5" stroke-miterlimit="10"/>
<path d="M52.4298 90.94C51.4098 92.33 49.6698 95.02 48.6498 96.98C47.4598 99.26 46.6198 102.23 46.0298 104.06" stroke="black" stroke-width="0.5" stroke-miterlimit="10"/>
<path d="M49.05 41.32C48.97 43.07 49.11 44.36 49.13 44.84C49.15 45.32 49.13 45.99 49.13 46.42C49.13 46.52 49.16 46.66 49.08 46.75C48.85 47.01 48.16 46.52 47.88 46.78C47.74 46.9 47.8 47.11 47.83 47.57C47.85 47.91 47.55 48.64 47.5 49.18" stroke="black" stroke-width="0.5" stroke-miterlimit="10"/>
<path d="M51.1299 52.84C52.0799 53.55 52.8599 53.95 53.4199 54.19C53.6399 54.28 53.8999 54.38 53.9999 54.63C54.1899 55.1 53.6599 55.75 53.1599 56.34C52.8999 56.65 52.5099 57.07 51.9599 57.5" stroke="black" stroke-width="0.5" stroke-miterlimit="10"/>
<path d="M67.6299 52.62C68.5499 52.65 69.9199 52.68 71.5899 52.62C73.6599 52.54 74.7399 52.38 74.7899 52.58C74.8499 52.85 72.9199 53.56 71.4799 53.96C70.6699 54.18 69.9899 54.32 69.5199 54.4" stroke="black" stroke-width="0.5" stroke-miterlimit="10"/>
<path d="M33.5601 45.6C33.9901 45.7 35.5001 45.97 36.5501 45.67C37.7101 45.34 38.4101 44.65 38.5501 44.51C39.5901 43.45 39.6401 42.81 40.0801 42.84C40.2301 42.84 40.3001 42.84 40.8801 43.46C41.6201 44.25 41.5101 44.45 41.5701 44.7C41.7301 45.32 41.4801 45.68 41.3201 46.45C41.1901 47.06 40.8801 48.49 41.5001 49.29C41.9401 49.86 42.7801 50.33 44.6601 50.45C45.6001 50.51 47.2401 50.09 47.7701 50.07" stroke="black" stroke-width="0.5" stroke-miterlimit="10"/>
<path d="M39.96 41.42C39.96 41.7 39.98 42.7 39.99 42.97" stroke="black" stroke-width="0.5" stroke-miterlimit="10"/>
<path d="M41 61.73C41.51 61.22 42.36 60.51 43.56 59.98C45.48 59.15 47.22 59.27 48.03 59.38" stroke="black" stroke-width="0.5" stroke-miterlimit="10"/>
<path d="M24.1401 55.67C24.0701 55.85 23.8801 56.41 24.0901 57.09C24.3001 57.81 24.8101 58.19 24.9601 58.29" stroke="black" stroke-width="0.5" stroke-miterlimit="10"/>
<path d="M36.96 66.74C37.07 67.15 37.24 67.64 37.51 68.16C37.94 69 38.46 69.61 38.87 70.01" stroke="black" stroke-width="0.5" stroke-miterlimit="10"/>
<path d="M35.4902 69.2C35.5202 69.66 35.6102 70.27 35.8702 70.95C36.3802 72.25 37.2602 73.04 37.7202 73.4" stroke="black" stroke-width="0.5" stroke-miterlimit="10"/>
<path d="M41.97 49.72C41.32 50.11 39.83 51.1 38.87 51.97C37.4 53.29 36.53 54.56 34.83 57.37C32.43 61.33 32.45 61.62 30.9 64.02C29.43 66.3 28.7 67.44 27.46 68.82C25.81 70.66 25.29 70.7 22.55 73.4C20.63 75.29 19.68 76.23 18.95 77.38C17.32 79.95 16.84 82.5 16.6 83.82C16.33 85.34 15.64 86.54 15.65 87.45" stroke="black" stroke-width="0.5" stroke-miterlimit="10"/>
<path d="M30.8902 46.86C30.6002 50.44 30.4802 54.18 30.4702 56.38C30.4302 64.18 31.2102 67.79 31.7202 69.74C32.6802 73.4 33.7002 75.04 34.7702 76.23C36.2902 77.93 38.7902 78.85 39.9302 79.34" stroke="black" stroke-width="0.5" stroke-miterlimit="10"/>
<path d="M29.5799 46.49C29.5399 48.01 29.5199 52.23 29.4799 53.54C29.2799 61.76 29.1999 65.95 30.1299 69.79C31.1799 74.1 32.5299 75.82 33.4599 76.77C35.1699 78.53 38.1599 79.36 39.4099 79.77" stroke="black" stroke-width="0.5" stroke-miterlimit="10"/>
<path d="M29.2198 46.64C28.9798 47.58 28.3998 49.99 27.9098 51.75C26.2098 57.88 25.7998 58 24.9098 61.73C24.0998 65.14 24.1398 66.3 23.0598 69.42C22.5598 70.87 21.4298 72.87 21.0698 73.64" stroke="black" stroke-width="0.5" stroke-miterlimit="10"/>
<path d="M27.3902 53.57C27.2802 54.4 27.4302 56.99 27.0902 58.51C26.5202 61.04 26.0402 62.06 25.4002 64.51C25.1602 65.42 24.6602 67.36 24.3602 69.58C24.1202 71.39 23.9302 74.9 24.2502 78.08" stroke="black" stroke-width="0.5" stroke-miterlimit="10"/>
<path d="M26.2498 61.59C26.2398 62.23 26.7198 64.6 26.6498 65.87C26.4098 70.47 26.0498 71.57 26.3798 73.29C26.6098 74.52 28.5498 78.22 30.4698 80.22" stroke="black" stroke-width="0.5" stroke-miterlimit="10"/>
<path d="M28.2202 50.58C28.2402 51.57 28.6602 54.34 28.6702 56.16C28.7002 60.1 28.7102 62.07 28.6702 64.45C28.5902 68.88 28.4202 69.44 28.7202 71.32C29.2402 74.52 30.2402 76.02 30.6802 76.61C31.6802 77.96 33.9002 79.97 34.6802 80.43" stroke="black" stroke-width="0.5" stroke-miterlimit="10"/>
<path d="M20.71 72.09C20.9 72.97 21.25 74.95 22.24 76.24C23.93 78.44 26.25 79.12 28.29 79.73C31.54 80.69 34.33 80.49 36.31 80.33C37.61 80.22 39.26 79.78 39.99 79.63" stroke="black" stroke-width="0.5" stroke-miterlimit="10"/>
</g>
<defs>
<clipPath id="clip0_170_1815">
<rect width="197.32" height="143.81" fill="white"/>
</clipPath>
</defs>
</svg>
