<svg width="207" height="155" viewBox="0 0 207 155" fill="none" xmlns="http://www.w3.org/2000/svg">
<g clip-path="url(#clip0_181_774)">
<path d="M52.2753 113.287C51.7752 113.088 49.7622 112.689 48.7745 112.439C46.749 111.928 46.5489 112.227 45.2236 111.716C44.4109 111.391 43.5607 111.179 42.773 110.805C42.573 110.705 42.2479 110.556 41.8603 110.618C41.2477 110.73 40.8851 111.342 40.7725 111.529C39.8723 112.988 38.3219 113.924 37.2217 115.246C37.2217 115.246 35.1212 117.791 32.9457 120.048C31.3578 121.695 29.7824 123.329 27.3068 125.038C24.2185 127.158 22.6807 128.219 20.9427 128.393C20.1301 128.481 18.8923 128.468 18.3046 129.304C17.942 129.828 17.9795 130.464 18.0295 131.387C18.0671 132.086 18.1296 132.934 18.6672 133.832C18.9298 134.268 19.3299 134.93 20.03 135.192C20.8302 135.478 21.6679 135.129 22.9432 134.381C24.1185 133.682 25.7189 132.584 27.4943 130.938" stroke="black" stroke-width="0.5" stroke-miterlimit="10"/>
<path d="M20.0425 135.216C20.105 135.591 20.18 137.973 20.7677 138.659C21.9054 139.994 23.6058 139.944 23.8559 139.932C24.9687 139.882 25.6813 139.358 26.7691 138.572C28.607 137.237 29.6448 135.653 30.4075 134.493C31.0451 133.52 31.4827 132.659 31.7703 132.048" stroke="black" stroke-width="0.5" stroke-miterlimit="10"/>
<path d="M24.4058 139.857C24.7683 140.056 26.5313 140.967 27.4065 141.017C27.644 141.029 28.8193 141.092 30.0446 140.381C30.3447 140.206 31.1949 139.67 32.1326 138.023C32.9828 136.514 33.0078 135.666 33.583 133.844C33.9706 132.609 34.4957 130.988 35.5835 129.304C36.9588 127.183 38.4592 126.185 40.0345 125.125C40.7847 124.626 41.5099 124.227 42.3976 124.314C43.1353 124.389 43.5854 124.763 44.2105 125.225C46.3861 126.797 46.061 126.348 49.2993 128.131C50.7996 128.955 51.0997 129.454 51.8499 129.404C52.5251 129.354 52.8001 128.992 54.0379 128.131C54.238 127.994 55.2382 127.395 57.2262 126.223C59.6268 124.801 60.0144 124.639 60.502 124.501C61.7648 124.14 62.3399 124.339 63.4152 124.227C65.0156 124.065 65.9033 123.416 68.779 121.508C72.4549 119.063 74.2928 117.84 75.2305 117.429C77.3435 116.481 79.3065 116.019 81.0444 115.62C81.8696 115.42 83.445 115.084 85.4955 114.809C89.8841 114.223 90.3217 114.759 92.1346 113.998C94.2601 113.1 95.748 111.454 96.2231 110.917C97.5609 109.408 97.5609 108.672 98.8612 107.737C100.074 106.876 100.737 107.051 102.587 106.377C105.225 105.429 107.001 103.957 107.676 103.383C110.039 101.387 109.751 100.414 112.039 98.8428C113.465 97.8698 113.877 98.032 115.765 97.034C118.579 95.5372 120.391 93.716 121.129 92.9551C123.292 90.7347 124.38 88.6766 126.318 84.9718C127.193 83.2879 127.643 82.4272 127.868 81.5291C128.468 79.0592 128.093 76.527 127.781 74.4564C127.681 73.8077 127.581 73.2714 127.506 72.9096" stroke="black" stroke-width="0.5" stroke-miterlimit="10"/>
<path d="M137.158 13.4717C136.645 12.9977 135.97 12.2119 135.608 11.1142C135.27 10.0913 135.495 9.64228 135.333 8.56953C134.97 6.18702 133.232 4.45316 132.969 4.5779C132.794 4.66522 133.295 5.51344 133.157 6.93546C133.094 7.4843 132.994 8.51963 132.519 8.65685C131.957 8.83148 131.257 7.58409 129.606 5.57581C128.368 4.06647 127.756 3.31804 126.88 2.58208C126.205 2.02076 123.592 -0.162162 120.791 0.399161C119.454 0.673585 118.441 1.49686 118.516 1.75881C118.616 2.0956 120.429 1.34717 121.704 2.30766C122.242 2.70682 122.817 3.50515 122.617 4.02905C122.104 5.32633 116.853 4.47811 114.703 4.11637C109.839 3.31804 109.226 2.4324 106.613 2.84403C103.95 3.25567 102.087 4.56542 101.337 5.11427C99.924 6.12466 98.6861 7.47183 98.8862 7.74626C99.0362 7.97078 99.9615 7.37204 101.887 6.93546C102.862 6.71093 104.7 6.38661 104.8 6.66103C104.938 7.07267 101.287 8.68179 98.8862 9.74207C94.5351 11.663 93.5974 11.8003 92.2471 13.0975C90.1591 15.1058 89.4339 17.638 89.6965 17.8126C89.9465 17.9873 91.1093 15.8792 93.885 14.3699C95.3728 13.5591 97.1983 12.9977 97.4359 13.372C97.6859 13.7711 95.8855 14.8314 93.7975 17.638C92.047 19.9831 91.6094 21.5423 91.4344 22.3531C91.0968 23.9498 91.1843 25.4841 91.4344 25.534C91.697 25.5839 91.9845 23.8749 93.3474 21.5423C93.4724 21.3178 94.6352 19.3345 94.8977 19.4592C95.2353 19.6089 94.6227 23.6629 92.0846 27.0807C89.909 30.0121 88.0086 30.2241 86.8083 33.2553C86.0081 35.2885 86.0456 37.2469 86.3582 37.3342C86.6833 37.4215 87.2959 35.3384 89.3589 32.7937C90.0466 31.9455 91.0718 30.6857 91.4469 30.8852C91.9845 31.1597 91.0843 34.2656 89.9966 36.6856C89.1088 38.6564 88.7463 38.7063 88.2711 40.1284C87.2959 43.0472 87.8085 45.8289 88.0836 45.8414C88.2836 45.8538 88.3587 44.4318 89.2714 41.7624C89.684 40.5275 90.2716 38.8061 90.5467 38.856C90.8843 38.9309 91.0843 41.8747 89.909 44.6564C88.9463 46.9266 87.9586 47.0014 86.9083 49.4588C85.8831 51.8538 85.7955 54.1739 86.0956 54.2612C86.3582 54.3361 86.8833 52.6646 88.6462 50.1823C89.2464 49.3216 90.3716 47.7374 90.7342 47.912C91.1343 48.0991 90.2341 50.0825 89.9215 53.5377C89.834 54.4234 89.5089 57.8786 90.5592 58.2529C91.0843 58.44 91.672 57.7289 92.0095 57.9784C92.3846 58.2528 92.0095 59.2882 91.7345 60.2487C91.0843 62.5439 91.3594 63.1675 91.0093 64.5147C90.3967 66.8473 89.0963 66.8598 86.7333 70.0531C85.0079 72.3857 83.9826 74.7183 82.6448 77.7619C81.4445 80.4937 81.432 81.055 80.4567 82.2026C78.7563 84.2109 76.3808 85.2837 75.5431 85.6454C74.6053 86.0571 73.8427 86.2816 73.1925 86.4812C70.8044 87.1797 69.4291 87.1672 68.2788 87.3793C64.0903 88.1277 60.1018 92.2441 59.8018 95.4374C59.7518 96.0112 59.6392 98.3687 59.6392 98.3687C59.6642 98.6556 59.6642 99.0673 59.5517 99.5537C59.3517 100.34 58.9266 100.864 58.639 101.188C57.5012 102.51 56.8886 102.947 56.3634 103.545C55.6508 104.369 55.7008 104.805 54.7255 107.724C53.9879 109.932 53.6253 111.03 53.1752 111.903C52.5625 113.088 51.4623 114.697 49.2617 116.256" stroke="black" stroke-width="0.5" stroke-miterlimit="10"/>
<path d="M66.5537 87.8907C65.6285 87.5789 59.0019 85.9199 57.5015 84.9594C55.4135 83.6247 54.5883 82.4272 52.5878 80.3316C51.2 78.8846 48.9869 76.5645 46.0362 74.5312C43.7232 72.9221 41.9477 71.6997 39.3096 71.1758C35.4587 70.4149 32.2704 71.6373 30.395 72.3608C25.8063 74.1196 22.6181 77.2256 21.3053 78.5353C18.6171 81.2047 18.0045 82.1278 15.5789 83.712C15.0537 84.0488 12.4031 84.9344 9.66494 83.8991C5.27638 82.2276 4.40117 76.7765 4.21363 75.5541C4.15111 75.1674 3.77602 72.6227 4.85128 69.8411C5.20137 68.9429 5.78901 67.4586 6.85176 67.2964C7.52693 67.1966 8.07706 67.6706 8.6647 68.1072C8.6647 68.1072 10.4776 69.4544 13.3908 70.5521C16.1165 71.5749 19.5048 71.051 21.5803 69.3671C22.7556 68.419 23.4933 67.1218 23.3057 66.9222C23.1307 66.7351 22.168 67.6082 20.305 68.2818C18.7546 68.8432 17.4293 68.9554 17.3918 68.8307C17.3418 68.6436 20.2675 68.2319 22.4805 65.9243C23.4308 64.9388 24.0934 63.7538 23.8434 63.4794C23.5308 63.1426 22.2055 64.5522 20.1175 64.5646C18.367 64.5646 16.8667 63.5917 16.9292 63.2923C17.0167 62.943 19.3923 63.3921 19.4798 63.0179C19.5048 62.8931 19.2798 62.6437 17.1167 61.7455C15.0037 60.8724 13.9535 60.4358 13.3908 60.3859C11.6279 60.2237 9.02729 60.7352 8.02705 62.2944C7.8395 62.5813 7.63945 63.0179 7.11433 63.4794C6.42666 64.0781 5.7515 64.2154 5.30139 64.39C4.22613 64.7892 3.65099 65.5875 2.57573 67.1093C1.07537 69.2174 0.62526 71.2756 0.487726 72.0988C0.162648 73.945 0.350193 75.367 0.487726 76.3649C0.650266 77.5125 1.06287 80.3066 3.03834 83.1631C4.1136 84.7224 5.68898 87.0175 8.58968 87.9656C12.2781 89.188 15.7789 87.4916 17.4043 86.6932C18.9047 85.9697 20.105 85.0716 22.4055 83.3378C24.4435 81.8035 24.6686 81.4168 26.319 80.344C28.4945 78.922 30.3199 78.1362 31.1326 77.7994C32.6955 77.1632 33.9333 76.6643 35.6837 76.4397C37.1341 76.2526 39.4846 76.6767 41.7727 77.7994C43.173 78.4854 43.8232 79.0343 45.5611 81.2297C47.1865 83.3003 47.4491 83.6371 49.4996 86.5061C51.1625 88.8387 52.0002 89.9988 53.1379 90.9468C54.3132 91.9322 57.3765 93.1297 60.2272 93.7534" stroke="black" stroke-width="0.5" stroke-miterlimit="10"/>
<path d="M6.61391 63.7039C6.45137 64.1904 6.21381 65.1758 6.51389 66.311C6.62641 66.7226 6.77645 67.0719 6.92648 67.3588" stroke="black" stroke-width="0.5" stroke-miterlimit="10"/>
<path d="M63.1401 101.649C63.065 102.435 63.065 103.52 63.4151 104.73C63.5902 105.342 64.0653 106.926 65.5031 108.273C66.3033 109.009 67.0535 109.371 67.2286 109.458C68.6414 110.107 69.9417 110.069 70.5919 110.007" stroke="black" stroke-width="0.5" stroke-miterlimit="10"/>
<path d="M72.3301 89.5872C72.8927 89.6121 73.7179 89.6869 74.6932 89.8616C76.256 90.136 77.0312 90.2732 77.6064 90.7722C78.269 91.346 78.119 91.7825 78.9692 93.7659C79.7319 95.5122 79.9444 95.375 80.332 96.4852C80.9447 98.1941 80.8571 99.7034 80.7821 100.664C80.6571 102.423 80.1945 103.658 79.6944 105.017C79.2818 106.127 78.6066 107.662 77.5063 109.371" stroke="black" stroke-width="0.5" stroke-miterlimit="10"/>
<path d="M82.1449 87.6787C81.9323 88.3772 81.6948 89.3003 81.5072 90.398C81.1697 92.4187 81.2197 93.9655 81.2322 94.3896C81.3072 96.4727 81.6823 96.4103 81.8698 98.5683C81.9574 99.6411 82.1199 101.587 81.5072 103.92C81.1447 105.292 80.632 106.364 80.2319 107.1" stroke="black" stroke-width="0.5" stroke-miterlimit="10"/>
<path d="M72.4175 116.431C74.9056 115.882 76.9436 115.233 78.4189 114.709C80.957 113.786 82.2324 113.337 83.6952 112.352C84.6204 111.728 85.7707 110.73 88.0588 108.722C89.6717 107.312 89.8467 107.1 90.5094 106.726C91.9097 105.953 93.21 105.741 95.0605 105.454C96.9359 105.167 97.386 105.267 98.7864 105.092C100.137 104.918 102.05 104.531 104.338 103.545" stroke="black" stroke-width="0.5" stroke-miterlimit="10"/>
<path d="M97.7861 88.5892C97.536 89.5622 97.3109 91.0591 97.6985 92.768C98.2737 95.3875 99.9366 97.0216 100.699 97.7575C101.349 98.3812 101.975 98.8303 102.425 99.1172" stroke="black" stroke-width="0.5" stroke-miterlimit="10"/>
<path d="M101.612 85.0467C101.412 87.1548 101.712 88.8138 101.975 89.8491C102.287 91.0466 102.637 92.3189 103.7 93.5663C104.475 94.4644 105.313 94.9883 105.888 95.2877" stroke="black" stroke-width="0.5" stroke-miterlimit="10"/>
<path d="M104.7 80.8679C104.7 81.9906 104.788 83.2754 105.063 84.6725C105.3 85.8325 105.575 87.1922 106.426 88.7514C107.126 90.0113 107.976 90.9967 108.789 91.7451" stroke="black" stroke-width="0.5" stroke-miterlimit="10"/>
<path d="M107.338 78.9719C107.351 80.9428 107.726 82.4895 108.064 83.5124C108.514 84.8845 109.064 85.8824 109.514 86.6932C110.252 88.003 111.002 89.0258 111.602 89.7743" stroke="black" stroke-width="0.5" stroke-miterlimit="10"/>
<path d="M91.0596 86.5934C93.2851 85.9822 94.998 85.1589 96.1483 84.5103C98.6239 83.1257 101.512 81.5166 102.962 78.5229C103.125 78.1985 103.725 76.9013 104.688 75.1674C105.651 73.4211 105.963 73.0718 106.413 72.8098C108.001 71.8992 110.027 72.8473 110.327 72.9969C111.665 73.6331 112.365 74.6435 113.24 75.9033C114.44 77.6372 114.378 78.3482 115.515 79.9823C116.341 81.1673 117.191 82.0031 117.791 82.527" stroke="black" stroke-width="0.5" stroke-miterlimit="10"/>
<path d="M83.8701 78.5104C84.7328 77.0759 85.533 75.9158 86.1457 75.0676C87.4585 73.2589 88.1336 72.3358 89.2339 71.4377C90.2717 70.602 90.2717 70.9013 92.1471 69.629C92.6347 69.2922 94.0476 68.3192 95.698 66.8224C96.6357 65.9742 97.3859 65.1883 97.9735 64.5521" stroke="black" stroke-width="0.5" stroke-miterlimit="10"/>
<path d="M85.6084 79.1465C86.9087 77.737 88.6216 75.9907 90.6971 74.0697C93.7354 71.2506 95.3107 69.8161 97.6988 68.444C98.9741 67.708 101.312 66.5105 104.425 65.7247C107.401 64.9763 109.552 64.9887 110.239 65.0012C111.252 65.0262 112.327 65.0511 113.69 65.4503C115.366 65.9492 116.541 66.7226 117.329 67.259C118.966 68.3691 119.029 68.8431 120.417 69.8909C121.967 71.051 123.343 71.5624 124.968 72.1612C126.118 72.5853 128.481 73.3587 131.607 73.6082C133.808 73.7828 137.171 74.0572 139.521 72.8847C139.734 72.7724 140.272 72.4855 141.072 72.2485C142.472 71.8244 142.81 72.1612 144.348 71.8868C145.86 71.6123 146.01 71.2132 147.348 71.1633C148.249 71.1259 148.924 71.288 149.161 71.3504C150.199 71.6123 150.524 71.9741 151.612 72.5354C153.587 73.5333 153.85 73.0219 155.163 73.8951C155.938 74.419 155.788 74.5562 157.251 75.7038C158.088 76.3649 158.526 76.7017 159.164 76.9761C159.839 77.263 160.827 77.6871 161.889 77.3378C162.614 77.1008 163.577 76.4522 163.615 75.6164C163.615 75.5167 163.615 75.4418 163.602 75.3919C163.515 74.8306 163.09 74.3192 161.977 73.6206C161.239 73.1591 160.264 72.9346 158.826 72.5853C157.938 72.3732 155.713 70.4523 155.175 70.4398" stroke="black" stroke-width="0.5" stroke-miterlimit="10"/>
<path d="M163.627 75.6164C164.065 75.6164 165.565 74.0946 165.728 73.5458C165.803 73.2963 166.215 72.5604 165.903 71.8119C165.478 70.8015 164.29 70.4648 163.627 70.2652C162.202 69.8535 161.839 70.3525 160.539 69.9034C159.964 69.7038 159.814 69.5292 158.538 68.7184C157.501 68.0698 156.651 67.5708 156.088 67.2714" stroke="black" stroke-width="0.5" stroke-miterlimit="10"/>
<path d="M166.053 71.762C166.253 72.1238 168.041 70.5022 167.803 68.8057C167.666 67.8328 166.765 67.2839 166.253 66.997C165.165 66.3733 163.965 66.4856 163.44 66.4482C162.602 66.3983 162.564 66.3234 161.989 66.1737C161.277 65.9866 161.052 65.8993 160.264 65.4503C159.739 65.1509 159.564 64.7018 158.213 64.7268" stroke="black" stroke-width="0.5" stroke-miterlimit="10"/>
<path d="M167.641 68.2444C168.078 68.0698 169.203 66.4606 168.528 65.4503C168.016 64.6894 167.716 64.5521 166.84 63.9534C166.54 63.7538 165.465 63.3172 164.44 62.9555C163.752 62.7185 161.477 61.783 160.076 61.7705" stroke="black" stroke-width="0.5" stroke-miterlimit="10"/>
<path d="M99.0739 107.599C99.5365 109.645 100.337 113.874 100.512 115.171C101.049 119.163 100.812 120.46 100.599 121.246C100.337 122.231 99.9491 123.653 98.6863 124.689C98.2237 125.063 97.686 125.362 95.598 125.874C92.3097 126.672 90.6718 127.071 88.7839 126.959C86.8209 126.847 86.0832 126.385 84.5954 126.871C84.1578 127.009 83.1075 127.37 82.3198 128.418C82.1323 128.668 81.3821 129.666 81.5071 130.963C81.5571 131.524 81.7572 131.961 82.1448 132.597C83.045 134.094 83.8077 134.78 85.233 136.401C86.6209 137.986 86.5834 138.123 87.5086 139.033C88.8214 140.331 89.1715 140.131 89.8717 141.029C90.7719 142.189 91.447 144.011 90.7844 145.295C90.5218 145.794 89.7716 146.58 89.4466 146.48C89.209 146.418 88.7964 146.044 88.3588 144.572C88.0087 143.399 87.8712 143.1 87.7836 142.925C87.5586 142.514 87.4086 141.99 87.071 141.379" stroke="black" stroke-width="0.5" stroke-miterlimit="10"/>
<path d="M89.1341 146.243C89.5467 146.842 88.4214 147.902 87.2961 147.765C86.821 147.703 86.3709 147.653 86.0583 147.453C85.5957 147.154 85.7332 146.418 85.6082 145.545C85.5082 144.884 85.2331 143.961 84.4204 142.913" stroke="black" stroke-width="0.5" stroke-miterlimit="10"/>
<path d="M86.0583 147.466C86.3209 147.952 84.858 149.649 83.9578 149.437C83.7577 149.387 83.3201 149.462 82.4824 148.676C81.7197 147.965 81.5322 147.591 80.8445 146.867C79.9443 145.907 79.8318 146.094 79.4817 145.595C78.844 144.672 79.0941 143.823 79.0316 142.239C79.0316 142.052 78.9316 140.194 78.3064 138.335C77.9938 137.424 77.4187 135.74 75.9433 134.343C74.5055 132.984 73.7303 133.333 72.6676 131.898C72.3175 131.424 71.5798 130.402 71.6673 128.992C71.6923 128.643 71.7923 127.782 72.3925 126.996C72.9926 126.223 73.7053 125.986 74.668 125.549C76.0059 124.926 75.4932 124.975 78.0313 123.553C81.6197 121.545 82.8075 121.383 82.845 120.56C82.8825 119.811 81.9823 119.125 81.0321 118.377C80.3194 117.828 78.1939 116.643 77.6938 116.443" stroke="black" stroke-width="0.5" stroke-miterlimit="10"/>
<path d="M83.57 149.362C83.6076 149.574 83.6451 150.422 83.6451 150.834C83.6451 151.956 83.3075 152.543 83.47 152.642C83.6701 152.755 84.3327 151.956 84.6953 151.383C85.0329 150.846 85.1579 150.422 85.2079 150.223C85.283 149.911 85.308 149.038 85.308 148.838" stroke="black" stroke-width="0.5" stroke-miterlimit="10"/>
<path d="M86.6086 147.715C86.6711 148.077 86.9962 149.324 86.9211 149.973C86.8211 150.946 86.4835 151.507 86.6461 151.607C86.8586 151.744 87.6213 150.909 87.9464 150.522C88.2715 150.135 88.509 149.836 88.6591 149.362C88.8591 148.776 88.7216 147.653 88.6716 147.366" stroke="black" stroke-width="0.5" stroke-miterlimit="10"/>
<path d="M89.6215 146.48C89.659 146.78 89.7215 147.977 89.659 148.514C89.5465 149.349 89.2714 149.798 89.3839 149.873C89.534 149.961 90.1841 149.299 90.6092 148.576C90.9343 148.027 91.0844 147.541 91.1594 147.279C91.3469 146.568 91.0093 145.233 90.9718 144.821" stroke="black" stroke-width="0.5" stroke-miterlimit="10"/>
<path d="M18.042 130.888C17.5919 130.975 15.904 131.275 15.0788 131.2C13.5034 131.038 12.6157 130.377 12.3907 130.651C12.1531 130.95 12.9283 131.961 13.2784 132.348C13.941 133.096 14.6787 133.533 15.1913 133.782C16.3416 134.331 18.2296 134.144 18.8547 134.119" stroke="black" stroke-width="0.5" stroke-miterlimit="10"/>
<path d="M20.0423 136.713C19.6297 136.713 18.1043 136.9 17.3291 136.776C15.6787 136.514 14.8285 136.002 14.641 136.264C14.4034 136.601 15.5162 137.761 15.7287 137.998C16.3039 138.597 17.0291 139.37 18.2919 139.769C19.2921 140.081 21.2676 139.582 21.8427 139.483" stroke="black" stroke-width="0.5" stroke-miterlimit="10"/>
<path d="M25.031 140.131C24.5183 140.256 22.8054 141.029 21.8552 141.042C20.5549 141.054 19.8297 140.817 19.6672 141.104C19.5046 141.428 20.1798 142.152 20.7549 142.564C22.0177 143.462 23.4681 143.349 23.8557 143.312C25.281 143.175 27.9442 141.354 28.3568 141.017" stroke="black" stroke-width="0.5" stroke-miterlimit="10"/>
<path d="M106.563 41.1886C107.189 41.0514 108.114 40.8269 109.227 40.4402C110.227 40.0909 110.464 39.9288 111.065 39.7541C112.265 39.4173 113.24 39.5171 114.615 39.6918C115.741 39.829 117.329 40.1159 119.179 40.777" stroke="black" stroke-width="0.5" stroke-miterlimit="10"/>
<path d="M105.75 44.5191C106.551 44.357 107.663 44.2697 108.689 44.7936C109.764 45.3424 109.739 46.0534 110.939 46.8393C112.165 47.6376 112.802 47.3008 114.278 47.9245C115.065 48.2613 116.14 48.885 117.216 50.1698" stroke="black" stroke-width="0.5" stroke-miterlimit="10"/>
<path d="M103.975 51.255C105.375 51.1552 107.488 51.0056 110.114 50.8434C112.202 50.7187 113.327 50.6688 114.678 51.1802C115.965 51.6667 116.853 52.4525 117.403 53.0138" stroke="black" stroke-width="0.5" stroke-miterlimit="10"/>
<path d="M122.867 43.4963C123.967 45.1553 124.705 46.6522 125.18 47.7873C125.968 49.621 126.381 51.1927 126.743 52.5523C127.018 53.6001 127.218 54.4858 127.356 55.1344" stroke="black" stroke-width="0.5" stroke-miterlimit="10"/>
<path d="M122.93 55.7456C124.318 55.546 126.005 55.4213 127.906 55.546C130.069 55.6832 131.682 56.0699 132.882 56.3568C135.095 56.9057 136.746 57.5543 137.658 57.9161C138.546 58.2778 140.409 58.9514 140.959 59.2133" stroke="black" stroke-width="0.5" stroke-miterlimit="10"/>
<path d="M158.326 22.5402C159.051 21.8791 160.276 20.9186 162.014 20.2326C162.389 20.0829 163.99 19.4592 166.24 19.3469C167.703 19.2721 169.228 19.1972 170.941 19.9582C173.004 20.8687 174.117 22.4404 174.755 23.3635C175.792 24.8354 176.318 26.245 176.455 26.9685C176.655 28.0163 176.655 28.4029 176.655 28.4029C176.655 28.8645 176.593 29.0391 176.718 29.2886C176.93 29.6878 177.318 29.6129 177.743 29.9747C178.193 30.3613 178.293 30.9102 178.431 31.6087C178.543 32.1825 178.631 32.7064 178.431 33.3052C178.143 34.1534 177.468 34.59 177.13 34.802C176.042 35.513 174.892 35.4382 174.467 35.4132C173.329 35.3384 172.567 34.8769 171.529 34.2532C170.416 33.5921 169.716 33.168 169.216 32.2823C168.566 31.1472 168.653 29.9746 168.741 29.4258" stroke="black" stroke-width="0.5" stroke-miterlimit="10"/>
<path d="M176.018 35.276C177.043 36.0993 179.581 38.7063 180.081 39.2053C181.331 40.4277 181.731 41.0389 182.744 41.3882C183.607 41.6751 183.719 41.3633 184.582 41.6626C185.97 42.1366 186.745 43.2967 187.108 43.8456C187.758 44.831 187.97 45.7291 188.133 46.4277C188.321 47.2634 188.583 48.4359 188.196 49.7582C188.033 50.3195 187.945 50.2322 187.308 51.5918C186.783 52.702 186.67 53.1136 186.145 54.386C185.657 55.546 185.282 56.4691 184.782 57.3797C183.882 59.0262 183.282 59.4004 182.119 60.9846C181.444 61.9077 180.556 63.2798 179.731 65.1384" stroke="black" stroke-width="0.5" stroke-miterlimit="10"/>
<path d="M199.923 142.152C200.073 142.177 200.498 142.264 200.874 142.626C201.199 142.95 201.311 143.312 201.349 143.512C201.486 144.21 201.149 144.746 201.074 144.871" stroke="black" stroke-width="0.5" stroke-miterlimit="10"/>
<path d="M191.609 120.921C191.609 122.219 191.871 123.217 192.084 123.853C192.509 125.05 193.097 125.861 193.722 126.709C194.41 127.645 195.072 128.343 195.56 128.817" stroke="black" stroke-width="0.5" stroke-miterlimit="10"/>
<path d="M141.484 15.7046C141.109 15.5299 139.871 14.6692 139.096 14.6568C137.621 14.6318 136.883 15.4052 136.033 14.9936C135.408 14.6942 135.633 14.1952 135.008 13.7711C133.97 13.0726 133.007 14.2077 131.057 13.9083C129.806 13.7212 129.706 13.1849 128.256 13.0975C127.668 13.0601 126.568 12.9977 126.205 13.5715C125.88 14.1079 126.556 14.5819 126.543 15.8792C126.543 16.7898 126.193 16.8147 126.068 18.0621C125.98 18.8854 126.068 19.559 126.13 20.1702C126.293 21.5922 126.543 21.7294 126.406 22.2783C126.168 23.1764 125.418 23.2138 124.843 24.0496C124.28 24.8479 124.405 25.6338 124.643 28.0662C125.043 32.3197 124.818 31.5713 125.055 33.0307C125.505 35.8374 125.918 35.9496 126.143 38.2698C126.356 40.3903 126.018 40.4652 126.343 41.8747C126.556 42.8227 127.006 44.7811 128.731 46.1657C129.969 47.1511 131.282 47.3757 132.144 47.5253C133.77 47.7998 135.795 47.6501 136.583 47.463" stroke="black" stroke-width="0.5" stroke-miterlimit="10"/>
<path d="M130.369 17.1016C130.306 16.6401 131.357 16.1287 131.869 15.9416C133.282 15.4301 134.557 15.8667 135.145 16.0788C135.608 16.2409 136.67 16.6276 136.645 17.1016C136.62 17.6131 135.308 17.9249 135.083 17.9873C134.857 18.0372 134.157 18.1869 132.832 17.9873C131.832 17.8376 130.444 17.6255 130.381 17.1016H130.369Z" stroke="black" stroke-width="0.5" stroke-miterlimit="10"/>
<path d="M140.809 19.4592C139.221 19.3844 136.808 19.4342 135.07 19.4717C130.257 19.5715 125.906 20.1328 122.117 20.9062" stroke="black" stroke-width="0.5" stroke-miterlimit="10"/>
<path d="M141.097 20.4072C139.734 20.7565 136.896 21.7045 135.408 22.2658C129.832 24.3739 125.593 27.3801 122.592 30.0245" stroke="black" stroke-width="0.5" stroke-miterlimit="10"/>
<path d="M140.522 19.4467C138.659 19.3968 134.083 20.2326 131.582 20.769C125.931 21.9789 121.88 24.6608 119.579 26.482" stroke="black" stroke-width="0.5" stroke-miterlimit="10"/>
<path d="M138.346 24.5111C137.595 24.4487 136.258 24.4238 134.732 24.9851C133.907 25.2845 131.932 26.1701 130.706 28.1784C130.481 28.5402 130.194 29.114 129.619 33.5546C129.106 37.4714 129.168 38.3945 129.206 38.9309C129.343 40.5026 129.456 41.8996 130.431 43.2842C131.482 44.7811 133.895 45.6418 134.67 45.9287" stroke="black" stroke-width="0.5" stroke-miterlimit="10"/>
<path d="M139.209 26.482C138.596 27.2429 137.796 28.1285 137.383 28.59C137.046 28.9643 136.758 29.2636 136.633 29.2013C136.383 29.0641 137.283 27.6545 136.696 26.8188C136.383 26.3697 135.783 26.2949 135.608 26.2699C135.333 26.2325 134.62 26.2075 133.295 27.2928C132.657 27.8167 130.932 28.7148 130.119 30.1493" stroke="black" stroke-width="0.5" stroke-miterlimit="10"/>
<path d="M140.871 29.4632C139.671 30.4611 138.083 31.5588 137.458 32.2698C136.17 33.7418 135.92 34.3904 135.82 34.7147C135.457 35.8498 135.608 36.8852 135.758 37.5089" stroke="black" stroke-width="0.5" stroke-miterlimit="10"/>
<path d="M157.976 47.0763C157.388 46.7395 156.275 45.9162 155.325 45.2052C153.3 43.6709 152.112 42.2115 150.886 40.7146C146.348 35.1638 144.072 32.3821 143.11 31.5962C142.334 30.9726 141.297 30.1867 140.309 28.7397C139.321 27.2803 139.034 26.0579 138.609 24.3115C138.171 22.5153 138.333 22.0163 138.609 21.7918C138.859 21.5922 139.271 21.5798 139.559 21.7294C140.096 22.0039 139.959 22.7149 140.509 23.9747C140.622 24.2367 140.834 25.534 141.122 25.4716C141.447 25.4092 141.709 23.7377 141.597 22.6774C141.484 21.6047 141.247 20.9062 140.572 18.7981C140.134 17.426 139.884 17.5756 140.021 16.8771C140.171 16.1536 140.684 15.8543 141.459 15.7046C142.334 15.5299 142.897 15.7046 143.647 15.9416C145.073 16.4031 145.248 18.1245 145.698 19.2097C146.26 20.5694 146.473 21.6296 146.51 21.8667C146.723 22.9893 146.886 24.0122 146.648 25.272C146.498 26.0329 146.235 26.7065 146.51 27.5797C146.61 27.879 146.748 28.141 146.923 28.3905C147.823 29.7002 149.349 30.4237 149.786 30.6358C150.836 31.1472 151.899 31.958 154.012 33.5671C154.95 34.2781 157.038 36.1492 158.476 37.7459" stroke="black" stroke-width="0.5" stroke-miterlimit="10"/>
<path d="M123.13 13.1474C122.717 12.8481 121.642 12.1745 120.129 12.1246C119.654 12.1121 118.266 12.0747 117.066 13.0102C115.778 14.0081 115.515 15.48 115.365 16.3407C115.028 18.2492 115.591 19.8209 115.916 20.5569" stroke="black" stroke-width="0.5" stroke-miterlimit="10"/>
<path d="M122.655 15.5299C122.43 15.3304 121.58 14.6443 120.342 14.6443C120.104 14.6443 118.604 14.6817 117.816 15.8044C117.078 16.8646 117.253 18.5361 118.366 19.7461" stroke="black" stroke-width="0.5" stroke-miterlimit="10"/>
<path d="M156.763 23.5381C157.738 24.4113 159.426 25.9456 161.401 27.0308C162.964 27.8915 166.503 29.7751 171.354 29.8873C173.529 29.9372 175.38 29.6254 176.743 29.2761" stroke="black" stroke-width="0.5" stroke-miterlimit="10"/>
<path d="M139.846 51.8662C139.659 51.28 139.321 50.4318 138.684 49.5586C138.158 48.8351 137.621 48.3611 136.571 47.4505C134.845 45.9536 134.745 46.1782 134.32 45.542C133.432 44.2322 133.97 43.4464 133.02 42.6107C132.432 42.0992 131.944 42.1491 131.382 41.4506C131.119 41.1263 131.219 40.9766 131.382 40.5649C131.582 40.0909 131.819 40.0036 132.545 39.2677C132.795 39.0182 132.857 38.8061 133.232 38.5816C133.37 38.5068 133.657 38.3321 134.045 38.3072C134.433 38.2947 134.483 38.4444 134.733 38.3695C135.095 38.2698 135.108 37.9205 135.483 37.6835C135.808 37.4839 136.17 37.5213 136.433 37.5463C137.571 37.671 138.559 39.2053 138.746 39.5171C140.159 41.7749 141.134 43.6959 141.409 44.2073C141.772 44.8934 141.697 44.6688 145.098 49.5835C147.486 53.0388 147.836 53.5876 148.236 54.3485C149.286 56.3069 149.874 58.0408 150.211 59.1759" stroke="black" stroke-width="0.5" stroke-miterlimit="10"/>
<path d="M141.772 44.8435C143.81 44.7686 146.836 45.0306 147.898 45.2676C149.336 45.5794 150.674 46.0909 153.287 47.1012C154.65 47.6251 156.713 48.5357 157.451 48.8476" stroke="black" stroke-width="0.5" stroke-miterlimit="10"/>
<path d="M169.103 41.1138C168.516 40.7521 167.503 40.2406 166.165 40.1658C163.365 39.9911 161.389 41.8996 160.639 42.6107C158.501 44.6564 157.488 48.3112 157.351 49.2842" stroke="black" stroke-width="0.5" stroke-miterlimit="10"/>
<path d="M157.538 49.0721C155.9 49.7083 154.162 50.3943 153.349 50.9806C152.024 51.9161 150.661 52.9265 149.936 54.7228C149.749 55.1968 149.323 56.3069 149.273 56.5814" stroke="black" stroke-width="0.5" stroke-miterlimit="10"/>
<path d="M139.771 51.6542C139.959 53.6625 140.722 58.7269 141.822 63.0303C142.247 64.6769 142.897 66.0615 144.21 68.8182C144.51 69.4544 144.785 69.9907 145.373 70.3774C146.936 71.4252 149.324 70.3275 150.424 69.8286C155.8 67.3837 162.414 59.151 163.865 57.3048" stroke="black" stroke-width="0.5" stroke-miterlimit="10"/>
<path d="M157.801 51.9286C157.738 52.0534 157.376 52.8392 157.751 53.5627C158.013 54.0492 158.476 54.2488 158.701 54.3361C160.064 54.8724 161.614 53.9993 162.389 53.5627C162.927 53.2633 163.327 52.9515 163.577 52.7519" stroke="black" stroke-width="0.5" stroke-miterlimit="10"/>
<path d="M158.601 22.3032C158.263 22.5153 156.9 23.4883 156.263 23.8625C155.125 24.5236 155.012 24.5485 154.812 24.7731C154.175 25.4591 153.837 26.8312 154.5 27.8541C155.025 28.6898 156.013 29.0017 156.725 28.9892C157.588 28.9892 157.725 28.5027 158.588 28.4903C159.776 28.4653 160.676 29.3135 160.814 29.4383C161.876 30.4611 161.426 31.4091 162.402 32.1202C163.314 32.7688 164.365 32.4195 164.452 32.8062C164.515 33.0806 163.952 33.3052 162.727 34.353C162.114 34.8769 161.801 35.1388 161.639 35.4382C161.164 36.3114 161.639 36.7479 161.226 37.4839C160.914 38.0203 160.576 37.908 159.226 38.7937C158.351 39.3675 157.913 39.6668 157.588 40.1533C157.05 40.9641 157.075 41.8248 157.088 42.698C157.088 43.3466 157.575 45.567 158.101 46.7769" stroke="black" stroke-width="0.5" stroke-miterlimit="10"/>
<path d="M157.188 28.9144C157.25 29.8998 157.163 31.4341 157.163 31.9954C157.163 32.6565 157.263 33.3301 157.188 33.9912C157.125 34.5151 157.025 34.8769 157.238 35.1263C157.425 35.3509 157.838 35.3259 158.238 35.3135C158.776 35.301 158.938 35.1638 159.076 35.2885C159.313 35.4881 159.138 36.0868 159.076 36.3114C158.913 36.8727 158.688 36.985 158.526 37.4714C158.451 37.7209 158.463 38.7812 158.526 39.2427" stroke="black" stroke-width="0.5" stroke-miterlimit="10"/>
<path d="M168.978 31.721C168.753 31.721 167.128 31.9081 166.715 32.4195C166.328 32.8935 166.428 33.5297 166.528 34.2282C166.665 35.1014 166.865 35.1762 167.165 36.3114C167.39 37.2095 167.528 37.7583 167.353 38.3945C167.19 38.9558 166.678 39.9038 166.44 40.1284" stroke="black" stroke-width="0.5" stroke-miterlimit="10"/>
<path d="M176.63 49.4837C176.055 49.9827 175.217 50.7187 174.179 51.5669C172.504 52.9515 171.641 53.65 170.729 54.1989C169.853 54.7228 168.503 55.3963 166.64 55.8329" stroke="black" stroke-width="0.5" stroke-miterlimit="10"/>
<path d="M181.357 45.8539C181.719 46.8019 182.207 48.5357 181.807 50.569C181.544 51.9411 180.981 52.8766 180.356 53.9244C179.469 55.4088 178.956 55.7456 176.718 58.4649C174.455 61.2092 174.217 61.7705 174.08 62.2694C173.692 63.6416 173.867 64.8889 174.08 66.4482C174.317 68.207 174.642 68.5812 174.892 70.1654C175.068 71.2132 175.205 72.7475 174.98 74.7059" stroke="black" stroke-width="0.5" stroke-miterlimit="10"/>
<path d="M167.353 59.9119C168.853 59.5002 170.054 58.9763 170.904 58.5522C171.917 58.0408 172.917 57.5294 173.992 56.5564C174.905 55.7207 175.517 54.8849 175.905 54.2862" stroke="black" stroke-width="0.5" stroke-miterlimit="10"/>
<path d="M161.039 77.3004C161.439 77.5249 162.464 78.3108 163.04 78.8971C163.977 79.8576 164.227 80.7307 164.502 80.6808C164.802 80.6185 164.877 79.5707 164.715 78.6975C164.49 77.4252 163.79 76.527 163.34 76.0406" stroke="black" stroke-width="0.5" stroke-miterlimit="10"/>
<path d="M164.415 75.0177C164.965 75.3046 165.702 75.7661 166.315 76.5395C167.19 77.6497 167.29 78.6975 167.478 78.6601C167.715 78.6226 167.84 76.9262 167.203 75.2921C166.828 74.3192 166.265 73.6082 165.852 73.1716" stroke="black" stroke-width="0.5" stroke-miterlimit="10"/>
<path d="M166.815 71.525C167.353 71.8992 168.053 72.473 168.653 73.3337C169.166 74.0572 169.341 74.5936 169.504 74.5562C169.754 74.4938 169.679 73.0843 169.366 71.8743C169.041 70.5895 168.178 70.103 167.778 69.5417" stroke="black" stroke-width="0.5" stroke-miterlimit="10"/>
<path d="M168.028 67.9076C168.366 68.1321 169.229 68.8182 169.604 69.3795C170.179 70.2527 170.191 71.0136 170.391 71.0136C170.629 71.0136 170.942 69.9284 170.829 68.8681C170.666 67.3962 169.291 66.6353 168.728 66.1114" stroke="black" stroke-width="0.5" stroke-miterlimit="10"/>
<path d="M181.444 54.1989C181.619 54.6354 181.844 55.1094 182.094 55.6084C182.369 56.1323 182.644 56.6063 182.907 57.0429" stroke="black" stroke-width="0.5" stroke-miterlimit="10"/>
<path d="M179.668 57.1676C179.843 57.5044 180.069 57.9036 180.381 58.3277C180.694 58.7518 181.019 59.0886 181.306 59.3506" stroke="black" stroke-width="0.5" stroke-miterlimit="10"/>
<path d="M177.968 59.4503C178.08 59.7123 178.268 60.074 178.58 60.4358C179.056 60.9846 179.593 61.2591 179.906 61.3838" stroke="black" stroke-width="0.5" stroke-miterlimit="10"/>
<path d="M154.637 73.5832C154.75 74.182 155.112 75.9657 155.075 76.9761C155.05 77.8493 155.025 78.5478 154.762 79.2463C154.2 80.7182 153.099 80.7931 151.812 82.29C150.824 83.4251 151.249 83.6371 150.086 85.5581C149.023 87.3294 148.586 87.292 146.448 89.9988C145.172 91.6329 144.535 92.4437 143.897 93.6786C142.959 95.5247 143.272 95.8116 142.259 98.1193C141.722 99.3292 141.121 100.365 139.896 102.423C138.371 105.005 138.158 105.08 137.846 106.053C137.396 107.475 137.396 108.71 137.396 110.269C137.396 111.865 137.571 112.152 137.621 114.036C137.671 115.707 137.583 116.88 137.533 117.753C137.346 120.834 137.533 121.183 137.446 127.283C137.383 130.713 137.283 133.408 136.996 136.489C136.645 140.218 136.358 141.054 136.045 141.753C135.045 143.936 133.532 145.208 131.044 147.291C128.894 149.087 127.593 149.661 126.731 149.973C125.668 150.335 125.005 150.572 124.042 150.559C122.792 150.559 122.167 150.148 121.629 150.559C121.129 150.946 121.004 151.807 121.267 152.418C121.454 152.867 121.929 153.329 123.68 153.69C126.318 154.239 128.518 153.865 128.994 153.778C132.019 153.241 132.032 152.443 134.27 152.418C135.058 152.418 136.483 152.493 138.083 152.917C139.559 153.304 139.934 153.653 140.996 153.64C141.472 153.64 143.197 153.64 144.135 152.418C144.76 151.607 144.46 150.41 143.947 148.065C143.597 146.43 143.397 146.306 143.26 145.258C143.084 143.861 143.285 142.751 143.572 141.404C144.235 138.347 145.01 135.952 145.348 134.917C146.123 132.547 146.948 130.04 147.486 128.431C149.111 123.541 149.211 123.167 149.261 122.306C149.373 120.036 148.886 117.03 148.811 116.543C148.536 114.872 148.298 114.186 148.586 113.05C148.886 111.828 149.636 110.743 150.224 109.87C150.686 109.184 151.486 108.51 151.812 108.148" stroke="black" stroke-width="0.5" stroke-miterlimit="10"/>
<path d="M145.523 115.159C145.122 115.707 144.585 116.543 144.11 117.653C143.347 119.45 143.197 120.946 143.022 122.83C142.897 124.14 142.822 125.936 142.972 128.094" stroke="black" stroke-width="0.5" stroke-miterlimit="10"/>
<path d="M142.397 97.7825C143.397 97.9571 146.16 98.743 147.623 99.928C148.598 100.714 149.486 101.812 150.711 104.967C152.037 108.36 152.649 111.329 152.987 113.362C153.575 116.955 153.95 119.3 153.537 122.431C153.225 124.726 152.749 125.487 152.674 128.056C152.599 130.601 153.037 130.988 152.624 132.859C152.462 133.632 152.187 134.493 152.574 134.805C152.9 135.067 153.575 134.892 153.987 134.53C154.15 134.393 154.525 133.994 154.537 132.347C154.537 130.651 154.15 130.289 154.312 128.942C154.4 128.231 154.487 127.57 155 127.133C155.413 126.772 155.788 126.822 157 126.634C157.451 126.56 158.676 126.36 159.814 125.948C160.926 125.549 161.602 125.312 162.127 124.639C162.664 123.965 163.114 122.793 162.714 121.832C162.127 120.422 160.039 120.26 160.126 119.786C160.164 119.549 160.739 119.499 162.627 119.2C164.577 118.888 165.115 118.739 165.54 118.614C166.89 118.19 167.616 117.965 167.903 117.341C168.341 116.393 167.265 115.595 167.716 114.572C168.003 113.911 168.803 113.462 169.516 113.437C170.479 113.4 170.854 114.173 172.992 116.094C174.867 117.766 175.167 117.703 175.93 118.751C176.368 119.35 176.218 119.3 177.368 121.134C178.256 122.543 178.393 122.668 178.531 123.179C178.781 124.152 178.431 124.439 178.593 125.836C178.618 126.073 178.831 127.77 179.281 127.807C179.618 127.832 180.069 126.909 180.169 126.036C180.294 124.963 179.806 124.751 179.831 123.653C179.831 123.117 179.956 123.067 180.719 120.996C181.356 119.262 181.394 118.963 181.744 118.813C182.557 118.477 183.757 119.612 184.27 120.111C185.97 121.757 186.62 123.553 187.133 124.801C187.658 126.086 186.983 124.252 190.684 131.674C195.172 140.705 193.397 137.861 194.159 139.158C194.66 140.006 195.435 141.254 195.46 142.963C195.472 144.023 195.185 144.984 194.985 145.682C194.847 146.131 194.497 147.216 193.759 148.476C193.147 149.511 192.834 150.035 192.197 150.447C191.784 150.721 191.659 150.659 190.008 151.133C188.058 151.694 187.695 151.919 187.483 152.293C187.258 152.68 187.195 153.241 187.42 153.653C187.545 153.877 187.82 154.214 189.196 154.464C190.083 154.626 191.221 154.825 192.747 154.526C193.197 154.439 194.272 154.189 195.472 153.503C197.198 152.518 198.811 150.859 198.948 150.709C199.511 150.123 199.761 149.786 200.311 149.624C201.049 149.399 201.399 149.773 202.624 149.823C203.249 149.848 204.049 149.886 204.875 149.487C205.137 149.362 206.187 148.85 206.575 147.653C206.95 146.505 206.475 145.507 206.3 145.208C205.937 144.547 205.425 144.223 205 143.911C205 143.911 203.924 143.125 201.999 140.78C200.899 139.445 200.474 138.248 199.686 136.015C198.998 134.106 198.711 132.647 198.185 130.027C197.548 126.847 197.698 126.659 197.16 124.726C196.573 122.593 196.222 121.333 195.247 119.899C194.435 118.689 193.359 117.616 192.447 116.705C191.171 115.433 191.146 115.608 190.671 115.009C189.808 113.911 189.496 112.639 188.896 110.107C188.458 108.248 188.121 106.838 188.208 105.479C188.221 105.279 188.271 104.793 188.208 104.119C188.171 103.645 188.083 103.096 187.795 102.148C187.47 101.026 187.258 100.701 187.045 100.04C186.658 98.8677 186.783 98.3188 186.633 96.9093C186.395 94.6266 185.745 92.7929 185.332 91.6703C184.77 90.111 184.445 89.6994 184.245 88.4021C184.082 87.4042 184.157 86.8429 184.182 85.7452C184.22 83.8118 184.27 81.7037 183.707 79.4833C183.532 78.7723 183.119 77.2256 182.069 75.5416C180.856 73.5957 180.244 72.6102 179.618 72.1362C179.431 71.999 178.818 71.5624 178.668 70.839C178.593 70.5022 178.643 70.2277 178.668 70.0905C178.831 69.2423 179.281 67.2964 179.931 64.7517" stroke="black" stroke-width="0.5" stroke-miterlimit="10"/>
<path d="M164.802 79.1465C165.815 79.1216 168.266 78.71 169.991 78.1985C172.492 77.4501 174.18 76.29 175.267 75.5167C176.243 74.8306 177.88 73.3088 179.218 71.8119" stroke="black" stroke-width="0.5" stroke-miterlimit="10"/>
<path d="M156.35 78.9719C157.038 79.6829 158.413 80.9303 160.539 81.6538C162.464 82.3024 164.052 82.2151 164.902 82.1527C168.903 81.8783 171.791 79.6954 172.992 78.6601" stroke="black" stroke-width="0.5" stroke-miterlimit="10"/>
<path d="M161.577 84.4105C162.489 84.9968 163.04 85.6205 163.39 86.0945C163.877 86.7431 163.99 87.1548 164.44 87.2795C165.09 87.4541 165.803 86.8055 166.215 86.4188C167.078 85.6205 167.191 85.0342 167.766 84.2359C168.628 83.0384 169.729 82.4646 170.579 82.0155C172.367 81.08 173.242 81.3669 174.442 80.2941C174.967 79.8201 175.292 79.3212 175.493 78.9844" stroke="black" stroke-width="0.5" stroke-miterlimit="10"/>
<path d="M152.725 127.046C153.975 126.185 156.138 125.649 156.901 125.325C158.163 124.788 159.389 124.439 160.126 123.329C160.426 122.867 160.451 122.58 160.439 122.418C160.439 122.219 160.364 121.832 159.214 120.697C158.514 119.998 158.338 119.936 158.263 119.612C158.126 119.038 158.476 118.327 158.989 118.065C159.351 117.89 159.639 118.003 160.176 118.065C160.727 118.127 161.452 118.003 162.902 117.753C164.74 117.429 165.115 117.192 165.353 116.98C165.64 116.73 166.053 116.381 166.04 115.932C166.015 115.458 165.515 115.246 164.315 114.023C163.865 113.562 163.74 113.4 163.765 113.213C163.84 112.801 164.602 112.601 165.265 112.439C166.165 112.215 166.728 112.227 167.353 112.165C167.753 112.127 169.054 112.003 170.129 111.479C170.354 111.366 171.979 110.568 172.679 108.897C173.505 106.888 172.079 105.841 172.954 104.044C173.655 102.597 175.193 101.999 175.643 101.824C176.705 101.412 176.993 101.687 180.056 101.412C182.257 101.213 182.832 101.013 183.332 100.602C183.507 100.464 184.445 99.6411 184.52 98.4685C184.62 96.797 182.857 96.2981 181.019 93.2919C180.131 91.8324 179.406 90.6599 179.656 89.2504C179.819 88.3273 180.219 88.3148 181.156 86.3065C181.694 85.1589 182.082 84.3107 182.244 83.1257C182.344 82.4521 182.507 81.3295 182.107 80.0447C181.757 78.922 181.056 78.0987 179.656 76.4647C179.081 75.7911 178.581 75.2672 178.243 74.9179" stroke="black" stroke-width="0.5" stroke-miterlimit="10"/>
<path d="M144.297 96.2981C145.698 96.7097 146.685 97.3085 147.298 97.7451C148.923 98.9051 149.811 100.315 150.611 101.599C151.187 102.51 151.587 103.308 151.837 103.87" stroke="black" stroke-width="0.5" stroke-miterlimit="10"/>
<path d="M146.436 95.0757C147.423 95.3127 148.999 95.8241 150.574 97.0216C151.587 97.7825 153.075 99.192 154.025 101.425C154.725 103.059 154.863 104.518 154.888 105.416" stroke="black" stroke-width="0.5" stroke-miterlimit="10"/>
<path d="M148.711 90.3481C150.024 90.9718 152.199 92.2191 154.075 94.5642C156.275 97.3085 156.913 100.103 157.163 101.275C157.351 102.148 157.438 102.884 157.476 103.408" stroke="black" stroke-width="0.5" stroke-miterlimit="10"/>
<path d="M153.662 83.1382C154.775 85.0841 155.6 86.8803 156.213 88.4021C156.563 89.2753 157.388 91.4208 158.076 94.3023C158.426 95.7617 158.651 97.034 158.801 98.0195" stroke="black" stroke-width="0.5" stroke-miterlimit="10"/>
<path d="M178.268 78.473C178.793 79.2214 179.543 80.5436 179.718 82.2775C179.781 82.8887 179.856 84.3232 178.58 87.5789C178.268 88.3772 177.743 89.6121 175.892 92.8803C173.692 96.7721 173.104 97.3958 172.392 99.3168C171.691 101.213 171.704 102.872 171.591 103.945" stroke="black" stroke-width="0.5" stroke-miterlimit="10"/>
<path d="M183.857 96.822C183.544 97.1962 182.206 98.2939 181.356 98.743C179.056 99.9405 177.33 98.6806 174.63 99.7908C173.892 100.09 172.817 100.527 172.179 101.599C171.579 102.622 171.579 103.832 171.591 105.454C171.591 107.25 171.866 107.487 171.541 108.036C171.016 108.934 169.753 109.184 167.953 109.533C166.428 109.832 165.877 109.695 165.04 110.219C164.277 110.693 163.827 111.379 163.589 111.853" stroke="black" stroke-width="0.5" stroke-miterlimit="10"/>
<path d="M179.481 101.462C180.694 102.31 182.582 103.471 183.307 103.508C184.382 103.545 185.257 103.196 186.445 103.645C186.92 103.82 187.996 104.419 188.221 104.593" stroke="black" stroke-width="0.5" stroke-miterlimit="10"/>
<path d="M164.44 94.165C164.54 95.0881 164.602 96.3729 164.39 97.8823C164.277 98.6806 164.064 100.177 163.302 101.824C162.777 102.947 162.414 103.234 160.389 105.816C158.613 108.086 157.725 109.221 157.388 109.895C156.313 112.115 156.213 114.248 156.163 115.433C156.038 118.102 156.638 118.988 156.163 121.333C155.9 122.618 155.462 123.616 155.112 124.277" stroke="black" stroke-width="0.5" stroke-miterlimit="10"/>
<path d="M167.578 90.5851C167.703 91.4208 167.803 92.6557 167.628 94.1276C167.578 94.4894 167.39 95.8615 166.49 98.0694C165.602 100.265 165.215 100.29 164.077 102.697C163.352 104.231 163.627 103.957 162.164 107.549C161.164 110.019 160.876 110.543 160.351 112.09C159.826 113.637 159.501 114.934 159.301 115.77" stroke="black" stroke-width="0.5" stroke-miterlimit="10"/>
<path d="M172.892 87.9905C172.704 88.9011 172.391 90.2358 171.841 91.795C171.691 92.2441 171.291 93.3418 169.978 96.0985C169.278 97.5579 168.653 98.7804 167.428 101.175C166.015 103.932 165.69 104.531 165.202 105.753C164.64 107.188 164.277 108.41 164.064 109.246" stroke="black" stroke-width="0.5" stroke-miterlimit="10"/>
<path d="M181.494 118.988C182.681 117.716 187.758 111.641 188.945 110.369" stroke="black" stroke-width="0.5" stroke-miterlimit="10"/>
</g>
<defs>
<clipPath id="clip0_181_774">
<rect width="207" height="155" fill="white"/>
</clipPath>
</defs>
</svg>
