<svg width="224" height="137" viewBox="0 0 224 137" fill="none" xmlns="http://www.w3.org/2000/svg">
<g clip-path="url(#clip0_104_4384)">
<path d="M52.4439 7.83747C52.5115 7.26895 52.8225 6.11837 53.2551 5.22498C53.9717 3.72246 54.9992 2.85614 55.54 2.42298C56.2295 1.85446 57.9601 0.500843 60.5559 0.351944C62.2865 0.257191 63.5168 0.785103 65.1257 1.46191C65.3691 1.5702 68.2624 2.802 69.3304 4.26391C69.6955 4.76475 70.074 5.23852 70.4391 5.73936C70.6689 6.06423 70.7906 6.2402 71.034 6.48385C71.4531 6.88993 71.6153 6.8764 71.9128 7.22834C72.3049 7.67503 72.413 8.16234 72.4265 8.25709C72.5347 8.7444 72.4265 9.13695 72.3589 9.43474C72.2373 9.88144 72.075 10.4906 71.5477 10.9102C70.696 11.5735 69.5197 11.2351 69.4116 11.208C68.7491 11.0049 68.7085 10.6801 68.0055 10.5447C67.8297 10.5041 67.1943 10.3823 66.5994 10.6936C66.0992 10.9508 66.1262 11.2621 65.4232 12.1691C64.8012 12.9542 64.4768 13.3738 63.9495 13.4956C63.2329 13.658 62.7191 13.1707 62.4758 13.4279C62.2054 13.7257 62.6651 14.565 62.6921 14.6056C63.0031 15.147 63.4898 15.499 63.8007 15.7155C64.2469 16.0404 64.4227 16.054 64.5444 16.3111C64.6931 16.6225 64.639 17.0421 64.4768 17.3399C64.2199 17.7866 63.8413 17.7324 63.6655 18.1521C63.5709 18.3957 63.5574 18.7612 63.7331 18.9642C63.9765 19.235 64.3821 19.0725 65.1392 19.1131C65.8423 19.1402 66.2073 19.1537 66.3966 19.3297C66.5859 19.5192 66.5453 19.7087 66.6129 20.8864C66.6805 22.037 66.7211 22.0099 66.6805 22.3618C66.6129 22.9574 66.4642 23.0792 66.4642 23.6884C66.4642 24.1215 66.5318 24.1215 66.5318 24.6494C66.5318 25.218 66.5453 25.5834 66.3831 25.976C66.1127 26.6122 65.5719 26.9235 65.4232 27.0047C65.3285 27.0589 64.3145 27.6139 63.5033 27.1536C63.3546 27.0724 63.1788 26.9235 62.6921 26.0437C62.273 25.2721 62.0296 24.6765 61.8809 24.3516C61.8809 24.3516 61.3942 23.2146 60.7723 22.1317C59.8123 20.4668 59.4743 20.5344 59.2175 19.6275C58.92 18.5311 59.1904 17.5565 59.2851 17.191C59.569 16.1622 59.934 16.081 60.5424 14.5379C61.0832 13.1572 60.9751 12.7376 60.9075 12.5481C60.7047 11.9389 60.1098 11.3704 59.4338 11.2892C59.0417 11.2486 58.7443 11.384 58.3251 11.587C57.2976 12.0743 57.1759 12.5481 56.4053 12.9948C55.878 13.3061 55.3102 13.3738 54.188 13.5091C52.863 13.6716 52.2006 13.7528 51.6057 13.4415C50.5646 12.8729 50.3077 11.6682 50.2807 11.5193C50.1049 10.5718 50.4565 9.84083 50.5782 9.59718C51.0514 8.64964 52.3898 8.27063 52.4169 7.85101" stroke="black" stroke-width="0.5" stroke-miterlimit="10"/>
<path d="M52.4443 7.83745C53.242 8.06757 55.0537 8.89328 56.3922 9.05571C57.1763 9.15047 60.4212 9.50241 64.5042 8.46012C65.8562 8.12171 68.4521 7.12003 70.4801 6.06421" stroke="black" stroke-width="0.5" stroke-miterlimit="10"/>
<path d="M59.042 9.1911C59.0149 9.59719 59.0692 10.8967 59.042 11.3028" stroke="black" stroke-width="0.5" stroke-miterlimit="10"/>
<path d="M69.3986 11.208C69.331 11.79 69.2093 12.9 69.1823 13.279C69.0336 14.8763 68.966 15.6749 68.966 15.905C68.9524 16.7984 69.02 17.1774 68.7767 17.3128C68.6144 17.394 68.2359 17.2722 67.4923 17.015C67.1137 16.8932 66.965 16.8255 66.8704 16.9067C66.7352 17.0285 66.6405 18.7476 66.3701 19.1943" stroke="black" stroke-width="0.5" stroke-miterlimit="10"/>
<path d="M54.2151 13.4956C53.9583 13.8205 52.8361 15.2959 52.4034 15.7426C52.1195 16.0404 51.4841 16.6766 50.5242 17.4076C49.3614 18.2874 48.7801 18.7341 48.1582 18.883C46.9954 19.1673 46.6439 18.6258 45.6569 19.0725C45.0485 19.3432 45.1026 19.5869 44.1833 20.1013C44.0481 20.1825 43.3856 20.548 42.4933 20.8052C41.2629 21.1571 40.8438 20.927 40.0597 21.103C39.7622 21.1706 38.951 21.4008 37.1799 23.4718C35.5034 25.4345 35.5034 26.0843 34.3812 27.3432C33.3267 28.5208 33.2861 27.9658 30.6903 29.9962C28.8515 31.4446 27.9322 32.162 26.9317 33.3126C26.3774 33.9488 26.0664 34.3955 25.3499 34.937C24.417 35.6408 23.8626 35.6815 22.7675 36.2229C21.5102 36.8591 20.726 37.563 19.8607 38.321C18.9819 39.1061 18.7656 39.4581 17.0891 41.4614C13.9389 45.2245 14.3175 44.3988 13.4387 45.6712C12.641 46.8218 11.9785 47.9994 10.5589 48.8116C9.89645 49.1906 9.42324 49.2854 9.15284 49.326C8.36868 49.4478 8.01716 49.2177 6.61108 48.9199C5.15091 48.6085 4.40731 48.4596 3.70427 48.7033C3.09587 48.9063 3.21755 49.6102 2.19002 49.6644C1.85202 49.6779 1.87906 50.6525 1.01378 50.9503C0.310738 51.194 0.378338 51.8708 0.351298 52.3175C0.324258 52.8048 0.500018 53.5087 1.01378 53.8335C1.6357 54.2261 2.19002 53.6711 3.00123 54.1313C3.14995 54.2125 3.56907 54.4426 3.62315 54.8352C3.69075 55.2277 3.33923 55.4443 3.43387 55.7151C3.55555 56.0399 4.16395 56.1347 4.58307 56.1211C5.24555 56.1076 5.54299 55.8098 6.39476 55.4173C6.8274 55.2142 7.54396 55.0653 8.3146 54.7946C9.55845 54.3344 9.77477 54.4156 10.613 54.1178C11.2755 53.8877 11.5324 53.8064 12.303 53.3598C13.1142 52.8724 13.1953 52.6694 15.0341 51.397C16.8728 50.1381 17.7921 49.5155 18.2113 49.0282C19.347 47.7422 19.036 47.1602 20.1311 45.5629C21.2803 43.8709 22.6999 42.9504 23.3354 42.5308C25.4039 41.2042 27.3238 40.9335 29.3112 40.6493C31.6908 40.3108 33.5565 40.4191 35.2465 40.541C38.8158 40.7846 39.0051 41.299 41.3981 41.2042C42.0606 41.1772 41.9525 41.1366 46.8197 40.2026C47.7526 40.0266 49.4966 39.7423 52.9713 39.1738C55.0804 38.8354 55.824 38.7136 56.8786 38.9572C57.514 39.0926 58.3523 39.4581 60.0152 40.1755C61.9892 41.0283 61.9486 41.1095 62.557 41.2448C63.936 41.5426 64.3281 41.1501 65.9911 41.3125C67.1538 41.4343 67.5189 41.678 68.6816 41.9758C69.0737 42.0706 70.0877 42.3142 73.5893 42.3819C79.2272 42.4902 79.1461 41.9352 81.1065 42.4496C82.1475 42.7338 82.9858 43.1128 84.3919 43.0452C85.5005 42.991 86.0684 42.7068 87.2716 42.3819C88.4073 42.0841 89.5565 41.9623 91.8008 41.7592C94.1804 41.5426 95.7893 41.475 98.2229 41.3531C102.982 41.123 102.319 41.1095 107.403 40.8794C114.258 40.5545 113.568 40.6628 113.825 40.6222C114.596 40.5139 115.853 40.2973 117.475 40.5545C118.489 40.7169 119.463 41.0283 119.801 41.1501C120.964 41.5291 121.275 41.7728 122.126 42.0706C122.856 42.3277 123.938 42.612 125.371 42.6661" stroke="black" stroke-width="0.5" stroke-miterlimit="10"/>
<path d="M66.7754 20.4261C67.1404 20.372 68.2491 20.2502 68.8169 20.2366C69.0738 20.2366 69.858 20.2366 70.9531 20.3855C72.0752 20.548 72.9541 20.6833 73.9816 21.1571C74.7252 21.509 75.266 21.9151 75.8203 22.3347C76.4287 22.795 76.6585 23.0386 77.4427 23.6613C78.0646 24.1486 78.2945 24.5005 78.8488 24.69C79.0651 24.7713 79.3355 24.7983 79.8493 24.8796C80.5794 24.9743 80.9309 24.9743 81.4311 25.0285C82.337 25.1097 83.0265 25.2721 83.3915 25.3669C84.0134 25.5158 84.4866 25.6782 85.4195 25.9895C86.0144 26.1926 86.1766 26.3415 86.5687 26.3956C87.1366 26.4633 87.3935 26.2738 88.083 26.1384C88.3669 26.0843 88.4345 26.0978 90.0028 26.0707C91.9497 26.0437 91.8551 26.0166 92.2472 26.0301C93.1124 26.0572 93.3828 26.1249 94.4239 26.2196C94.9647 26.2738 95.8164 26.3009 97.4794 26.3685C100.21 26.4768 100.508 26.4633 101.346 26.5851C102.32 26.734 102.238 26.8152 103.415 26.9912C104.118 27.0995 105.091 27.2484 106.362 27.289C107.687 27.3296 107.782 27.1942 108.39 27.3567C108.958 27.5056 109.391 27.7763 110.269 28.3178C111.026 28.778 110.999 28.8321 111.784 29.3194C112.243 29.6037 112.27 29.5902 113.595 30.3482C114.542 30.8896 114.799 31.0521 115.069 31.3769C115.448 31.8372 115.38 32.0267 115.664 32.4463C116.11 33.1231 116.813 33.3668 118.206 33.8541C118.49 33.9488 119.477 34.2737 120.937 34.5173C121.991 34.6933 122.519 34.7745 123.113 34.7339C123.749 34.6933 124.56 34.5173 126.696 33.2179C127.616 32.6493 128.873 32.0131 130.076 30.822" stroke="black" stroke-width="0.5" stroke-miterlimit="10"/>
<path d="M129.981 30.9573C130.184 30.7407 131.131 29.4413 131.671 28.6291C131.969 28.1824 132.307 27.844 132.712 27.5597C133.645 26.91 134.213 27.7492 134.673 27.4514C134.741 27.3973 135.106 27.1672 135.146 26.7882C135.214 26.3009 134.727 26.0437 134.375 25.421C133.997 24.7442 134.024 24.0674 134.037 23.5395C134.078 22.416 134.578 21.6173 135.065 20.8458C135.89 19.5598 136.228 19.7493 136.877 18.5581C137.336 17.7054 137.255 17.4211 137.837 16.5277C138.148 16.0404 138.486 15.5396 139.094 15.1199C139.986 14.5108 141.095 14.3484 141.19 14.565C141.257 14.7003 140.919 14.8763 140.338 15.5937C140.027 15.9863 139.716 16.3788 139.486 16.9609C139.351 17.2857 139.148 17.8137 139.229 18.4769C139.27 18.8018 139.324 18.7612 139.418 19.2214C139.473 19.4921 139.594 20.1148 139.459 20.8052C139.351 21.4007 139.175 21.3466 139.013 21.9828C138.932 22.3077 138.688 23.2552 139.08 23.6072C139.337 23.8373 139.702 23.6884 140.446 23.5665C140.743 23.5259 142.149 23.3229 143.474 23.6342C143.826 23.7154 144.651 23.932 145.462 24.5547C146.435 25.3127 146.395 25.9083 147.044 26.0707C147.449 26.1655 148.085 25.8 149.329 25.0691C150.924 24.1215 151.262 23.729 151.424 23.5124C151.87 22.9439 152.087 22.3483 152.168 22.1452C152.411 21.4684 152.317 21.3195 152.506 20.7781C152.56 20.6021 152.952 19.4515 154.02 18.7883C154.899 18.2333 156.035 18.125 156.156 18.3822C156.197 18.4499 156.156 18.5446 155.494 19.3839C154.872 20.169 154.818 20.2231 154.723 20.4126C154.588 20.6563 154.493 20.9541 154.385 21.9287C154.263 23.0792 154.345 23.3229 154.277 23.7696C154.115 24.9066 153.304 25.6647 152.763 26.1655C151.019 27.8169 148.882 27.9117 148.923 28.5614C148.923 28.6426 149.085 28.8051 149.396 29.157C149.856 29.6578 150.086 29.9015 150.397 30.0775C150.694 30.2399 150.978 30.294 151.83 30.294C152.722 30.294 153.222 30.2534 154.047 30.2264C155.683 30.1451 156.035 30.2264 156.413 30.3753C156.697 30.4971 157.224 30.7272 157.481 31.2551C157.765 31.8372 157.576 32.4598 157.441 32.9201C157.238 33.5833 156.913 34.0436 156.67 34.3549C155.21 36.25 154.169 36.4666 154.196 37.2381C154.196 37.6171 154.453 37.6036 155.48 38.7948C156.156 39.5663 156.048 39.5663 157.251 41.0418C158.022 42.0029 158.292 42.2736 158.617 42.5578C159.185 43.0587 159.482 43.3159 159.982 43.5189C160.51 43.7355 160.767 43.6814 161.132 43.9927C161.226 44.0739 161.564 44.3852 161.686 44.8725C161.754 45.1433 161.686 45.2109 161.754 45.3192C162.01 45.6712 163.038 45.414 163.741 45.1297C164.525 44.8184 164.714 44.5477 165.661 43.9792C166.296 43.6001 166.851 43.2753 167.621 43.0181C168.5 42.7338 169.744 42.5037 170.798 42.4225C171.028 42.4089 171.285 42.3954 171.61 42.2736C172.353 42.0164 172.786 41.475 173.016 41.2042C173.151 41.0418 173.895 40.5139 175.382 39.431C176.234 38.8219 177.288 38.0368 178.735 37.211C180.222 36.3583 181.087 35.871 182.385 35.4784C183.818 35.0452 184.062 35.2618 185.441 34.7745C185.738 34.6662 186.117 34.5309 188.28 33.3397C191.146 31.7695 191.66 31.3769 191.673 30.8355C191.687 30.3076 191.254 30.0639 191.308 29.1705C191.322 28.9133 191.362 28.4666 191.673 28.1689C191.903 27.9658 192.147 27.9523 192.674 27.8711C193.728 27.7086 193.566 27.5868 194.188 27.5327C194.783 27.4785 195.459 27.5327 196.284 27.6003C196.662 27.6274 196.852 27.6545 196.987 27.5327C197.284 27.2484 197.149 26.4091 196.689 26.0978C196.284 25.8136 195.919 26.152 195.513 25.8406C195.283 25.6647 195.216 25.4075 195.067 24.8796C194.959 24.487 194.864 24.108 194.959 23.6613C194.972 23.5801 195.04 23.2958 195.513 22.6596C196.013 21.9828 196.5 21.5361 196.73 21.3331C197.352 20.7781 197.46 20.8322 198.014 20.3043C198.542 19.8035 198.812 19.5598 198.974 19.1943C199.258 18.5717 198.961 18.3822 199.082 17.1639C199.218 15.8915 199.61 15.4584 199.826 15.2824C199.934 15.1876 200.164 14.9981 200.38 15.0658C200.705 15.1606 200.799 15.7426 200.853 16.1352C200.935 16.7037 200.881 17.0286 200.853 17.6512C200.813 18.5717 200.921 18.4905 200.894 19.5734C200.867 20.4938 200.786 21.3466 200.786 21.3466C200.786 21.3466 200.718 22.0505 200.745 23.1605C200.745 23.4853 200.772 23.6342 200.894 23.756C201.151 23.9862 201.597 23.756 202.408 23.6072C202.449 23.6072 203.152 23.4853 203.882 23.5395C204.801 23.6071 205.504 23.9049 205.951 24.0945C206.464 24.311 206.856 24.5547 207.424 24.9066C208.29 25.4345 208.317 25.5428 208.682 25.6511C209.371 25.8406 209.993 25.6376 210.493 25.4616C210.71 25.3939 211.588 25.0691 212.454 24.2027C213.103 23.553 213.4 22.9439 213.779 22.1317C214.184 21.2925 214.725 20.169 214.806 18.6664C214.847 18.0302 214.779 17.5565 214.914 17.5159C215.131 17.4617 215.563 18.5988 215.766 19.2079C215.969 19.817 216.158 20.4126 216.172 21.2383C216.172 21.9557 216.05 22.4566 215.807 23.3364C215.563 24.2434 215.388 24.8525 214.955 25.5564C214.401 26.4498 213.725 26.9777 213.522 27.1401C212.075 28.2365 210.818 28.0335 210.723 28.6562C210.642 29.1435 211.345 29.712 211.872 29.9421C212.17 30.0775 212.386 30.091 213.022 30.1316C215.266 30.2805 215.158 30.2805 215.306 30.2805C216.51 30.2399 216.604 30.0098 217.591 30.091C218.795 30.1857 219.038 30.5648 219.106 30.6866C219.2 30.8626 219.2 31.0656 219.173 31.4582C219.146 32.2026 218.984 32.7576 218.957 32.893C218.741 33.6646 218.43 34.2195 218.294 34.4497C217.159 36.3718 215.793 36.5072 215.82 37.4005C215.82 37.563 215.874 37.6848 217.51 39.3633C218.173 40.0266 218.497 40.365 218.916 40.7711C219.903 41.7186 220.403 42.1924 220.877 42.5443C222.175 43.5054 222.648 43.4106 223.162 44.2093C223.581 44.859 223.648 45.5358 223.675 45.7659C223.729 46.3615 223.635 46.8082 223.418 47.6881C223.229 48.4596 223.148 48.8386 222.945 49.2041C222.499 50.0028 221.864 50.4224 221.282 50.7879C220.769 51.1263 220.16 51.5188 219.295 51.6677C218.646 51.7895 217.902 51.6813 216.415 51.4782C215.536 51.3564 215.442 51.3022 215.05 51.3293C214.333 51.3699 213.995 51.6 213.022 51.9926C212.629 52.155 211.507 52.6017 210.331 52.8454C209.723 52.9672 209.222 53.0078 208.235 53.0619C205.545 53.2244 204.355 53.0349 204.179 53.5086C204.085 53.7794 204.436 53.9147 204.774 54.9164C204.815 55.0382 204.842 55.1195 205.072 56.2023C205.275 57.1363 205.369 57.6101 205.41 57.8267C205.477 58.3005 205.558 58.8148 205.518 59.4917C205.477 60.3038 205.315 60.6828 205.261 60.8182C205.099 61.1837 204.977 61.4409 204.707 61.5898C204.179 61.874 203.72 61.4003 203.274 61.6981C202.976 61.9011 203.098 62.1447 202.76 62.3613C202.435 62.5644 201.976 62.5508 201.651 62.3613C201.34 62.1718 201.435 61.9823 201.178 61.8063C200.745 61.5356 200.326 61.9417 199.556 61.8063C199.501 61.8063 199.136 61.7251 198.853 61.5492C198.001 60.9942 198.136 59.3698 198.231 58.2599C198.312 57.3394 198.42 56.2023 199.15 54.9435C199.677 54.0366 200.745 52.886 201.178 52.534" stroke="black" stroke-width="0.5" stroke-miterlimit="10"/>
<path d="M198.231 60.7505C198.244 61.1701 197.825 63.2683 197.866 64.0669C197.933 65.7725 197.96 66.0026 197.933 66.4628C197.906 67.2344 197.866 68.1684 197.487 69.1565C196.865 70.7809 196.027 70.6726 195.5 72.1886C195.432 72.4052 195.432 72.4458 195.243 74.9906C195.067 77.3865 195.027 77.752 194.77 78.2799C194.689 78.4288 194.202 78.9973 193.215 80.1208C191.903 81.6369 191.795 81.7587 191.633 82.0836C191.309 82.7198 191.214 83.3289 191.011 84.5607C190.971 84.7773 190.957 84.8721 190.754 86.6994C190.551 88.4321 190.551 88.5133 190.538 88.6622C190.484 89.2307 190.389 90.1647 190.349 91.3153C190.295 92.8313 190.349 94.0225 190.389 94.4963C190.551 97.1629 191.011 99.1934 191.268 100.29C191.444 101.021 191.701 102.144 192.187 103.579C192.796 105.379 193.026 105.542 193.296 106.719C193.512 107.694 193.539 108.587 193.593 110.334C193.634 111.62 193.593 112.039 193.593 113.65C193.593 116.466 193.593 117.873 193.742 118.523C194.269 120.675 195.5 122.232 195.959 122.801C196.798 123.843 197.028 123.748 197.879 124.899C198.893 126.279 198.758 126.645 199.799 128.039C200.367 128.797 200.989 129.609 202.043 130.327C202.219 130.435 202.206 130.421 204.22 131.437C205.586 132.127 206.275 132.479 206.654 133.102C206.803 133.345 207.195 134.008 206.911 134.577C206.708 134.983 206.221 135.132 205.991 135.2C203.72 135.849 201.138 134.807 197.987 135.267C197.785 135.294 196.527 135.484 194.959 135.308C194.188 135.213 193.648 135.064 193.296 134.645C193.039 134.333 192.985 133.995 192.89 133.318C192.769 132.452 192.688 131.965 192.89 131.396C193.039 130.99 193.134 131.071 194.107 129.663C194.378 129.271 194.499 129.068 194.58 128.784C194.634 128.621 194.851 127.836 194.472 127.376C194.337 127.213 194.134 127.119 193.296 127.037C192.039 126.929 191.795 127.091 191.119 126.97C190.754 126.902 189.943 126.753 189.456 126.157C188.956 125.548 189.118 124.844 189.118 123.355C189.118 123.355 189.118 122.422 188.929 120.323C188.821 119.132 188.645 117.197 187.712 115.234C186.806 113.325 186.212 113.555 185.576 111.944C184.805 110.009 185.306 108.791 185.17 107.071C185.035 105.434 184.305 103.132 181.479 100.425" stroke="black" stroke-width="0.5" stroke-miterlimit="10"/>
<path d="M189.28 97.8127C189.226 98.3812 189.199 99.0851 189.321 99.8837C189.578 101.684 190.348 102.997 190.875 103.728" stroke="black" stroke-width="0.5" stroke-miterlimit="10"/>
<path d="M187.766 101.616C187.807 101.995 187.874 102.577 188.104 103.241C188.374 104.066 188.591 104.242 188.875 105.082C189.226 106.097 189.402 106.625 189.213 107.153C188.861 108.114 187.671 107.911 187.374 108.736C187.171 109.278 187.536 109.779 188.78 111.728C189.848 113.42 190.389 114.259 190.551 114.679C190.889 115.545 191.133 116.885 190.619 118.848" stroke="black" stroke-width="0.5" stroke-miterlimit="10"/>
<path d="M194.256 129.23C194.621 129.339 195.784 129.514 196.284 129.826C197.014 130.273 197.19 130.597 197.866 130.936C198.434 131.22 198.92 131.288 199.272 131.342C200.34 131.504 202.557 131.071 203.111 130.895" stroke="black" stroke-width="0.5" stroke-miterlimit="10"/>
<path d="M201.299 23.7155C201.299 23.9185 201.245 25.042 201.083 25.3804C200.934 25.6917 200.677 26.0031 200.056 26.4092C199.609 26.707 198.055 27.3296 197 27.5868" stroke="black" stroke-width="0.5" stroke-miterlimit="10"/>
<path d="M192.377 31.7695C192.499 32.2568 192.728 32.9742 193.229 33.7323C193.972 34.8558 194.878 35.4243 195.554 35.8304C196.663 36.5072 197.744 36.8456 198.61 37.008" stroke="black" stroke-width="0.5" stroke-miterlimit="10"/>
<path d="M202.625 33.9759C202.909 33.7729 203.531 33.4209 204.356 33.3803C205.072 33.3532 205.572 33.5834 206.194 33.8541C207.033 34.2331 208.33 34.8152 208.371 35.7356C208.398 36.25 208.02 36.6425 207.965 36.6967C207.222 37.4547 205.532 37.2923 203.761 36.3312" stroke="black" stroke-width="0.5" stroke-miterlimit="10"/>
<path d="M208.344 28.6968C208.776 29.2653 208.722 29.9963 209.155 30.5648C209.899 31.5529 211.129 32.3516 211.886 33.3126" stroke="black" stroke-width="0.5" stroke-miterlimit="10"/>
<path d="M212.616 31.3905C212.941 31.58 213.441 31.9048 213.901 32.4598C214.063 32.6493 214.55 33.272 214.82 34.2331C215.104 35.2618 214.996 36.1281 214.888 36.6019" stroke="black" stroke-width="0.5" stroke-miterlimit="10"/>
<path d="M208.344 25.6511C208.56 25.7729 209.331 26.734 209.669 27.2619C210.007 27.7763 210.683 28.4531 210.696 28.6968" stroke="black" stroke-width="0.5" stroke-miterlimit="10"/>
<path d="M222.054 43.0858C221.067 43.6001 219.241 44.3175 218.741 44.2499C218.079 44.1686 217.754 43.8979 217.227 44.0604C216.686 44.2363 216.389 44.7372 216.118 45.1703C215.848 45.617 215.726 46.0096 215.496 46.7947C215.212 47.7151 215.28 47.7964 215.091 48.0535C214.78 48.4732 214.347 48.6356 213.617 48.9063C213.225 49.0417 212.671 49.2177 211.954 49.3124" stroke="black" stroke-width="0.5" stroke-miterlimit="10"/>
<path d="M210.183 50.2194C210.886 50.3006 211.967 50.3683 213.279 50.2194C214.523 50.0705 215.672 49.7727 216.483 49.5561C218.295 49.0688 218.754 48.7981 219.728 48.8522C220.593 48.9063 221.296 49.2041 221.756 49.4478" stroke="black" stroke-width="0.5" stroke-miterlimit="10"/>
<path d="M218.187 45.3192C218.227 45.5223 218.43 46.3209 219.146 46.7541C219.89 47.2143 221.053 47.2278 221.364 46.6864C221.58 46.2938 221.323 45.6576 220.918 45.3192C220.498 44.9673 219.904 44.8996 219.363 45.1297" stroke="black" stroke-width="0.5" stroke-miterlimit="10"/>
<path d="M200.231 47.6745C200.353 48.1618 200.569 48.7845 200.975 49.4478C201.8 50.8014 202.908 51.5188 203.517 51.8437" stroke="black" stroke-width="0.5" stroke-miterlimit="10"/>
<path d="M198.23 60.7505C198.893 60.4662 200.88 59.5999 202.327 59.6405C203.206 59.6676 204.788 60.3309 205.328 60.5069" stroke="black" stroke-width="0.5" stroke-miterlimit="10"/>
<path d="M201.11 59.7082V61.8605" stroke="black" stroke-width="0.5" stroke-miterlimit="10"/>
<path d="M202.922 59.7082C202.976 60.0466 203.165 61.4138 203.219 61.7387" stroke="black" stroke-width="0.5" stroke-miterlimit="10"/>
<path d="M189.673 32.6087C189.754 33.5698 190.93 39.052 191.309 40.7305C192.039 43.9656 192.688 46.903 194.851 49.2177C195.595 50.0298 199.908 52.913 204.139 53.5357" stroke="black" stroke-width="0.5" stroke-miterlimit="10"/>
<path d="M187.158 34.003C187.631 36.8185 189.862 43.6272 190.498 45.1297C191.85 48.3784 193.323 51.9114 196.582 53.0349C197.65 53.4004 198.623 53.4139 199.272 53.3733" stroke="black" stroke-width="0.5" stroke-miterlimit="10"/>
<path d="M139.378 23.7155C139.378 23.9997 138.864 25.4616 137.985 26.2197C136.89 27.1537 135.132 27.1943 134.93 27.2078" stroke="black" stroke-width="0.5" stroke-miterlimit="10"/>
<path d="M147.058 26.0843C148.166 26.6934 147.936 27.7628 148.166 28.223" stroke="black" stroke-width="0.5" stroke-miterlimit="10"/>
<path d="M147.017 29.5496C147.611 31.3228 149.126 31.9861 150.194 33.2043" stroke="black" stroke-width="0.5" stroke-miterlimit="10"/>
<path d="M151.222 31.3228C151.654 31.5258 152.506 32.0267 153.101 33.0148C154.223 34.8693 153.507 36.8726 153.398 37.1434" stroke="black" stroke-width="0.5" stroke-miterlimit="10"/>
<path d="M141.487 33.7999C142.096 33.7458 143.083 33.7322 144.137 34.1654C145.624 34.7745 147.017 36.1281 146.76 36.7102C146.517 37.2787 144.773 37.008 144.516 36.9674C143.11 36.7508 142.109 36.0469 141.568 35.6002" stroke="black" stroke-width="0.5" stroke-miterlimit="10"/>
<path d="M159.293 43.1399C158.495 43.4106 157.454 43.9385 157.008 44.0197C156.183 44.1551 155.818 44.1416 155.385 44.3852C154.777 44.7372 154.48 45.3463 154.317 45.793" stroke="black" stroke-width="0.5" stroke-miterlimit="10"/>
<path d="M130.495 31.8372C130.536 32.3651 130.671 33.3803 131.374 34.3414C132.848 36.3583 135.403 36.3447 135.687 36.3312" stroke="black" stroke-width="0.5" stroke-miterlimit="10"/>
<path d="M77.9967 26.558C77.5641 26.6934 76.9557 26.91 76.2256 27.1807C74.468 27.8575 73.5757 28.1959 72.9132 28.7644C71.6694 29.8203 71.2097 31.1874 71.1015 31.5394C70.6824 32.9201 70.7906 33.1231 70.3579 34.761C70.101 35.7356 70.0064 36.6019 69.398 37.5901C68.8572 38.4834 68.5057 38.6459 68.5327 39.2821C68.5327 39.5257 68.5327 39.8777 68.5868 40.189C68.6544 40.744 68.6949 41.6645 68.6544 41.9893" stroke="black" stroke-width="0.5" stroke-miterlimit="10"/>
<path d="M66.857 37.1569C66.6136 37.008 66.1809 37.2787 65.9781 37.4953C65.6942 37.7796 65.3833 38.3346 65.6131 38.6459C65.7889 38.876 66.1945 38.8625 66.4649 38.7542C66.9245 38.5647 67.0597 38.0232 67.0597 37.6848C67.0597 37.5495 67.0597 37.2787 66.8705 37.1704L66.857 37.1569Z" stroke="black" stroke-width="0.5" stroke-miterlimit="10"/>
<path d="M49.3477 23.3906C49.7262 23.756 50.3076 24.2298 51.1188 24.4193C52.4573 24.7577 53.0521 24.0268 54.1067 24.487C54.7422 24.7713 55.2289 25.3533 55.8778 26.1113C56.4322 26.7611 56.5809 27.0995 56.9054 27.113C57.2974 27.113 57.3786 26.6528 58.2303 25.6782C59.055 24.7442 59.7175 24.3246 59.9203 24.2027C60.2854 23.9862 61.2723 23.6207 61.5022 23.5395" stroke="black" stroke-width="0.5" stroke-miterlimit="10"/>
<path d="M57.1226 30.2128C57.0415 31.0115 56.9874 31.8236 56.9333 32.69C56.8793 33.7458 56.8522 34.7475 56.8658 35.7221" stroke="black" stroke-width="0.5" stroke-miterlimit="10"/>
<path d="M25.593 36.0876C25.3226 36.4666 24.944 37.0892 24.7412 37.9285C24.579 38.6188 24.4302 39.1873 24.7412 39.6611C25.2414 40.4462 26.5394 40.3379 26.6205 40.3244" stroke="black" stroke-width="0.5" stroke-miterlimit="10"/>
<path d="M31.8125 40.3379C32.4479 39.7423 34.2596 38.7136 35.544 37.6713C38.5049 35.2618 39.8028 32.6223 41.0332 32.9877C41.2765 33.0554 41.5199 33.3803 42.0336 34.0165C42.4122 34.4903 42.9936 35.2483 43.3181 36.3853C43.5749 37.2517 43.5749 37.9691 43.5749 38.5241C43.5749 39.1061 43.4127 40.2973 43.3586 40.6628" stroke="black" stroke-width="0.5" stroke-miterlimit="10"/>
<path d="M45.7249 37.8608C45.4951 38.0503 45.3734 38.4022 45.5086 38.6324C45.6979 38.9843 46.3874 38.8489 46.5767 38.8219C46.7795 38.7813 47.2256 38.7 47.2797 38.4564C47.3473 38.1721 46.8606 37.7796 46.4009 37.7119C46.2928 37.6984 45.9818 37.6578 45.7384 37.8608H45.7249Z" stroke="black" stroke-width="0.5" stroke-miterlimit="10"/>
<path d="M86.1494 27.7763C86.5685 28.047 87.2175 28.426 88.0287 28.8051C89.232 29.3736 89.8539 29.4683 89.9485 29.915C90.0567 30.4429 89.3131 31.0115 88.921 31.3228C88.5019 31.6477 87.6366 32.1891 86.2711 32.3245" stroke="black" stroke-width="0.5" stroke-miterlimit="10"/>
<path d="M72.1162 29.6037C72.3596 29.915 73.1032 30.9302 73.5764 31.3499C74.009 31.7289 74.9149 32.4598 76.1993 32.9336C76.5508 33.069 77.2403 33.2855 79.6604 33.4074C80.8772 33.4751 82.1346 33.4886 83.6758 33.448C86.4204 33.3803 86.7719 33.2179 88.0969 33.3803C89.5571 33.5563 89.5841 33.7999 91.0848 34.0842C91.8555 34.2331 94.6271 34.7204 97.7232 33.8947C99.3456 33.4615 99.1968 33.1773 101.968 32.3109C104.578 31.4988 105.43 31.5394 106.133 31.8642C106.822 32.1891 106.876 32.5681 108.12 33.6781C109.715 35.0859 109.932 35.316 110.297 35.3024C111.189 35.2754 111.23 34.1654 112.541 33.7458C113.474 33.448 113.988 33.8405 114.529 33.4074C115.029 33.0148 115.096 32.2839 115.083 31.7153" stroke="black" stroke-width="0.5" stroke-miterlimit="10"/>
<path d="M110.297 35.316C110.554 35.8033 111.419 37.0622 111.811 37.6036C112.501 38.5782 113.839 39.9454 114.475 40.541" stroke="black" stroke-width="0.5" stroke-miterlimit="10"/>
<path d="M2.56867 54.1313C2.35235 54.7134 1.89267 55.9046 1.63579 57.0551C0.946265 60.1414 1.36539 61.5898 1.43299 66.896C1.48707 70.659 1.29779 71.2411 1.67635 73.1903C2.01435 74.9229 2.64979 78.1446 4.13699 78.3611C5.3538 78.5371 7.01676 76.6826 7.23308 74.9635C7.32772 74.2326 7.1114 73.9213 7.03028 71.9585C7.00324 71.2411 7.01676 70.6861 7.03028 69.9958C7.13844 65.61 7.34124 63.8909 7.27364 61.5356C7.179 57.9215 6.53004 55.7151 6.67876 55.6744C6.85452 55.6338 7.66573 58.2734 8.15245 61.292C8.49045 63.363 8.57157 65.0009 8.63917 68.9264C8.72029 72.8384 8.73381 75.7893 8.73381 76.6014C8.74733 79.1733 8.80141 82.9093 8.97717 87.5252" stroke="black" stroke-width="0.5" stroke-miterlimit="10"/>
<path d="M18.6439 49.3801C18.3464 50.3276 17.9949 51.7489 17.9544 53.468C17.9273 54.9841 18.1301 56.5137 19.374 60.2632C20.6178 64.0263 21.0099 64.297 22.3213 68.1413C23.3083 71.0245 23.8085 72.4999 24.0384 74.4898C24.1465 75.3832 24.3629 77.6437 23.9437 80.4998C23.7004 82.1513 23.5381 81.9753 21.8752 87.295C20.5908 91.383 19.9553 93.8465 18.4276 95.0242C18.4005 95.0513 17.6975 95.5927 16.8052 96.4049C15.6424 97.4607 15.3856 97.8668 15.2368 98.124C14.7501 98.9768 14.669 99.8025 14.642 100.087C14.5608 101.075 14.8177 101.508 14.696 102.943C14.6555 103.335 14.6149 103.566 14.6014 103.687C14.4392 104.527 14.1688 104.933 14.0065 105.406C13.7767 106.07 13.8308 106.625 13.9524 107.721C14.0606 108.736 14.2364 108.804 14.5473 110.28C14.8988 111.931 14.8583 112.662 15.0881 112.689C15.3585 112.716 15.4667 111.674 16.2644 110.28C16.9944 109.021 17.3865 109.061 18.4817 107.478C19.2658 106.327 19.6849 105.704 19.7661 104.77C19.7931 104.378 19.8877 103.146 19.0225 102.361C18.1572 101.562 16.6564 101.522 15.8317 102.212C15.5884 102.415 14.642 103.728 14.5473 103.917" stroke="black" stroke-width="0.5" stroke-miterlimit="10"/>
<path d="M15.8457 102.185C15.8457 101.995 15.8998 99.9514 16.6839 99.1798C16.8597 99.0174 17.4411 98.4489 18.3604 98.4353C18.4145 98.4353 19.6313 98.4353 20.2803 99.4235C20.8481 100.276 20.2397 101.955 19.442 102.821" stroke="black" stroke-width="0.5" stroke-miterlimit="10"/>
<path d="M19.7931 104.405C20.6719 103.593 21.5101 102.564 21.74 102.036C21.9968 101.467 22.6864 99.8972 22.1861 98.0969C22.0509 97.6367 21.9022 97.0952 21.4425 96.6215C20.2257 95.3491 17.6839 95.7551 17.4541 95.8093" stroke="black" stroke-width="0.5" stroke-miterlimit="10"/>
<path d="M21.3477 96.4591C22.4022 94.0225 24.0787 89.9617 25.0927 85.5489C26.0256 81.488 26.661 78.686 26.4177 74.9229C26.1878 71.3223 25.2414 68.5474 23.5649 63.6067C22.5645 60.6558 21.6451 58.5035 21.4017 55.0382C21.1719 51.7219 21.7668 50.287 22.3346 49.3801C23.7001 47.2008 25.9174 46.4698 26.5123 46.2803C27.6886 45.9013 29.338 45.6577 29.5543 46.1314C29.7301 46.4969 28.9054 47.0519 27.9319 48.392C26.8368 49.908 26.5664 50.6796 26.4582 51.0992C26.296 51.7083 26.2825 52.1956 26.2554 52.6694C26.2554 53.0484 26.2149 54.7811 27.1342 57.2447C27.7021 58.7742 27.959 58.7472 28.1618 59.803C28.351 60.7235 28.297 61.4544 28.2158 62.7133C28.0671 64.7302 27.8102 64.7302 27.8238 66.0161C27.8238 67.5592 28.2158 68.7775 28.4186 69.3596C28.7972 70.4966 29.2974 71.4577 29.649 72.1209C30.2438 73.2445 30.4872 73.4881 30.7306 74.2867C30.9739 75.1125 31.001 75.7893 31.028 76.4525C31.0821 77.8874 30.8252 77.9957 30.9334 79.065C30.9739 79.5523 31.1226 80.5134 31.6229 81.5286C32.2448 82.801 32.7315 82.7469 33.0966 83.8433C33.4346 84.845 33.2994 85.7384 33.2453 86.0633C33.1236 86.7536 32.8667 87.2138 32.4611 87.9312C31.8798 88.9871 31.6634 88.9735 31.2849 89.7586C30.8928 90.5708 30.9604 90.9227 30.6494 92.0733C30.4196 92.9396 30.1627 93.5217 29.6625 94.6858C28.4457 97.5013 27.8373 98.9091 26.5664 100.195C25.1873 101.589 24.2274 101.67 23.7677 103.051C23.4568 103.958 23.5379 104.906 23.5649 105.312C23.6596 106.449 23.9705 106.801 24.2545 108.019C24.3897 108.601 24.4302 109.4 24.4978 110.97C24.5384 111.917 24.5925 113.244 24.5925 115.207C24.5925 118.388 24.4843 118.753 24.3491 119.092C24.1598 119.525 23.8489 120.107 23.4703 121.203C23.2405 121.88 23.1188 122.232 23.0782 122.584C22.9295 123.924 23.5379 125.075 23.7137 125.386C24.2545 126.32 24.7277 126.442 24.7006 127.01C24.6871 127.335 24.5113 127.443 23.7677 128.432C23.1999 129.19 22.916 129.569 22.7402 129.961C22.5374 130.394 22.1453 131.247 22.4428 132.032C22.578 132.411 22.8349 132.655 23.5785 133.169C24.7141 133.954 25.309 134.374 26.3366 134.794C27.1748 135.146 28.2834 135.606 29.7842 135.633C30.7846 135.646 30.6359 135.443 31.7446 135.43C33.4887 135.416 34.0024 135.917 35.6248 135.768C36.4631 135.701 37.0309 135.646 37.3419 135.227C38.0314 134.293 36.8281 132.344 36.6523 132.073C35.1787 129.758 33.3805 129.988 31.9338 128.039C31.2578 127.132 31.0821 126.103 30.7035 124.046C30.1222 120.878 30.4872 119.633 30.5548 112.973C30.5818 109.995 30.5278 109.603 30.8522 108.696C31.4336 107.085 32.6234 105.894 34.9759 103.579C36.3143 102.266 37.2743 101.332 38.7615 100.182C42.128 97.5961 42.7364 98.1511 44.859 96.2425C47.0898 94.2391 46.4003 93.6571 49.4288 90.6249C50.3752 89.6909 51.5785 88.4998 53.4172 87.2815C54.9314 86.2663 55.2018 86.361 56.6079 85.3188C58.2709 84.087 59.5688 83.0988 60.0014 81.4745C60.1096 81.0684 60.042 81.0684 60.3394 79.3628C60.5693 78.0904 60.6774 77.4542 60.7856 77.1023C61.1236 75.9517 62.043 75.1937 64.9092 73.5558C66.3423 72.7301 68.1811 71.7419 70.3713 70.6996" stroke="black" stroke-width="0.5" stroke-miterlimit="10"/>
<path d="M38.8024 50.0163C38.4509 50.6119 37.9912 51.4511 37.518 52.4799C37.1259 53.3597 36.3823 55.0247 36.0443 56.8656C35.828 58.0703 35.5846 60.3986 36.531 63.4171" stroke="black" stroke-width="0.5" stroke-miterlimit="10"/>
<path d="M43.4266 51.397C42.8993 51.9249 42.1692 52.7642 41.5608 53.9553C40.3846 56.2565 40.4251 58.3952 40.4792 59.8571C40.5468 62.1041 41.1146 63.9721 41.7095 65.3664" stroke="black" stroke-width="0.5" stroke-miterlimit="10"/>
<path d="M46.8064 52.128C46.5631 52.9537 46.2521 54.1584 45.9682 55.6203C45.6572 57.2447 45.4409 58.3952 45.4814 59.6541C45.5085 60.7641 45.7518 62.7674 47.1985 65.1633" stroke="black" stroke-width="0.5" stroke-miterlimit="10"/>
<path d="M51.1864 51.8843C50.7673 52.9537 50.2806 54.5645 50.2535 56.5543C50.1994 60.0602 51.565 62.6727 52.268 63.8368" stroke="black" stroke-width="0.5" stroke-miterlimit="10"/>
<path d="M55.1757 52.2362C54.9053 52.6288 54.4997 53.3597 54.3915 54.3479C54.1887 56.1753 55.1757 57.5154 55.4191 57.8402" stroke="black" stroke-width="0.5" stroke-miterlimit="10"/>
<path d="M34.665 77.0887C35.314 77.3459 36.2739 77.8062 37.1257 78.7131C38.1802 79.8366 38.1127 80.5946 39.1402 81.664C40.2759 82.8416 41.6549 83.2342 42.1822 83.3831C43.7235 83.8162 44.9403 83.5997 46.9007 83.2342C48.8611 82.8552 49.6858 82.4491 52.7549 81.5151C54.3232 81.0413 55.6076 80.6894 56.3917 80.4863" stroke="black" stroke-width="0.5" stroke-miterlimit="10"/>
<path d="M48.0905 87.4304C47.5226 87.8635 46.8331 88.4862 46.1706 89.3525C45.2648 90.5302 44.7645 91.6943 44.4941 92.5065" stroke="black" stroke-width="0.5" stroke-miterlimit="10"/>
<path d="M83.9326 43.0722C83.527 43.4242 82.8645 44.3311 82.3101 45.0485C81.9181 45.5358 80.6877 47.2008 80.0929 50.1246C79.5656 52.7236 79.9036 54.7405 80.5796 58.7878C80.8229 60.2091 81.2285 62.3749 81.9586 64.9874C82.8239 68.1278 83.1619 68.412 84.0678 71.7284C84.6356 73.7859 85.1088 75.5321 85.3927 77.928C85.6226 79.8095 85.8118 81.3933 85.5414 83.4372C85.4333 84.1952 85.1899 85.6842 83.8244 88.8517C82.9726 90.828 81.4854 93.9413 79.5791 96.9193" stroke="black" stroke-width="0.5" stroke-miterlimit="10"/>
<path d="M57.3115 84.8585C58.0822 84.8315 60.1237 84.8585 61.3675 84.8585C61.9895 84.8585 65.7615 84.8991 69.4255 85.4C75.0363 86.1715 81.0122 88.4321 83.4998 89.4067" stroke="black" stroke-width="0.5" stroke-miterlimit="10"/>
<path d="M17.4539 108.953C17.5756 109.305 17.9812 110.415 17.9001 111.241C17.819 112.175 17.4404 112.824 17.3593 112.96C16.8455 113.812 16.3588 113.799 14.9527 114.977C14.0469 115.735 13.5872 116.114 13.3303 116.696C12.9788 117.481 12.8301 118.713 13.425 119.552C13.9117 120.242 14.439 120.012 15.2502 120.878C15.3719 121.014 15.9262 121.623 16.1831 122.557C16.5346 123.802 16.1425 124.885 15.8856 125.562C15.2637 127.24 14.128 128.269 13.4791 128.756" stroke="black" stroke-width="0.5" stroke-miterlimit="10"/>
<path d="M14.1555 108.655C14.0068 109.115 13.2227 110.902 13.2903 111.782C13.3579 112.743 13.6688 113.433 13.9257 114.002C14.48 115.193 14.7775 115.816 15.6427 116.763C16.3458 117.521 16.5215 118.361 16.481 118.875C16.3999 119.741 15.7644 119.85 14.6152 121.487C13.8716 122.543 13.3308 123.315 13.439 124.289C13.5066 124.953 13.8311 125.413 14.0744 125.765C14.9262 126.97 16.1565 127.443 16.7784 127.633" stroke="black" stroke-width="0.5" stroke-miterlimit="10"/>
<path d="M34.6656 104.012C34.7332 104.73 34.9631 106.178 35.0037 107.464C35.0983 109.887 34.9901 110.753 35.0037 112.973C35.0037 113.433 35.0037 113.488 35.3011 118.726C35.4633 121.663 35.5445 123.152 35.4498 124.29C35.3011 126.13 34.3952 128.838 34.1113 129.826" stroke="black" stroke-width="0.5" stroke-miterlimit="10"/>
<path d="M24.6602 127.173C24.7548 127.01 26.0122 126.361 26.4583 126.32C26.6611 126.306 26.891 126.374 27.5399 126.956C28.2835 127.633 28.3646 127.863 28.6756 128.093C29.0677 128.377 30.5955 128.445 31.9204 128.039" stroke="black" stroke-width="0.5" stroke-miterlimit="10"/>
<path d="M38.3566 126.55C38.4242 126.807 38.4918 127.213 38.4107 127.687C38.2755 128.405 37.8969 128.608 37.6265 129.366C37.5319 129.636 37.1398 130.706 37.5724 131.193C37.951 131.599 38.8839 131.545 39.8303 130.99" stroke="black" stroke-width="0.5" stroke-miterlimit="10"/>
<path d="M37.5312 134.523C38.3425 134.726 40.2488 135.132 41.7495 135.511C43.9397 136.08 44.1966 136.174 44.9943 136.296C47.1846 136.648 48.807 136.499 49.2666 136.445C49.6722 136.404 50.3753 136.242 51.7679 135.958C53.2686 135.646 52.0923 135.863 53.1875 135.619C53.8229 135.484 54.0257 135.457 54.2691 135.281C54.3231 135.24 55.0397 134.726 54.9045 134.103C54.7828 133.508 53.9716 133.291 53.877 133.264C53.3632 133.129 53.1604 133.332 52.4979 133.359C51.9707 133.386 51.511 133.223 50.5781 132.912C49.9562 132.709 49.3342 132.492 48.6582 132.127C47.82 131.667 47.4955 131.261 46.6438 130.503C44.6969 128.77 44.2642 128.932 42.9122 127.498C42.1281 126.672 41.7089 126.212 41.4385 125.427C41.1681 124.628 41.1952 123.897 41.4385 122.327C41.8577 119.66 42.2227 118.482 42.2227 118.482C42.9257 116.208 43.9938 112.202 45.2647 107.031" stroke="black" stroke-width="0.5" stroke-miterlimit="10"/>
<path d="M46.9958 93.5487C46.9958 94.1849 46.8741 96.6215 46.7119 97.5149C46.5091 98.6654 46.1981 99.5047 46.117 99.6807C45.2652 101.874 44.3729 101.833 44.0484 103.322C43.7915 104.472 43.9943 106.016 44.8867 106.665C45.4275 107.071 45.8195 106.828 46.455 107.261C47.2527 107.789 47.469 108.709 47.6853 109.576C48.51 112.797 48.3884 111.186 49.0644 114.205C49.6052 116.669 49.8891 117.9 49.9972 119.525C50.2136 122.611 50.3217 124.154 50.146 125.278C50.0378 125.982 49.8215 126.997 50.3893 127.687C50.7544 128.12 51.4033 128.404 52.0117 128.377C52.4038 128.35 52.4444 128.215 53.7288 127.782C54.3507 127.579 54.5805 127.525 54.8104 127.633C55.216 127.822 55.3241 128.364 55.3512 128.472C55.4458 128.905 55.2971 129.203 55.0537 129.948C54.7698 130.841 54.6211 131.288 54.6076 131.626C54.5941 132.465 55.0402 133.102 55.3512 133.548C56.0542 134.563 57.0006 135.01 57.3657 135.173C58.0552 135.47 58.7177 135.497 60.0156 135.565C61.4352 135.633 61.3 135.497 62.4222 135.565C63.9499 135.66 64.5854 135.931 66.059 135.809C67.1677 135.728 67.3299 135.525 67.384 135.416C67.6679 134.848 66.6674 133.751 65.9103 133.156C65.1262 132.533 64.8828 132.668 63.7471 131.978C62.625 131.288 61.8814 130.557 61.4893 130.151C60.5564 129.203 60.0021 128.364 59.6235 127.782C59.1909 127.119 58.6095 126.212 58.1498 124.926C57.8253 124.019 57.8794 123.816 57.5549 122.76C57.0953 121.244 56.6085 120.405 56.2705 119.66C55.9325 118.889 55.9055 118.577 55.2836 114.191C55.2025 113.609 54.7698 110.537 54.4994 106.665C54.4318 105.758 54.3913 104.946 54.7022 103.958C55.0943 102.686 55.6892 102.347 56.6626 100.858C57.3386 99.8296 57.2034 99.7889 58.623 96.8651C59.6505 94.7805 60.1508 93.7383 60.6375 92.9802C61.4082 91.7755 62.3681 90.6249 64.2744 88.405C65.1397 87.4033 66.6674 85.6977 67.1542 85.1428" stroke="black" stroke-width="0.5" stroke-miterlimit="10"/>
<path d="M49.9155 97.2712C50.0507 97.8803 50.1454 98.6113 50.1589 99.437C50.1859 101.102 49.8479 102.483 49.5234 103.43" stroke="black" stroke-width="0.5" stroke-miterlimit="10"/>
<path d="M52.1742 104.31C51.8092 104.608 51.1467 105.203 50.7005 106.178C50.5924 106.408 50.2949 107.112 50.2544 108.1C50.2003 109.63 50.8087 110.821 50.998 111.2C51.6334 112.499 52.3905 114.652 53.0125 118.482" stroke="black" stroke-width="0.5" stroke-miterlimit="10"/>
<path d="M56.4054 101.291C55.7294 103.457 56.108 105.217 56.5541 105.731C57.1625 106.435 58.0954 106.34 58.6632 107.302C58.9742 107.829 58.9201 108.222 59.0012 109.129C59.0824 109.901 59.2987 110.74 59.7448 112.432C60.0693 113.65 60.6236 114.855 61.7052 117.21C63.206 120.445 63.4899 120.702 64.0713 122.381C64.7337 124.344 65.0717 125.318 64.9095 126.266C64.6661 127.674 63.8144 128.58 63.9766 130.354C64.0172 130.855 64.1118 131.951 64.1929 132.222" stroke="black" stroke-width="0.5" stroke-miterlimit="10"/>
<path d="M67.5596 135.349C68.0463 135.2 69.4253 135.173 70.2636 134.983C71.5209 134.712 72.1429 134.563 72.8189 134.645C73.6571 134.726 73.6571 134.983 75.2795 135.484C76.1854 135.768 76.7938 135.958 77.6455 136.025C78.619 136.107 78.5108 135.917 80.3495 135.876C81.2959 135.863 81.661 135.904 82.2153 135.673C82.5398 135.538 83.2428 135.267 83.4456 134.591C83.5403 134.266 83.5538 133.724 83.2428 133.454C82.9454 133.196 82.5668 133.386 81.4176 133.508C80.6064 133.589 80.0926 133.643 79.5518 133.508C79.0246 133.386 78.6866 133.129 77.8754 132.479C76.1313 131.044 76.2259 130.976 75.4688 130.408C74.5629 129.731 74.4413 129.853 72.7107 128.729C71.7508 128.107 71.2641 127.782 71.0342 127.498C70.534 126.848 70.534 126.252 70.4934 123.802C70.4529 120.933 70.4123 119.944 70.4934 118.185C70.534 117.278 70.5881 116.723 70.6962 116.073C70.8585 115.031 71.0072 114.787 71.1424 113.961C71.3046 112.878 71.1829 112.418 71.1965 111.254C71.1965 109.765 71.3993 109.17 71.5345 107.802C71.8725 104.662 71.2641 103.972 71.3317 99.4776C71.3587 98.0563 71.4263 97.8127 71.4804 96.432C71.575 94.1173 71.5074 89.9211 70.9396 85.6436" stroke="black" stroke-width="0.5" stroke-miterlimit="10"/>
<path d="M73.2113 86.4423C73.2113 87.2003 73.2384 88.2426 73.2654 89.4879C73.306 91.6402 73.1032 93.7924 73.2654 95.9311C73.3465 97.0005 73.4682 98.0428 72.8192 98.9768C72.4677 99.4776 71.67 99.9785 71.332 100.154" stroke="black" stroke-width="0.5" stroke-miterlimit="10"/>
<path d="M60.678 92.9803C60.7186 94.2797 61.0025 97.2306 60.9214 98.0022C60.7862 99.4506 60.6239 99.816 60.4752 100.073C60.002 100.899 59.4207 100.98 58.5554 101.752C58.0687 102.185 56.6355 103.39 56.0947 104.554" stroke="black" stroke-width="0.5" stroke-miterlimit="10"/>
<path d="M57.3115 102.916C57.7847 103.322 59.015 104.703 59.7992 104.892C61.2864 105.258 61.9895 104.554 64.4636 104.648C65.5047 104.689 66.1671 104.838 66.7215 105.285C66.8972 105.42 67.3704 105.826 67.5056 106.462C67.6814 107.234 67.2758 107.897 66.9108 108.479C66.7756 108.682 66.3835 109.305 64.6935 110.699C63.7741 111.457 63.3144 111.836 62.8277 112.175C61.8272 112.865 61.2864 113.095 61.2053 113.65C61.1107 114.246 61.5974 114.733 61.6515 114.787C62.0435 115.18 62.5843 115.261 63.9093 115.234C65.7886 115.193 67.0054 115.031 67.0054 115.031C68.9117 114.774 69.3444 114.543 69.7635 114.882C70.3178 115.342 70.3854 116.452 70.0068 117.251C69.412 118.496 68.1005 118.185 67.5462 119.322C66.9243 120.621 68.1546 122.083 67.5462 122.57C67.2217 122.828 66.5322 122.692 66.1671 122.327C65.5587 121.704 66.059 120.621 66.2618 118.442C66.3699 117.332 66.2618 115.667 66.2348 115.126" stroke="black" stroke-width="0.5" stroke-miterlimit="10"/>
<path d="M59.3532 107.207C58.6637 107.302 60.232 106.828 60.881 107.207C61.584 107.613 61.6516 108.547 61.6652 108.777C61.7192 109.494 61.4083 109.738 61.4218 110.645C61.4218 111.078 61.8409 112.567 61.9085 112.797" stroke="black" stroke-width="0.5" stroke-miterlimit="10"/>
<path d="M67.3564 86.5912C67.3835 87.471 67.424 88.96 67.5052 90.828C67.6809 95.2273 67.8296 96.7975 67.8432 99.6401C67.8432 100.736 67.8432 102.442 67.7485 104.567" stroke="black" stroke-width="0.5" stroke-miterlimit="10"/>
<path d="M80.4573 96.6756C80.0247 96.7975 78.2265 97.19 77.4829 97.9074C76.6852 98.6655 76.3743 99.4912 76.1985 99.9785C75.6983 101.373 75.6442 103.119 76.1039 103.281C76.4419 103.403 76.6852 102.51 77.7263 102.144C78.7538 101.779 79.7543 102.212 80.0382 102.347C80.4708 102.537 81.2009 102.848 81.4578 103.579C81.593 103.945 81.5524 104.269 81.4578 104.811C81.3767 105.271 81.255 106.016 80.7683 106.882C80.1193 108.046 79.6056 108.033 78.8079 109.048C77.51 110.686 77.537 112.391 77.1855 112.351C76.9421 112.323 76.9962 111.525 76.5906 109.941C76.2391 108.52 75.9822 108.33 75.847 107.532C75.7118 106.76 76.0363 104.337 76.6987 102.848" stroke="black" stroke-width="0.5" stroke-miterlimit="10"/>
<path d="M75.9423 107.857C75.726 108.33 74.9824 109.657 74.9283 110.604C74.8607 111.782 75.1717 112.648 75.4691 113.461C75.6854 114.083 76.1316 115.274 77.1456 116.506C77.9027 117.44 78.2678 117.508 78.3759 118.076C78.4976 118.767 78.0785 119.389 77.2402 120.635C76.2262 122.137 75.7936 122.3 75.5637 123.193C75.3339 124.086 75.5232 124.858 75.6178 125.156C76.1992 127.119 78.2678 127.836 78.5246 127.917" stroke="black" stroke-width="0.5" stroke-miterlimit="10"/>
<path d="M78.8215 109.034C79.0784 109.616 79.6733 111.268 79.3623 112.039C79.0243 112.851 78.3213 112.933 77.1045 113.961C76.2662 114.665 75.4415 115.356 75.0359 116.466C74.6438 117.562 74.7114 118.943 75.3334 120.012C75.9282 121.027 76.5096 120.865 77.1586 121.975C77.2938 122.205 77.8751 123.274 77.7534 124.628C77.5506 126.726 75.8066 127.904 75.5362 128.08" stroke="black" stroke-width="0.5" stroke-miterlimit="10"/>
<path d="M80.0518 96.7298C80.3492 96.6756 81.228 96.5538 82.1609 97.0276C82.3907 97.1359 83.256 97.5826 83.6346 98.5572C83.932 99.3152 83.7698 99.9785 83.5399 100.872C83.3642 101.535 82.3502 102.902 81.539 104.026" stroke="black" stroke-width="0.5" stroke-miterlimit="10"/>
<path d="M77.7402 102.144C77.7673 101.4 78.0782 99.9514 78.7272 99.6401C79.5114 99.261 80.4307 99.5047 80.985 100.087C81.5123 100.642 81.296 102.185 81.0391 102.929" stroke="black" stroke-width="0.5" stroke-miterlimit="10"/>
<path d="M82.6348 97.2712C83.162 96.1748 84.5005 93.806 85.2982 91.8567C86.6908 88.4727 87.4614 86.5912 87.9481 84.0328C88.5701 80.7977 88.3943 78.2258 88.2861 76.7909C88.1915 75.505 88.0293 74.3815 86.3663 67.7894C85.1225 62.8216 84.7033 61.4409 84.2572 58.6389C83.6623 54.9435 83.6893 53.0755 84.2572 51.1534C84.6493 49.8539 85.1901 48.0265 86.9071 46.8759C89.3272 45.2651 92.7478 45.8742 92.8559 46.4834C92.8965 46.7406 92.1799 46.8624 91.1389 47.6204C90.7603 47.8911 89.0162 49.1906 88.1374 51.4647C88.0563 51.6677 86.8936 54.8081 88.1915 57.6237C88.5025 58.3005 88.8269 58.6795 89.0297 59.5864C89.2731 60.6829 88.9757 60.9671 88.9757 62.6862C88.9757 62.9434 88.9757 62.8486 89.2731 66.0838C89.3948 67.478 89.4218 67.7352 89.5165 68.1954C89.5705 68.4256 89.7598 69.2513 90.3547 70.6049C91.2741 72.6895 91.6662 72.6218 92.0312 73.9077C92.1934 74.5169 92.2475 75.2072 92.3286 76.615C92.4098 78.0092 92.3422 78.5913 92.6261 79.5253C92.7613 79.9584 92.7883 79.8907 93.4102 81.2037C94.0457 82.5574 94.3702 83.2612 94.5865 84.0599C94.8163 84.9127 94.9921 85.5624 94.8298 86.3746C94.7217 86.9702 94.5054 87.2274 93.8429 88.3373C93.0317 89.718 92.5855 90.4625 92.2205 91.3424C91.7473 92.493 91.896 92.7095 91.4363 94.2527C91.2605 94.8618 90.8414 96.2019 90.1114 97.5555C89.1109 99.3829 86.9477 102.239 85.5416 103.173C85.4064 103.268 85.0143 103.511 84.9061 103.958C84.8115 104.364 85.2306 104.54 85.2441 105.136C85.2577 105.501 85.1225 105.501 85.0954 105.975C85.0684 106.571 85.2577 107.031 85.3388 107.207C85.5821 107.775 85.812 107.775 86.0283 108.195C86.3257 108.777 86.1635 109.264 86.0824 110.212C86.0553 110.496 86.1094 110.049 86.0824 112.581C86.0553 115.18 86.0418 116.479 85.9877 117.251C85.812 119.592 85.4334 121.23 85.6903 122.963C85.839 123.91 86.1094 124.452 86.177 124.587C86.6097 125.399 86.9477 125.413 87.164 126.009C87.529 127.037 86.9477 128.147 86.826 128.377C86.3393 129.23 85.8796 129.163 85.4064 130.151C85.2306 130.516 85.0278 130.963 85.1089 131.531C85.2171 132.262 85.7714 132.709 85.8931 132.817C86.5421 133.332 86.9612 133.075 87.5155 133.562C88.0563 134.036 87.84 134.455 88.2591 134.943C88.7458 135.525 89.5435 135.497 91.4498 135.538C93.559 135.565 94.6 135.592 95.1408 135.633C97.277 135.836 97.9665 136.256 98.7777 135.728C99.305 135.389 99.7241 134.753 99.7106 134.103C99.7106 133.751 99.5619 133.305 98.1422 132.032C96.9525 130.976 96.5469 130.828 95.4923 129.921C94.6406 129.176 94.0322 128.662 93.5319 127.904C92.6937 126.645 92.545 125.359 92.4503 124.168C92.1799 120.905 92.207 118.388 92.207 116.885C92.207 111.389 91.896 110.943 92.5044 109.359C93.0046 108.046 93.8294 107.058 95.4518 105.082C97.4122 102.713 99.2374 101.143 100.17 100.412C101.657 99.2204 102.671 98.3947 104.294 97.6096C105.619 96.9599 106.119 96.9328 107.052 96.2289C108.12 95.4168 108.499 94.6858 109.607 93.0344C111.23 90.625 112.041 89.4202 113.001 88.5539C114.596 87.1191 114.948 87.647 117.53 85.6978C119.409 84.2765 120.342 83.5726 120.869 82.246C121.18 81.4609 121.167 80.9736 121.856 78.9026C122.073 78.2799 122.289 77.5896 122.492 77.1293C123.222 75.4509 124.601 74.5169 126.575 73.2445C128.995 71.6743 131.064 70.4154 132.672 69.4543" stroke="black" stroke-width="0.5" stroke-miterlimit="10"/>
<path d="M96.4658 76.8451C97.9125 77.752 98.8724 78.686 99.4673 79.3493C100.738 80.7841 100.806 81.488 102.023 82.3949C103.375 83.4102 104.781 83.6403 105.267 83.7215C107.12 84.0193 108.539 83.5184 109.986 83.0311C111.757 82.4491 114.353 81.6234 117.855 80.6623" stroke="black" stroke-width="0.5" stroke-miterlimit="10"/>
<path d="M113.865 84.7638C113.325 85.1563 112.513 85.7654 111.554 86.537C109.701 88.026 108.755 88.7976 107.863 89.9346C107.376 90.5573 106.713 91.5183 106.146 92.8855" stroke="black" stroke-width="0.5" stroke-miterlimit="10"/>
<path d="M98.3314 91.9515C98.2638 92.52 98.115 93.278 97.8446 94.1173C96.5062 98.1646 93.3289 100.222 93.4641 100.412C93.5858 100.574 95.7896 99.1933 103.293 93.8195" stroke="black" stroke-width="0.5" stroke-miterlimit="10"/>
<path d="M90.4216 100.615C89.6239 101.413 88.9344 102.077 88.4071 102.577C87.0551 103.85 86.5278 104.283 86.5819 104.892C86.636 105.406 87.0956 105.867 87.5688 106.029C88.2448 106.246 88.8938 105.826 89.9754 105.095C90.4892 104.743 91.1922 104.202 91.9358 103.417" stroke="black" stroke-width="0.5" stroke-miterlimit="10"/>
<path d="M89.9754 113.664C89.5563 114.286 88.9479 115.383 88.6505 116.858C88.326 118.482 88.5288 119.836 88.7045 120.594" stroke="black" stroke-width="0.5" stroke-miterlimit="10"/>
<path d="M87.2178 127.295C87.5693 127.579 88.7455 127.89 89.381 128.134C90.9087 128.702 92.9368 127.998 93.5046 127.836" stroke="black" stroke-width="0.5" stroke-miterlimit="10"/>
<path d="M101.387 49.0282C100.508 49.9351 99.5208 51.1804 98.7367 52.8183C96.4112 57.6643 97.5875 62.4155 98.0472 63.9857" stroke="black" stroke-width="0.5" stroke-miterlimit="10"/>
<path d="M104.186 52.331C103.496 53.1838 102.523 54.6186 101.969 56.6084C100.982 60.182 102.023 63.2006 102.455 64.2835" stroke="black" stroke-width="0.5" stroke-miterlimit="10"/>
<path d="M108.066 52.4258C107.701 53.5763 107.376 54.9706 107.228 56.5543C106.876 60.2768 107.647 63.3495 108.309 65.2716" stroke="black" stroke-width="0.5" stroke-miterlimit="10"/>
<path d="M111.852 52.7777C111.649 53.7794 111.514 54.9841 111.554 56.3242C111.662 60.006 113.028 62.8351 113.961 64.3918" stroke="black" stroke-width="0.5" stroke-miterlimit="10"/>
<path d="M116.678 52.2769C116.422 52.7371 116.002 53.6305 115.989 54.8352C115.962 56.6355 116.868 57.8944 117.165 58.2869" stroke="black" stroke-width="0.5" stroke-miterlimit="10"/>
<path d="M94.1133 31.3093C94.5324 31.3093 95.1678 31.3228 95.9385 31.2551C97.1147 31.1604 97.5068 30.9979 98.1963 31.0521C98.7101 31.0927 99.4402 31.2551 100.305 31.8372" stroke="black" stroke-width="0.5" stroke-miterlimit="10"/>
<path d="M19.0899 44.8455C18.5626 45.3869 18.0489 45.9419 17.5216 46.5239C16.7645 47.3497 16.0479 48.1754 15.3584 48.9875" stroke="black" stroke-width="0.5" stroke-miterlimit="10"/>
<path d="M67.0726 39.7288C66.7346 39.986 65.9774 40.4733 64.9094 40.6086C63.4898 40.7846 62.4082 40.2296 62.0566 40.013" stroke="black" stroke-width="0.5" stroke-miterlimit="10"/>
<path d="M55.459 129C56.2296 128.797 57.3247 128.946 57.7168 129.014C58.0278 129.068 58.2306 129.149 59.488 129.609C59.9612 129.785 61.0292 129.812 61.2456 129.893" stroke="black" stroke-width="0.5" stroke-miterlimit="10"/>
<path d="M66.9651 128.323C66.8434 128.472 66.6 128.824 66.573 129.311C66.5054 130.313 67.3977 130.949 67.4518 130.99" stroke="black" stroke-width="0.5" stroke-miterlimit="10"/>
<path d="M85.9736 90.2324C86.6767 90.6249 88.2585 91.0581 89.0021 91.5183C89.6916 91.9515 91.0842 92.8855 91.7061 93.3186" stroke="black" stroke-width="0.5" stroke-miterlimit="10"/>
<path d="M118.503 84.845C119.963 84.8179 123.221 84.7096 125.682 84.8179C132.442 85.0886 137.458 85.9143 141.906 86.6588C149.558 87.9448 147.841 88.1884 155.629 89.8398C157.224 90.1782 159.239 90.5843 161.091 92.1275C161.835 92.7501 162.119 93.1968 163.308 94.1173C164.241 94.8482 165.35 95.701 166.851 96.256C167.729 96.5809 170.379 96.8516 172.732 96.4997" stroke="black" stroke-width="0.5" stroke-miterlimit="10"/>
<path d="M158.414 81.7181C158.833 82.0701 159.469 82.6386 160.036 83.4914C160.821 84.6555 160.821 85.3187 161.443 86.0768C161.902 86.6318 162.74 87.295 164.471 87.5522" stroke="black" stroke-width="0.5" stroke-miterlimit="10"/>
<path d="M168.812 82.8281C168.73 83.6538 168.568 84.8585 168.217 86.2934C167.392 89.7045 166.324 90.9904 167.04 92.4253C167.568 93.4946 168.866 94.2256 169.109 94.3474C169.826 94.7264 170.042 94.6317 170.799 95.0107C170.894 95.0513 172.259 95.7552 173.084 97.0005C173.652 97.8533 173.53 98.3135 173.895 100.696C174.463 104.418 175.139 105.853 174.26 106.977C174.071 107.22 173.814 107.423 173.517 107.938C173.341 108.249 172.962 108.967 172.854 110.076C172.692 111.701 173.26 112.648 173.598 114.205C173.746 114.909 173.719 116.1 173.665 118.482C173.584 122.042 173.354 123.721 174.03 126.009C174.355 127.091 174.706 127.701 175.288 127.998C176.194 128.472 176.991 127.85 177.87 128.296C178.776 128.756 179.398 129.88 179.127 130.516C178.898 131.031 178.235 130.814 177.573 131.396C176.897 132.005 176.369 133.345 176.978 134.428C177.505 135.349 178.816 135.403 179.925 135.457C181.412 135.538 181.629 135.105 183.386 135.091C183.913 135.091 184.725 135.186 186.334 135.389C188.794 135.701 189.335 135.849 189.795 135.457C190.457 134.902 190.714 133.751 190.308 133.169C190.038 132.777 189.646 132.885 188.835 132.574C188.172 132.316 187.875 132.032 186.469 130.8C184.36 128.959 184.617 129.23 184.251 128.878C182.683 127.335 181.818 125.873 180.858 124.222C179.776 122.367 179.222 121.406 179.019 119.944C178.898 119.105 179.019 119.092 179.019 117.576C178.992 113.637 178.073 112.364 179.019 110.929C179.547 110.131 179.885 110.428 180.425 109.603C181.237 108.33 180.75 107.166 180.642 104.662C180.615 104.121 180.723 102.726 180.939 99.9379C181.155 97.014 181.264 95.5657 181.453 94.9971C182.021 93.278 183.089 92.0733 185.211 89.7586C187.888 86.8348 188.483 86.9702 189.267 85.4812C190.592 82.9228 190.065 80.1885 189.781 78.7672C189.011 74.8147 187.212 74.5575 185.279 69.4678C184.792 68.1819 183.927 65.8266 183.657 62.6727C183.346 58.9908 184.238 58.5983 183.954 55.2142C183.778 53.1567 183.494 49.7321 181.007 46.7947C180.425 46.1043 178.167 43.5325 174.449 42.9504C169.501 42.1788 165.729 45.4952 164.418 46.6458C160.47 50.1111 159.51 54.6051 159.253 56.1753" stroke="black" stroke-width="0.5" stroke-miterlimit="10"/>
<path d="M115.204 33.7187C114.001 33.4074 112.838 33.827 112.324 34.6798C111.973 35.2618 111.837 36.1688 112.175 36.3718C112.946 36.8591 115.691 33.3938 116.083 33.7187C116.367 33.9488 115.244 35.8845 115.123 36.0876C114.582 37.008 113.974 37.8202 114.014 37.8608C114.082 37.9149 115.434 35.4378 117.259 35.4243C117.773 35.4243 118.165 35.6138 118.368 35.7221C121.856 37.5495 139.432 49.908 150.599 52.1144C158.711 53.7117 165.863 50.4359 173.313 47.0248C182.074 43.0046 187.441 37.6848 188.577 36.5342C190.078 35.0047 190.876 31.9049 191.673 30.8896" stroke="black" stroke-width="0.5" stroke-miterlimit="10"/>
<path d="M125.521 43.8438C125.953 44.2905 126.494 44.9673 126.778 45.9148C127.467 48.1754 126.156 50.1246 126.845 50.639C127.17 50.8826 127.724 50.639 128.765 50.1246C129.982 49.5155 131.577 48.6627 133.416 47.5392" stroke="black" stroke-width="0.5" stroke-miterlimit="10"/>
<path d="M125.345 42.6526C128.819 43.6137 131.956 43.8573 133.646 43.8303C134.363 43.8303 135.566 43.7626 137.04 44.277C138.554 44.8049 139.054 45.4952 140.136 46.0502C141.663 46.8353 142.853 46.5917 145.814 46.4157C150.046 46.172 148.667 46.6052 155.846 46.348C157.428 46.2939 161.24 45.414 163.512 45.2651" stroke="black" stroke-width="0.5" stroke-miterlimit="10"/>
<path d="M157.603 44.2769C158.428 44.3988 159.009 44.7643 159.009 45.0891C159.009 45.4681 158.211 45.8607 157.535 45.7524C156.846 45.6441 156.494 45.0485 156.427 44.9402" stroke="black" stroke-width="0.5" stroke-miterlimit="10"/>
<path d="M130.495 32.6087C129.535 33.2991 127.629 34.5579 125.736 35.1942C123.505 35.9386 120.234 35.9657 118.949 35.9386" stroke="black" stroke-width="0.5" stroke-miterlimit="10"/>
<path d="M128.278 32.4598C128.332 33.448 128.752 37.8473 129.062 39.1603C129.428 40.6628 129.928 41.9352 130.387 42.9233" stroke="black" stroke-width="0.5" stroke-miterlimit="10"/>
<path d="M128.616 85.6301C128.021 89.2578 128.238 92.0598 128.549 93.9684C129.13 97.5825 130.157 98.4895 130.022 101.346C129.982 102.077 129.847 103.552 130.536 105.19C130.901 106.043 131.158 106.178 131.496 106.963C132.091 108.357 131.82 109.251 131.793 111.241C131.753 114.652 132.51 114.3 132.388 117.372C132.334 118.577 132.186 119.565 132.753 120.689C132.862 120.892 133.01 121.136 134.078 122.313C135.863 124.262 135.985 124.181 136.512 124.899C137.553 126.306 137.215 126.821 138.134 128.215C138.986 129.501 140.135 130.245 140.717 130.652C141.514 131.206 141.555 131.098 142.934 131.978C144.921 133.25 145.219 133.738 145.3 134.198C145.368 134.658 145.232 135.267 144.854 135.673C143.732 136.892 141.582 135.362 137.337 135.673C136.498 135.728 135.66 135.768 134.835 135.822C132.713 135.958 132.375 135.998 131.956 135.755C131.009 135.173 130.509 133.575 130.928 132.357C131.455 130.787 133.172 130.746 133.294 129.474C133.375 128.58 132.605 127.674 131.888 127.254C130.779 126.604 129.968 127.254 128.941 126.591C128.224 126.13 127.967 125.413 127.683 124.669C127.075 123.031 127.467 122.232 127.318 120.161C127.251 119.146 127.115 117.372 126.21 115.586C125.196 113.582 124.344 113.785 123.844 112.12C123.438 110.78 123.898 110.347 123.627 108.127C123.627 108.032 123.425 106.584 122.884 105.027C122.465 103.782 121.194 101.522 119.139 99.3287" stroke="black" stroke-width="0.5" stroke-miterlimit="10"/>
<path d="M133.199 129.785C134.254 130.381 135.836 130.787 136.147 130.963C137.553 131.775 137.972 132.019 138.58 131.992C139.31 131.978 140.392 130.936 140.716 130.665" stroke="black" stroke-width="0.5" stroke-miterlimit="10"/>
<path d="M112.311 89.2578C112.176 89.7045 112.325 91.0446 112.311 91.8973C112.311 92.6554 112.298 93.0885 112.46 93.1562C113.041 93.3728 115.083 88.8246 115.556 89.0277C115.772 89.1224 115.475 90.1512 115.34 92.4253C115.177 94.9159 115.448 95.1054 115.556 95.1596C116.016 95.3626 116.935 94.3474 117.476 93.5352C118.868 91.41 118.584 89.1089 118.801 89.1089C118.976 89.1089 119.342 90.5573 119.166 92.2899C119.017 93.7789 118.584 94.4422 118.949 94.7941C119.355 95.2002 120.558 94.9836 121.167 94.2797C121.802 93.5488 121.315 92.8043 121.762 90.6656C121.978 89.5827 122.127 88.9058 122.64 88.6757C123.303 88.3779 123.857 89.1495 124.925 89.1901C125.966 89.2443 127.629 88.202 128.265 87.5658" stroke="black" stroke-width="0.5" stroke-miterlimit="10"/>
<path d="M108.931 93.9413C108.877 94.6046 108.985 95.9988 108.714 97.0682C108.674 97.2306 108.457 98.0292 108.052 99.058C107.7 99.9514 107.322 100.682 106.727 101.86C106.091 103.105 105.997 103.2 105.916 103.633C105.862 103.931 105.632 105.109 106.281 106.002C106.619 106.462 106.835 106.368 107.606 106.963C107.66 107.004 108.606 107.748 109.228 108.736C109.809 109.67 109.918 110.523 110.039 111.322C110.431 113.745 110.756 113.488 111.297 116.195C111.973 119.66 112.405 121.839 112.04 124.614C111.878 125.833 111.581 126.997 112.257 127.714C112.797 128.283 113.852 128.486 114.69 128.229C115.61 127.958 115.704 127.295 116.461 127.267C117.191 127.24 117.989 127.822 118.084 128.445C118.124 128.689 118.043 128.892 117.489 129.704C116.407 131.301 116.177 131.328 116.083 131.843C115.988 132.398 116.218 132.899 116.678 133.914C117.029 134.699 117.205 135.091 117.556 135.389C118.151 135.89 118.827 135.836 120.355 135.836C122.316 135.836 123.289 135.822 124.195 135.904C126.236 136.107 127.021 136.594 127.656 136.052C128.089 135.687 128.237 135.064 128.17 134.577C128.089 133.914 127.615 133.711 126.25 132.438C125.885 132.086 125.358 131.572 124.33 130.516C123.87 130.042 123.289 129.447 122.64 128.743C121.626 127.633 121.058 127.024 120.653 126.455C119.693 125.115 119.598 123.978 119.179 122.097C118.395 118.604 118.003 119.227 117.191 115.748C116.313 111.999 116.299 109.291 116.313 108.655C116.313 106.868 116.326 105.555 116.826 103.85C117.259 102.401 118.003 101.17 119.476 98.7602C120.991 96.2966 121.383 95.9717 122.275 94.3339C123.275 92.4929 123.857 90.8821 124.195 89.8263" stroke="black" stroke-width="0.5" stroke-miterlimit="10"/>
<path d="M128.278 88.8246C127.913 89.1766 126.439 90.3271 126.196 91.1664C125.79 92.5606 126.48 93.3322 126.128 94.7129C125.872 95.7281 125.236 96.3508 124.574 97.0005C123.208 98.3541 120.031 99.1392 119.125 99.3558" stroke="black" stroke-width="0.5" stroke-miterlimit="10"/>
<path d="M128.251 101.061C128.116 101.684 128.008 102.645 128.183 103.796C128.413 105.298 129.035 106.395 129.441 106.977" stroke="black" stroke-width="0.5" stroke-miterlimit="10"/>
<path d="M112.027 97.5826C112.041 98.3406 112.027 99.1934 111.96 100.087C111.865 101.21 111.703 102.225 111.514 103.119" stroke="black" stroke-width="0.5" stroke-miterlimit="10"/>
<path d="M106.159 96.8245C106.105 97.8397 106.768 100.858 106.727 101.86" stroke="black" stroke-width="0.5" stroke-miterlimit="10"/>
<path d="M106.565 106.3C106.227 106.598 104.956 107.748 104.577 108.439C104.09 109.318 103.766 110.442 103.915 113.677C104.063 116.831 104.401 116.669 104.212 117.955C103.955 119.66 103.428 119.511 102.657 122.232C102.617 122.367 102.144 124.114 102.144 126.442C102.144 127.931 102.333 128.377 102.657 128.58C103.266 128.959 103.915 128.161 104.942 128.513C105.74 128.77 106.173 129.514 106.416 129.921C106.592 130.205 106.93 130.787 106.93 131.545C106.93 132.195 106.686 132.235 106.632 133.02C106.578 133.792 106.767 134.401 106.849 134.645C106.957 134.97 107.119 135.484 107.443 135.822C108.214 136.662 109.282 135.917 111.716 136.269C113.149 136.472 113.811 136.892 114.812 136.486C115.042 136.391 115.555 136.188 115.839 135.673C116.258 134.942 115.961 134.103 115.839 133.751C115.501 132.804 114.893 132.276 113.852 131.382C112.094 129.88 111.216 129.122 111.121 129.014C110.066 127.795 109.782 126.523 109.282 124.289C109.093 123.464 108.755 121.718 108.768 119.416C108.768 117.873 109.282 114.855 109.999 112.31" stroke="black" stroke-width="0.5" stroke-miterlimit="10"/>
<path d="M108.931 109.846C108.552 110.063 107.957 110.442 107.457 111.105C107.227 111.403 106.848 111.972 106.578 113.095C106.132 114.936 106.348 116.669 106.578 117.752" stroke="black" stroke-width="0.5" stroke-miterlimit="10"/>
<path d="M116.827 101.129C114.758 102.74 113.541 104.364 112.838 105.488C112.108 106.652 111.946 107.261 111.878 107.708C111.635 109.373 112.446 110.618 113.055 111.917C113.69 113.257 114.393 115.261 114.609 118.049" stroke="black" stroke-width="0.5" stroke-miterlimit="10"/>
<path d="M107.16 130.99C107.904 130.408 109.175 130.11 109.526 130.151C110.446 130.272 110.77 131.193 111.892 131.41C112.392 131.504 113.136 131.071 113.393 130.99" stroke="black" stroke-width="0.5" stroke-miterlimit="10"/>
<path d="M117.489 129.704C118.098 129.826 119.963 129.514 120.585 129.636C121.464 129.799 123.168 130.015 124.019 130.151" stroke="black" stroke-width="0.5" stroke-miterlimit="10"/>
<path d="M173.949 76.642C174.666 77.5896 175.545 78.9973 176.112 80.8789C177.289 84.8179 176.288 88.202 175.815 89.542" stroke="black" stroke-width="0.5" stroke-miterlimit="10"/>
<path d="M190.078 88.2561C189.483 88.7028 188.712 89.4338 188.212 90.5167C187.604 91.8567 187.779 92.9667 187.725 93.7653C187.631 95.2002 186.684 97.1629 182.912 99.4776" stroke="black" stroke-width="0.5" stroke-miterlimit="10"/>
<path d="M176.707 93.3863C176.788 94.185 176.883 94.9971 177.004 95.8499C177.221 97.3524 177.491 98.7737 177.789 100.087" stroke="black" stroke-width="0.5" stroke-miterlimit="10"/>
<path d="M174.936 98.3947C175.152 99.2881 175.341 100.344 175.422 101.549C175.503 102.645 175.49 103.647 175.422 104.5" stroke="black" stroke-width="0.5" stroke-miterlimit="10"/>
<path d="M177.397 106.774C177.559 107.112 177.829 107.816 177.789 108.736C177.775 109.115 177.681 109.914 177.194 110.699C176.775 111.376 176.383 111.552 176.112 111.877C175.612 112.486 175.396 113.745 176.707 116.601" stroke="black" stroke-width="0.5" stroke-miterlimit="10"/>
<path d="M179.141 130.516C179.465 130.191 180.777 130.164 181.426 130.097C182.21 130.029 182.696 130.476 183.886 130.976C184.386 131.193 186.374 131.464 187.307 131.667" stroke="black" stroke-width="0.5" stroke-miterlimit="10"/>
</g>
<defs>
<clipPath id="clip0_104_4384">
<rect width="224" height="137" fill="white"/>
</clipPath>
</defs>
</svg>
