<svg width="253" height="134" viewBox="0 0 253 134" fill="none" xmlns="http://www.w3.org/2000/svg">
<g clip-path="url(#clip0_185_863)">
<path d="M106.803 44.7369C107.185 44.0383 107.066 42.6016 107.513 41.2176C107.974 39.794 108.013 39.0822 108.513 37.1973C109 35.3388 109.25 34.4161 109.592 33.7438C110.539 31.8985 111.367 32.0039 113.748 29.0645C115.169 27.3114 115.497 26.5205 115.616 26.191C116.181 24.662 115.747 24.2666 116.26 22.8825C116.523 22.1576 116.8 21.8544 119.062 19.2841C121.614 16.3842 121.548 16.4501 121.785 16.1865C123.955 13.827 124.178 13.7875 125.086 12.6671C126.612 10.769 126.375 10.3604 127.743 8.42276C128.374 7.52644 130.111 5.1011 132.978 3.32164C133.491 2.99211 135.214 1.97716 138.713 1.15992C143.079 0.144971 147.144 0.197696 150.485 0.57995C155.68 1.18629 159.455 2.68894 163.901 4.4684C169.359 6.6433 172.095 7.72416 173.805 8.63366C174.555 9.02909 175.541 9.5827 177.028 10.0045C179.369 10.6636 181.46 10.5581 183.552 10.4395C185.104 10.3472 186.287 10.1759 188.642 10.1495C189.563 10.1495 190.47 10.1495 191.509 10.5845C192.496 10.9799 192.693 11.3753 193.587 11.8762C194.863 12.5748 196.034 12.6539 197.468 12.733C199.572 12.8516 199.861 12.4562 202.413 12.298C204.649 12.153 206.333 12.0608 208.293 12.733C209.95 13.2998 211.068 14.1829 212.239 15.1056C213.343 15.9756 214.119 16.8324 215.685 18.5591C217.605 20.6813 218.565 21.7358 219.052 22.8034C219.341 23.4361 219.696 24.372 220.486 25.901C220.972 26.8501 221.235 27.2455 221.564 27.6278C222.209 28.3923 222.695 28.6295 223.576 29.2754C224.116 29.6708 225.313 30.5803 226.233 31.7139C227.049 32.7421 227.404 33.6779 227.956 35.1674C228.654 37.0523 228.64 37.7114 229.101 39.2668C229.903 42.0084 231.1 43.9724 232.113 45.6596C233.757 48.3881 234.231 48.3222 234.98 50.194C235.612 51.7625 235.783 53.0675 236.059 55.1501C236.256 56.6396 236.309 57.7468 236.414 60.6203C236.545 64.4428 236.624 66.3409 236.624 67.804C236.638 70.4139 236.809 73.0238 236.769 75.6468C236.769 76.0686 236.743 77.2681 237.124 78.7444C237.374 79.6935 237.677 80.7743 238.558 81.697C239.163 82.3297 239.334 82.1452 240.715 83.1338C241.78 83.9114 242.504 84.4123 243.017 85.2955C243.398 85.9545 243.49 86.5872 243.661 87.8131C243.911 89.698 243.78 90.5548 243.872 92.3474C243.924 93.336 244.056 94.1796 244.306 95.8668C244.674 98.3712 245.029 99.9266 245.45 102.049C246.213 105.832 246.029 105.463 246.739 109.022C247.634 113.503 248.081 115.757 248.673 117.51C249.186 119.026 250.422 122.335 251.474 124.984C251.737 125.643 252.29 127.027 252.474 128.938C252.619 130.375 252.75 131.087 252.474 131.667C251.579 133.578 248.212 133.631 245.437 133.684C242.136 133.736 241.452 132.985 241.281 132.748C240.662 131.97 240.754 130.929 240.847 129.729C240.991 127.976 241.517 127.33 241.925 125.63C242.122 124.773 242.175 124.154 242.214 121.61C242.28 117.497 242.359 115.454 242.214 114.202C241.899 111.592 241.478 111.368 241.136 108.086C240.899 105.832 241.096 105.845 240.847 104.711C240.268 102.009 238.782 100.151 237.69 98.8194C235.533 96.17 234.888 96.6577 232.665 94.0082C230.982 91.9915 229.798 89.843 229.364 89.0521C228.654 87.7472 227.628 85.6382 225.773 83.8719C225.431 83.5424 224.944 83.1074 224.195 82.8701C223.235 82.5538 222.458 82.7383 221.038 83.081C218.223 83.7796 217.053 84.8473 216.658 85.2427C216.303 85.5986 216.106 85.8886 216.013 86.2445C215.803 87.1145 216.342 87.9449 216.868 88.683C218.065 90.3439 218.657 91.1875 220.025 92.4924C221.327 93.7446 222.011 94.1796 223.182 95.59C223.8 96.3281 224.142 96.8422 224.326 97.5276C224.471 98.068 224.524 98.7271 224.182 100.256C223.866 101.667 223.498 102.536 222.814 104.276C222.511 105.041 222.011 106.346 221.525 107.73C220.499 110.63 220.578 110.933 219.946 112.185C219.065 113.951 218.749 113.701 217.934 115.283C216.645 117.774 216.526 120.173 216.5 121.109C216.408 123.745 217 126.21 217 126.21C217.408 127.923 217.868 128.714 217.434 129.584C216.974 130.494 215.908 130.81 214.711 131.166C213.883 131.416 213.554 131.39 210.187 131.522C207.99 131.614 207.175 131.667 206.175 131.166C205.175 130.678 204.886 130.085 204.807 129.94C204.675 129.65 204.518 129.162 204.807 127.778C205.07 126.526 205.491 125.472 205.951 124.549C206.596 123.244 206.806 123.218 207.464 121.821C207.806 121.082 208.056 120.555 208.253 119.804C208.608 118.473 208.398 118.077 208.687 117.075C208.832 116.574 209.055 116.074 210.055 114.703C211.594 112.581 212.028 112.436 213.146 110.893C214.369 109.206 214.974 108.363 215.159 107.005C215.237 106.438 215.474 104.632 214.435 103.261C213.777 102.378 213.015 102.26 212.646 101.179C212.383 100.427 212.594 99.9925 212.212 99.663C211.726 99.2412 210.963 99.6498 210.055 99.7289C209.292 99.808 208.621 99.6366 206.399 98.503C204.334 97.4485 203.058 96.7895 201.164 95.4845C199.559 94.3773 198.086 93.3096 196.363 91.5961C194.469 89.7243 193.548 88.3271 192.272 88.4985C191.983 88.538 191.457 88.8412 190.404 89.4344C189.115 90.1725 188.944 90.423 188.247 90.5811C187.945 90.647 186.892 90.8975 186.09 90.3702C185.472 89.9616 185.498 89.408 185.012 88.4326C184.301 86.9958 183.249 86.1786 182.644 85.7041C181.75 85.0055 180.658 84.1487 179.277 84.1223C178.422 84.1092 178.054 84.4123 175.12 86.205C172.029 88.0899 171.424 88.3667 170.885 88.5776C169.386 89.1707 168.636 89.4739 167.584 89.5794C166.453 89.698 165.584 89.553 164.572 90.1593C164.44 90.2384 163.953 90.5284 163.493 91.0952C162.757 91.9915 162.73 92.8087 162.415 93.8237C161.994 95.1814 161.652 94.9836 160.691 96.9213C160.323 97.6594 159.942 98.7798 159.179 101.021C158.403 103.314 158.35 103.644 157.89 104.619C157.614 105.199 157.166 106.135 156.377 107.203C155.43 108.508 155.154 108.402 154.51 109.364C153.97 110.168 154.023 110.432 153.076 113.319C152.326 115.612 152.234 115.586 151.932 116.772C151.629 117.945 151.366 118.934 151.287 120.292C151.182 122.203 151.484 123.705 151.642 124.391C151.997 125.88 152.26 125.88 152.576 127.198C152.918 128.635 153.339 130.428 152.576 131.733C151.445 133.657 148.275 133.578 145.828 133.525C143.685 133.473 141.698 133.433 140.949 132.155C140.304 131.047 140.817 129.413 141.304 127.844C141.567 126.988 141.712 126.908 142.238 125.472C142.751 124.088 142.922 123.35 143.237 122.308C144.29 118.855 144.921 118.618 145.671 115.77C145.828 115.177 146.131 113.965 146.315 112.396C146.591 110.102 146.381 109.127 146.46 105.924C146.499 104.158 146.591 102.853 146.67 101.825C146.947 98.1339 147.091 96.2886 147.67 94.8518C147.88 94.3246 148.328 93.336 148.748 91.8333C148.972 91.0161 149.104 90.3834 149.183 89.9616C149.669 87.4176 149.866 85.1109 149.972 84.1355C150.116 82.8042 150.603 81.0643 151.55 77.5977C152.773 73.1292 153.392 70.9016 153.983 69.399C154.891 67.1186 156.522 63.8497 159.573 60.2644" stroke="black" stroke-width="0.5" stroke-miterlimit="10"/>
<path d="M151.064 96.0645C150.893 97.699 151.064 99.0171 151.274 99.953C151.537 101.139 151.721 101.93 152.353 102.26C153.3 102.747 154.628 101.851 155.575 101.179C156.733 100.375 158.521 98.8589 160.021 96.0777" stroke="black" stroke-width="0.5" stroke-miterlimit="10"/>
<path d="M167.492 68.0941C167.492 70.5985 167.373 73.3138 167.058 76.2137C166.532 81.1566 165.164 86.8245 164.111 90.5284" stroke="black" stroke-width="0.5" stroke-miterlimit="10"/>
<path d="M125.81 23.9503C127.704 22.474 129.44 21.4326 130.755 20.7209C132.873 19.5741 134.78 18.546 137.503 18.0583C139.081 17.7815 140.962 17.4387 143.093 18.0583C146.236 18.9678 147.999 21.3799 149.051 22.8035C152.892 28.0496 152.695 34.1789 152.497 36.5383" stroke="black" stroke-width="0.5" stroke-miterlimit="10"/>
<path d="M195.692 20.8658C196.297 20.7736 197.218 20.5759 198.27 20.1409C200.335 19.2973 200.874 18.3482 202.795 17.1883C204.268 16.3052 205.938 15.3034 207.819 15.4616C210.081 15.6593 211.594 17.4256 212.554 18.5591C215.869 22.4476 216.053 27.3246 216 29.4204" stroke="black" stroke-width="0.5" stroke-miterlimit="10"/>
<path d="M223.813 40.1367C222.577 40.2422 219.71 40.6771 217.145 42.8652C214.909 44.7633 214.08 46.9909 213.344 48.9813C212.699 50.6949 211.739 53.3838 212.265 56.8241C212.594 58.9067 213.344 60.5148 213.909 61.5034" stroke="black" stroke-width="0.5" stroke-miterlimit="10"/>
<path d="M164.203 40.2026C164.479 42.8389 165.019 46.4769 166.216 50.6949C168.425 58.564 171.477 63.4543 175.975 70.6776C179.316 76.0423 181.21 78.1908 184.156 79.443C187.274 80.7743 190.062 80.458 190.68 80.3789C194.863 79.8385 197.48 77.2813 198.283 76.4246" stroke="black" stroke-width="0.5" stroke-miterlimit="10"/>
<path d="M179.33 84.1355C180.566 84.096 184.354 83.1733 186.498 83.0547C191.259 82.8042 192.575 82.6065 193.601 82.4088C195.639 82.0134 197.113 81.7234 198.836 80.7611C200.795 79.6671 202.058 78.2567 202.782 77.3077" stroke="black" stroke-width="0.5" stroke-miterlimit="10"/>
<path d="M192.89 88.5512C195.508 86.7322 198.849 84.0433 200.072 82.8438C202.11 80.8403 203.268 79.2981 206.175 76.8068C208.306 74.9746 209.239 74.4737 210.186 74.1442C210.884 73.9069 213.291 73.0765 215.777 74.0783C217.079 74.6056 217.986 75.581 219.722 77.5318C221.143 79.1135 223.116 81.7234 223.813 82.7383" stroke="black" stroke-width="0.5" stroke-miterlimit="10"/>
<path d="M212.265 99.663C212.672 99.5707 215.053 99.5048 216 98.5162C216.881 97.5935 217.144 96.5654 217.223 96.1436" stroke="black" stroke-width="0.5" stroke-miterlimit="10"/>
<path d="M214.935 104.052C215.461 103.855 217.184 103.512 217.934 102.906C218.934 102.088 219.499 101.179 219.802 100.599" stroke="black" stroke-width="0.5" stroke-miterlimit="10"/>
<path d="M232.205 88.6567C232.6 88.8544 234.112 89.553 235.651 88.9467C237.861 88.0767 238.229 85.2559 238.308 84.7023C238.44 83.7137 238.308 82.8701 238.163 82.3297" stroke="black" stroke-width="0.5" stroke-miterlimit="10"/>
<path d="M205.609 125.445C205.965 125.63 207.319 126.539 207.753 127.199C208.806 128.833 208.201 131.153 208.187 131.153C208.161 131.153 207.766 128.319 209.266 126.698C210.226 125.643 211.607 125.511 211.989 125.472C214.29 125.248 217.131 127.04 217.381 127.278" stroke="black" stroke-width="0.5" stroke-miterlimit="10"/>
<path d="M241.846 126.065C242.28 126.342 243.477 126.803 243.898 127.409C245.24 129.36 244.595 133.288 244.582 133.367C244.437 134.949 243.701 128.134 245.332 126.539C246.542 125.353 249.699 125.867 252.079 126.645" stroke="black" stroke-width="0.5" stroke-miterlimit="10"/>
<path d="M113.735 37.5005C115.287 35.4574 116.878 34.5215 117.944 34.047C119.72 33.2561 121.548 33.1112 124.06 32.9003C126.507 32.6894 127.19 32.9003 128.65 32.3203C129.966 31.8194 130.032 31.4108 131.715 30.6858C133.096 30.0927 134.306 29.5654 135.727 29.6313C138.239 29.7499 139.962 31.6349 140.515 32.2148C142.343 34.192 142.698 36.4724 143.001 38.4495C143.237 39.9786 143.513 41.7317 142.803 43.8143C142.198 45.5937 141.172 46.7932 140.501 47.4523" stroke="black" stroke-width="0.5" stroke-miterlimit="10"/>
<path d="M143.29 50.7213C141.422 52.2766 140.159 53.8188 139.37 54.9392C138.384 56.3364 135.937 59.8558 135.543 64.9042C135.424 66.4596 135.529 67.7645 135.635 68.6477" stroke="black" stroke-width="0.5" stroke-miterlimit="10"/>
<path d="M139.857 58.3004C141.054 60.9367 141.975 63.2038 142.632 64.9174C144.25 69.109 144.461 70.3348 144.447 71.6266C144.421 73.5247 143.921 74.8955 143.303 76.6091C142.172 79.6935 141.054 80.8139 139.476 83.7928C138.66 85.3219 137.608 87.9845 136.7 90.9239" stroke="black" stroke-width="0.5" stroke-miterlimit="10"/>
<path d="M120.917 57.9182C120.312 58.7617 119.509 59.9481 118.72 61.4639C117.734 63.3488 116.905 64.9305 116.523 67.1186C115.879 70.7962 116.918 73.7883 117.378 75.0801C118.076 76.9913 118.983 78.4413 119.68 79.3903" stroke="black" stroke-width="0.5" stroke-miterlimit="10"/>
<path d="M114.787 78.5204C115.418 80.0099 116.352 82.0134 117.654 84.2674C118.628 85.9546 119.759 87.9186 121.285 89.7376C122.692 91.3984 125.336 93.9951 129.9 95.9723" stroke="black" stroke-width="0.5" stroke-miterlimit="10"/>
<path d="M119.575 72.5625C118.865 72.4702 118.444 71.2048 118.352 70.4008C118.194 68.9245 119.022 67.7909 119.641 66.9473C120.127 66.275 120.601 65.6423 121.074 65.7214C121.745 65.8532 121.969 67.3954 122.008 68.094C122.008 68.3181 122.061 69.4649 121.364 70.7566C121.048 71.3366 120.338 72.6547 119.575 72.5493V72.5625Z" stroke="black" stroke-width="0.5" stroke-miterlimit="10"/>
<path d="M99.332 68.8849C99.7266 69.0958 100.713 69.9657 100.989 70.6116C101.213 71.1389 101.134 71.5739 101.055 72.2593C100.858 74.0915 100.753 75.001 100.989 75.7787C101.042 75.9764 101.437 77.2418 102.568 77.9404C103.173 78.3094 103.462 78.1908 104.435 78.6653C104.501 78.6917 105.435 79.153 106.08 79.7462C107.106 80.6821 107.066 81.6706 107.658 83.1997C108.131 84.4255 108.829 85.335 110.236 87.154C111.63 88.9598 111.946 88.9335 113.458 90.8975C114.313 91.9915 115.05 92.9406 115.76 94.2719C116.352 95.4054 116.444 95.88 117.483 99.083C118.707 102.853 119.246 104.237 119.496 104.83C120.798 108.059 121.469 108.798 121.719 109.074C122.166 109.549 123.481 110.907 125.665 111.381C127.795 111.842 129.479 111.183 130.61 110.735C131.833 110.261 133.293 109.681 134.122 108.218C134.596 107.387 134.661 106.636 134.767 105.489C134.859 104.448 134.767 103.907 134.477 101.179C134.175 98.4371 134.122 97.6858 134.122 96.6445C134.122 95.0627 134.28 94.2982 134.411 93.771C134.648 92.8483 135.122 91.0161 136.134 90.8184C136.7 90.7129 136.963 91.2006 138.357 92.1101C139.502 92.8483 140.435 93.4678 141.659 93.6919C142.408 93.8369 142.54 93.6919 145.394 93.5469C146.197 93.5074 147.933 93.3755 148.354 93.3624" stroke="black" stroke-width="0.5" stroke-miterlimit="10"/>
<path d="M127.611 108.428C127.48 108.297 127.125 107.875 127.112 107.282C127.098 106.451 127.769 105.924 127.966 105.766C128.874 105.054 130.018 105.252 130.834 105.41C131.399 105.515 131.926 105.621 132.057 105.99C132.228 106.464 131.636 107.058 131.557 107.137C131.189 107.506 130.755 107.611 130.558 107.638" stroke="black" stroke-width="0.5" stroke-miterlimit="10"/>
<path d="M106.054 48.5595C105.554 48.8759 104.962 50.3785 104.291 51.1298C103.91 51.5516 103.291 52.2502 102.857 53.2916C102.358 54.4779 102.686 54.6756 102.213 56.0201C101.95 56.7582 101.871 56.6659 100.845 58.6036C99.8059 60.5939 99.9243 60.6335 99.556 60.9762C98.7011 61.7802 97.9119 61.688 97.2542 62.6238C96.9385 63.0852 96.807 63.9156 96.7544 64.2188" stroke="black" stroke-width="0.5" stroke-miterlimit="10"/>
<path d="M94.0186 66.3014C94.2159 65.9982 94.8867 64.9569 95.6758 64.5746C95.8731 64.4824 97.3068 63.7838 98.3985 64.5087C99.0956 64.9701 99.2798 65.7478 99.4771 66.5914C99.6349 67.2504 99.7796 67.8963 99.4771 68.6081C99.1351 69.399 97.8593 70.0448 97.6093 70.1635" stroke="black" stroke-width="0.5" stroke-miterlimit="10"/>
<path d="M117.062 97.7517C116.891 98.6744 116.51 101.482 115.984 102.892C115.497 104.197 114.682 106.372 112.893 108.494C111.88 109.707 109.263 112.436 108.158 113.82C107.974 114.044 107.684 114.426 107.579 114.966C107.461 115.599 107.697 115.902 107.645 116.403C107.566 117.194 106.856 117.655 106.277 118.13C106.277 118.13 104.554 119.58 103.554 122.15C103.173 123.139 102.594 124.641 103.199 125.959C104.107 127.91 107.066 128.161 109.157 128.332C110.828 128.464 113.761 128.714 114.826 127.106C115.05 126.777 114.997 126.632 115.182 124.233C115.208 123.916 115.379 121.596 115.616 119.632C115.813 117.945 115.918 117.102 116.05 116.68C116.497 115.309 117.089 114.782 118.851 112.37C119.325 111.711 120.64 109.892 121.416 108.705" stroke="black" stroke-width="0.5" stroke-miterlimit="10"/>
<path d="M105.567 118.881C106.014 118.683 107.079 118.538 107.619 118.881C109.342 120.002 106.909 127.818 106.803 127.792C106.698 127.765 107.487 119.936 109.815 119.448C110.881 119.224 112.091 120.371 112.735 120.977C113.932 122.111 115.011 123.587 115.195 124.233" stroke="black" stroke-width="0.5" stroke-miterlimit="10"/>
<path d="M142.238 125.696C142.606 125.92 143.671 126.539 144.158 127.264C145.618 129.426 144.882 133.486 144.776 133.486C144.658 133.486 143.961 127.515 146.026 126.21C147.42 125.327 149.643 126.46 149.906 126.592C151.419 127.37 152.747 128.385 152.997 128.873" stroke="black" stroke-width="0.5" stroke-miterlimit="10"/>
<path d="M63.319 7.97461C63.9503 7.10465 65.2262 5.61517 67.3307 4.52113C68.1988 4.07297 69.7771 3.2821 71.9211 3.26892C74.8542 3.26892 76.9324 4.73203 77.5638 5.18019C77.9058 5.43064 80.2207 7.10465 81.2993 9.59589C81.5886 10.2813 81.8911 11.2435 82.825 12.0871C83.3117 12.5221 83.5879 12.6012 84.022 13.1416C84.2061 13.3789 84.7717 14.1039 84.8769 15.1979C84.9295 15.7383 85.0084 16.5424 84.4955 17.2146C83.9036 17.9791 82.9434 18.0582 82.6277 18.0714C81.9832 18.1241 81.4966 17.9528 80.8126 17.6891C79.2342 17.096 79.1948 16.5951 78.3267 16.4897C77.2086 16.3578 76.2353 17.0696 75.8407 17.3464C74.6438 18.2032 74.5517 18.4273 73.7888 18.5064C72.9339 18.5855 72.3551 18.1768 72.1184 18.3614C71.9342 18.5064 72.1447 19.2709 72.5919 19.8509C73.1706 20.589 73.6836 20.4177 74.0256 20.9976C74.4465 21.7094 74.1308 22.7639 73.6968 23.4889C73.2627 24.2138 73.3022 24.2138 73.4995 24.4775C73.7625 24.8202 73.8414 24.662 74.6438 25.5188C75.262 26.1778 75.1568 27.2191 75.2225 27.6541C75.2751 27.9837 75.4067 28.8932 74.9858 29.8158C74.7359 30.3431 74.578 30.2904 74.2229 30.9626C73.7888 31.7798 73.9335 32.0171 73.6047 32.5443C73.5258 32.6762 72.8944 33.6516 71.829 33.7438C70.7768 33.8361 69.764 33.0189 69.4878 32.1621C69.2642 31.4767 69.6719 31.2262 69.4352 30.3431C69.2642 29.684 68.9616 29.4863 68.475 28.7086C68.475 28.7086 67.8962 27.7859 67.5148 26.5074C67.1071 25.1365 67.1597 23.3702 67.8436 21.9071C68.9222 19.6004 70.8951 19.4554 70.9083 17.7419C70.9083 16.7796 70.3033 15.9624 70.1849 15.8306C69.9613 15.5274 69.3562 14.7366 68.6065 14.7761C68.0409 14.8025 67.8042 15.2902 67.1728 15.8306C67.1728 15.8306 66.0285 16.806 64.3975 17.0828C64.266 17.1092 61.2934 17.5442 59.9518 15.4088C59.1889 14.1829 59.1889 12.4826 60.0438 11.2435C60.4516 10.6504 61.2013 10.7031 62.0036 9.80679C62.3719 9.39818 63.1611 8.23823 63.2927 7.98779" stroke="black" stroke-width="0.5" stroke-miterlimit="10"/>
<path d="M60.557 16.5556C59.5442 16.226 55.5457 14.9211 52.994 15.5802C51.0473 16.0811 49.7715 17.0565 49.4558 17.3069C47.8774 18.5591 47.1409 19.9827 46.7331 20.7999C45.6809 22.9089 45.5493 24.7806 45.4836 25.7824C45.3915 27.2455 45.2731 29.3413 46.3385 31.4899C47.0356 32.8739 47.5881 33.0057 48.1142 34.5611C48.5614 35.8792 48.6009 37.1182 48.6403 37.9223C48.7061 39.4381 48.4825 39.5436 48.5877 41.033C48.6798 42.4039 48.7324 43.1552 49.2059 43.9593C49.8372 45.0269 50.4291 44.8688 50.8369 45.831C51.2709 46.846 50.6659 47.2018 50.9816 48.52C51.0868 48.9549 51.1526 48.9418 52.4153 51.1035C53.4149 52.8302 53.5201 53.107 53.6122 53.4497C53.8752 54.4779 53.6253 54.8206 53.941 55.4665C54.3225 56.2441 55.1511 56.6659 55.9929 56.9032" stroke="black" stroke-width="0.5" stroke-miterlimit="10"/>
<path d="M50.5078 22.7771C51.7968 25.0311 53.191 26.6524 54.2433 27.72C54.7431 28.2209 56.7292 30.1849 59.5571 31.3185C60.6357 31.7535 61.6222 31.9776 62.4245 31.5162C62.8454 31.279 63.0953 30.9231 63.24 30.6595" stroke="black" stroke-width="0.5" stroke-miterlimit="10"/>
<path d="M59.9256 16.3051C60.6754 16.5819 61.846 17.1092 62.9377 18.1768C64.7791 19.9827 65.2527 22.2235 65.4236 23.0671C65.9366 25.6506 65.6867 25.8747 66.4759 28.01C66.7126 28.6559 67.002 29.0381 67.8175 30.9758C68.8171 33.4011 68.6725 33.5857 68.8698 34.2315C69.4485 36.1296 69.751 36.7623 70.3561 38.5022C70.6849 39.4513 70.5534 39.1613 70.9348 40.374C71.4872 42.1534 71.4741 42.7598 72.3685 44.012C72.7236 44.5129 72.9078 44.7369 73.8548 45.5015C74.736 46.2001 76.2881 47.4523 77.5377 48.9945C78.6688 50.3917 79.3659 51.8021 80.1683 53.4497C80.4708 54.0692 80.4971 54.1747 81.0232 55.2687C81.3389 55.9146 82.0229 57.325 82.7989 58.7617C84.6009 62.1098 85.811 63.6124 86.8106 64.6142C87.2578 65.0623 87.7313 65.471 88.4416 65.7214C89.1913 65.985 89.8753 65.9323 91.1248 65.8137C92.7163 65.6687 93.2425 65.4182 93.7028 65.8137C93.8607 65.9455 94.0185 66.2487 94.321 66.8682C94.7419 67.6986 94.6498 67.7381 94.8471 68.0149C95.3338 68.7267 95.8731 68.4763 96.8069 69.2671C97.1095 69.5176 97.5567 69.8998 97.8066 70.5589C97.8855 70.7566 98.2538 71.7188 97.8066 72.4306C97.5172 72.892 97.1226 72.8392 96.899 73.2874C96.636 73.8278 97.1752 74.2496 96.9516 74.5792C96.6623 75.001 95.7942 74.4869 95.2286 74.9614C94.7682 75.3437 95.1102 75.8709 94.6104 76.3454C94.2026 76.7277 93.8738 76.5036 93.1767 76.9254C92.5848 77.2813 92.5585 77.5977 92.2165 77.7822C91.2432 78.3094 89.3886 76.7277 89.0598 76.4377C86.4555 74.1574 84.9165 71.877 83.9958 70.6907C82.5227 68.8058 81.9571 68.8981 76.2486 64.746C69.6063 59.9349 69.238 60.0535 68.3042 58.6563C66.8573 56.4814 66.6732 54.7547 64.3319 52.5666C63.3586 51.6571 62.7536 51.3539 62.1748 50.3126C61.1357 48.4277 61.9644 47.36 61.3593 45.1324C61.1226 44.2492 60.0572 42.8652 57.9658 40.1499C55.8087 37.3687 55.2694 36.9205 54.6644 35.5497C53.9278 33.8625 53.77 32.2939 53.7568 31.2789" stroke="black" stroke-width="0.5" stroke-miterlimit="10"/>
<path d="M80.7074 17.6496C80.5364 18.0582 80.2075 19.1786 79.9445 20.1672C79.392 22.2762 79.4183 23.3175 78.7738 23.5416C78.1951 23.7393 77.7347 22.9353 77.1034 23.2121C76.814 23.3307 76.7351 23.568 76.1432 24.6488C75.8802 25.1365 75.0778 26.0987 74.9463 26.3228" stroke="black" stroke-width="0.5" stroke-miterlimit="10"/>
<path d="M45.4833 25.7956C45.0756 26.2306 43.2078 27.9178 42.7343 28.8404C42.4844 29.3282 42.0504 30.264 41.7347 32.3598C41.3269 35.0224 41.2743 34.5874 40.8797 36.156C40.5246 37.5664 40.4062 39.0163 39.3671 40.5585C37.8808 42.773 37.4468 42.6148 36.4997 44.3679C35.9605 45.3697 36.1052 45.4224 34.9871 48.0323C34.3032 49.6535 33.948 50.4708 33.5535 51.1958C32.3434 53.397 31.2122 53.7924 29.6075 55.5851C27.2268 58.2345 26.3192 61.108 25.951 62.268C25.0434 65.1283 25.8326 65.1546 24.7277 69.5967C24.0438 72.3911 23.6886 73.7883 23.0836 75.0669C22.2418 76.8068 21.4657 77.6636 21.6499 79.0212C21.7814 80.0362 22.3602 80.6689 23.373 81.7498C24.5304 82.9888 26.3061 84.9001 29.0419 85.3482C29.7391 85.4668 30.8702 85.3219 33.1326 85.0582C36.5787 84.6496 36.4734 84.386 37.8677 84.4124C39.617 84.4387 39.696 84.8473 43.5367 85.6382C45.115 85.9677 46.3646 86.2182 48.0613 86.3632C50.4815 86.5609 52.3624 86.4027 53.2963 86.2973C55.7033 86.0205 56.9791 85.8755 58.4654 85.0714C59.7018 84.3992 59.5045 84.1356 61.6222 82.6988C63.4373 81.4598 64.358 80.8534 65.2787 80.6821C65.8443 80.5766 67.6595 80.3525 69.2904 80.1812C69.6587 80.1416 70.0928 80.1021 70.2243 79.8253C70.4874 79.2849 69.422 78.2699 68.5013 77.3868C67.107 76.0291 65.8575 74.5133 64.4106 73.2215C58.5181 67.9359 59.1362 68.3972 58.1629 67.6195C55.1114 65.1546 53.5725 63.9156 52.2835 63.3093C50.5867 62.5052 48.6269 61.9121 46.9039 59.9349C46.3909 59.3417 46.0358 58.7881 45.8253 58.419" stroke="black" stroke-width="0.5" stroke-miterlimit="10"/>
<path d="M61.6094 47.1096C61.3989 47.2546 60.0705 48.2959 59.8074 48.6913C59.2813 49.469 59.3865 50.194 59.2287 51.3539C59.1629 51.8021 59.0314 52.7643 58.5842 53.7924C58.1238 54.8601 57.7818 54.9655 56.94 56.6C56.6112 57.2327 56.4402 57.5622 56.2955 58.0368C55.9667 59.1044 56.0062 59.9349 56.0062 60.6203C56.0062 61.543 55.9667 63.9288 55.7168 65.6423" stroke="black" stroke-width="0.5" stroke-miterlimit="10"/>
<path d="M23.3203 74.5265C24.4252 75.8578 27.0558 78.5731 29.6733 79.3903C32.1987 80.168 33.0931 79.3508 37.8545 79.6803C40.4588 79.8649 40.2747 80.1153 45.3123 80.6821C48.4296 81.038 50.008 81.2094 51.2707 81.038C54.4274 80.6162 56.9133 79.1663 57.8735 78.5995C60.1753 77.2155 61.5695 75.726 64.2528 75.5019C64.8052 75.4624 66.3704 75.4492 66.6598 75.4755" stroke="black" stroke-width="0.5" stroke-miterlimit="10"/>
<path d="M69.9877 80.023C70.5927 80.7875 72.1579 82.6197 73.0918 83.9906C74.394 85.9018 75.0516 86.8772 75.5251 88.0899C76.1302 89.6321 75.8671 89.8694 76.5248 92.1893C77.0377 93.9687 77.3271 94.3378 78.1031 96.4336C79.0765 99.0698 79.5763 101.166 79.892 102.471C80.3392 104.29 80.1024 103.749 81.1152 108.943C81.9702 113.371 82.0754 113.464 82.1938 114.835C82.299 116.179 82.2727 117.009 82.6278 118.433C82.9566 119.738 83.2197 120.819 83.9957 121.807C84.7323 122.743 86.1397 123.323 88.9413 124.47C91.6245 125.564 92.0717 125.485 93.2424 126.342C93.9132 126.829 94.2815 127.225 95.1101 127.488C95.7283 127.686 96.4912 127.699 97.9775 127.699C99.569 127.699 100.095 127.633 100.555 128.055C100.897 128.372 101.029 128.807 101.134 129.136C101.239 129.492 101.45 130.164 101.2 130.718C100.897 131.416 100.003 131.627 99.2665 131.799C98.1485 132.049 97.6224 131.865 95.6757 131.799C93.9921 131.746 94.2289 131.878 93.0977 131.799C91.8876 131.706 90.7696 131.627 89.4411 131.153C88.4415 130.797 88.06 130.481 87.2182 130.507C86.7447 130.52 86.4291 130.639 85.5741 130.942C83.8905 131.535 83.0487 131.838 82.9172 131.878C82.0622 132.141 80.5628 132.603 78.8266 132.313C77.9058 132.155 76.8536 131.983 76.3143 131.166C76.1302 130.889 75.9329 130.402 76.2486 128.213C76.5248 126.315 76.7615 126.078 76.8931 124.984C77.1167 123.126 76.6826 121.636 76.3932 120.674C76.0381 119.448 75.6041 118.644 74.315 116.509C71.737 112.198 71.3424 111.856 70.3034 109.892C69.067 107.585 68.4488 106.438 68.0016 104.711C67.4886 102.747 66.8046 100.085 67.5017 97.0136C67.8043 95.6954 68.212 94.9178 67.7911 93.9951C67.3834 93.0988 66.4758 92.7165 64.5686 92.0574C61.3066 90.9239 60.0965 90.6998 58.7549 90.1857C57.4265 89.6848 55.2562 88.1163 53.2964 86.2973" stroke="black" stroke-width="0.5" stroke-miterlimit="10"/>
<path d="M40.8799 85.0187C40.0513 86.2973 38.7886 87.9713 38.1441 88.6567C36.5131 90.423 35.2767 91.7675 33.2643 92.6111C31.8043 93.2306 31.094 93.0988 30.318 93.9819C29.6866 94.6937 29.8576 95.1287 29.029 96.4995C28.6607 97.1058 28.2003 97.6199 27.3059 98.6612C26.2537 99.8739 25.7144 100.48 24.8726 101.179C23.8203 102.036 23.3468 101.891 22.5708 102.695C22.0052 103.288 21.7553 103.841 21.4265 104.566C20.8477 105.819 19.7955 108.112 19.2036 109.246C18.5985 110.392 18.6643 109.984 16.7703 112.844C15.5339 114.716 14.6789 116.008 13.7582 117.8C13.2715 118.749 12.9296 119.58 12.2456 121.254C11.1802 123.864 10.996 124.707 11.3906 125.419C11.6142 125.841 11.9957 126.078 12.7586 126.566C13.6661 127.146 14.0739 127.172 15.1261 127.647C16.7571 128.385 16.5204 128.688 17.9935 129.294C19.1247 129.756 19.7166 130.006 20.5715 130.019C21.1897 130.019 21.5975 129.914 22.1499 130.164C22.242 130.204 23.1364 130.639 23.1495 131.311C23.1495 131.904 22.4787 132.326 22.1499 132.537C21.0187 133.235 19.7297 133.011 18.9274 132.893C18.9274 132.893 15.7049 132.431 11.1802 132.036C9.60182 131.904 8.82578 131.825 8.08921 131.891C6.22147 132.049 5.45859 132.59 3.64346 132.471C2.64382 132.405 1.99932 132.366 1.42058 131.891C0.236805 130.955 0.157886 128.965 0.565632 127.581C1.03914 125.986 1.88094 126.144 3.07788 124.061C3.73553 122.901 3.59085 122.651 4.72201 119.527C5.43228 117.589 5.5112 117.616 6.01102 116.219C7.11588 113.174 7.6157 110.643 7.94453 108.89C8.65479 105.186 8.24705 105.423 8.79948 103.499C9.11515 102.418 9.89119 99.8607 11.8905 97.3826C13.5346 95.3396 14.1396 95.6691 17.7699 92.0574C19.8086 90.0275 20.1769 89.3685 20.4268 88.749C20.9135 87.5231 20.8083 86.7059 21.2818 83.7928C21.4659 82.6592 21.8342 80.6425 21.9657 80.0362" stroke="black" stroke-width="0.5" stroke-miterlimit="10"/>
<path d="M45.9308 30.5276C45.7862 31.6744 45.2206 35.1938 45.168 37.1182C45.1153 39.1877 45.0364 41.8107 45.5231 44.3811C45.8914 46.2792 46.8384 49.614 49.7584 53.2916" stroke="black" stroke-width="0.5" stroke-miterlimit="10"/>
<path d="M45.6148 29.3018C45.2465 30.3694 42.5238 37.1577 42.2344 38.9899C41.682 42.5752 42.0108 45.3828 42.1687 46.3978C42.3791 47.8345 42.7869 49.7853 43.6813 51.9998" stroke="black" stroke-width="0.5" stroke-miterlimit="10"/>
<path d="M42.4847 37.9223C42.2742 38.4759 40.6038 41.6262 40.1566 42.7071C39.6436 43.9593 39.3937 44.5393 38.8676 45.8047C38.1178 47.6237 37.7364 48.5332 37.6443 48.8231C37.276 50.0358 37.184 52.2239 39.6567 55.8751" stroke="black" stroke-width="0.5" stroke-miterlimit="10"/>
<path d="M37.9995 58.9727C38.4599 61.3057 39.4069 62.4525 40.2224 63.072C41.393 63.9683 42.1296 63.652 44.4577 64.7987C45.773 65.4446 46.6674 66.1037 47.8249 66.9605C49.5348 68.2127 50.1661 68.9245 51.3368 69.913C52.5074 70.8885 54.2831 72.1934 56.7953 73.4324" stroke="black" stroke-width="0.5" stroke-miterlimit="10"/>
<path d="M38.2886 65.5105C39.6565 67.4745 40.9981 68.7926 41.9451 69.6098C43.8129 71.2311 45.0098 71.6661 46.4698 73.3533C47.6667 74.7373 48.3375 76.1214 48.6927 77.0177" stroke="black" stroke-width="0.5" stroke-miterlimit="10"/>
<path d="M30.4624 74.9351C30.7518 74.6188 31.1464 74.1179 31.462 73.4193C32.3301 71.5475 31.9092 69.8076 31.6725 68.1732C31.1332 64.4297 31.3568 60.3831 31.9619 60.2644C32.4617 60.1722 33.3561 62.8216 33.4745 63.1379C33.8033 64.1133 34.0927 65.3128 34.4083 68.4631C34.7372 71.8507 34.5399 71.9034 34.8424 72.7075C35.2764 73.8674 36.2892 75.3964 38.9988 76.7277" stroke="black" stroke-width="0.5" stroke-miterlimit="10"/>
<path d="M75.5513 25.5056C76.6035 25.9933 78.9842 27.4564 80.681 28.4055C82.7723 29.5654 83.8246 30.1586 84.6927 30.9231C86.5736 32.5707 86.1527 33.2034 88.4939 35.5233C90.1118 37.1182 90.9141 37.9223 92.0847 38.1859C93.1107 38.41 94.1498 38.2518 94.9521 39.0427C95.1757 39.2536 95.4651 39.649 96.0307 39.8336C96.5173 39.9917 96.6752 39.7545 97.1092 39.8995C97.7274 40.1236 97.6485 40.6508 98.2535 40.9012C98.806 41.1385 99.0427 40.7826 99.5425 41.0462C99.9503 41.2703 100.148 41.7053 100.332 42.1271C100.503 42.5094 100.555 42.8125 100.621 43.1289C101.029 45.2906 101.081 45.1983 101.055 45.4356C100.937 46.5033 100.161 47.215 99.9108 47.4523C99.0559 48.2432 98.0957 48.3882 97.609 48.4541C97.0172 48.5463 96.149 48.6781 95.3072 48.2432C94.6101 47.8741 94.5707 47.4391 93.9393 47.3073C93.3343 47.1887 93.1764 47.5446 92.361 47.5973C91.5718 47.6368 90.9536 47.3468 90.4274 47.0964C89.9013 46.846 89.1911 46.5033 88.7044 45.8046C88.0467 44.8556 88.5202 44.302 87.981 43.0761C87.9415 42.9707 87.3628 41.7053 86.1132 40.9935C85.2057 40.4794 84.6401 40.6376 82.6671 40.4926C81.7464 40.4267 80.168 40.2949 78.5107 39.8468C76.9981 39.4381 75.7223 39.0822 74.499 38.0541C73.1443 36.9205 72.7891 35.7474 71.9868 35.8265C71.3817 35.8792 70.3427 37.2237 70.0796 37.7905" stroke="black" stroke-width="0.5" stroke-miterlimit="10"/>
<path d="M100.885 44.4206C101.634 44.447 103.857 44.7238 105.225 44.7369C108.592 44.7633 108.803 44.6183 110.171 44.7369C111.723 44.8688 113.801 45.0401 115.905 46.3187C116.866 46.8987 118.233 47.7291 118.996 49.4163C119.746 51.0771 119.47 52.6457 119.286 53.7265C119.207 54.201 118.852 56.0069 117.497 57.8259C116.879 58.6563 116.195 59.579 114.919 60.1326C114.288 60.3962 112.775 61.0553 111.617 60.2776C110.46 59.4999 110.236 57.6809 110.763 56.5341C111.026 55.941 111.275 56.0069 112.775 54.5174C114.248 53.0411 114.38 52.6061 114.419 52.3557C114.59 51.4594 114.195 50.4971 113.63 49.9171C113.012 49.2713 112.262 49.1131 110.328 48.9154C107.277 48.5858 105.528 48.5595 105.528 48.5595C104.147 48.5331 100.595 48.2695 98.4644 48.309" stroke="black" stroke-width="0.5" stroke-miterlimit="10"/>
<path d="M67.0151 66.2619C67.6728 65.8664 69.1065 64.9833 70.356 64.6406C71.1847 64.4165 72.3816 64.1001 73.7232 64.2847C76.7484 64.6933 78.9187 67.3691 79.6816 68.3049C79.9183 68.6081 80.5365 69.3858 81.4704 70.3876C82.1938 71.1521 82.7594 71.6793 83.5486 72.1143C84.0089 72.3647 85.3637 72.7338 85.6531 72.8393" stroke="black" stroke-width="0.5" stroke-miterlimit="10"/>
<path d="M66.7651 66.3014C67.2386 66.3673 68.0147 66.4464 68.988 66.5123C70.619 66.6177 71.1451 66.565 72.3552 66.7232C73.5916 66.8945 74.2098 66.9736 74.7885 67.3032C75.4199 67.6459 75.9197 68.1599 77.0114 70.1108C78.5766 72.9052 78.2873 73.1556 79.2343 74.3551C80.4444 75.8841 81.8386 76.6354 82.3253 76.8727C82.7593 77.0836 83.8116 77.5581 85.2716 77.7295C86.8368 77.914 89.1386 77.3209 89.8883 77.11" stroke="black" stroke-width="0.5" stroke-miterlimit="10"/>
<path d="M15.9677 99.7157C15.9677 100.915 15.9019 102.471 15.5731 104.263C15.31 105.753 15.1522 106.517 14.6392 107.282C13.508 108.969 11.4561 109.43 10.4434 109.588" stroke="black" stroke-width="0.5" stroke-miterlimit="10"/>
<path d="M21.9658 89.0917C22.0447 88.9599 22.3473 88.4458 22.9655 88.2613C23.8467 88.0109 24.557 88.6436 24.6096 88.6963C25.2015 89.2367 25.2146 90.0408 25.2146 91.2139C25.2146 91.9257 25.1489 92.9802 24.7806 94.2324" stroke="black" stroke-width="0.5" stroke-miterlimit="10"/>
<path d="M7.01044 120.937C6.78684 121.676 6.56323 122.229 6.4054 122.585C6.33963 122.743 5.95819 123.587 5.15585 124.997C4.57712 126.012 4.41928 126.197 4.47189 126.513C4.60342 127.238 5.70828 127.607 6.30017 127.765" stroke="black" stroke-width="0.5" stroke-miterlimit="10"/>
<path d="M80.3261 119.619C80.6418 121.162 80.5103 122.335 80.3261 123.139C80.1551 123.903 79.8789 124.523 80.1814 125.01C80.5103 125.538 81.3126 125.63 81.9703 125.617" stroke="black" stroke-width="0.5" stroke-miterlimit="10"/>
<path d="M76.9194 101.851C77.314 102.523 77.8532 103.604 78.0637 105.054C78.1952 105.95 78.3794 107.163 77.8138 108.547C77.2219 109.997 76.1433 110.801 75.6304 111.131" stroke="black" stroke-width="0.5" stroke-miterlimit="10"/>
</g>
<defs>
<clipPath id="clip0_185_863">
<rect width="253" height="134" fill="white"/>
</clipPath>
</defs>
</svg>
