<svg width="231" height="142" viewBox="0 0 231 142" fill="none" xmlns="http://www.w3.org/2000/svg">
<g clip-path="url(#clip0_122_117)">
<path d="M33.2929 54.3869C32.9328 54.9562 32.672 56.9238 32.6968 57.3197C32.7465 58.1241 32.9949 58.8047 33.206 59.3739C33.5164 60.2154 33.653 60.2773 33.7151 60.797C33.7524 61.0817 33.8269 61.7128 33.5164 62.3439C33.3674 62.6533 33.119 62.8884 32.6347 63.3586C31.8648 64.1011 31.6786 64.0763 31.5544 64.4352C31.3929 64.8807 31.6413 65.0045 31.455 65.6851C31.3929 65.9078 31.306 66.2295 31.0452 66.5265C30.7348 66.8978 30.5361 66.8235 30.3622 67.0958C30.176 67.4175 30.3622 67.6403 30.3995 68.3827C30.3995 68.6179 30.4243 69.15 30.2629 69.6697C30.0766 70.2637 29.8283 70.3008 29.4806 70.9196C29.3936 71.0804 28.6486 72.4169 29.108 73.048C29.3936 73.4316 29.8158 73.147 30.5361 73.6173C31.0949 73.9885 31.0825 74.3226 31.4799 74.4587C32.0263 74.6444 32.6472 74.2236 33.1066 73.8895C34.336 72.9985 34.9445 72.553 36.0249 71.5631C38.4464 69.3232 39.0673 69.4594 39.8869 68.0239C40.0483 67.7393 40.5078 66.8854 40.694 65.6974C40.7934 65.0292 40.8679 64.5837 40.694 64.0392C40.4333 63.2349 39.8993 63.0492 39.9862 62.5914C40.0856 62.0716 40.8803 61.6261 41.3398 61.8118C41.8241 62.0098 41.6502 62.7894 42.2214 63.0616C42.5567 63.2225 43.0038 63.1482 43.277 62.9255C43.6868 62.5914 43.4881 62.084 43.6868 61.3044C43.8606 60.6362 44.2828 60.1659 45.1397 59.2131C45.475 58.8418 45.9593 58.3963 46.9403 57.5301C47.5488 56.9856 47.8592 56.701 47.9958 56.6144C48.4926 56.2926 50.467 56.0946 52.1559 56.4164" stroke="#231F20" stroke-width="0.5" stroke-miterlimit="10"/>
<path d="M110.123 40.5767C109.105 41.047 107.677 41.8266 106.199 43.0764C104.696 44.3263 102.498 46.5785 101.12 49.9568C100.127 52.3822 99.99 54.325 99.8286 56.9114C99.7044 58.9161 99.5057 62.6409 100.636 67.1081C102.176 73.1346 105.255 77.0327 107.342 79.6685C111.961 85.497 116.928 88.5164 118.456 89.3827C122.169 91.5235 125.646 92.5877 126.453 92.8228C127.633 93.1693 129.793 93.6024 130.514 93.7633" stroke="#231F20" stroke-width="0.5" stroke-miterlimit="10"/>
<path d="M110.123 40.5767C111.39 40.0446 114.196 39.0423 116.692 38.8938C118.58 38.77 119.995 38.9928 122.243 39.364C124.441 39.7229 126.44 40.057 129.011 40.9851C130.551 41.542 133.444 42.7299 136.598 45.0316C137.753 45.8731 139.529 47.42 140.175 48.0263" stroke="#231F20" stroke-width="0.5" stroke-miterlimit="10"/>
<path d="M146.769 55.8224C147.936 57.7281 149.513 59.8689 150.084 61.1559C150.891 62.9626 151.276 64.2001 151.438 65.6108C151.487 66.0068 151.5 67.5784 151.5 67.8011" stroke="#231F20" stroke-width="0.5" stroke-miterlimit="10"/>
<path d="M136.201 51.0334C135.034 49.8949 133.171 48.3357 130.576 47.0487C126.912 45.2296 123.721 44.9079 122.106 44.7594C119.312 44.4995 116.655 44.2644 113.637 45.5637C111.166 46.6403 109.726 48.1996 109.366 48.5955C107.59 50.5879 106.994 52.6545 106.658 53.8548C105.864 56.7381 106.124 59.0769 106.385 61.1435C106.534 62.3191 107.093 66.1553 109.366 70.5978C111.799 75.3497 114.879 78.2206 115.798 79.0374C118.443 81.4009 121.237 82.9602 123.522 84.2348C124.627 84.8535 125.571 85.3237 126.229 85.6579" stroke="#231F20" stroke-width="0.5" stroke-miterlimit="10"/>
<path d="M147.24 30.9863C146.272 32.4589 145.775 34.1171 145.688 34.971C145.663 35.1814 145.601 36.357 145.49 38.6834C145.452 39.2898 145.427 39.7724 145.154 40.3045C144.757 41.047 144.248 41.1831 143.527 41.7895C142.795 42.4082 142.36 43.1631 141.491 44.6975C140.808 45.8979 140.473 46.4919 140.199 47.3952C139.591 49.4494 140.175 50.3528 139.392 51.1076C138.821 51.6521 138.287 51.4046 137.157 51.7882C136.313 52.0729 134.574 53.3598 133.432 54.8943" stroke="#231F20" stroke-width="0.5" stroke-miterlimit="10"/>
<path d="M131.122 56.9609C130.899 57.2455 130.141 58.0004 129.694 58.4582C129.11 59.0522 128.8 59.275 127.657 60.2154C125.82 61.7251 125.782 61.8613 125.286 62.0345C124.615 62.282 124.69 62.0469 123.187 62.3686C122.777 62.4553 121.945 62.6533 120.952 63.0492C120.294 63.3091 119.958 63.4452 119.598 63.7299C118.965 64.2248 118.642 64.8065 118.518 65.0787C118.195 65.7469 118.282 66.1058 118.182 67.6403C118.046 69.6326 117.847 70.0286 118.12 70.2018C118.704 70.5978 120.38 69.1871 121.039 68.655C121.486 68.2714 122.094 67.7145 123.137 66.972C123.858 66.4523 124.267 66.2172 124.627 66.3657C124.975 66.5018 125.199 66.9349 125.174 67.3061C125.137 67.7145 124.814 67.9001 124.156 68.457C123.038 69.3851 123.398 69.3232 122.057 70.4865C121.511 70.9567 121.262 71.1299 121.039 71.5631C120.927 71.7734 120.579 72.4788 120.902 72.9861C121.225 73.4811 121.982 73.4564 122.057 73.4564C122.864 73.4193 123.423 72.7882 124.093 72.0333C124.429 71.6621 124.516 71.4888 125.522 70.2761C125.956 69.744 126.192 69.4841 126.54 69.4717C126.937 69.4594 127.372 69.7687 127.484 70.1523C127.558 70.3998 127.471 70.5855 126.875 71.6373C126.391 72.5035 126.329 72.7015 126.13 72.9861C125.745 73.543 125.422 74.0009 125.137 74.2855" stroke="#231F20" stroke-width="0.5" stroke-miterlimit="10"/>
<path d="M128.675 71.2784C128.961 70.8577 129.371 70.2142 129.756 69.3851C130.314 68.2095 130.24 67.9125 130.637 67.3556C130.985 66.873 131.445 66.5265 133.481 65.7346C134.388 65.3881 136.3 64.5218 137.728 64.0887" stroke="#231F20" stroke-width="0.5" stroke-miterlimit="10"/>
<path d="M140.187 62.8512C140.684 62.2944 141.913 61.292 142.77 60.6733C143.652 60.0422 143.912 60.0669 144.459 59.6586C145.75 58.7181 145.676 57.6786 146.756 55.81C147.129 55.1665 147.911 54.2756 149.463 52.506C150.978 50.7735 151.748 49.9073 152.58 49.1277C154.592 47.2591 154.89 46.1454 155.424 44.3634C155.573 43.856 155.523 42.9651 155.734 42.8166" stroke="#231F20" stroke-width="0.5" stroke-miterlimit="10"/>
<path d="M161.757 11.3105C163.57 11.0382 165.495 10.6918 166.414 10.2586C167.817 9.59041 168.252 9.08304 170.003 8.30343C170.922 7.88269 171.828 7.4867 173.045 7.22683C173.852 7.05359 176.274 6.57097 178.869 7.49908C179.577 7.74657 180.956 8.34056 182.396 9.31816C183.042 9.76365 183.613 10.2215 184.569 10.5309C185.463 10.8155 186.059 10.766 186.742 10.8031C188.282 10.8898 189.35 11.4095 191.412 12.4242C193.088 13.241 194.206 13.7854 195.336 14.9239C196.006 15.5921 196.267 16.05 197.099 16.4708C198.043 16.9657 198.515 16.7801 199.396 17.4112C200.067 17.8938 200.477 18.4755 200.613 18.6982C200.986 19.2551 201.023 19.5273 201.296 20.0471C201.706 20.8267 202.128 21.1608 202.985 22.0023C204.637 23.6357 204.835 23.8708 205.22 24.4277C205.643 25.0464 205.891 25.5662 206.102 26.0488C207.17 28.4247 207.952 30.6893 208.275 31.5803C208.511 32.2609 208.3 31.6174 210.784 37.5202C210.784 37.5202 211.653 39.5867 213.019 41.9132C213.603 42.9032 214.012 43.4724 214.646 43.9426C214.894 44.1283 215.217 44.3263 215.726 44.747C215.9 44.8955 216.384 45.2915 216.744 45.6875C216.955 45.9226 217.204 46.2567 217.961 48.0511C218.694 49.7959 218.768 50.2043 218.706 50.6869C218.669 50.9962 218.595 51.5779 218.16 51.8996C217.837 52.1471 217.216 52.308 217.216 52.308C217.191 52.7287 217.104 53.2608 216.744 53.4588C216.347 53.6816 215.838 53.3598 215.664 53.5949C215.478 53.8301 215.925 54.2632 215.726 54.5354C215.552 54.7953 215.093 54.5107 214.571 54.8077C214.273 54.9809 214.323 55.1418 213.963 55.4883C213.776 55.6615 213.317 56.0823 212.746 56.0946C211.951 56.107 211.417 55.3274 211.392 55.2903C210.945 54.622 211.355 54.2384 211.057 53.3351C210.809 52.5802 210.287 52.1223 209.368 51.3056C208.325 50.3899 208.089 50.526 207.816 50.0186C207.307 49.1153 207.965 48.5089 207.878 46.9868C207.816 45.8236 207.356 45.0069 206.586 43.6085C205.916 42.3834 205.196 41.5048 204.624 40.8366C202.252 38.1142 201.371 38.176 199.347 35.9733C197.658 34.1419 196.677 32.3847 195.82 30.8378C194.876 29.1425 195.137 27.5461 193.721 26.2468C193.461 25.9993 192.79 25.4053 191.759 25.0959C190.356 24.6752 189.586 25.1702 187.699 25.0959C186.916 25.0588 186.283 24.9227 184.991 24.6257C184.296 24.4648 182.148 23.9575 178.621 22.5344C175.194 21.1484 175.529 20.9504 174.213 20.7153C173.368 20.5544 172.201 20.4554 170.822 19.7006C170.251 19.3912 169.817 19.0571 169.531 18.822" stroke="#231F20" stroke-width="0.5" stroke-miterlimit="10"/>
<path d="M179.341 16.8172C179.763 16.5698 180.434 16.1985 181.303 15.8768C182.843 15.2952 183.538 15.3694 184.085 14.8002C184.445 14.4166 184.792 13.6741 184.494 12.1025" stroke="#231F20" stroke-width="0.5" stroke-miterlimit="10"/>
<path d="M198.241 28.7589C199.458 29.588 200.178 30.4418 200.613 31.0482C201.11 31.7659 201.234 32.1867 201.768 33.0034C202.488 34.1171 203.271 34.8967 203.804 35.367" stroke="#231F20" stroke-width="0.5" stroke-miterlimit="10"/>
<path d="M178.596 27.608C178.472 28.1896 178.273 28.8579 177.988 29.5632C177.503 30.7636 176.895 31.7041 176.361 32.3971" stroke="#231F20" stroke-width="0.5" stroke-miterlimit="10"/>
<path d="M180.571 30.8502C180.372 31.2091 180.099 31.7288 179.763 32.3352C178.994 33.7087 178.807 33.9562 178.609 34.1542C178.298 34.4884 177.752 34.9586 176.845 35.3051" stroke="#231F20" stroke-width="0.5" stroke-miterlimit="10"/>
<path d="M182.396 33.0776C182.396 33.4489 182.384 33.9686 182.26 34.5626C182.173 34.971 181.999 35.7877 181.452 36.6539C180.881 37.5573 180.161 38.1018 179.689 38.4111" stroke="#231F20" stroke-width="0.5" stroke-miterlimit="10"/>
<path d="M158.479 27.212C158.541 28.499 158.789 29.5632 159.025 30.3181C159.385 31.4937 159.633 32.3228 160.378 33.1519C160.664 33.4736 161.471 34.3522 162.887 34.6987C164.178 35.0205 165.246 34.6987 165.867 34.5007C168.363 33.7087 169.804 31.7783 170.884 30.3181C171.729 29.1548 172.995 27.113 173.728 24.1802" stroke="#231F20" stroke-width="0.5" stroke-miterlimit="10"/>
<path d="M166.811 30.1077C166.65 29.7117 167.047 29.2786 167.358 29.093C167.593 28.9568 168.028 28.8207 168.239 29.0311C168.438 29.2291 168.289 29.6375 168.239 29.7736C168.19 29.9097 167.978 30.4913 167.494 30.5161C167.221 30.5284 166.923 30.3676 166.811 30.1077Z" stroke="#231F20" stroke-width="0.5" stroke-miterlimit="10"/>
<path d="M149.414 32.9415C149.128 33.2014 148.83 33.5108 148.532 33.882C147.973 34.5874 147.613 35.2803 147.377 35.8372" stroke="#231F20" stroke-width="0.5" stroke-miterlimit="10"/>
<path d="M161.869 35.169C161.956 35.6392 162.043 36.3446 161.931 37.1984C161.77 38.5102 161.236 39.4135 160.987 39.8342C160.441 40.75 159.82 41.3192 159.298 41.7895C158.516 42.4948 157.759 42.9774 157.2 43.2744" stroke="#231F20" stroke-width="0.5" stroke-miterlimit="10"/>
<path d="M155.461 41.7152C155.573 41.2945 156.045 40.9604 156.479 41.0346C156.74 41.0841 157.051 41.2821 157.088 41.5791C157.125 41.8885 156.839 42.1236 156.678 42.2597C156.541 42.3711 156.355 42.5567 156.057 42.5938C155.958 42.5938 155.796 42.6186 155.672 42.532C155.424 42.3835 155.399 41.9875 155.473 41.7276L155.461 41.7152Z" stroke="#231F20" stroke-width="0.5" stroke-miterlimit="10"/>
<path d="M155.437 42.7176C155.821 42.8413 157.324 43.4229 158.094 43.5962C159.087 43.8189 159.212 43.757 159.646 43.9303C160.665 44.3263 161.248 45.1059 161.546 45.4771C162.105 46.2072 162.378 46.8878 162.378 47.3333" stroke="#231F20" stroke-width="0.5" stroke-miterlimit="10"/>
<path d="M137.008 9.78841C137.741 8.32819 138.113 7.59808 138.225 7.36296C138.772 6.22449 140.013 4.41778 141.814 2.96994C142.447 2.46257 143.764 1.42309 145.813 0.804358C146.607 0.556864 148.656 -0.0247485 151.227 0.532114C152.022 0.70536 154.182 1.28697 156.033 3.03181C157.56 4.46728 157.92 5.779 159.621 6.41011C159.969 6.53386 160.478 6.68235 160.975 7.15259C161.733 7.8827 161.869 8.87268 161.919 9.24392C161.981 9.72654 162.13 10.6918 161.583 11.6075C161.025 12.5356 160.093 12.8573 159.212 13.1543C158.007 13.5627 156.976 13.5256 156.231 13.4885C155.225 13.439 154.232 13.1791 153.859 13.0801C152.68 12.7831 152.506 12.6098 151.96 12.6717C151.177 12.7707 150.258 13.3276 150.06 14.1567C149.886 14.862 150.308 15.4808 150.743 16.1119C151.575 17.3494 152.258 17.3617 152.978 18.4012C153.512 19.1685 153.636 19.8986 153.785 20.7648C154.12 22.6705 153.723 24.2421 153.512 25.0217C153.102 26.5685 152.717 26.6304 152.357 28.3258C152.27 28.7589 152.183 29.2662 151.885 29.9468C151.575 30.6646 151.301 31.2709 150.668 31.6298C149.799 32.1248 148.843 31.8402 148.569 31.7659C148.209 31.6669 147.601 31.4937 147.216 30.9616C146.769 30.3676 147.092 29.9716 146.806 28.2639C146.682 27.509 146.595 27.4348 146.533 26.7789C146.458 25.9993 146.421 25.4919 146.669 24.9598C146.856 24.5515 147.005 24.601 147.688 23.809C148.321 23.0789 148.631 22.72 148.631 22.324C148.631 21.9775 148.458 21.8785 147.75 20.839C146.93 19.6139 146.93 19.4036 146.943 19.2922C147.005 18.7353 147.539 18.7106 148.098 17.8072C148.184 17.6587 148.855 16.5821 148.507 16.1243C148.458 16.0624 148.346 15.9387 147.154 15.9263C146.148 15.9139 146.011 15.9881 145.664 15.8644C145.192 15.6788 145.254 15.456 144.645 14.9858C144.509 14.8744 143.801 14.3547 142.745 14.1814C142.447 14.1319 141.938 14.0453 141.317 14.1814C140.547 14.3423 140.398 14.6764 139.417 15.1962C138.498 15.6788 137.977 15.951 137.319 15.8768C136.102 15.7283 135.456 14.4537 135.419 14.3918C135.394 14.3423 134.823 13.1296 135.357 12.1025C135.63 11.5827 135.978 11.4961 136.574 10.5556C136.735 10.2958 136.834 10.1102 136.983 9.81316L137.008 9.78841Z" stroke="#231F20" stroke-width="0.5" stroke-miterlimit="10"/>
<path d="M136.486 10.7165C138.113 11.0135 141.317 11.2486 143.974 11.1991C145.551 11.1744 147.836 11.2115 150.767 10.6546C150.804 10.6546 150.966 10.6051 151.152 10.5556C152.903 10.073 156.417 8.50142 159.646 6.4101" stroke="#231F20" stroke-width="0.5" stroke-miterlimit="10"/>
<path d="M150.954 10.6175C151.14 10.9145 152.009 12.3871 152.183 12.6717" stroke="#231F20" stroke-width="0.5" stroke-miterlimit="10"/>
<path d="M138.784 15.5303C139.479 16.6069 140.261 18.1537 140.659 18.8591C141.466 20.3193 141.776 20.9628 141.888 21.2474C142.074 21.7053 142.273 22.0765 142.546 22.1508C142.944 22.2497 143.229 21.4206 143.788 21.433C144.471 21.433 144.98 22.6705 145.055 22.8561C145.291 23.4253 145.204 23.6357 145.465 24.2792C145.676 24.7866 146.297 25.4919 146.483 25.727" stroke="#231F20" stroke-width="0.5" stroke-miterlimit="10"/>
<path d="M185.55 24.7742C185.426 25.8632 185.24 28.3257 185.451 30.1077C185.674 32.0629 186.146 33.4736 186.531 34.6245C187.947 38.8195 189.226 39.2031 189.847 41.443C189.958 41.8513 190.207 42.8661 191.002 43.262C191.225 43.3734 191.399 43.3858 191.747 43.5962C192.045 43.7818 192.305 44.1159 192.454 44.648C192.566 45.0193 192.603 45.0688 192.69 45.4895C192.79 45.9721 193.063 46.0711 193.373 46.5661C193.758 47.1972 193.572 47.4695 193.845 48.1129C194.118 48.7688 194.541 49.0534 195.062 49.536C196.801 51.1324 197.682 53.1371 198.179 54.2632C198.403 54.7705 198.763 56.008 198.862 56.2926" stroke="#231F20" stroke-width="0.5" stroke-miterlimit="10"/>
<path d="M200.948 61.49C201.371 62.5171 201.917 64.8931 202.439 66.6255C202.972 68.3951 203.258 69.7316 203.593 71.2784C204.09 73.642 204.003 73.6668 204.81 78.0227C205.084 79.5076 205.344 80.9926 205.618 82.4776C205.866 83.814 206.065 84.804 206.164 86.19C206.313 88.2071 206.387 89.5188 205.618 90.1004C205.108 90.484 204.55 90.3231 203.32 90.1623C201.507 89.9395 199.657 90.1128 197.831 90.1004C195.062 90.0633 193.684 90.0509 192.889 90.1623C190.517 90.5211 188.766 91.3626 187.611 91.9195C185.749 92.8105 184.209 93.8623 183.476 94.3449C182.508 95.0008 181.502 95.6072 180.558 96.3001C179.279 97.2406 178.757 97.7356 177.987 97.649C177.019 97.5376 176.398 96.6095 176.299 96.4363C175.678 95.4587 176.15 94.8276 175.752 93.2683C175.628 92.7362 175.591 92.8971 174.597 90.7686C173.877 89.2342 173.517 88.4669 173.107 87.4646C172.399 85.7569 172.288 85.2371 172.027 85.2371C171.592 85.2371 171.48 86.586 170.599 89.0114C169.891 91.0038 169.841 90.4593 168.637 93.4045C167.978 95.0008 167.805 95.6319 167.084 96.1022C166.091 96.7456 164.924 96.56 164.576 96.5105C163.148 96.2878 162.626 95.4834 160.987 94.3449C159.472 93.2931 159.286 93.5529 156.715 92.1794C154.368 90.9295 154.194 90.5335 152.245 89.4074C149.649 87.9101 149.575 88.3803 143.987 85.893C139.616 83.9625 140.348 83.9749 138.573 83.3933C136.635 82.7622 135.133 82.5271 134.984 81.7103C134.897 81.2772 135.245 80.8689 136.474 79.6809C137.89 78.332 138.597 77.6514 139.926 76.5748C141.789 75.0651 141.466 75.1146 143.788 73.1346C146.458 70.8577 147.787 69.7192 149.14 68.952C151.723 67.4794 153.313 67.3309 155.3 65.3014C155.374 65.2272 155.846 64.5466 156.591 63.7546C157.423 62.8636 157.845 62.4181 158.417 62.2078C159.41 61.8365 159.907 62.3315 160.652 61.9355C161.024 61.7375 161.049 61.4777 161.807 60.1164C162.291 59.2255 162.403 59.3616 162.614 58.6933C162.813 58.087 162.701 57.7529 162.614 56.602C162.577 56.1689 162.639 56.7258 162.552 53.6321C162.502 51.8377 162.49 51.9244 162.49 51.2685C162.49 50.7983 162.49 50.5755 162.49 48.8431C162.49 48.5089 162.39 47.7788 162.39 47.3086" stroke="#231F20" stroke-width="0.5" stroke-miterlimit="10"/>
<path d="M119.238 69.9667C119.051 70.0657 118.716 71.1176 118.927 71.4517C119.064 71.6744 118.965 71.7734 119.635 72.0457C119.883 72.1447 120.641 71.9962 120.778 71.9962" stroke="#231F20" stroke-width="0.5" stroke-miterlimit="10"/>
<path d="M122.553 73.3326C122.603 73.5183 122.715 73.7905 122.926 74.0751C123.1 74.2979 123.36 74.6567 123.845 74.7805C124.366 74.929 125.111 74.2731 125.385 73.9761" stroke="#231F20" stroke-width="0.5" stroke-miterlimit="10"/>
<path d="M124.962 67.7269C125.099 67.5041 125.943 67.764 126.167 67.9001C126.564 68.1353 126.589 69.1129 126.117 69.5955" stroke="#231F20" stroke-width="0.5" stroke-miterlimit="10"/>
<path d="M111.986 63.6061C112.11 62.8141 112.805 62.3191 113.103 62.0345C113.551 61.6138 113.824 61.3539 114.258 61.292C114.705 61.2301 115.078 61.4034 115.413 61.5643C115.811 61.7499 116.047 61.9603 116.494 62.3686C117.114 62.9255 117.226 63.1606 117.785 63.5813C118.033 63.767 118.716 64.4105 118.865 64.4971" stroke="#231F20" stroke-width="0.5" stroke-miterlimit="10"/>
<path d="M127.458 70.8577C128.216 71.1299 128.874 71.8353 129.222 72.0952C129.644 72.4169 129.644 72.5035 130.165 72.8995C130.463 73.1346 130.613 73.2089 131.594 73.84C132.438 74.3969 132.339 74.4711 132.401 74.6444C132.45 74.7805 132.674 74.9785 132.128 76.1293C131.569 77.3049 131.32 77.5524 131.184 77.6762C130.911 77.9237 130.637 78.1835 130.24 78.2207C129.954 78.2454 129.644 78.1588 128.75 77.4163C127.818 76.6367 127.558 76.2283 126.788 75.5972C126.316 75.2136 125.372 74.4216 125.111 74.2731" stroke="#231F20" stroke-width="0.5" stroke-miterlimit="10"/>
<path d="M117.983 68.7664C117.35 68.2219 115.91 67.1329 115.537 66.8978C114.879 66.4894 114.519 66.3657 113.501 65.7469C112.582 65.1901 112.321 64.955 112.147 64.5961C111.936 64.1382 111.961 63.6804 112.01 63.3834" stroke="#231F20" stroke-width="0.5" stroke-miterlimit="10"/>
<path d="M127.185 53.8053C127.322 53.3598 127.744 52.9638 128.204 52.9267C128.564 52.902 128.775 53.1123 129.222 53.397C130.004 53.892 130.712 54.0652 131.519 54.2756C132.724 54.5726 132.587 54.5973 133.419 54.8819C134.09 55.117 134.698 55.1913 135.654 56.0328C136.25 56.5525 136.635 56.9609 137.418 57.79C138.113 58.5201 138.461 58.8913 138.709 59.275C138.883 59.5472 139.057 59.8442 139.591 61.2302C140.348 63.173 140.174 62.975 140.398 63.3957C140.708 63.9526 141.193 64.559 142.161 65.7593C142.546 66.2419 142.745 66.4647 142.77 66.8359C142.82 67.4546 142.397 68.1971 141.752 68.3828C141.131 68.5684 140.572 68.1476 139.988 67.7021C139.218 67.1205 138.808 66.4399 138.498 65.8831C138.039 65.0663 137.815 64.3857 137.554 63.5195C137.058 61.9355 137.256 61.8365 136.871 61.0198C136.312 59.8194 135.468 59.0893 135.108 58.7923C134.177 58.0127 133.27 57.6786 132.264 57.3074C131.445 57.0104 131.445 57.097 130.091 56.6268C128.464 56.0699 128.054 55.7977 127.719 55.414C127.533 55.1913 126.949 54.5107 127.173 53.793L127.185 53.8053Z" stroke="#231F20" stroke-width="0.5" stroke-miterlimit="10"/>
<path d="M147.079 45.5019C146.669 45.8113 146.098 46.3434 145.639 47.123C145.154 47.9397 145.241 48.311 144.732 49.5484C144.235 50.7612 143.95 51.4665 143.292 51.9739C142.994 52.1966 142.149 52.7659 140.584 52.605" stroke="#231F20" stroke-width="0.5" stroke-miterlimit="10"/>
<path d="M165.594 37.7553C165.843 37.9904 166.153 38.2379 166.501 38.473C167.221 38.968 167.929 39.2774 168.488 39.463" stroke="#231F20" stroke-width="0.5" stroke-miterlimit="10"/>
<path d="M167.407 46.7641C167.531 47.1848 167.755 47.7912 168.214 48.3852C168.773 49.1029 169.282 49.3257 169.754 49.734C170.313 50.229 170.934 51.12 171.108 52.8896" stroke="#231F20" stroke-width="0.5" stroke-miterlimit="10"/>
<path d="M173.095 43.4229C173.765 43.4229 174.858 43.5467 175.988 44.1406C178.608 45.5266 179.229 48.3604 179.329 48.8183" stroke="#231F20" stroke-width="0.5" stroke-miterlimit="10"/>
<path d="M135.53 82.3909C135.17 82.824 133.705 84.0491 132.997 84.8288C131.408 86.586 131.097 86.6726 130.65 87.4398C129.731 89.0238 129.868 90.7191 129.93 91.4864C129.992 92.1917 130.129 92.8352 131.11 95.2606C131.259 95.6319 131.904 97.3396 133.01 99.666C133.506 100.73 133.618 100.891 134.276 102.277C135.319 104.467 135.332 104.678 135.717 105.433C136.561 107.066 137.207 107.524 139.243 109.937C140.51 111.434 141.317 112.523 142.671 114.342C144.707 117.077 144.099 116.52 146.731 120.196C147.663 121.495 148.507 122.634 149.265 124.428C149.861 125.839 150.01 126.754 149.898 127.67C149.761 128.796 149.265 129.588 148.992 130.009C148.52 130.739 147.775 131.345 146.284 132.533C145.353 133.276 144.409 134.018 143.031 134.872C142.137 135.429 141.702 135.726 141.317 135.862C139.914 136.382 138.498 136.233 137.53 136.134C136.002 135.974 135.319 135.615 134.909 136.048C134.512 136.456 134.698 137.211 134.723 137.31C134.823 137.669 135.058 138.114 136.077 138.745C137.132 139.401 138.101 139.674 138.697 139.822C139.877 140.119 141.466 140.515 143.664 140.453C144.844 140.416 145.763 140.391 146.918 140.008C148.52 139.463 148.532 138.919 149.985 138.387C151.103 137.978 152.171 137.991 154.319 138.028C155.461 138.04 155.672 138.102 158.479 138.213C160.019 138.263 160.776 138.275 161.645 137.854C162.055 137.656 162.887 137.001 163.111 136.097C163.223 135.627 163.421 135.083 162.453 132.36C162.03 131.147 161.484 130.133 160.826 128.846C159.845 126.94 159.497 126.433 158.926 125.331C158.355 124.23 157.97 123.339 156.753 120.022C155.064 115.419 154.219 113.117 153.959 112.016C153.164 108.737 153.611 108.588 152.692 105C151.922 102.005 151.537 100.52 150.519 98.9731C148.644 96.1145 146.272 95.1864 146.632 94.0232C146.794 93.5282 147.315 93.4292 149.165 92.5877C150.668 91.8947 152.68 90.682 153.487 90.2241" stroke="#231F20" stroke-width="0.5" stroke-miterlimit="10"/>
<path d="M158.106 128.202C158.591 128.314 158.988 128.66 159.1 129.106C159.249 129.7 158.889 130.393 158.193 130.64" stroke="#231F20" stroke-width="0.5" stroke-miterlimit="10"/>
<path d="M138.796 77.5648C141.826 78.6166 145.03 80.2996 147.042 81.203C147.812 81.5495 151.55 83.2572 156.318 86.0662C157.225 86.5983 158.702 88.1823 161.198 89.098C163.161 89.8158 164.042 89.6302 164.589 89.296C165.06 89.0114 165.359 88.3803 165.942 87.1305C166.277 86.4127 166.774 85.2495 167.234 83.616C167.457 82.7993 167.879 81.0173 167.979 80.51" stroke="#231F20" stroke-width="0.5" stroke-miterlimit="10"/>
<path d="M169.32 75.0898C169.779 73.9514 171.53 70.2142 172.635 68.3704C173.952 66.1924 175.169 64.7322 176.696 62.9007C177.665 61.7499 179.118 60.0174 181.229 57.9756C183.638 55.6491 183.874 55.8471 187.388 52.5802C188.394 51.6521 189.834 50.2661 191.449 48.2614C191.908 47.6922 192.753 46.4795 193.013 46.1206" stroke="#231F20" stroke-width="0.5" stroke-miterlimit="10"/>
<path d="M193.845 48.1253C192.964 49.1772 191.71 50.6374 191.275 51.1571C189.772 52.9638 189.412 53.4217 188.704 54.1271C187.773 55.0552 187.612 55.0675 186.668 55.9461C185.501 57.0475 184.793 57.9385 183.551 59.5224C182.545 60.8094 181.527 62.0964 180.372 63.9773C179.676 65.1034 178.012 67.863 177.193 69.6821" stroke="#231F20" stroke-width="0.5" stroke-miterlimit="10"/>
<path d="M175.007 77.2183C175.628 79.025 176.113 80.51 176.435 81.5371C176.882 82.9725 177.416 84.3956 177.789 85.8558C178.298 87.8482 178.447 88.2194 178.534 89.098C178.745 91.1894 181.204 90.6201 182.197 89.7786C183.476 88.6897 183.837 88.7268 185.923 87.5512C187.227 86.8087 188.468 86.289 190.666 85.794C192.38 85.4104 193.684 85.2742 195.274 85.1134C197.298 84.9154 197.993 84.9525 201.098 84.7793C202.749 84.6803 205.158 84.7792 206.015 84.705" stroke="#231F20" stroke-width="0.5" stroke-miterlimit="10"/>
<path d="M145.75 79.3839C147.228 78.9755 148.371 79.1116 149.004 79.2477C150.035 79.4581 150.904 79.916 151.301 80.1264C152.419 80.708 152.469 80.9926 153.065 81.1411C153.673 81.2896 154.393 81.1782 156.045 80.2006C157.659 79.2354 158.591 78.3568 159.77 77.3668C160.54 76.7109 161.708 75.7581 163.223 74.6691" stroke="#231F20" stroke-width="0.5" stroke-miterlimit="10"/>
<path d="M152.394 70.6721C152.145 71.1176 151.798 71.8848 151.711 72.8995C151.649 73.642 151.587 74.4711 152.046 74.929C152.816 75.6715 154.604 74.9537 155.498 74.5949C158.007 73.5554 159.534 72.0085 160.167 71.4269C161.757 69.9543 164.464 68.358 169.307 67.9125" stroke="#231F20" stroke-width="0.5" stroke-miterlimit="10"/>
<path d="M156.318 64.1011C156.194 64.5713 156.082 65.9697 156.392 66.4894C157.1 67.6774 159.186 67.1824 160.503 66.8235C161.956 66.4275 162.477 66.1058 163.905 65.1406C164.961 64.4228 167.507 63.3462 170.003 62.8636" stroke="#231F20" stroke-width="0.5" stroke-miterlimit="10"/>
<path d="M162.614 56.6391C164.067 56.8495 166.774 57.0227 169.183 56.9114C171.232 56.8124 175.913 56.5278 181.104 53.8796C182.917 52.9515 186.009 51.3304 188.754 47.9397C189.958 46.4547 191.225 44.648 191.734 43.6209" stroke="#231F20" stroke-width="0.5" stroke-miterlimit="10"/>
<path d="M162.328 59.3368C166.501 59.1883 171.021 58.4953 173.666 57.79C176.832 56.9361 180.67 55.8966 184.78 53.0009C188.12 50.6374 191.088 47.2467 192.591 45.0316" stroke="#231F20" stroke-width="0.5" stroke-miterlimit="10"/>
<path d="M170.003 60.8218C170.835 60.9455 172.114 61.0569 173.592 60.7599C175.33 60.4134 176.485 59.6709 179.826 57.3816C181.763 56.0575 184.495 53.1495 185.637 52.3451" stroke="#231F20" stroke-width="0.5" stroke-miterlimit="10"/>
<path d="M192.008 52.8525C191.486 53.5207 190.666 54.5354 189.636 55.7605C187.363 58.4582 186.618 59.1141 185.637 60.4877C184.83 61.6138 183.526 63.8784 182.682 66.3038" stroke="#231F20" stroke-width="0.5" stroke-miterlimit="10"/>
<path d="M193.237 54.1394C192.765 54.7829 192.094 55.6863 191.275 56.7753C190.058 58.3716 189.66 58.8295 189.176 59.6833C188.766 60.401 188.059 61.9231 187.686 63.2844" stroke="#231F20" stroke-width="0.5" stroke-miterlimit="10"/>
<path d="M180.931 73.6915C180.869 74.4587 180.596 76.2036 180.571 77.0203C180.471 80.3862 180.807 83.4304 181.316 86.0662" stroke="#231F20" stroke-width="0.5" stroke-miterlimit="10"/>
<path d="M184.966 71.2537C185.078 72.5654 185.302 75.3869 185.711 77.0203C186.345 79.5695 187.239 81.6732 188.083 83.2943" stroke="#231F20" stroke-width="0.5" stroke-miterlimit="10"/>
<path d="M189.71 72.0952C189.859 73.6791 190.033 75.0032 190.182 76.0056C190.53 78.3196 190.741 78.9879 191.126 79.6561C191.734 80.6832 192.529 81.3143 193.088 81.6856" stroke="#231F20" stroke-width="0.5" stroke-miterlimit="10"/>
<path d="M205.295 52.3451C203.854 53.1371 201.147 54.7334 198.577 56.305C195.571 58.1488 194.578 58.9037 191.399 60.9579C188.232 62.9997 188.332 62.8265 181.713 66.8978C177.218 69.6573 174.933 71.0681 172.971 72.4293C168.426 75.5848 166.277 77.54 164.638 79.2478C162.763 81.2153 161.26 82.4899 161.521 82.8983C161.956 83.5542 166.662 81.1906 171.89 78.5795C175.467 76.7852 178.037 75.3497 178.658 75.0032C180.148 74.1617 181.812 73.2089 188.208 69.2613C193.336 66.1058 195.894 64.5218 198.365 62.9131C201.905 60.6114 205.344 58.2231 207.431 56.7752" stroke="#231F20" stroke-width="0.5" stroke-miterlimit="10"/>
<path d="M167.693 78.6414C173.939 74.5949 179.093 71.3651 182.731 69.1252C187.438 66.2172 190.679 64.2867 197.695 59.9432C200.948 57.9385 203.618 56.2679 205.419 55.1542" stroke="#231F20" stroke-width="0.5" stroke-miterlimit="10"/>
<path d="M206.909 55.117C206.114 53.4217 205.046 51.9739 204.401 51.0953C203.656 50.0805 203.209 49.5979 203.221 48.8059C203.221 48.7317 203.32 48.0263 203.817 47.8407C204.214 47.6922 204.624 47.8778 204.848 48.0635C205.642 48.7564 205.791 49.2762 206.474 50.427C207.046 51.3923 206.971 51.1943 207.729 52.3822C207.915 52.6669 208.225 53.2732 208.846 54.4736C209.591 55.9214 209.554 55.8843 209.728 56.1565C210.014 56.6268 210.2 56.8495 211.019 58.0499C211.578 58.8666 211.702 59.0646 211.665 59.3616C211.603 59.8937 211.119 60.5001 210.548 60.4753C209.629 60.4258 209.405 59.6462 209.157 59.3245C208.61 58.6315 208.548 58.2726 207.493 56.4535C207.369 56.2308 207.182 55.6615 206.922 55.1047L206.909 55.117Z" stroke="#231F20" stroke-width="0.5" stroke-miterlimit="10"/>
<path d="M207.145 51.2561C207.294 51.1448 208.114 50.6003 208.263 50.4889" stroke="#231F20" stroke-width="0.5" stroke-miterlimit="10"/>
<path d="M209.529 55.3769C209.802 55.1542 210.808 54.3622 211.082 54.1394" stroke="#231F20" stroke-width="0.5" stroke-miterlimit="10"/>
<path d="M216.657 45.6132C217.154 45.4771 218.57 45.0316 219.687 44.7099C221.798 44.0911 222.357 43.9055 222.581 44.1654C222.916 44.5614 222.208 45.6627 221.612 46.6156C221.016 47.5561 220.321 48.3109 219.936 48.7317C219.65 49.041 218.892 49.7093 218.706 49.8825" stroke="#231F20" stroke-width="0.5" stroke-miterlimit="10"/>
<path d="M188.083 91.7091C189.872 96.1269 192.144 98.8988 193.1 99.3567C193.311 99.4557 194.119 99.8145 194.653 100.644C195.025 101.201 194.951 101.522 195.199 102.327C195.36 102.859 195.87 104.579 197.236 105.569C197.894 106.039 198.043 105.841 199.061 106.447C199.98 106.992 200.588 107.598 201.023 108.068C203.283 110.469 204.152 112.338 206.301 114.479C207.791 115.964 209.455 117.164 210.436 117.857C211.256 118.451 212.634 119.379 214.099 120.963C214.757 121.668 215.204 122.275 215.453 123.129C215.751 124.156 215.577 125.034 215.453 125.69C215.192 127.014 214.819 127.088 214.161 128.858C213.665 130.207 213.826 130.306 213.143 132.236C212.584 133.845 212.286 134.303 212.125 134.526C211.827 134.959 211.231 135.8 210.163 136.345C209.07 136.914 207.99 137.087 207.99 137.087C207.543 137.161 207.133 137.174 206.698 137.496C206.599 137.57 206.028 137.978 206.09 138.436C206.152 138.882 206.785 139.117 207.307 139.315C208.064 139.587 208.548 139.612 209.604 139.723C211.678 139.946 211.852 140.094 212.721 139.995C213.106 139.946 213.702 139.847 214.348 139.587C215.44 139.166 216.049 138.56 217.055 137.632C217.055 137.632 218.557 136.233 220.78 134.328C222.32 133.004 222.73 132.731 223.152 132.509C224.083 131.989 224.294 132.088 225.723 131.358C226.728 130.85 227.411 130.405 228.02 130.009C228.914 129.427 229.373 129.118 229.709 128.722C230.007 128.375 230.702 127.546 230.652 126.494C230.615 125.789 230.255 125.232 229.709 124.601C228.343 123.042 227.064 122.423 225.921 121.631C224.021 120.319 222.941 118.822 222.196 117.783C221.215 116.434 221.153 115.84 219.625 112.041C217.936 107.833 216.719 106.039 215.701 104.888C213.801 102.747 211.69 101.25 210.957 100.904C208.089 99.567 206.524 99.864 205.605 98.3419C205.196 97.6613 205.133 96.56 204.997 94.3573C204.91 92.8971 204.997 91.1646 205.022 90.3231" stroke="#231F20" stroke-width="0.5" stroke-miterlimit="10"/>
<path d="M223.102 122.04C223.288 122.151 223.562 122.324 223.847 122.584C224.257 122.943 224.53 123.178 224.654 123.599C224.692 123.698 224.853 124.217 224.592 124.75C224.257 125.418 223.524 125.542 223.437 125.554" stroke="#231F20" stroke-width="0.5" stroke-miterlimit="10"/>
<path d="M10.0088 96.1888C9.82251 95.3473 9.78526 94.6172 9.81009 94.0232C9.83493 93.4663 9.84735 93.1446 10.0088 92.8105C10.3441 92.1422 10.9898 91.9319 11.9087 91.5235C12.9643 91.0532 13.8708 90.4964 15.6962 89.3579C16.3668 88.9495 16.7642 88.6773 17.5217 88.2813C18.4158 87.8111 18.8877 87.576 19.5582 87.477C19.9308 87.4151 20.8249 87.279 21.7314 87.6749C22.6627 88.0833 23.1098 88.8505 23.5568 89.6302C24.0287 90.4469 23.9791 90.682 24.7738 93.1446C25.3823 95.0379 25.6803 95.7309 25.9287 96.2506C26.4378 97.3396 26.5496 97.253 26.8725 98.0078C27.3816 99.1711 27.3568 99.9012 27.6175 101.993C27.8659 104.022 28.226 104.839 28.462 105.569C28.8469 106.757 29.4927 107.796 30.6351 109.046C31.3429 109.826 31.5913 110.036 32.9697 111.175C33.7769 111.843 34.3233 112.387 34.3233 112.387C35.118 113.192 35.2174 113.476 35.8755 113.934C36.2481 114.194 36.3971 114.243 36.5585 114.479C36.8938 114.998 36.633 115.914 36.5585 116.162C36.1363 117.51 36.4716 118.934 37.1297 121.693C37.4402 122.992 37.8624 123.921 38.682 125.777C39.8865 128.462 40.4826 129.799 41.6623 130.937C42.693 131.939 43.2518 132.001 43.3512 132.694C43.5126 133.808 42.1466 134.328 41.2153 136.741C40.644 138.213 40.8427 138.807 40.9421 139.03C41.2401 139.723 41.9231 140.094 42.7054 140.379C45.2635 141.307 47.7844 140.886 48.1694 140.824C49.3491 140.626 52.2673 140.651 58.1038 140.688C63.7043 140.725 64.2755 141.159 67.2683 140.738C69.0316 140.49 69.7395 140.206 71.2917 140.329C73.3779 140.503 74.508 141.208 75.9485 140.552C76.619 140.243 77.4262 139.612 77.3517 139.067C77.2648 138.498 76.2713 138.486 74.7315 137.31C74.1727 136.889 73.8995 136.679 73.6884 136.369C72.9681 135.281 73.291 133.919 73.6884 132.224C73.974 131.036 74.1106 130.442 74.5949 129.799C75.2406 128.932 75.9236 128.722 77.1282 128.041C78.6432 127.187 79.6366 126.358 80.9653 125.257C82.9646 123.586 83.9581 122.757 84.4424 122.2C84.9391 121.619 85.3489 121.062 85.9822 121.025C86.6776 120.988 87.1371 121.619 87.9194 122.423C88.6397 123.153 89.5214 123.822 91.3096 125.17C92.0174 125.702 92.9984 126.272 94.9729 127.423C97.3944 128.833 98.5989 129.539 99.58 130.034C100.499 130.504 101.455 130.962 102.61 131.877C103.715 132.756 104.05 133.313 104.237 133.808C104.386 134.216 104.398 134.773 104.423 135.875C104.448 137.397 104.324 137.805 104.609 138.572C104.733 138.919 104.907 139.389 105.329 139.748C105.938 140.268 106.683 140.218 108.124 140.156C110.433 140.057 111.601 140.008 112.284 140.07C113.352 140.169 114.258 140.391 115.127 140.614C116.332 140.911 116.692 141.084 117.425 141.295C118.431 141.567 118.878 141.555 123.112 141.654C125.67 141.715 126.316 141.74 126.999 141.208C127.607 140.725 128.179 139.859 127.943 139.228C127.806 138.844 127.434 138.721 125.77 138.102C123.596 137.285 124.453 137.557 123.423 137.199C121.125 136.407 121.001 136.456 120.256 136.159C118.356 135.404 118.232 134.649 115.475 132.744C113.935 131.679 113.985 131.915 112.222 130.764C110.905 129.898 109.105 128.722 107.167 126.804C105.019 124.688 103.889 122.844 102.697 120.913C101.579 119.094 101.641 118.847 101.703 118.797C101.89 118.649 102.734 119.713 104.411 120.913C106.559 122.436 107.18 122.101 108.881 123.574C109.899 124.453 109.85 124.725 110.818 125.368C111.861 126.061 112.805 126.358 113.886 126.668C115.81 127.237 115.972 126.952 117.499 127.472C118.878 127.942 118.691 128.153 120.479 128.87C122.156 129.539 122.417 129.39 123.957 130.083C125.248 130.665 126.03 131.197 126.353 131.432C127.123 131.989 127.781 132.471 128.29 133.362C128.402 133.56 128.713 134.142 128.874 134.934C129.098 136.035 128.787 136.332 129.011 137.1C129.334 138.226 130.339 138.832 130.451 138.894C131.345 139.414 132.289 139.327 133.978 139.166C134.512 139.117 135.766 138.77 136.052 138.721" stroke="#231F20" stroke-width="0.5" stroke-miterlimit="10"/>
<path d="M75.1413 129.254C75.6505 128.153 76.408 125.418 76.9544 123.574C77.0785 123.166 78.4073 119.602 78.221 116.199C77.7615 108.019 71.3663 96.1021 78.0347 112.288C78.0844 112.4 76.6439 109.628 79.7981 114.949C81.1144 117.176 82.3935 118.847 84.4921 119.948C85.2744 120.357 87.0005 121.235 89.273 120.988C91.7691 120.715 93.371 119.255 93.9671 118.698C94.6252 118.08 96.0284 116.718 96.401 114.516C96.5748 113.513 96.5997 112.35 96.4879 111.781" stroke="#231F20" stroke-width="0.5" stroke-miterlimit="10"/>
<path d="M74.6075 129.823C74.4957 129.192 74.0114 127.336 73.4277 126.309C72.4095 124.539 71.1925 123.982 69.8141 122.658C68.92 121.804 68.1501 120.456 66.6103 117.758C64.7475 114.491 63.7541 112.066 63.3567 111.051C63.3567 111.051 62.4254 108.675 62.0528 105.247C61.9411 104.245 61.879 103.119 62.5496 102.636C62.9594 102.339 63.4933 102.376 63.8534 102.45" stroke="#231F20" stroke-width="0.5" stroke-miterlimit="10"/>
<path d="M62.0527 105.259C63.3939 103.242 65.4428 100.545 66.3369 99.3196C66.9454 98.4905 68.299 96.6714 70.2238 94.5058C72.4714 91.9814 73.3407 91.3874 74.3838 91.1275C75.4021 90.88 76.706 90.8924 77.2275 90.9048C78.1341 90.9171 78.6308 90.9295 79.2144 91.177C79.9347 91.474 80.419 91.969 81.1144 92.8847C82.1823 94.3078 82.7908 95.4958 83.1013 96.0774C83.8836 97.55 84.5914 98.4905 85.8084 100.124C87.2489 102.067 87.9691 102.574 91.1357 105.977C93.7063 108.737 93.0729 108.205 94.1657 109.306C96.3265 111.484 98.363 113.798 100.573 115.926C100.698 116.05 100.983 116.322 101.207 116.78C101.778 117.981 101.294 119.28 101.157 119.614C100.822 120.505 100.3 121.05 100.027 121.322C99.7538 121.594 99.3689 121.941 97.9532 122.671C96.7363 123.302 95.9788 123.698 94.8363 124.069C94.054 124.329 92.4272 124.923 91.1482 125.071" stroke="#231F20" stroke-width="0.5" stroke-miterlimit="10"/>
<path d="M86.5786 100.173C87.8825 98.7008 89.1491 97.748 90.0557 97.154C90.9746 96.56 91.6576 96.1145 92.7255 95.8546C93.2222 95.7309 94.6503 95.3844 96.2895 95.9041C96.5627 95.9908 97.581 96.3249 99.0836 97.6985C100.76 99.2206 100.81 100 102.287 101.745C103.02 102.624 104.138 103.527 106.348 105.346C109.391 107.833 109.006 107.277 110.595 108.675C111.986 109.9 114.656 112.437 116.283 113.489C116.916 113.897 117.549 114.206 117.549 114.206C118.319 114.578 118.791 114.726 119.176 114.887C119.536 115.035 120.43 115.617 121.436 116.78C122.653 118.191 122.367 118.599 123.473 119.936C123.982 120.542 123.994 120.406 125.869 122.052C127.57 123.549 127.595 123.698 128.899 124.799C129.905 125.653 130.663 126.296 131.743 127.002C133.246 127.979 134.5 128.524 135.667 129.031C138.213 130.12 138.66 130.133 140.448 131.197C141.938 132.075 143.962 133.263 144.633 133.808" stroke="#231F20" stroke-width="0.5" stroke-miterlimit="10"/>
<path d="M109.216 123.871C110.048 123.648 112.172 122.807 113.488 121.73C115.351 120.183 116.046 118.352 116.245 117.82C116.704 116.52 116.766 114.491 116.742 113.773" stroke="#231F20" stroke-width="0.5" stroke-miterlimit="10"/>
<path d="M113.898 126.68C114.693 126.482 117.176 125.195 118.294 124.391C118.952 123.908 119.747 123.116 120.79 121.965C121.808 120.827 122.379 119.651 122.69 118.773" stroke="#231F20" stroke-width="0.5" stroke-miterlimit="10"/>
<path d="M77.5381 94.7285C77.625 94.9884 77.774 95.3597 78.0845 95.7185C78.8296 96.5847 79.8975 96.6961 80.1583 96.7085" stroke="#231F20" stroke-width="0.5" stroke-miterlimit="10"/>
<path d="M80.2451 99.6784C80.419 100.124 80.7418 100.805 81.3255 101.473C81.8719 102.104 82.4555 102.5 82.8653 102.735" stroke="#231F20" stroke-width="0.5" stroke-miterlimit="10"/>
<path d="M14.8022 77.4534C15.3114 77.7133 16.963 78.8765 17.7329 79.8789C18.5773 80.9679 18.8381 82.0197 18.9126 82.3043C19.1113 83.1582 19.0616 83.8388 18.9995 84.9154C18.9623 85.596 18.8257 87.3161 18.7636 87.6997" stroke="#231F20" stroke-width="0.5" stroke-miterlimit="10"/>
<path d="M32.3862 74.335C33.3176 75.127 35.1058 76.6367 36.5587 78.035C38.1358 79.5571 40.0233 81.3762 42.0475 83.913C43.3141 85.497 44.1461 86.7592 45.7729 89.2465C47.0519 91.1894 48.5172 93.0208 49.7715 94.9884C50.2806 95.7804 51.1623 97.2035 52.8884 97.9583C53.4348 98.1935 53.9191 98.3048 54.2419 98.3667" stroke="#231F20" stroke-width="0.5" stroke-miterlimit="10"/>
<path d="M28.9714 87.8234C28.8845 88.3432 28.7852 89.296 29.108 90.385C29.2322 90.8181 29.8655 92.7486 31.8152 93.6891C33.2805 94.3944 34.6713 94.1346 35.6027 93.9613C36.0125 93.8871 37.602 93.5529 39.1294 92.2783C39.7503 91.7586 40.5699 91.078 41.0293 89.8529C41.464 88.6773 41.3398 87.6131 41.228 87.081" stroke="#231F20" stroke-width="0.5" stroke-miterlimit="10"/>
<path d="M26.8727 80.3244C26.7982 80.8936 26.674 81.7722 26.4008 82.8241C25.9413 84.6184 25.606 84.8164 25.457 85.992C25.3949 86.487 25.2583 87.9101 25.8668 89.5064C26.2766 90.5706 26.8851 91.3874 27.1583 91.7339C27.8537 92.6496 28.3256 92.9095 28.7105 93.7633C29.0334 94.4563 29.1079 95.0998 29.1203 95.5205" stroke="#231F20" stroke-width="0.5" stroke-miterlimit="10"/>
<path d="M29.7909 101.324C29.7412 102.611 29.9026 103.651 30.0641 104.356C30.2876 105.346 30.4242 105.965 30.9458 106.584C31.6163 107.388 32.5104 107.685 32.9823 107.796" stroke="#231F20" stroke-width="0.5" stroke-miterlimit="10"/>
<path d="M32.2993 95.1122C32.7836 95.6938 33.4045 96.5971 33.6529 97.8098C33.9385 99.1711 33.4914 99.6537 33.5163 101.795C33.5287 103.626 33.5411 104.604 34.1993 105.569C34.5842 106.138 35.2672 106.683 36.6332 107.796C37.1423 108.205 37.5646 108.526 37.8502 108.737" stroke="#231F20" stroke-width="0.5" stroke-miterlimit="10"/>
<path d="M39.2656 93.7633C39.8741 95.0379 40.2218 96.1145 40.4205 96.8694C40.7434 98.0945 40.9793 98.9854 41.1035 100.248C41.2277 101.572 41.1159 102.351 41.712 103.02C42.0721 103.428 42.5316 103.601 42.8669 103.7" stroke="#231F20" stroke-width="0.5" stroke-miterlimit="10"/>
<path d="M43.2021 92.8847C42.8917 93.7138 42.8172 94.4315 42.7923 94.9142C42.7675 95.5948 42.7427 96.4981 43.2642 97.4139C43.674 98.1316 44.2577 98.5523 44.6178 98.7627" stroke="#231F20" stroke-width="0.5" stroke-miterlimit="10"/>
<path d="M45.7729 94.4315C45.9841 94.8399 46.3069 95.3473 46.7912 95.8546C47.5736 96.6838 48.418 97.1169 48.9644 97.3396" stroke="#231F20" stroke-width="0.5" stroke-miterlimit="10"/>
<path d="M32.5598 89.1723C32.5598 89.2466 32.4729 89.692 32.7585 89.9767C33.1062 90.3232 33.7147 90.1747 34.05 89.9767C34.3977 89.7663 34.5467 89.4322 34.5964 89.2961" stroke="#231F20" stroke-width="0.5" stroke-miterlimit="10"/>
<path d="M34.398 111.509C34.398 111.36 34.9444 111.038 36.5712 109.962C37.9371 109.058 38.1979 108.984 38.6698 108.477C39.2534 107.846 39.0672 107.722 39.6881 106.992C40.4332 106.113 40.6939 106.311 41.7246 105.309C42.6063 104.443 42.9168 104.356 43.5873 104.133C44.2082 103.923 44.1462 103.873 44.6429 103.626C45.388 103.242 45.4128 102.884 46.133 102.351C46.7167 101.931 46.7415 101.968 47.6853 101.597C48.6911 101.201 48.6415 100.668 49.9205 100.05C50.3303 99.8517 50.6904 99.7279 51.1375 99.5795C52.2179 99.2206 52.28 99.3443 52.8263 99.1092C54.0309 98.6018 54.2917 97.8099 54.8629 97.9584C55.223 98.0574 55.4093 98.441 55.5459 98.7008C55.5956 98.7998 55.8812 99.3815 55.6825 99.9878C55.5459 100.409 55.223 100.656 54.6642 101.003C53.5714 101.683 53.0375 101.819 52.2924 102.215C51.8081 102.475 51.6963 102.413 50.0199 103.7C48.8526 104.604 48.3683 105.185 47.884 105.519C46.8905 106.2 46.667 105.866 43.9226 107.413C43.5873 107.598 42.5566 108.551 41.0416 109.492C39.7005 110.333 39.4397 110.556 39.2162 110.779C38.1234 111.83 37.9992 113.155 37.2914 113.402C35.3666 114.058 34.249 113.65 34.4104 111.521L34.398 111.509Z" stroke="#231F20" stroke-width="0.5" stroke-miterlimit="10"/>
<path d="M36.3974 111.113C36.3105 111.36 36.4471 111.583 36.4595 111.62C36.6209 111.892 37.0432 112.09 37.3784 111.892C37.6392 111.744 37.7634 111.41 37.6516 111.113C37.5399 110.828 37.2543 110.704 37.0059 110.704C36.77 110.704 36.4843 110.853 36.3974 111.113Z" stroke="#231F20" stroke-width="0.5" stroke-miterlimit="10"/>
<path d="M40.3834 107.499C40.2841 107.536 39.8619 107.71 39.775 108.143C39.7129 108.464 39.8495 108.836 40.1475 108.984C40.5449 109.195 41.0043 108.885 41.203 108.675C41.4141 108.452 41.6749 107.994 41.4762 107.66C41.2651 107.326 40.7063 107.363 40.3959 107.487L40.3834 107.499Z" stroke="#231F20" stroke-width="0.5" stroke-miterlimit="10"/>
<path d="M43.873 105.099C43.7736 105.136 43.3762 105.272 43.2645 105.668C43.1776 105.99 43.3017 106.386 43.5998 106.546C43.9971 106.757 44.469 106.46 44.6801 106.175C44.8416 105.952 45.0403 105.519 44.8167 105.235C44.5435 104.876 43.8978 105.086 43.873 105.099Z" stroke="#231F20" stroke-width="0.5" stroke-miterlimit="10"/>
<path d="M46.8532 103.18C46.5676 103.391 46.5055 103.787 46.6545 104.059C46.8656 104.455 47.5114 104.554 47.8094 104.232C48.0578 103.972 48.0205 103.477 47.7101 103.218C47.4865 103.032 47.1264 102.995 46.8656 103.18H46.8532Z" stroke="#231F20" stroke-width="0.5" stroke-miterlimit="10"/>
<path d="M50.0448 101.386C49.9703 101.671 49.9951 102.091 50.2435 102.265C50.6284 102.512 51.4977 102.153 51.5598 101.559C51.6094 101.176 51.3114 100.693 50.8768 100.644C50.4297 100.594 50.1193 101.052 50.0324 101.386H50.0448Z" stroke="#231F20" stroke-width="0.5" stroke-miterlimit="10"/>
<path d="M53.3973 99.6661C53.298 99.8517 53.2607 100.161 53.4346 100.31C53.6332 100.483 54.0182 100.384 54.1796 100.136C54.3659 99.8641 54.2541 99.4186 54.0058 99.3319C53.7947 99.2453 53.5091 99.4557 53.3973 99.6661Z" stroke="#231F20" stroke-width="0.5" stroke-miterlimit="10"/>
<path d="M53.3852 91.1275C53.2113 92.2289 53.4845 93.8871 53.3852 94.4687C53.261 95.3102 52.9381 96.0526 53.3231 96.758C53.4845 97.055 54.2544 97.8965 54.4159 98.0202" stroke="#231F20" stroke-width="0.5" stroke-miterlimit="10"/>
<path d="M55.7319 100.099C56.5764 100.805 57.5574 102.042 57.992 102.5C58.7371 103.267 59.1966 103.824 60.0907 104.492C60.5501 104.839 61.6926 105.284 61.9782 105.433" stroke="#231F20" stroke-width="0.5" stroke-miterlimit="10"/>
<path d="M9.92206 95.7433C10.0711 96.8322 10.4684 99.7403 10.6671 101.658C10.7416 102.426 10.9031 104.022 11.1639 108.044C11.1639 108.044 11.3377 110.642 11.5737 114.887C11.7227 117.572 11.7723 118.921 11.4867 120.691C11.3625 121.446 11.1763 122.324 10.9403 123.351C10.5181 125.269 10.307 125.913 10.1332 126.408C9.85997 127.163 9.61161 127.806 9.09005 128.573C8.55607 129.353 7.99726 129.86 7.64956 130.145C7.30185 130.43 5.73718 131.704 5.11628 131.271C4.80583 131.048 4.89276 130.64 5.16595 130.281C5.32739 130.058 5.60059 129.86 5.97313 129.601C6.53194 129.217 6.73063 129.155 7.01624 128.71C7.11558 128.561 7.27702 128.338 7.46329 127.893C7.62472 127.509 8.24562 126.296 8.00968 126.136C7.93517 126.086 7.28944 126.643 6.43259 127.175C5.69993 127.633 5.67509 127.856 5.25288 127.979C4.781 128.116 4.13526 128.054 3.89932 127.707C3.67579 127.373 3.93657 126.94 3.71305 126.804C3.55161 126.705 3.37776 126.952 3.03006 126.89C2.76928 126.841 2.53333 126.643 2.44641 126.395C2.33465 126.074 2.57059 125.888 2.44641 125.678C2.28497 125.405 1.82551 125.591 1.53989 125.319C1.17977 124.985 1.41571 124.217 1.45297 124.106C1.68891 123.339 2.17321 123.265 2.89346 122.398C2.95555 122.324 2.91829 122.374 4.1601 120.233C4.43329 119.75 4.73132 119.268 5.20321 118.661C5.48882 118.302 5.48882 118.339 5.63784 118.117C5.68751 118.055 6.34567 117.102 6.44501 116.063C6.53194 115.209 6.20907 114.578 5.87378 113.835C5.45157 112.895 7.06591 116.335 4.32153 109.714C2.76928 105.977 2.74444 106.064 2.45883 105.16C1.97452 103.651 2.14838 103.725 1.51506 101.646C1.29153 100.916 1.06801 100.26 0.968664 99.2824C0.943828 98.9854 0.93141 98.7379 0.93141 97.5252C0.943828 95.2359 0.981082 95.4834 0.968664 94.6914C0.943828 93.6272 0.86932 92.8476 0.968664 91.6596C0.9935 91.375 1.03075 91.0037 1.20461 90.5459C1.46538 89.8776 1.86276 89.4693 2.04903 89.2589C2.78169 88.4793 3.4026 87.6007 4.14768 86.8334C6.29599 84.606 5.86136 84.9525 6.9914 83.8264C8.23321 82.5889 9.59919 81.2401 11.524 79.7427C12.7409 78.8023 14.2932 77.6143 16.5409 76.4634C18.7264 75.3497 20.465 74.83 22.7002 74.1741C24.2276 73.7162 26.3263 73.1717 28.872 72.7263" stroke="#231F20" stroke-width="0.5" stroke-miterlimit="10"/>
<path d="M44.7793 88.1204C44.8911 88.603 45.1891 89.5435 45.9963 90.3231C47.2505 91.5358 48.9021 91.8823 49.6968 91.8947C50.1936 91.8947 52.8758 92.1422 54.7137 90.3231C55.198 89.8529 56.4647 87.7244 56.0673 85.596C55.7692 84.0368 54.4653 83.0963 54.1052 82.8488" stroke="#231F20" stroke-width="0.5" stroke-miterlimit="10"/>
<path d="M52.665 87.8853C52.665 87.8853 53.1866 88.2565 53.7454 88.0709C54.2049 87.9101 54.3911 87.5141 54.4284 87.4398" stroke="#231F20" stroke-width="0.5" stroke-miterlimit="10"/>
<path d="M53.5466 82.5023C54.5276 82.9725 52.3172 81.8093 52.8263 82.0816C54.5027 83.0097 55.1609 83.9502 57.5948 85.0515C59.2216 85.794 59.5693 85.8311 59.768 85.893C61.0595 86.2766 61.6555 86.3137 63.4561 86.5736C67.3057 87.1181 67.0077 87.1305 68.0632 87.2542C69.7397 87.4398 70.6089 87.4646 71.0808 87.4398C71.739 87.4151 73.0925 87.7244 76.284 86.4499C77.6872 85.893 79.3388 85.2248 81.4374 84.0244C82.6792 83.3067 84.8772 82.0197 87.2118 79.8417C88.317 78.8023 88.1059 78.827 89.6085 77.4163C91.049 76.0551 91.9679 75.3373 93.3091 73.8153C94.4267 72.5407 94.6254 72.0828 94.7123 71.8848C94.8986 71.4269 94.9607 71.0433 95.1593 68.6055C95.3208 66.7493 95.2959 66.7864 95.3456 66.675C95.7678 65.5737 96.8854 64.4105 97.6429 63.6185C97.792 63.47 98.0776 63.173 98.1397 62.7151C98.1769 62.381 98.0527 62.2449 97.8665 61.6756C97.5312 60.6485 97.6678 60.2649 97.3698 60.1041C97.1835 60.0051 96.8979 60.0422 96.3266 60.3763C95.2835 60.9827 94.675 61.7128 93.93 62.5419C92.9241 63.6556 92.328 64.3238 92.2163 64.2496C92.0673 64.1506 92.4274 62.7399 93.4705 61.4405C93.8554 60.9579 94.0417 60.599 94.6502 59.9679C94.9731 59.6338 95.3084 59.0027 95.0848 58.8171C94.9979 58.7552 94.8241 58.7428 94.377 58.9903C93.3836 59.5472 92.8372 60.401 92.5516 60.8465C91.347 62.7275 92.0797 61.4282 90.6889 63.6432C89.5091 65.5242 89.3601 65.8459 89.2359 66.279C89.0373 66.9225 89 67.4794 88.9255 68.5684C88.7641 70.9443 89.1118 71.0557 88.7889 71.8105C88.3046 72.9614 87.1746 73.5554 85.9452 74.2112C85.2746 74.5701 84.7034 74.7557 83.6106 75.127C81.4871 75.8323 81.0773 75.7705 79.078 76.4139C77.8859 76.7976 76.9049 77.1069 75.6258 77.7009C74.6572 78.1588 74.1977 78.4558 72.8442 79.0126C71.3788 79.6314 70.7952 79.7551 70.1743 79.718C69.5782 79.6932 69.0567 79.5324 68.4482 79.3468C67.79 79.1488 67.5168 79.0003 66.7221 78.6661C66.1384 78.431 65.2319 78.0598 64.1764 77.7504C62.8973 77.3792 61.8542 77.2431 61.5313 77.2059C60.6124 77.0946 59.8922 76.9584 59.0974 76.7481C58.2406 76.5253 58.0667 76.5377 57.3341 76.2902C56.9988 76.1788 56.5145 76.0551 55.7818 75.7828C54.8753 75.4487 54.2296 75.2755 53.559 75.1022C52.9257 74.9537 52.4165 74.8176 51.4852 74.929C50.2434 75.0775 49.7715 75.2755 49.1133 75.4735C48.5173 75.6467 48.2565 75.8323 47.797 75.7457C47.4121 75.6715 47.3127 75.4735 46.7415 75.0651C45.6114 74.2484 45.152 74.3969 44.8788 73.8524C44.6553 73.3945 44.7919 72.9243 44.916 72.4664C44.9905 72.2065 45.2637 71.2042 46.0337 70.9443C46.1454 70.9072 46.282 70.8824 46.8408 70.9443C47.9833 71.0804 48.2565 71.3032 49.0761 71.3774C49.697 71.4393 50.38 71.5012 50.7028 71.1052C50.9015 70.8577 50.7898 70.6473 50.9388 69.9296C51.0133 69.5955 51.1126 69.3356 51.3113 68.8159C51.7708 67.6155 51.9198 67.6526 52.0937 66.9968C52.3048 66.2172 52.1061 66.1058 52.3668 65.6108C52.7021 64.9549 53.1368 64.955 53.174 64.5342C53.2113 64.1506 52.8636 64.0516 52.193 63.0864C51.7459 62.4429 51.4728 62.0345 51.4479 61.4653C51.4479 61.3539 51.4852 61.094 51.5473 60.5867C51.659 59.7947 51.6963 59.7823 51.7211 59.4729C51.7832 58.7676 51.6093 58.7552 51.6218 57.9261C51.6218 57.394 51.6466 56.998 51.8577 56.5773C52.0688 56.1689 52.2178 56.2184 52.4041 55.8348C52.6897 55.2284 52.5283 54.6097 52.4662 54.3498C52.4414 54.2261 52.2923 53.6816 51.8205 53.1371C51.2368 52.4565 50.529 52.209 49.7218 51.9244C48.6911 51.5655 48.5173 51.714 47.5859 51.3551C46.7912 51.0458 46.6173 50.823 45.9591 50.4765C44.7546 49.8578 43.6494 49.7464 42.7429 49.6722C40.9671 49.4989 39.5639 49.8083 38.9554 49.9815C38.1234 50.2043 36.8567 50.5384 35.5653 51.5531C34.249 52.5926 33.566 53.8301 33.2183 54.6097" stroke="#231F20" stroke-width="0.5" stroke-miterlimit="10"/>
<path d="M49.2376 51.7635C49.0141 51.9986 47.7599 52.902 47.3253 53.3227C46.5802 54.0528 46.1455 54.4117 45.475 55.0304C44.6554 55.7853 44.0717 56.3793 43.6868 56.7629C43.041 57.4187 42.1842 58.285 41.1783 59.4853C39.9489 60.9579 39.9738 61.1559 39.3032 61.6633C39.1169 61.7994 38.1608 62.5171 36.683 62.8389C35.3915 63.1235 33.9635 62.7027 33.355 62.5666" stroke="#231F20" stroke-width="0.5" stroke-miterlimit="10"/>
<path d="M39.8867 115.382C40.2468 115.889 41.0168 116.842 42.3207 117.498C42.8298 117.758 44.7422 118.612 46.7042 117.993C47.7225 117.671 47.8839 117.226 50.4048 114.714C53.0995 112.028 54.006 111.459 54.5151 111.162C55.8439 110.395 57.0857 110.036 57.9053 109.863" stroke="#231F20" stroke-width="0.5" stroke-miterlimit="10"/>
<path d="M61.2828 106.472C60.811 106.955 60.1776 107.71 59.5692 108.724C59.0103 109.652 58.6626 110.259 58.526 111.113C58.4143 111.843 58.5509 112.251 59.0228 114.268C59.1718 114.899 59.3953 115.865 59.6561 117.053" stroke="#231F20" stroke-width="0.5" stroke-miterlimit="10"/>
<path d="M57.8057 111.558C57.4829 111.719 56.9986 111.967 56.4522 112.325C55.3594 113.043 54.664 113.736 54.2418 114.169C52.081 116.31 51.8575 116.038 50.6281 117.411C49.9327 118.191 49.0262 119.391 48.2314 121.099" stroke="#231F20" stroke-width="0.5" stroke-miterlimit="10"/>
<path d="M56.2286 114.8C56.2286 115.097 56.179 115.53 56.0051 116.013C55.6326 116.978 55.0117 117.3 54.6019 117.906C54.3039 118.352 54.1176 118.971 54.4156 121.149C54.6019 122.473 54.9496 124.292 55.6823 126.457" stroke="#231F20" stroke-width="0.5" stroke-miterlimit="10"/>
<path d="M57.9427 114.256C57.7067 114.615 57.4087 115.159 57.2224 115.877C57.0982 116.335 57.0113 116.929 57.1355 118.488C57.1976 119.268 57.3093 120.295 57.5453 121.507" stroke="#231F20" stroke-width="0.5" stroke-miterlimit="10"/>
<path d="M55.0491 114.615C54.8007 114.899 54.4406 115.332 54.006 115.877C53.0995 117.003 52.6524 117.572 52.5158 117.906C52.0315 119.094 52.7269 119.466 52.3792 121.149C52.3295 121.359 52.1184 122.312 51.4354 123.351C51.0256 123.97 50.293 124.836 49.1381 125.467C48.5545 125.789 48.0205 125.95 47.6479 126.049" stroke="#231F20" stroke-width="0.5" stroke-miterlimit="10"/>
<path d="M38.3467 117.906C38.7192 118.971 39.2656 120.233 40.11 121.557C41.861 124.304 44.0341 125.987 45.487 126.915" stroke="#231F20" stroke-width="0.5" stroke-miterlimit="10"/>
<path d="M40.7437 124.972C41.29 125.777 41.8985 126.631 42.5939 127.497C43.8978 129.106 45.2141 130.442 46.4311 131.543" stroke="#231F20" stroke-width="0.5" stroke-miterlimit="10"/>
<path d="M50.8518 129.823C50.9884 130.17 51.5969 131.84 50.7649 133.474C50.6158 133.771 50.3178 134.352 49.6845 134.773C48.8028 135.367 48.1571 135.095 46.2944 135.677C45.1892 136.023 44.9656 136.258 44.8539 136.481C44.5807 137.025 44.7545 137.83 45.214 138.275C45.7728 138.832 46.729 138.745 48.6041 138.547C49.4858 138.448 50.2061 138.325 50.6779 138.238" stroke="#231F20" stroke-width="0.5" stroke-miterlimit="10"/>
<path d="M53.1616 137.161C53.7453 136.963 54.6766 136.716 55.8315 136.666C57.0236 136.617 57.9301 136.79 59.5817 137.112C61.0843 137.409 61.3327 137.557 62.7483 137.83C63.9405 138.052 64.9215 138.176 65.5424 138.238" stroke="#231F20" stroke-width="0.5" stroke-miterlimit="10"/>
<path d="M64.5366 128.524C64.9092 129.007 65.5425 129.712 66.5235 130.281C68.0012 131.123 68.7712 130.789 70.2241 131.679C70.845 132.051 72.0123 132.768 72.3476 134.105C72.4345 134.427 72.6208 135.429 72.0744 136.394C71.8384 136.803 71.5528 137.087 71.3541 137.248" stroke="#231F20" stroke-width="0.5" stroke-miterlimit="10"/>
<path d="M61.0593 130.318C61.2331 131.11 61.1586 131.717 61.0593 132.113C60.8854 132.781 60.5998 133.028 60.6122 133.647C60.6122 133.758 60.6246 134.513 61.0593 134.946C61.6056 135.491 62.4377 135.182 64.5363 134.946C67.1192 134.662 68.1251 134.897 68.6963 135.083C69.3793 135.305 70.5466 135.813 70.497 136.295C70.4473 136.753 69.3172 137.001 68.8702 137.1C68.3735 137.211 67.8147 137.26 66.1134 137.149C65.5918 137.112 64.9213 137.062 64.1265 136.963" stroke="#231F20" stroke-width="0.5" stroke-miterlimit="10"/>
<path d="M2.63282 122.448C1.96225 121.854 1.54004 121.26 1.27926 120.827C0.881884 120.159 0.0622949 118.884 0.397581 118.364C0.633524 118.005 1.56488 118.166 1.71389 118.216C2.34721 118.389 2.67008 118.637 3.61385 119.255C3.94914 119.478 4.22233 119.664 4.39618 119.8" stroke="#231F20" stroke-width="0.5" stroke-miterlimit="10"/>
<path d="M14.2932 124.589C15.3488 125.368 16.9631 126.569 18.7141 127.571C19.4343 127.979 22.0421 129.452 25.7551 130.813C26.5374 131.098 28.8596 131.927 31.9889 132.632C34.4974 133.202 35.764 133.486 37.577 133.573C39.9613 133.697 41.3397 133.387 41.4763 133.808C41.675 134.439 38.7319 135.837 38.3966 135.998C37.6019 136.369 36.3352 136.963 34.5346 137.285C33.7026 137.434 31.7157 137.706 27.8661 136.914C26.5498 136.642 23.3708 135.912 19.3971 134.043C17.3232 133.065 14.1939 131.259 11.2881 129.031" stroke="#231F20" stroke-width="0.5" stroke-miterlimit="10"/>
<path d="M12.1574 124.453C12.7783 123.76 12.7658 123.611 13.4985 122.782C14.2188 121.965 14.3678 121.384 14.8521 121.359C15.2122 121.347 15.5847 121.631 15.6965 121.965C15.8083 122.312 15.6468 122.683 15.088 123.413C14.3305 124.403 14.0449 124.799 13.4613 125.455C13.1881 125.777 12.7783 126.532 11.7352 127.905C11.462 128.264 11.077 129.019 10.4437 129.935C9.62409 131.11 9.35089 131.321 9.09012 131.283C8.70516 131.234 8.1836 130.888 8.19602 130.417C8.19602 129.959 8.61823 129.254 8.9411 128.92C9.4254 128.413 9.6986 127.806 10.6796 126.519C11.8345 125.022 11.5489 125.121 12.1574 124.44V124.453Z" stroke="#231F20" stroke-width="0.5" stroke-miterlimit="10"/>
<path d="M11.0645 122.881C11.3128 122.98 12.4056 123.5 12.654 123.611" stroke="#231F20" stroke-width="0.5" stroke-miterlimit="10"/>
<path d="M13.6846 127.484C14.7525 128.066 16.3048 128.895 18.2047 129.823C21.1602 131.259 23.5569 132.434 26.5993 133.424C28.5738 134.068 31.4175 134.823 34.9939 135.219" stroke="#231F20" stroke-width="0.5" stroke-miterlimit="10"/>
</g>
<defs>
<clipPath id="clip0_122_117">
<rect width="231" height="142" fill="white"/>
</clipPath>
</defs>
</svg>
