<svg width="205" height="125" viewBox="0 0 205 125" fill="none" xmlns="http://www.w3.org/2000/svg">
<g clip-path="url(#clip0_170_1689)">
<path d="M47.9956 7.15098C48.0575 6.63225 48.342 5.58245 48.738 4.76732C49.3938 3.39641 50.3341 2.60597 50.8291 2.21075C51.4601 1.69203 53.0439 0.456973 55.4195 0.321117C57.0033 0.234663 58.1293 0.716335 59.6017 1.33386C59.8244 1.43267 62.4723 2.55657 63.4498 3.89043C63.7839 4.3474 64.1303 4.77967 64.4644 5.23664C64.6747 5.53305 64.7861 5.69361 65.0088 5.91592C65.3924 6.28644 65.5409 6.27409 65.8131 6.5952C66.1719 7.00277 66.2709 7.44739 66.2833 7.53384C66.3822 7.97846 66.2833 8.33663 66.2214 8.60834C66.11 9.01591 65.9616 9.57169 65.479 9.95455C64.6995 10.5597 63.623 10.251 63.524 10.2263C62.9177 10.041 62.8806 9.74459 62.2372 9.62109C62.0764 9.58404 61.4948 9.47288 60.9504 9.75694C60.4926 9.9916 60.5173 10.2757 59.8739 11.1032C59.3047 11.8195 59.0078 12.2024 58.5252 12.3135C57.8694 12.4617 57.3993 12.0171 57.1765 12.2518C56.9291 12.5235 57.3498 13.2892 57.3745 13.3263C57.6591 13.8203 58.1045 14.1414 58.3891 14.339C58.7974 14.6354 58.9583 14.6478 59.0697 14.8824C59.2058 15.1665 59.1563 15.5494 59.0078 15.8211C58.7727 16.2286 58.4262 16.1792 58.2654 16.5621C58.1788 16.7844 58.1664 17.1179 58.3273 17.3031C58.55 17.5501 58.9212 17.4019 59.6141 17.439C60.2575 17.4637 60.5916 17.476 60.7648 17.6366C60.938 17.8095 60.9009 17.9824 60.9628 19.0569C61.0246 20.1067 61.0617 20.082 61.0246 20.4031C60.9628 20.9465 60.8267 21.0577 60.8267 21.6135C60.8267 22.0087 60.8885 22.0087 60.8885 22.4904C60.8885 23.0091 60.9009 23.3426 60.7524 23.7007C60.5049 24.2812 60.01 24.5653 59.8739 24.6394C59.7873 24.6888 58.8593 25.1951 58.1169 24.7752C57.9808 24.7011 57.82 24.5653 57.3745 23.7625C56.9909 23.0585 56.7682 22.5151 56.6321 22.2187C56.6321 22.2187 56.1867 21.1812 55.6175 20.1932C54.739 18.674 54.4297 18.7358 54.1946 17.9083C53.9224 16.9079 54.1698 16.0187 54.2565 15.6852C54.5163 14.7466 54.8504 14.6725 55.4072 13.2645C55.9021 12.0047 55.8031 11.6219 55.7412 11.449C55.5556 10.8932 55.0112 10.3745 54.3926 10.3004C54.0337 10.2633 53.7615 10.3868 53.378 10.5721C52.4376 11.0167 52.3262 11.449 51.621 11.8565C51.1384 12.1406 50.6187 12.2024 49.5917 12.3259C48.3792 12.4741 47.7729 12.5482 47.2284 12.2641C46.2757 11.7454 46.0406 10.6462 46.0159 10.5103C45.855 9.64579 46.1767 8.97886 46.2881 8.75655C46.7211 7.89201 47.9461 7.54619 47.9708 7.16333" stroke="black" stroke-width="0.5" stroke-miterlimit="10"/>
<path d="M47.9961 7.15097C48.7261 7.36093 50.3841 8.11432 51.6091 8.26252C52.3267 8.34898 55.2963 8.67009 59.033 7.7191C60.2704 7.41034 62.646 6.49639 64.502 5.53305" stroke="black" stroke-width="0.5" stroke-miterlimit="10"/>
<path d="M54.0335 8.38603C54.0088 8.75655 54.0583 9.9422 54.0335 10.3127" stroke="black" stroke-width="0.5" stroke-miterlimit="10"/>
<path d="M63.5118 10.2263C63.45 10.7573 63.3386 11.7701 63.3139 12.1159C63.1778 13.5733 63.1159 14.3019 63.1159 14.5119C63.1035 15.327 63.1654 15.6729 62.9427 15.7964C62.7942 15.8705 62.4477 15.7593 61.7672 15.5246C61.4208 15.4135 61.2847 15.3517 61.198 15.4258C61.0743 15.537 60.9877 17.1055 60.7402 17.5131" stroke="black" stroke-width="0.5" stroke-miterlimit="10"/>
<path d="M49.6168 12.3135C49.3817 12.6099 48.3547 13.9561 47.9588 14.3637C47.6989 14.6354 47.1174 15.2159 46.2389 15.8828C45.1748 16.6856 44.6428 17.0932 44.0736 17.229C43.0095 17.4884 42.6878 16.9944 41.7845 17.4019C41.2277 17.6489 41.2772 17.8713 40.4359 18.3406C40.3121 18.4147 39.7058 18.7481 38.8892 18.9828C37.7632 19.3039 37.3797 19.094 36.662 19.2545C36.3898 19.3163 35.6474 19.5262 34.0265 21.4159C32.4922 23.2067 32.4922 23.7995 31.4652 24.9481C30.5001 26.0226 30.463 25.5163 28.0874 27.3688C26.4046 28.6903 25.5632 29.3449 24.6476 30.3947C24.1403 30.9752 23.8557 31.3828 23.1999 31.8768C22.3462 32.519 21.8389 32.5561 20.8366 33.0501C19.6859 33.6306 18.9683 34.2728 18.1764 34.9644C17.3721 35.6808 17.1741 36.0019 15.6399 37.8298C12.7569 41.2632 13.1033 40.5098 12.2991 41.6708C11.5691 42.7206 10.9628 43.7951 9.66358 44.5361C9.05729 44.8819 8.62423 44.9684 8.37676 45.0054C7.65911 45.1166 7.33741 44.9066 6.05059 44.6349C4.71428 44.3509 4.03375 44.215 3.39034 44.4373C2.83354 44.6226 2.9449 45.2648 2.00454 45.3142C1.69521 45.3265 1.71995 46.2158 0.928064 46.4875C0.284655 46.7098 0.346522 47.3273 0.321775 47.7349C0.297029 48.1795 0.457881 48.8218 0.928064 49.1182C1.49723 49.4763 2.00454 48.97 2.74693 49.3899C2.88304 49.464 3.26661 49.6739 3.3161 50.0321C3.37797 50.3903 3.05626 50.5879 3.14288 50.8349C3.25424 51.1313 3.81103 51.2178 4.1946 51.2054C4.80089 51.1931 5.0731 50.9214 5.85262 50.5632C6.24856 50.3779 6.90434 50.2421 7.60962 49.9951C8.74796 49.5751 8.94593 49.6492 9.71307 49.3775C10.3194 49.1676 10.5545 49.0935 11.2597 48.6859C12.0021 48.2413 12.0764 48.056 13.7591 46.8951C15.4419 45.7465 16.2833 45.1783 16.6668 44.7337C17.7062 43.5604 17.4216 43.0293 18.4238 41.572C19.4756 40.0282 20.7748 39.1883 21.3563 38.8055C23.2494 37.5951 25.0064 37.3481 26.8253 37.0887C29.003 36.78 30.7105 36.8788 32.2571 36.9899C35.5237 37.2122 35.6969 37.6816 37.887 37.5951C38.4933 37.5704 38.3943 37.5333 42.8486 36.6812C43.7024 36.5206 45.2985 36.2612 48.4785 35.7425C50.4087 35.4338 51.0892 35.3226 52.0543 35.5449C52.6359 35.6684 53.403 36.0019 54.9249 36.6565C56.7314 37.4345 56.6943 37.5086 57.2511 37.6322C58.5132 37.9039 58.872 37.5457 60.3939 37.6939C61.458 37.8051 61.7921 38.0274 62.8562 38.2991C63.215 38.3855 64.143 38.6078 67.3477 38.6696C72.5073 38.7684 72.4331 38.262 74.2272 38.7314C75.1799 38.9907 75.9471 39.3365 77.2339 39.2748C78.2485 39.2254 78.7682 38.966 79.8694 38.6696C80.9088 38.3979 81.9605 38.2867 84.0144 38.1015C86.1921 37.9039 87.6646 37.8421 89.8917 37.731C94.2471 37.521 93.6408 37.5086 98.2932 37.2987C104.566 37.0023 103.935 37.1011 104.17 37.064C104.876 36.9652 106.026 36.7676 107.511 37.0023C108.439 37.1505 109.33 37.4345 109.639 37.5457C110.704 37.8915 110.988 38.1138 111.768 38.3855C112.436 38.6202 113.426 38.8796 114.737 38.929" stroke="black" stroke-width="0.5" stroke-miterlimit="10"/>
<path d="M61.1113 18.637C61.4454 18.5876 62.46 18.4764 62.9797 18.4641C63.2148 18.4641 63.9324 18.4641 64.9347 18.5999C65.9616 18.7481 66.7659 18.8716 67.7063 19.3039C68.3868 19.625 68.8817 19.9956 69.389 20.3784C69.9458 20.7983 70.1562 21.0206 70.8738 21.5888C71.443 22.0334 71.6533 22.3545 72.1606 22.5274C72.3586 22.6015 72.6061 22.6262 73.0763 22.7003C73.7444 22.7868 74.0661 22.7868 74.5239 22.8362C75.3529 22.9103 75.984 23.0585 76.3181 23.1449C76.8872 23.2808 77.3203 23.429 78.174 23.7131C78.7185 23.8983 78.8669 24.0342 79.2258 24.0836C79.7454 24.1453 79.9805 23.9724 80.6116 23.8489C80.8714 23.7995 80.9333 23.8119 82.3686 23.7872C84.1503 23.7625 84.0637 23.7378 84.4225 23.7501C85.2144 23.7748 85.4619 23.8366 86.4146 23.923C86.9095 23.9724 87.6891 23.9971 89.211 24.0589C91.7104 24.1577 91.9826 24.1453 92.7497 24.2565C93.6406 24.3923 93.5664 24.4665 94.6428 24.627C95.2862 24.7258 96.1771 24.8617 97.3402 24.8987C98.5528 24.9358 98.6394 24.8123 99.1962 24.9605C99.7159 25.0963 100.112 25.3433 100.916 25.8374C101.609 26.2573 101.584 26.3067 102.302 26.7513C102.723 27.0107 102.747 26.9983 103.96 27.6899C104.826 28.184 105.061 28.3322 105.309 28.6286C105.655 29.0485 105.593 29.2214 105.853 29.6043C106.261 30.2218 106.905 30.4441 108.179 30.8887C108.439 30.9752 109.342 31.2716 110.679 31.4939C111.644 31.6545 112.126 31.7286 112.671 31.6915C113.252 31.6545 113.995 31.4939 115.95 30.3083C116.791 29.7895 117.942 29.2091 119.043 28.1222" stroke="black" stroke-width="0.5" stroke-miterlimit="10"/>
<path d="M118.956 28.2457C119.142 28.0481 120.008 26.8625 120.503 26.1214C120.775 25.7139 121.084 25.4051 121.455 25.1457C122.309 24.5529 122.829 25.3186 123.25 25.0469C123.311 24.9975 123.646 24.7876 123.683 24.4418C123.745 23.9971 123.299 23.7625 122.977 23.1944C122.631 22.5768 122.656 21.9593 122.668 21.4776C122.705 20.4525 123.163 19.7238 123.608 19.0199C124.363 17.8466 124.672 18.0195 125.266 16.9326C125.687 16.1545 125.613 15.8952 126.145 15.08C126.429 14.6354 126.739 14.1784 127.296 13.7956C128.112 13.2398 129.127 13.0916 129.213 13.2892C129.275 13.4127 128.966 13.5733 128.434 14.2278C128.149 14.586 127.865 14.9442 127.654 15.4753C127.531 15.7717 127.345 16.2533 127.419 16.8585C127.456 17.1549 127.506 17.1179 127.593 17.5378C127.642 17.7848 127.753 18.3529 127.63 18.9828C127.531 19.5262 127.37 19.4768 127.221 20.0573C127.147 20.3537 126.924 21.2183 127.283 21.5394C127.518 21.7493 127.852 21.6135 128.533 21.5023C128.805 21.4653 130.092 21.28 131.305 21.5641C131.626 21.6382 132.381 21.8358 133.123 22.4039C134.014 23.0955 133.977 23.639 134.571 23.7872C134.942 23.8736 135.524 23.5402 136.662 22.8732C138.122 22.0087 138.432 21.6505 138.58 21.4529C138.988 20.9342 139.186 20.3908 139.261 20.2055C139.483 19.588 139.397 19.4521 139.57 18.9581C139.619 18.7976 139.978 17.7478 140.956 17.1426C141.76 16.6362 142.799 16.5374 142.911 16.7721C142.948 16.8338 142.911 16.9203 142.304 17.686C141.735 18.4023 141.686 18.4517 141.599 18.6246C141.475 18.847 141.389 19.1187 141.29 20.0079C141.178 21.0577 141.253 21.28 141.191 21.6876C141.042 22.725 140.3 23.4167 139.805 23.8736C138.209 25.3804 136.254 25.4669 136.291 26.0597C136.291 26.1338 136.439 26.282 136.724 26.6031C137.145 27.0601 137.355 27.2824 137.64 27.4429C137.912 27.5911 138.172 27.6406 138.951 27.6406C139.768 27.6406 140.226 27.6035 140.98 27.5788C142.478 27.5047 142.799 27.5788 143.146 27.7147C143.406 27.8258 143.888 28.0358 144.123 28.5174C144.383 29.0485 144.21 29.6166 144.086 30.0366C143.901 30.6417 143.604 31.0617 143.381 31.3457C142.045 33.0748 141.092 33.2724 141.117 33.9764C141.117 34.3222 141.352 34.3099 142.292 35.3967C142.911 36.1007 142.812 36.1007 143.913 37.4469C144.618 38.3238 144.866 38.5708 145.163 38.8302C145.682 39.2871 145.954 39.5218 146.412 39.707C146.895 39.9047 147.13 39.8553 147.464 40.1393C147.551 40.2134 147.86 40.4975 147.971 40.9421C148.033 41.1891 147.971 41.2509 148.033 41.3497C148.268 41.6708 149.209 41.4361 149.852 41.1768C150.57 40.8927 150.743 40.6457 151.609 40.127C152.191 39.7812 152.698 39.4847 153.403 39.2501C154.207 38.9907 155.346 38.7808 156.311 38.7067C156.521 38.6943 156.756 38.682 157.053 38.5708C157.734 38.3361 158.13 37.8421 158.34 37.5951C158.464 37.4469 159.144 36.9652 160.505 35.9772C161.285 35.4214 162.25 34.7051 163.574 33.9517C164.935 33.1736 165.727 32.729 166.915 32.3708C168.226 31.9756 168.449 32.1732 169.711 31.7286C169.983 31.6298 170.33 31.5063 172.31 30.4194C174.933 28.9868 175.403 28.6286 175.415 28.1346C175.428 27.6529 175.032 27.4306 175.081 26.6155C175.093 26.3808 175.131 25.9732 175.415 25.7015C175.626 25.5163 175.848 25.5039 176.331 25.4298C177.296 25.2816 177.147 25.1704 177.717 25.121C178.261 25.0716 178.88 25.121 179.634 25.1828C179.981 25.2075 180.154 25.2322 180.278 25.121C180.55 24.8617 180.426 24.0959 180.006 23.8119C179.634 23.5525 179.3 23.8613 178.929 23.5772C178.719 23.4167 178.657 23.182 178.521 22.7003C178.422 22.3422 178.335 21.9963 178.422 21.5888C178.434 21.5147 178.496 21.2553 178.929 20.6748C179.387 20.0573 179.832 19.6497 180.043 19.4645C180.612 18.9581 180.711 19.0075 181.218 18.5258C181.701 18.0689 181.948 17.8466 182.097 17.5131C182.357 16.945 182.084 16.7721 182.196 15.6605C182.319 14.4996 182.678 14.1043 182.876 13.9438C182.975 13.8573 183.186 13.6844 183.384 13.7462C183.681 13.8326 183.767 14.3637 183.817 14.7219C183.891 15.2406 183.841 15.537 183.817 16.1051C183.78 16.945 183.878 16.8709 183.854 17.8589C183.829 18.6987 183.755 19.4768 183.755 19.4768C183.755 19.4768 183.693 20.1191 183.718 21.1318C183.718 21.4282 183.742 21.5641 183.854 21.6752C184.089 21.8852 184.497 21.6752 185.24 21.5394C185.277 21.5394 185.92 21.4282 186.588 21.4776C187.43 21.5394 188.073 21.8111 188.481 21.984C188.952 22.1816 189.31 22.4039 189.83 22.725C190.622 23.2067 190.647 23.3055 190.981 23.4043C191.612 23.5772 192.181 23.392 192.639 23.2314C192.837 23.1696 193.641 22.8732 194.433 22.0828C195.027 21.49 195.299 20.9342 195.645 20.1932C196.017 19.4274 196.512 18.4023 196.586 17.0314C196.623 16.4509 196.561 16.0187 196.685 15.9816C196.883 15.9322 197.279 16.9697 197.464 17.5254C197.65 18.0812 197.823 18.6246 197.836 19.378C197.836 20.0326 197.724 20.4896 197.501 21.2924C197.279 22.1199 197.118 22.6756 196.722 23.3179C196.215 24.133 195.596 24.6147 195.41 24.7629C194.086 25.7633 192.936 25.578 192.849 26.1461C192.775 26.5908 193.418 27.1095 193.901 27.3194C194.173 27.4429 194.371 27.4553 194.953 27.4923C197.007 27.6282 196.908 27.6282 197.044 27.6282C198.145 27.5912 198.231 27.3812 199.135 27.4553C200.236 27.5417 200.459 27.8876 200.521 27.9987C200.607 28.1593 200.607 28.3445 200.582 28.7027C200.558 29.382 200.409 29.8884 200.384 30.0119C200.186 30.7158 199.902 31.2222 199.778 31.4322C198.739 33.186 197.489 33.3095 197.514 34.1246C197.514 34.2728 197.563 34.384 199.06 35.9154C199.667 36.5206 199.964 36.8294 200.347 37.1999C201.251 38.0644 201.708 38.4967 202.141 38.8178C203.329 39.6947 203.762 39.6082 204.232 40.3369C204.616 40.9298 204.678 41.5473 204.703 41.7572C204.752 42.3007 204.666 42.7082 204.468 43.511C204.294 44.215 204.22 44.5608 204.035 44.8943C203.626 45.623 203.045 46.0058 202.513 46.3393C202.042 46.6481 201.486 47.0062 200.694 47.1421C200.1 47.2532 199.419 47.1544 198.058 46.9692C197.254 46.858 197.167 46.8086 196.809 46.8333C196.153 46.8704 195.843 47.0803 194.953 47.4385C194.594 47.5867 193.567 47.9943 192.49 48.2166C191.933 48.3277 191.476 48.3648 190.572 48.4142C188.11 48.5624 187.021 48.3895 186.86 48.8218C186.774 49.0688 187.096 49.1923 187.405 50.1062C187.442 50.2174 187.467 50.2915 187.677 51.2795C187.863 52.1317 187.949 52.564 187.986 52.7616C188.048 53.1939 188.123 53.6632 188.085 54.2807C188.048 55.0217 187.9 55.3676 187.85 55.4911C187.702 55.8245 187.59 56.0592 187.343 56.195C186.86 56.4544 186.44 56.0221 186.031 56.2939C185.759 56.4791 185.871 56.7014 185.561 56.899C185.264 57.0843 184.844 57.0719 184.547 56.899C184.262 56.7261 184.349 56.5532 184.114 56.3927C183.718 56.1456 183.334 56.5162 182.629 56.3927C182.579 56.3927 182.245 56.3186 181.985 56.158C181.206 55.6516 181.33 54.1696 181.416 53.1568C181.49 52.317 181.589 51.2795 182.258 50.1309C182.74 49.3034 183.718 48.2536 184.114 47.9325" stroke="black" stroke-width="0.5" stroke-miterlimit="10"/>
<path d="M181.416 55.4293C181.429 55.8122 181.045 57.7265 181.082 58.4552C181.144 60.0114 181.169 60.2213 181.144 60.6412C181.119 61.3452 181.082 62.1974 180.736 63.099C180.167 64.5811 179.4 64.4823 178.917 65.8655C178.855 66.0631 178.855 66.1002 178.682 68.4221C178.521 70.6081 178.484 70.9416 178.249 71.4233C178.175 71.5591 177.729 72.0779 176.826 73.103C175.626 74.4862 175.527 74.5974 175.378 74.8938C175.081 75.4743 174.995 76.03 174.809 77.1539C174.772 77.3515 174.76 77.438 174.574 79.1053C174.388 80.6862 174.388 80.7603 174.376 80.8962C174.327 81.4149 174.24 82.2671 174.203 83.3169C174.153 84.7001 174.203 85.787 174.24 86.2192C174.388 88.6523 174.809 90.5049 175.044 91.5053C175.205 92.1722 175.44 93.1973 175.886 94.5065C176.442 96.1491 176.653 96.2973 176.9 97.3718C177.098 98.261 177.123 99.0762 177.172 100.669C177.209 101.843 177.172 102.226 177.172 103.695C177.172 106.264 177.172 107.549 177.308 108.141C177.791 110.105 178.917 111.526 179.338 112.044C180.105 112.995 180.315 112.909 181.095 113.959C182.023 115.218 181.899 115.552 182.852 116.824C183.371 117.516 183.941 118.257 184.906 118.911C185.067 119.01 185.054 118.998 186.898 119.924C188.147 120.554 188.778 120.875 189.125 121.443C189.261 121.665 189.62 122.271 189.36 122.789C189.174 123.16 188.729 123.296 188.519 123.357C186.44 123.95 184.077 122.999 181.194 123.419C181.008 123.444 179.857 123.617 178.422 123.456C177.717 123.37 177.222 123.234 176.9 122.851C176.665 122.567 176.616 122.258 176.529 121.641C176.418 120.85 176.343 120.406 176.529 119.887C176.665 119.516 176.752 119.59 177.643 118.306C177.89 117.948 178.001 117.763 178.076 117.503C178.125 117.355 178.323 116.639 177.977 116.219C177.853 116.071 177.667 115.984 176.9 115.91C175.749 115.811 175.527 115.959 174.908 115.848C174.574 115.786 173.832 115.651 173.386 115.107C172.928 114.551 173.077 113.909 173.077 112.551C173.077 112.551 173.077 111.698 172.904 109.784C172.805 108.697 172.644 106.931 171.79 105.14C170.961 103.399 170.417 103.609 169.835 102.139C169.13 100.373 169.588 99.2614 169.464 97.6929C169.34 96.1985 168.672 94.0989 166.086 91.6288" stroke="black" stroke-width="0.5" stroke-miterlimit="10"/>
<path d="M173.225 89.2451C173.176 89.7639 173.151 90.4061 173.263 91.1348C173.498 92.7774 174.203 93.9754 174.685 94.6423" stroke="black" stroke-width="0.5" stroke-miterlimit="10"/>
<path d="M171.84 92.7156C171.877 93.0615 171.939 93.5925 172.149 94.1977C172.396 94.9511 172.594 95.1117 172.854 95.8774C173.176 96.8037 173.337 97.2854 173.164 97.767C172.842 98.6439 171.753 98.4587 171.481 99.212C171.295 99.7061 171.629 100.163 172.768 101.942C173.745 103.485 174.24 104.251 174.389 104.634C174.698 105.424 174.921 106.647 174.45 108.438" stroke="black" stroke-width="0.5" stroke-miterlimit="10"/>
<path d="M177.779 117.911C178.113 118.01 179.177 118.17 179.635 118.454C180.303 118.862 180.464 119.158 181.083 119.467C181.603 119.726 182.048 119.788 182.37 119.837C183.347 119.986 185.376 119.59 185.884 119.43" stroke="black" stroke-width="0.5" stroke-miterlimit="10"/>
<path d="M184.226 21.6382C184.226 21.8234 184.176 22.8485 184.028 23.1573C183.892 23.4414 183.657 23.7254 183.087 24.0959C182.679 24.3677 181.256 24.9358 180.291 25.1704" stroke="black" stroke-width="0.5" stroke-miterlimit="10"/>
<path d="M176.059 28.9868C176.17 29.4314 176.38 30.086 176.838 30.7776C177.519 31.8027 178.348 32.3214 178.966 32.6919C179.981 33.3095 180.971 33.6182 181.763 33.7664" stroke="black" stroke-width="0.5" stroke-miterlimit="10"/>
<path d="M185.438 30.9999C185.697 30.8146 186.267 30.4935 187.021 30.4565C187.677 30.4318 188.135 30.6417 188.704 30.8887C189.471 31.2346 190.659 31.7656 190.696 32.6055C190.721 33.0748 190.374 33.433 190.325 33.4824C189.644 34.174 188.098 34.0258 186.477 33.1489" stroke="black" stroke-width="0.5" stroke-miterlimit="10"/>
<path d="M190.672 26.1832C191.068 26.7019 191.018 27.3688 191.414 27.8876C192.095 28.7891 193.221 29.5178 193.914 30.3947" stroke="black" stroke-width="0.5" stroke-miterlimit="10"/>
<path d="M194.582 28.6409C194.879 28.8139 195.337 29.1103 195.758 29.6166C195.906 29.7895 196.351 30.3577 196.599 31.2346C196.859 32.1732 196.76 32.9636 196.661 33.3959" stroke="black" stroke-width="0.5" stroke-miterlimit="10"/>
<path d="M190.672 23.4043C190.87 23.5155 191.575 24.3924 191.884 24.874C192.194 25.3433 192.812 25.9609 192.825 26.1832" stroke="black" stroke-width="0.5" stroke-miterlimit="10"/>
<path d="M203.218 39.3118C202.315 39.7811 200.645 40.4357 200.187 40.374C199.581 40.2999 199.284 40.0529 198.801 40.2011C198.306 40.3616 198.034 40.8186 197.787 41.2138C197.539 41.6214 197.428 41.9795 197.217 42.6959C196.958 43.5357 197.019 43.6098 196.846 43.8445C196.562 44.2274 196.166 44.3756 195.497 44.6226C195.139 44.7461 194.631 44.9066 193.976 44.9931" stroke="black" stroke-width="0.5" stroke-miterlimit="10"/>
<path d="M192.354 45.8206C192.998 45.8947 193.988 45.9564 195.188 45.8206C196.326 45.6847 197.378 45.413 198.12 45.2154C199.778 44.7708 200.199 44.5238 201.09 44.5732C201.882 44.6226 202.525 44.8943 202.946 45.1166" stroke="black" stroke-width="0.5" stroke-miterlimit="10"/>
<path d="M199.68 41.3497C199.717 41.5349 199.902 42.2636 200.558 42.6588C201.239 43.0787 202.303 43.0911 202.587 42.5971C202.785 42.2389 202.55 41.6584 202.179 41.3497C201.795 41.0285 201.251 40.9668 200.756 41.1768" stroke="black" stroke-width="0.5" stroke-miterlimit="10"/>
<path d="M183.248 43.4987C183.359 43.9433 183.557 44.5114 183.929 45.1166C184.683 46.3516 185.698 47.0062 186.255 47.3026" stroke="black" stroke-width="0.5" stroke-miterlimit="10"/>
<path d="M181.417 55.4293C182.023 55.1699 183.842 54.3795 185.166 54.4166C185.97 54.4413 187.418 55.0464 187.913 55.207" stroke="black" stroke-width="0.5" stroke-miterlimit="10"/>
<path d="M184.052 54.4783V56.4421" stroke="black" stroke-width="0.5" stroke-miterlimit="10"/>
<path d="M185.71 54.4783C185.759 54.7871 185.933 56.0345 185.982 56.3309" stroke="black" stroke-width="0.5" stroke-miterlimit="10"/>
<path d="M173.584 29.7525C173.658 30.6294 174.735 35.6314 175.081 37.1628C175.749 40.1146 176.343 42.7947 178.323 44.9066C179.003 45.6477 182.951 48.2783 186.823 48.8465" stroke="black" stroke-width="0.5" stroke-miterlimit="10"/>
<path d="M171.283 31.0246C171.716 33.5935 173.758 39.8058 174.339 41.1768C175.577 44.1409 176.925 47.3644 179.907 48.3895C180.885 48.7229 181.776 48.7353 182.37 48.6982" stroke="black" stroke-width="0.5" stroke-miterlimit="10"/>
<path d="M127.556 21.6382C127.556 21.8975 127.086 23.2314 126.282 23.923C125.279 24.7752 123.671 24.8123 123.485 24.8246" stroke="black" stroke-width="0.5" stroke-miterlimit="10"/>
<path d="M134.584 23.7995C135.599 24.3553 135.388 25.331 135.599 25.7509" stroke="black" stroke-width="0.5" stroke-miterlimit="10"/>
<path d="M134.547 26.9613C135.091 28.5792 136.477 29.1844 137.455 30.2959" stroke="black" stroke-width="0.5" stroke-miterlimit="10"/>
<path d="M138.395 28.5792C138.79 28.7645 139.57 29.2214 140.114 30.123C141.141 31.815 140.486 33.6429 140.387 33.8899" stroke="black" stroke-width="0.5" stroke-miterlimit="10"/>
<path d="M129.486 30.8393C130.043 30.7899 130.946 30.7776 131.911 31.1728C133.273 31.7286 134.547 32.9636 134.312 33.4947C134.089 34.0134 132.493 33.7664 132.258 33.7294C130.971 33.5318 130.055 32.8895 129.561 32.482" stroke="black" stroke-width="0.5" stroke-miterlimit="10"/>
<path d="M145.782 39.3612C145.052 39.6082 144.099 40.0899 143.691 40.164C142.936 40.2875 142.602 40.2752 142.206 40.4975C141.649 40.8186 141.377 41.3744 141.229 41.7819" stroke="black" stroke-width="0.5" stroke-miterlimit="10"/>
<path d="M119.427 29.0485C119.464 29.5302 119.588 30.4565 120.231 31.3334C121.58 33.1736 123.918 33.1612 124.178 33.1489" stroke="black" stroke-width="0.5" stroke-miterlimit="10"/>
<path d="M71.3814 24.2318C70.9854 24.3553 70.4286 24.5529 69.7605 24.7999C68.1519 25.4174 67.3353 25.7262 66.729 26.2449C65.5907 27.2083 65.17 28.4557 65.071 28.7768C64.6874 30.0366 64.7864 30.2218 64.3905 31.7162C64.1554 32.6055 64.0688 33.3959 63.512 34.2975C63.017 35.1126 62.6953 35.2608 62.7201 35.8413C62.7201 36.0636 62.7201 36.3847 62.7696 36.6688C62.8314 37.1752 62.8686 38.015 62.8314 38.3114" stroke="black" stroke-width="0.5" stroke-miterlimit="10"/>
<path d="M61.1861 33.9023C60.9634 33.7664 60.5674 34.0134 60.3818 34.211C60.122 34.4704 59.8374 34.9768 60.0477 35.2608C60.2086 35.4708 60.5798 35.4584 60.8272 35.3596C61.2479 35.1867 61.3717 34.6927 61.3717 34.3839C61.3717 34.2604 61.3717 34.0134 61.1984 33.9146L61.1861 33.9023Z" stroke="black" stroke-width="0.5" stroke-miterlimit="10"/>
<path d="M45.1621 21.3418C45.5086 21.6752 46.0406 22.1075 46.783 22.2804C48.008 22.5892 48.5524 21.9222 49.5175 22.3422C50.099 22.6015 50.5445 23.1326 51.1384 23.8242C51.6457 24.4171 51.7818 24.7258 52.0788 24.7382C52.4376 24.7382 52.5118 24.3182 53.2913 23.429C54.0461 22.5768 54.6524 22.194 54.838 22.0828C55.1721 21.8852 56.0753 21.5517 56.2857 21.4776" stroke="black" stroke-width="0.5" stroke-miterlimit="10"/>
<path d="M52.2773 27.5665C52.2031 28.2951 52.1536 29.0362 52.1041 29.8266C52.0546 30.7899 52.0298 31.7039 52.0422 32.5931" stroke="black" stroke-width="0.5" stroke-miterlimit="10"/>
<path d="M23.4223 32.9266C23.1748 33.2724 22.8284 33.8405 22.6428 34.6063C22.4943 35.2361 22.3582 35.7549 22.6428 36.1871C23.1006 36.9035 24.2884 36.8047 24.3627 36.7923" stroke="black" stroke-width="0.5" stroke-miterlimit="10"/>
<path d="M29.1143 36.8047C29.6958 36.2612 31.3538 35.3226 32.5293 34.3716C35.239 32.1732 36.4268 29.7649 37.5528 30.0983C37.7755 30.1601 37.9983 30.4565 38.4684 31.037C38.8149 31.4692 39.3469 32.1609 39.6439 33.1983C39.879 33.9887 39.879 34.6433 39.879 35.1497C39.879 35.6808 39.7305 36.7676 39.681 37.1011" stroke="black" stroke-width="0.5" stroke-miterlimit="10"/>
<path d="M41.8463 34.5445C41.636 34.7174 41.5246 35.0385 41.6483 35.2485C41.8216 35.5696 42.4526 35.4461 42.6258 35.4214C42.8114 35.3844 43.2197 35.3103 43.2692 35.0879C43.3311 34.8286 42.8857 34.4704 42.465 34.4087C42.366 34.3963 42.0814 34.3593 41.8587 34.5445H41.8463Z" stroke="black" stroke-width="0.5" stroke-miterlimit="10"/>
<path d="M78.8428 25.3434C79.2263 25.5904 79.8203 25.9362 80.5627 26.282C81.6639 26.8007 82.233 26.8872 82.3197 27.2947C82.4186 27.7764 81.7381 28.2951 81.3793 28.5792C80.9957 28.8756 80.2038 29.3696 78.9541 29.4931" stroke="black" stroke-width="0.5" stroke-miterlimit="10"/>
<path d="M65.999 27.0107C66.2217 27.2947 66.9023 28.221 67.3353 28.6039C67.7313 28.9497 68.5603 29.6166 69.7357 30.0489C70.0575 30.1724 70.6885 30.37 72.9033 30.4812C74.0169 30.5429 75.1676 30.5553 76.5782 30.5182C79.0899 30.4565 79.4116 30.3083 80.6242 30.4565C81.9605 30.617 81.9853 30.8393 83.3587 31.0987C84.064 31.2346 86.6005 31.6792 89.434 30.9258C90.9187 30.5306 90.7826 30.2712 93.3192 29.4808C95.7072 28.7397 96.4867 28.7768 97.1301 29.0732C97.7612 29.3696 97.8107 29.7154 98.949 30.7282C100.409 32.0126 100.607 32.2226 100.941 32.2102C101.758 32.1855 101.795 31.1728 102.995 30.7899C103.849 30.5182 104.319 30.8764 104.814 30.4812C105.272 30.123 105.334 29.4561 105.321 28.9374" stroke="black" stroke-width="0.5" stroke-miterlimit="10"/>
<path d="M100.941 32.2226C101.176 32.6672 101.968 33.8158 102.327 34.3099C102.958 35.1991 104.183 36.4465 104.765 36.9899" stroke="black" stroke-width="0.5" stroke-miterlimit="10"/>
<path d="M2.35094 49.3899C2.15296 49.921 1.73227 51.0078 1.49718 52.0576C0.866146 54.8735 1.24972 56.195 1.31158 61.0365C1.36108 64.4699 1.18785 65.001 1.5343 66.7795C1.84363 68.3603 2.42518 71.2998 3.78623 71.4974C4.89983 71.6579 6.42174 69.9659 6.61971 68.3974C6.70632 67.7305 6.50835 67.4464 6.43411 65.6556C6.40936 65.001 6.42174 64.4946 6.43411 63.8647C6.53309 59.8632 6.71869 58.2946 6.65683 56.1456C6.57021 52.848 5.9763 50.8349 6.1124 50.7979C6.27326 50.7608 7.01565 53.1692 7.46109 55.9233C7.77042 57.813 7.84466 59.3074 7.90653 62.889C7.98076 66.4584 7.99314 69.1508 7.99314 69.8918C8.00551 72.2384 8.055 75.6472 8.21586 79.8587" stroke="black" stroke-width="0.5" stroke-miterlimit="10"/>
<path d="M17.0623 45.0548C16.7901 45.9194 16.4683 47.2162 16.4312 48.7847C16.4065 50.168 16.5921 51.5636 17.7304 54.9847C18.8688 58.4181 19.2276 58.6652 20.4278 62.1727C21.331 64.8034 21.7888 66.1496 21.9992 67.9651C22.0982 68.7803 22.2961 70.8428 21.9126 73.4488C21.6899 74.9555 21.5414 74.795 20.0195 79.6488C18.844 83.3786 18.2625 85.6264 16.8643 86.7009C16.8395 86.7256 16.1961 87.2196 15.3795 87.9607C14.3154 88.924 14.0803 89.2945 13.9442 89.5292C13.4988 90.3073 13.4245 91.0607 13.3998 91.32C13.3255 92.2216 13.5606 92.6168 13.4493 93.926C13.4122 94.2842 13.375 94.4941 13.3627 94.6053C13.2142 95.371 12.9667 95.7415 12.8182 96.1738C12.6079 96.779 12.6574 97.2854 12.7687 98.2857C12.8677 99.212 13.0286 99.2738 13.3132 100.62C13.6349 102.127 13.5978 102.794 13.8081 102.818C14.0556 102.843 14.1545 101.892 14.8846 100.62C15.5527 99.4714 15.9116 99.5085 16.9138 98.0634C17.6314 97.0136 18.015 96.4455 18.0892 95.5933C18.114 95.2352 18.2006 94.1113 17.4087 93.3949C16.6168 92.6662 15.2434 92.6292 14.4886 93.2591C14.2659 93.4443 13.3998 94.6423 13.3132 94.8152" stroke="black" stroke-width="0.5" stroke-miterlimit="10"/>
<path d="M14.501 93.2344C14.501 93.0615 14.5505 91.1965 15.2681 90.4925C15.429 90.3443 15.961 89.8256 16.8024 89.8133C16.8519 89.8133 17.9655 89.8133 18.5594 90.7148C19.0791 91.4929 18.5223 93.0244 17.7923 93.8148" stroke="black" stroke-width="0.5" stroke-miterlimit="10"/>
<path d="M18.1142 95.2598C18.9185 94.5188 19.6856 93.5802 19.896 93.0985C20.131 92.5798 20.7621 91.1471 20.3043 89.5045C20.1805 89.0846 20.0444 88.5905 19.6237 88.1583C18.5101 86.9973 16.184 87.3678 15.9736 87.4172" stroke="black" stroke-width="0.5" stroke-miterlimit="10"/>
<path d="M19.5371 88.0101C20.5022 85.787 22.0365 82.0818 22.9645 78.0555C23.8183 74.3504 24.3998 71.7938 24.1771 68.3603C23.9667 65.0751 23.1006 62.5432 21.5663 58.0353C20.6507 55.3429 19.8093 53.3791 19.5866 50.2174C19.3763 47.1915 19.9207 45.8823 20.4404 45.0548C21.6901 43.0664 23.7193 42.3995 24.2637 42.2266C25.3402 41.8807 26.8497 41.6584 27.0477 42.0907C27.2085 42.4242 26.4538 42.9305 25.5629 44.1533C24.5606 45.5365 24.3132 46.2405 24.2142 46.6234C24.0657 47.1791 24.0533 47.6238 24.0286 48.056C24.0286 48.4018 23.9915 49.9827 24.8329 52.2305C25.3525 53.6261 25.5876 53.6014 25.7732 54.5648C25.9465 55.4046 25.897 56.0715 25.8227 57.2201C25.6866 59.0604 25.4515 59.0604 25.4639 60.2337C25.4639 61.6416 25.8227 62.7532 26.0083 63.2843C26.3548 64.3217 26.8126 65.1986 27.1343 65.8038C27.6787 66.8289 27.9014 67.0512 28.1241 67.7799C28.3469 68.5333 28.3716 69.1508 28.3964 69.756C28.4459 71.0651 28.2108 71.1639 28.3097 72.1396C28.3469 72.5842 28.483 73.4611 28.9408 74.3874C29.5099 75.5484 29.9554 75.499 30.2895 76.4994C30.5988 77.4133 30.4751 78.2284 30.4256 78.5249C30.3142 79.1547 30.0791 79.5747 29.7079 80.2292C29.1759 81.1926 28.9779 81.1802 28.6314 81.8966C28.2726 82.6376 28.3345 82.9587 28.0499 84.0085C27.8396 84.7989 27.6045 85.33 27.1467 86.3922C26.0331 88.9611 25.4763 90.2455 24.3132 91.4188C23.0511 92.6909 22.1726 92.765 21.7519 94.0248C21.4673 94.8523 21.5416 95.7168 21.5663 96.0874C21.6529 97.1248 21.9375 97.4459 22.1974 98.5575C22.3211 99.0885 22.3582 99.8172 22.4201 101.25C22.4572 102.114 22.5067 103.325 22.5067 105.116C22.5067 108.018 22.4077 108.351 22.284 108.66C22.1107 109.055 21.8262 109.587 21.4797 110.587C21.2694 111.204 21.158 111.526 21.1209 111.847C20.9848 113.069 21.5416 114.119 21.7024 114.403C22.1974 115.255 22.6304 115.367 22.6057 115.885C22.5933 116.182 22.4324 116.281 21.7519 117.182C21.2322 117.874 20.9724 118.22 20.8116 118.578C20.626 118.973 20.2671 119.751 20.5393 120.467C20.6631 120.813 20.8982 121.035 21.5787 121.505C22.618 122.221 23.1625 122.604 24.1028 122.987C24.87 123.308 25.8846 123.728 27.258 123.753C28.1736 123.765 28.0375 123.58 29.0521 123.567C30.6483 123.555 31.1185 124.012 32.6033 123.876C33.3704 123.814 33.8901 123.765 34.1747 123.382C34.8057 122.53 33.7045 120.751 33.5436 120.504C32.1949 118.392 30.5493 118.602 29.2254 116.824C28.6067 115.996 28.4458 115.058 28.0994 113.181C27.5673 110.29 27.9014 109.154 27.9633 103.078C27.988 100.361 27.9385 100.002 28.2355 99.175C28.7676 97.7053 29.8564 96.6184 32.0093 94.5065C33.2343 93.3085 34.1128 92.4563 35.4739 91.4065C38.5548 89.0475 39.1116 89.5539 41.0542 87.8125C43.0958 85.9846 42.4647 85.4535 45.2363 82.687C46.1025 81.8348 47.2037 80.748 48.8865 79.6364C50.2723 78.7101 50.5197 78.7966 51.8065 77.8456C53.3285 76.7217 54.5163 75.8201 54.9122 74.338C55.0112 73.9675 54.9493 73.9675 55.2216 72.4113C55.4319 71.2504 55.5309 70.6699 55.6299 70.3488C55.9392 69.299 56.7806 68.6074 59.4037 67.1129C60.7153 66.3596 62.398 65.458 64.4025 64.507" stroke="black" stroke-width="0.5" stroke-miterlimit="10"/>
<path d="M35.5116 45.6353C35.1899 46.1787 34.7693 46.9445 34.3362 47.8831C33.9774 48.6859 33.2968 50.205 32.9875 51.8847C32.7895 52.9839 32.5668 55.1082 33.4329 57.8624" stroke="black" stroke-width="0.5" stroke-miterlimit="10"/>
<path d="M39.7431 46.8951C39.2606 47.3768 38.5924 48.1425 38.0356 49.2293C36.9592 51.3289 36.9963 53.2803 37.0458 54.6142C37.1076 56.6644 37.6273 58.3687 38.1717 59.6409" stroke="black" stroke-width="0.5" stroke-miterlimit="10"/>
<path d="M42.8362 47.562C42.6135 48.3154 42.3289 49.4146 42.0691 50.7484C41.7845 52.2305 41.5865 53.2803 41.6236 54.4289C41.6484 55.4417 41.8711 57.2695 43.195 59.4556" stroke="black" stroke-width="0.5" stroke-miterlimit="10"/>
<path d="M46.8454 47.3397C46.4618 48.3154 46.0164 49.7851 45.9917 51.6006C45.9422 54.7994 47.1919 57.1831 47.8353 58.2452" stroke="black" stroke-width="0.5" stroke-miterlimit="10"/>
<path d="M50.4955 47.6608C50.2481 48.019 49.8769 48.6859 49.7779 49.5875C49.5923 51.2548 50.4955 52.4775 50.7183 52.7739" stroke="black" stroke-width="0.5" stroke-miterlimit="10"/>
<path d="M31.7246 70.3364C32.3185 70.5711 33.197 70.991 33.9765 71.8185C34.9417 72.8436 34.8798 73.5352 35.8202 74.5109C36.8595 75.5854 38.1216 75.9436 38.6041 76.0794C40.0147 76.4747 41.1283 76.277 42.9224 75.9436C44.7165 75.5978 45.4713 75.2272 48.28 74.3751C49.7153 73.9428 50.8908 73.6217 51.6084 73.4364" stroke="black" stroke-width="0.5" stroke-miterlimit="10"/>
<path d="M44.012 79.7722C43.4923 80.1675 42.8613 80.7356 42.255 81.526C41.426 82.6005 40.9682 83.6627 40.7207 84.4037" stroke="black" stroke-width="0.5" stroke-miterlimit="10"/>
<path d="M76.8133 39.2995C76.4421 39.6206 75.8358 40.4481 75.3285 41.1026C74.9697 41.5473 73.8437 43.0664 73.2993 45.7341C72.8167 48.1054 73.1261 49.9457 73.7447 53.6385C73.9674 54.9353 74.3386 56.9114 75.0068 59.295C75.7987 62.1604 76.108 62.4197 76.937 65.4456C77.4567 67.3229 77.8898 68.9161 78.1496 71.1022C78.3599 72.8189 78.5332 74.2639 78.2857 76.1288C78.1867 76.8205 77.964 78.179 76.7143 81.0691C75.9348 82.8722 74.5737 85.7129 72.8291 88.43" stroke="black" stroke-width="0.5" stroke-miterlimit="10"/>
<path d="M52.4502 77.4257C53.1555 77.401 55.0238 77.4257 56.1622 77.4257C56.7313 77.4257 60.1835 77.4627 63.5366 77.9197C68.6715 78.6237 74.1405 80.6862 76.4172 81.5754" stroke="black" stroke-width="0.5" stroke-miterlimit="10"/>
<path d="M15.9736 99.4096C16.0849 99.7308 16.4561 100.744 16.3819 101.497C16.3076 102.349 15.9612 102.942 15.887 103.065C15.4168 103.843 14.9713 103.831 13.6845 104.906C12.8555 105.597 12.4348 105.943 12.1997 106.474C11.878 107.19 11.7419 108.314 12.2863 109.08C12.7318 109.71 13.2143 109.5 13.9567 110.29C14.0681 110.414 14.5754 110.97 14.8105 111.822C15.1322 112.958 14.7734 113.946 14.5383 114.564C13.9691 116.095 12.9297 117.034 12.3358 117.479" stroke="black" stroke-width="0.5" stroke-miterlimit="10"/>
<path d="M12.9548 99.1379C12.8187 99.5578 12.1011 101.188 12.163 101.991C12.2248 102.868 12.5094 103.498 12.7445 104.016C13.2518 105.103 13.524 105.671 14.3159 106.536C14.9593 107.228 15.1202 107.993 15.083 108.463C15.0088 109.253 14.4273 109.352 13.3755 110.846C12.695 111.81 12.2001 112.514 12.2991 113.403C12.3609 114.008 12.6579 114.428 12.8806 114.749C13.6601 115.848 14.7861 116.281 15.3553 116.453" stroke="black" stroke-width="0.5" stroke-miterlimit="10"/>
<path d="M31.7251 94.9017C31.7869 95.5563 31.9973 96.8778 32.0344 98.0511C32.121 100.262 32.022 101.052 32.0344 103.078C32.0344 103.498 32.0344 103.547 32.3066 108.327C32.4551 111.007 32.5293 112.365 32.4427 113.403C32.3066 115.083 31.4776 117.553 31.2178 118.454" stroke="black" stroke-width="0.5" stroke-miterlimit="10"/>
<path d="M22.5684 116.033C22.655 115.885 23.8057 115.292 24.214 115.255C24.3996 115.243 24.6099 115.305 25.2039 115.836C25.8844 116.453 25.9586 116.663 26.2432 116.873C26.602 117.133 28.0002 117.194 29.2128 116.824" stroke="black" stroke-width="0.5" stroke-miterlimit="10"/>
<path d="M35.1033 115.465C35.1651 115.7 35.227 116.071 35.1527 116.503C35.029 117.157 34.6826 117.343 34.4351 118.034C34.3485 118.281 33.9897 119.257 34.3856 119.702C34.7321 120.072 35.5858 120.023 36.4519 119.516" stroke="black" stroke-width="0.5" stroke-miterlimit="10"/>
<path d="M34.3477 122.74C35.0901 122.925 36.8347 123.296 38.2081 123.641C40.2126 124.16 40.4477 124.247 41.1777 124.358C43.1822 124.679 44.6669 124.543 45.0876 124.494C45.4588 124.457 46.1022 124.308 47.3767 124.049C48.7501 123.765 47.6736 123.963 48.6759 123.74C49.2574 123.617 49.443 123.592 49.6657 123.431C49.7152 123.394 50.371 122.925 50.2473 122.357C50.1359 121.814 49.3935 121.616 49.3069 121.591C48.8367 121.468 48.6511 121.653 48.0448 121.678C47.5623 121.702 47.1416 121.554 46.2878 121.27C45.7187 121.085 45.1495 120.887 44.5308 120.554C43.7637 120.134 43.4667 119.763 42.6872 119.072C40.9055 117.491 40.5095 117.639 39.2722 116.33C38.5546 115.577 38.171 115.157 37.9235 114.44C37.6761 113.712 37.7008 113.045 37.9235 111.612C38.3071 109.179 38.6412 108.104 38.6412 108.104C39.2846 106.03 40.2621 102.374 41.4252 97.6559" stroke="black" stroke-width="0.5" stroke-miterlimit="10"/>
<path d="M43.0095 85.3547C43.0095 85.9352 42.8981 88.1583 42.7497 88.9734C42.5641 90.0232 42.2795 90.789 42.2052 90.9495C41.4257 92.9503 40.6091 92.9133 40.3121 94.2718C40.077 95.3216 40.2626 96.7296 41.0793 97.3224C41.5742 97.6929 41.933 97.4706 42.5146 97.8658C43.2446 98.3475 43.4426 99.1873 43.6405 99.9778C44.3953 102.917 44.284 101.447 44.9026 104.202C45.3975 106.449 45.6574 107.573 45.7564 109.055C45.9543 111.871 46.0533 113.279 45.8925 114.304C45.7935 114.947 45.5955 115.873 46.1152 116.503C46.4493 116.898 47.0432 117.157 47.6 117.133C47.9588 117.108 47.9959 116.984 49.1714 116.589C49.7406 116.404 49.9509 116.355 50.1612 116.453C50.5324 116.626 50.6314 117.12 50.6562 117.219C50.7428 117.614 50.6067 117.886 50.384 118.565C50.1241 119.38 49.988 119.788 49.9756 120.097C49.9633 120.863 50.3716 121.443 50.6562 121.851C51.2996 122.777 52.1657 123.184 52.4998 123.333C53.1308 123.604 53.7371 123.629 54.9249 123.691C56.2241 123.753 56.1004 123.629 57.1274 123.691C58.5256 123.777 59.1071 124.024 60.4558 123.913C61.4704 123.839 61.6189 123.654 61.6684 123.555C61.9282 123.036 61.0126 122.036 60.3197 121.492C59.602 120.924 59.3793 121.048 58.34 120.418C57.313 119.788 56.6325 119.121 56.2736 118.751C55.4199 117.886 54.9126 117.12 54.5661 116.589C54.1702 115.984 53.6381 115.157 53.2174 113.983C52.9205 113.156 52.97 112.971 52.673 112.007C52.2523 110.624 51.8069 109.858 51.4976 109.179C51.1882 108.475 51.1635 108.191 50.5943 104.189C50.5201 103.658 50.1241 100.855 49.8767 97.3224C49.8148 96.4949 49.7777 95.7539 50.0623 94.8523C50.4211 93.6913 50.9655 93.3826 51.8564 92.024C52.475 91.0854 52.3513 91.0483 53.6505 88.3806C54.5909 86.4786 55.0487 85.5276 55.4941 84.836C56.1994 83.7368 57.0779 82.687 58.8225 80.6615C59.6144 79.7476 61.0126 78.1914 61.458 77.685" stroke="black" stroke-width="0.5" stroke-miterlimit="10"/>
<path d="M45.6821 88.7511C45.8058 89.3069 45.8924 89.9738 45.9048 90.7272C45.9295 92.2463 45.6202 93.5061 45.3232 94.3706" stroke="black" stroke-width="0.5" stroke-miterlimit="10"/>
<path d="M47.7484 95.1734C47.4143 95.4451 46.808 95.9885 46.3997 96.8778C46.3007 97.0877 46.0285 97.73 45.9914 98.6316C45.9419 100.027 46.4987 101.114 46.6719 101.46C47.2535 102.645 47.9464 104.609 48.5155 108.104" stroke="black" stroke-width="0.5" stroke-miterlimit="10"/>
<path d="M51.6212 92.4192C51.0026 94.3953 51.349 96.0009 51.7573 96.4702C52.3141 97.1124 53.1679 97.026 53.6876 97.9029C53.9721 98.3845 53.9226 98.7427 53.9969 99.5702C54.0711 100.274 54.2691 101.04 54.6774 102.584C54.9744 103.695 55.4817 104.794 56.4715 106.943C57.845 109.895 58.1048 110.13 58.6369 111.661C59.2431 113.452 59.5525 114.341 59.404 115.206C59.1813 116.49 58.4018 117.318 58.5502 118.936C58.5874 119.393 58.674 120.393 58.7482 120.64" stroke="black" stroke-width="0.5" stroke-miterlimit="10"/>
<path d="M61.8291 123.493C62.2745 123.357 63.5366 123.333 64.3038 123.16C65.4545 122.913 66.0236 122.777 66.6423 122.851C67.4094 122.925 67.4094 123.16 68.8942 123.617C69.7232 123.876 70.28 124.049 71.0595 124.111C71.9504 124.185 71.8514 124.012 73.5342 123.975C74.4003 123.963 74.7344 124 75.2417 123.79C75.5387 123.666 76.1821 123.419 76.3677 122.802C76.4543 122.505 76.4667 122.011 76.1821 121.764C75.9099 121.529 75.5634 121.702 74.5117 121.814C73.7693 121.888 73.2991 121.937 72.8042 121.814C72.3216 121.702 72.0123 121.468 71.2699 120.875C69.6737 119.566 69.7604 119.504 69.0675 118.985C68.2384 118.368 68.1271 118.479 66.5433 117.454C65.6648 116.886 65.2194 116.589 65.009 116.33C64.5512 115.737 64.5512 115.194 64.5141 112.958C64.477 110.34 64.4399 109.438 64.5141 107.833C64.5512 107.005 64.6007 106.499 64.6997 105.906C64.8482 104.955 64.9843 104.733 65.108 103.979C65.2565 102.991 65.1451 102.571 65.1575 101.509C65.1575 100.151 65.3431 99.6073 65.4668 98.3598C65.7762 95.4945 65.2194 94.8646 65.2812 90.7643C65.306 89.4674 65.3678 89.2451 65.4173 87.9854C65.504 85.8734 65.4421 82.0448 64.9224 78.142" stroke="black" stroke-width="0.5" stroke-miterlimit="10"/>
<path d="M67.0011 78.8707C67.0011 79.5623 67.0259 80.5133 67.0506 81.6495C67.0877 83.6133 66.9021 85.577 67.0506 87.5284C67.1249 88.5041 67.2362 89.4551 66.6423 90.3073C66.3206 90.7643 65.5906 91.2212 65.2812 91.3818" stroke="black" stroke-width="0.5" stroke-miterlimit="10"/>
<path d="M55.5314 84.836C55.5686 86.0216 55.8284 88.7141 55.7542 89.418C55.6304 90.7396 55.482 91.073 55.3458 91.3077C54.9128 92.0611 54.3807 92.1352 53.5888 92.8391C53.1434 93.2344 51.8318 94.3336 51.3369 95.3957" stroke="black" stroke-width="0.5" stroke-miterlimit="10"/>
<path d="M52.4502 93.9013C52.8833 94.2718 54.0092 95.5316 54.7269 95.7045C56.0879 96.0379 56.7313 95.3957 58.9956 95.4822C59.9484 95.5192 60.5547 95.6551 61.062 96.0626C61.2228 96.1861 61.6559 96.5567 61.7796 97.1371C61.9405 97.8411 61.5693 98.4463 61.2352 98.9774C61.1115 99.1626 60.7526 99.7308 59.206 101.003C58.3646 101.694 57.9439 102.04 57.4985 102.349C56.5829 102.979 56.0879 103.189 56.0137 103.695C55.9271 104.239 56.3725 104.683 56.422 104.733C56.7808 105.091 57.2758 105.165 58.4883 105.14C60.2082 105.103 61.3218 104.955 61.3218 104.955C63.0664 104.72 63.4624 104.51 63.846 104.819C64.3533 105.239 64.4151 106.252 64.0687 106.981C63.5243 108.117 62.324 107.833 61.8167 108.87C61.2476 110.056 62.3735 111.39 61.8167 111.834C61.5198 112.069 60.8888 111.945 60.5547 111.612C59.9979 111.044 60.4557 110.056 60.6413 108.067C60.7403 107.055 60.6413 105.536 60.6165 105.042" stroke="black" stroke-width="0.5" stroke-miterlimit="10"/>
<path d="M54.3182 97.8164C53.6871 97.9029 55.1224 97.4706 55.7163 97.8164C56.3598 98.1869 56.4216 99.0391 56.434 99.2491C56.4835 99.9037 56.1989 100.126 56.2113 100.953C56.2113 101.349 56.5948 102.707 56.6567 102.917" stroke="black" stroke-width="0.5" stroke-miterlimit="10"/>
<path d="M61.6436 79.0065C61.6683 79.8093 61.7054 81.1679 61.7797 82.8723C61.9405 86.8862 62.0766 88.3189 62.089 90.9125C62.089 91.9129 62.089 93.469 62.0024 95.4081" stroke="black" stroke-width="0.5" stroke-miterlimit="10"/>
<path d="M73.6336 88.2077C73.2377 88.3188 71.592 88.677 70.9115 89.3316C70.1815 90.0232 69.8969 90.7766 69.736 91.2212C69.2782 92.4933 69.2287 94.0866 69.6494 94.2348C69.9588 94.3459 70.1815 93.5308 71.1342 93.1973C72.0746 92.8638 72.9902 93.2591 73.25 93.3826C73.646 93.5555 74.3141 93.8395 74.5492 94.5065C74.673 94.8399 74.6359 95.1364 74.5492 95.6304C74.475 96.0503 74.3636 96.7296 73.9182 97.52C73.3243 98.5822 72.8541 98.5698 72.1241 99.4961C70.9363 100.991 70.961 102.547 70.6393 102.51C70.4166 102.485 70.4661 101.756 70.0949 100.311C69.7732 99.0144 69.5381 98.8415 69.4143 98.1128C69.2906 97.4089 69.5876 95.1981 70.1939 93.8395" stroke="black" stroke-width="0.5" stroke-miterlimit="10"/>
<path d="M69.501 98.4092C69.303 98.8415 68.6225 100.052 68.573 100.916C68.5111 101.991 68.7957 102.781 69.0679 103.522C69.2659 104.091 69.6742 105.177 70.6022 106.301C71.2951 107.153 71.6292 107.215 71.7282 107.734C71.8396 108.364 71.456 108.932 70.6888 110.068C69.7608 111.439 69.3649 111.587 69.1546 112.402C68.9442 113.218 69.1174 113.922 69.2041 114.193C69.7361 115.984 71.6292 116.639 71.8643 116.713" stroke="black" stroke-width="0.5" stroke-miterlimit="10"/>
<path d="M72.136 99.4837C72.3711 100.015 72.9155 101.522 72.6309 102.226C72.3216 102.967 71.6782 103.041 70.5646 103.979C69.7974 104.622 69.0427 105.251 68.6715 106.264C68.3126 107.265 68.3745 108.524 68.9437 109.5C69.4881 110.426 70.0202 110.278 70.6141 111.291C70.7378 111.501 71.2699 112.477 71.1585 113.712C70.9729 115.626 69.3767 116.7 69.1293 116.861" stroke="black" stroke-width="0.5" stroke-miterlimit="10"/>
<path d="M73.2617 88.2571C73.5339 88.2077 74.3382 88.0965 75.1919 88.5288C75.4023 88.6276 76.1942 89.0352 76.5406 89.9244C76.8128 90.616 76.6644 91.2212 76.454 92.0364C76.2932 92.6415 75.3652 93.8889 74.6228 94.914" stroke="black" stroke-width="0.5" stroke-miterlimit="10"/>
<path d="M71.1465 93.1973C71.1712 92.518 71.4558 91.1965 72.0497 90.9125C72.7674 90.5666 73.6088 90.789 74.1161 91.32C74.5986 91.8264 74.4006 93.2344 74.1656 93.9136" stroke="black" stroke-width="0.5" stroke-miterlimit="10"/>
<path d="M75.625 88.7511C76.1076 87.7507 77.3325 85.5894 78.0625 83.8109C79.337 80.7232 80.0423 79.0065 80.4877 76.6723C81.0569 73.7205 80.896 71.3739 80.797 70.0647C80.7104 68.8914 80.5619 67.8663 79.04 61.8516C77.9017 57.3189 77.5181 56.0592 77.1098 53.5026C76.5654 50.1309 76.5901 48.4265 77.1098 46.6728C77.4686 45.4871 77.9635 43.8198 79.5349 42.77C81.7498 41.3003 84.8802 41.856 84.9792 42.4118C85.0163 42.6465 84.3605 42.7576 83.4078 43.4493C83.0613 43.6963 81.4652 44.8819 80.6609 46.9568C80.5867 47.1421 79.5226 50.0074 80.7104 52.5763C80.995 53.1939 81.2919 53.5397 81.4775 54.3672C81.7003 55.3676 81.4281 55.6269 81.4281 57.1954C81.4281 57.4301 81.4281 57.3436 81.7003 60.2954C81.8116 61.5675 81.8364 61.8022 81.923 62.2221C81.9725 62.4321 82.1457 63.1855 82.6901 64.4205C83.5315 66.3225 83.8903 66.2607 84.2244 67.434C84.3729 67.9898 84.4224 68.6197 84.4966 69.9042C84.5709 71.1763 84.509 71.7073 84.7688 72.5595C84.8926 72.9547 84.9173 72.893 85.4865 74.091C86.068 75.3261 86.365 75.9683 86.563 76.697C86.7733 77.475 86.9342 78.0679 86.7857 78.8089C86.6867 79.3523 86.4887 79.587 85.8824 80.5997C85.14 81.8595 84.7317 82.5388 84.3976 83.3416C83.9646 84.3914 84.1007 84.589 83.68 85.9969C83.5191 86.5527 83.1356 87.7754 82.4674 89.0105C81.5518 90.6778 79.5721 93.2838 78.2853 94.136C78.1615 94.2224 77.8027 94.4447 77.7037 94.8523C77.6171 95.2228 78.0007 95.3834 78.013 95.9268C78.0254 96.2602 77.9017 96.2602 77.8769 96.6925C77.8522 97.2359 78.0254 97.6559 78.0996 97.8164C78.3224 98.3351 78.5327 98.3351 78.7307 98.718C79.0029 99.2491 78.8544 99.6937 78.7802 100.558C78.7554 100.818 78.8049 100.41 78.7802 102.72C78.7554 105.091 78.7431 106.277 78.6936 106.981C78.5327 109.117 78.1863 110.612 78.4214 112.192C78.5575 113.057 78.8049 113.551 78.8668 113.675C79.2627 114.416 79.5721 114.428 79.77 114.971C80.1041 115.91 79.5721 116.923 79.4607 117.133C79.0153 117.911 78.5946 117.849 78.1615 118.751C78.0007 119.084 77.8151 119.492 77.8893 120.01C77.9883 120.677 78.4956 121.085 78.607 121.184C79.2009 121.653 79.5844 121.418 80.0917 121.863C80.5867 122.295 80.3887 122.678 80.7723 123.123C81.2177 123.654 81.9477 123.629 83.6924 123.666C85.6226 123.691 86.5753 123.716 87.0703 123.753C89.0252 123.938 89.6563 124.321 90.3987 123.839C90.8812 123.53 91.2648 122.95 91.2524 122.357C91.2524 122.036 91.1163 121.628 89.8171 120.467C88.7283 119.504 88.3571 119.368 87.392 118.541C86.6124 117.861 86.0557 117.392 85.5978 116.7C84.8307 115.552 84.6946 114.379 84.608 113.292C84.3605 110.315 84.3853 108.018 84.3853 106.647C84.3853 101.633 84.1007 101.225 84.6575 99.7802C85.1153 98.5822 85.87 97.6806 87.3548 95.8774C89.149 93.716 90.8193 92.2834 91.6731 91.6164C93.0342 90.5296 93.9622 89.7762 95.4469 89.0599C96.6595 88.467 97.1173 88.4423 97.9711 87.8001C98.9486 87.0591 99.295 86.3922 100.31 84.8854C101.794 82.687 102.537 81.5878 103.415 80.7973C104.875 79.4882 105.197 79.9699 107.56 78.1914C109.28 76.8946 110.134 76.2523 110.617 75.042C110.901 74.3257 110.889 73.881 111.52 71.9914C111.718 71.4233 111.916 70.7934 112.101 70.3735C112.769 68.842 114.032 67.9898 115.838 66.8289C118.053 65.3962 119.946 64.2476 121.418 63.3707" stroke="black" stroke-width="0.5" stroke-miterlimit="10"/>
<path d="M88.2832 70.1141C89.6071 70.9416 90.4856 71.7938 91.0301 72.399C92.1932 73.7081 92.255 74.3504 93.3686 75.1778C94.6059 76.1041 95.8928 76.3141 96.3382 76.3882C98.0333 76.6599 99.3325 76.2029 100.656 75.7583C102.277 75.2273 104.653 74.4739 107.858 73.597" stroke="black" stroke-width="0.5" stroke-miterlimit="10"/>
<path d="M104.208 77.3392C103.713 77.6974 102.97 78.2531 102.092 78.9571C100.397 80.3157 99.5306 81.0197 98.714 82.0571C98.2685 82.6252 97.6623 83.5021 97.1426 84.7495" stroke="black" stroke-width="0.5" stroke-miterlimit="10"/>
<path d="M89.9904 83.8973C89.9286 84.4161 89.7925 85.1077 89.545 85.8734C88.32 89.5663 85.4123 91.4435 85.5361 91.6164C85.6474 91.7647 87.6643 90.5049 94.5314 85.6017" stroke="black" stroke-width="0.5" stroke-miterlimit="10"/>
<path d="M82.7528 91.8017C82.0228 92.5304 81.3917 93.1356 80.9092 93.5925C79.6718 94.7535 79.1893 95.1487 79.2388 95.7045C79.2883 96.1738 79.709 96.5937 80.142 96.7419C80.7607 96.9395 81.3546 96.5567 82.3445 95.8897C82.8147 95.5686 83.4581 95.0746 84.1386 94.3583" stroke="black" stroke-width="0.5" stroke-miterlimit="10"/>
<path d="M82.3436 103.708C81.96 104.276 81.4032 105.276 81.131 106.622C80.834 108.104 81.0196 109.339 81.1805 110.031" stroke="black" stroke-width="0.5" stroke-miterlimit="10"/>
<path d="M79.8203 116.145C80.142 116.404 81.2185 116.688 81.8 116.91C83.1982 117.429 85.0542 116.787 85.5739 116.639" stroke="black" stroke-width="0.5" stroke-miterlimit="10"/>
<path d="M92.7865 44.7337C91.9823 45.5612 91.079 46.6975 90.3614 48.1919C88.2332 52.6134 89.3096 56.9484 89.7303 58.3811" stroke="black" stroke-width="0.5" stroke-miterlimit="10"/>
<path d="M95.3486 47.7473C94.7175 48.5253 93.8267 49.8345 93.3194 51.65C92.4161 54.9106 93.3689 57.6648 93.7648 58.6528" stroke="black" stroke-width="0.5" stroke-miterlimit="10"/>
<path d="M98.8995 47.8337C98.5654 48.8835 98.2684 50.1556 98.1323 51.6006C97.8106 54.997 98.5159 57.8006 99.1222 59.5544" stroke="black" stroke-width="0.5" stroke-miterlimit="10"/>
<path d="M102.364 48.1548C102.178 49.0688 102.054 50.168 102.092 51.3907C102.191 54.75 103.44 57.3313 104.294 58.7516" stroke="black" stroke-width="0.5" stroke-miterlimit="10"/>
<path d="M106.781 47.6979C106.546 48.1178 106.162 48.9329 106.15 50.0321C106.125 51.6747 106.954 52.8233 107.226 53.1815" stroke="black" stroke-width="0.5" stroke-miterlimit="10"/>
<path d="M86.1299 28.5668C86.5135 28.5668 87.095 28.5792 87.8003 28.5174C88.8767 28.431 89.2356 28.2828 89.8666 28.3322C90.3368 28.3692 91.0049 28.5174 91.7968 29.0485" stroke="black" stroke-width="0.5" stroke-miterlimit="10"/>
<path d="M17.4707 40.9174C16.9881 41.4114 16.5179 41.9178 16.0354 42.4489C15.3425 43.2023 14.6867 43.9556 14.0557 44.6967" stroke="black" stroke-width="0.5" stroke-miterlimit="10"/>
<path d="M61.3834 36.2489C61.0741 36.4835 60.3812 36.9282 59.4037 37.0517C58.1045 37.2122 57.1147 36.7059 56.793 36.5082" stroke="black" stroke-width="0.5" stroke-miterlimit="10"/>
<path d="M50.7549 117.701C51.4602 117.516 52.4624 117.651 52.8212 117.713C53.1058 117.763 53.2914 117.837 54.4421 118.257C54.8752 118.417 55.8527 118.442 56.0506 118.516" stroke="black" stroke-width="0.5" stroke-miterlimit="10"/>
<path d="M61.285 117.083C61.1737 117.219 60.9509 117.54 60.9262 117.985C60.8643 118.899 61.681 119.479 61.7305 119.516" stroke="black" stroke-width="0.5" stroke-miterlimit="10"/>
<path d="M78.6816 82.3288C79.325 82.687 80.7727 83.0822 81.4533 83.5021C82.0843 83.8973 83.3587 84.7495 83.9279 85.1448" stroke="black" stroke-width="0.5" stroke-miterlimit="10"/>
<path d="M108.451 77.4133C109.787 77.3886 112.769 77.2898 115.021 77.3886C121.208 77.6356 125.798 78.389 129.869 79.0683C136.873 80.2416 135.301 80.4639 142.428 81.9707C143.888 82.2794 145.732 82.6499 147.427 84.0579C148.107 84.626 148.367 85.0336 149.456 85.8734C150.31 86.5404 151.324 87.3185 152.698 87.8248C153.502 88.1212 155.927 88.3682 158.08 88.0471" stroke="black" stroke-width="0.5" stroke-miterlimit="10"/>
<path d="M144.978 74.5603C145.361 74.8814 145.943 75.4002 146.462 76.1782C147.18 77.2404 147.18 77.8456 147.749 78.5372C148.17 79.0436 148.937 79.6487 150.521 79.8834" stroke="black" stroke-width="0.5" stroke-miterlimit="10"/>
<path d="M154.492 75.5731C154.418 76.3265 154.269 77.4257 153.948 78.7348C153.193 81.8472 152.215 83.0205 152.871 84.3296C153.354 85.3053 154.542 85.9722 154.764 86.0834C155.42 86.4292 155.618 86.3428 156.311 86.6886C156.398 86.7256 157.647 87.3679 158.402 88.5041C158.922 89.2822 158.81 89.7021 159.144 91.8758C159.664 95.2722 160.283 96.5814 159.478 97.6065C159.305 97.8288 159.07 98.014 158.798 98.4834C158.637 98.7674 158.291 99.422 158.192 100.435C158.043 101.917 158.563 102.781 158.872 104.202C159.008 104.844 158.984 105.931 158.934 108.104C158.86 111.353 158.649 112.884 159.268 114.971C159.565 115.959 159.887 116.515 160.419 116.787C161.248 117.219 161.978 116.651 162.782 117.059C163.611 117.479 164.18 118.504 163.933 119.084C163.722 119.553 163.116 119.356 162.51 119.887C161.891 120.443 161.409 121.665 161.965 122.653C162.448 123.493 163.648 123.543 164.663 123.592C166.024 123.666 166.222 123.271 167.83 123.259C168.313 123.259 169.055 123.345 170.528 123.53C172.78 123.814 173.275 123.95 173.695 123.592C174.302 123.086 174.537 122.036 174.165 121.505C173.918 121.147 173.559 121.245 172.817 120.961C172.211 120.727 171.938 120.467 170.651 119.343C168.721 117.664 168.956 117.911 168.622 117.59C167.187 116.182 166.395 114.848 165.517 113.341C164.527 111.649 164.019 110.772 163.834 109.438C163.722 108.673 163.834 108.66 163.834 107.277C163.809 103.683 162.968 102.522 163.834 101.213C164.316 100.484 164.626 100.756 165.121 100.002C165.863 98.8415 165.418 97.7794 165.319 95.4945C165.294 95.0005 165.393 93.7284 165.591 91.1842C165.789 88.5165 165.888 87.1949 166.061 86.6762C166.581 85.1077 167.558 84.0085 169.501 81.8966C171.951 79.2288 172.495 79.3523 173.213 77.9938C174.425 75.6595 173.943 73.1647 173.683 71.8679C172.978 68.2615 171.332 68.0269 169.563 63.3831C169.117 62.2098 168.325 60.0608 168.078 57.1831C167.793 53.8237 168.61 53.4656 168.35 50.3779C168.189 48.5006 167.929 45.376 165.653 42.6959C165.121 42.066 163.054 39.7194 159.652 39.1883C155.123 38.4843 151.671 41.5102 150.471 42.56C146.858 45.7218 145.979 49.8222 145.744 51.2548" stroke="black" stroke-width="0.5" stroke-miterlimit="10"/>
<path d="M105.432 30.7652C104.331 30.4812 103.267 30.864 102.797 31.6421C102.475 32.1732 102.351 33.0007 102.661 33.186C103.366 33.6306 105.878 30.4688 106.237 30.7652C106.497 30.9752 105.47 32.7413 105.358 32.9266C104.863 33.7664 104.306 34.5075 104.344 34.5445C104.405 34.5939 105.643 32.3338 107.313 32.3214C107.783 32.3214 108.142 32.4943 108.328 32.5931C111.52 34.2605 127.605 45.5365 137.826 47.5497C145.25 49.007 151.795 46.0182 158.613 42.9058C166.631 39.2377 171.543 34.384 172.582 33.3342C173.955 31.9385 174.685 29.1103 175.416 28.184" stroke="black" stroke-width="0.5" stroke-miterlimit="10"/>
<path d="M114.873 40.0034C115.269 40.411 115.764 41.0285 116.024 41.8931C116.655 43.9556 115.455 45.7341 116.086 46.2034C116.383 46.4257 116.89 46.2034 117.843 45.7341C118.956 45.1783 120.416 44.4002 122.099 43.3752" stroke="black" stroke-width="0.5" stroke-miterlimit="10"/>
<path d="M114.713 38.9166C117.893 39.7935 120.763 40.0158 122.31 39.9911C122.966 39.9911 124.067 39.9294 125.416 40.3987C126.802 40.8803 127.259 41.5102 128.249 42.0166C129.647 42.7329 130.736 42.5106 133.446 42.3501C137.319 42.1278 136.057 42.523 142.627 42.2883C144.075 42.2389 147.564 41.4361 149.643 41.3003" stroke="black" stroke-width="0.5" stroke-miterlimit="10"/>
<path d="M144.235 40.3987C144.989 40.5098 145.521 40.8433 145.521 41.1397C145.521 41.4855 144.791 41.8437 144.173 41.7449C143.542 41.6461 143.22 41.1027 143.158 41.0039" stroke="black" stroke-width="0.5" stroke-miterlimit="10"/>
<path d="M119.426 29.7525C118.548 30.3824 116.803 31.531 115.071 32.1115C113.029 32.7907 110.035 32.8154 108.859 32.7907" stroke="black" stroke-width="0.5" stroke-miterlimit="10"/>
<path d="M117.397 29.6166C117.447 30.5182 117.831 34.5322 118.115 35.7302C118.449 37.1011 118.907 38.262 119.328 39.1636" stroke="black" stroke-width="0.5" stroke-miterlimit="10"/>
<path d="M117.707 78.1296C117.162 81.4396 117.36 83.9962 117.645 85.7376C118.177 89.0352 119.117 89.8627 118.994 92.4686C118.957 93.1356 118.833 94.4818 119.464 95.9762C119.798 96.7543 120.033 96.8778 120.342 97.5941C120.887 98.8662 120.639 99.6814 120.615 101.497C120.577 104.609 121.27 104.288 121.159 107.092C121.109 108.191 120.973 109.092 121.493 110.118C121.592 110.303 121.728 110.525 122.706 111.6C124.339 113.378 124.45 113.304 124.933 113.959C125.886 115.243 125.576 115.712 126.418 116.984C127.197 118.158 128.249 118.837 128.781 119.208C129.511 119.714 129.548 119.615 130.81 120.418C132.629 121.579 132.901 122.024 132.975 122.443C133.037 122.863 132.914 123.419 132.567 123.79C131.54 124.901 129.573 123.506 125.688 123.79C124.92 123.839 124.153 123.876 123.399 123.926C121.456 124.049 121.147 124.086 120.763 123.864C119.897 123.333 119.439 121.875 119.823 120.764C120.305 119.331 121.877 119.294 121.988 118.133C122.062 117.318 121.357 116.49 120.701 116.108C119.687 115.515 118.944 116.108 118.004 115.502C117.348 115.083 117.113 114.428 116.853 113.749C116.296 112.254 116.655 111.526 116.519 109.636C116.457 108.71 116.333 107.092 115.504 105.461C114.576 103.634 113.797 103.819 113.339 102.3C112.968 101.077 113.389 100.682 113.141 98.6563C113.141 98.5698 112.956 97.2483 112.461 95.828C112.077 94.6917 110.914 92.6292 109.033 90.6284" stroke="black" stroke-width="0.5" stroke-miterlimit="10"/>
<path d="M121.901 118.417C122.866 118.961 124.314 119.331 124.599 119.492C125.886 120.233 126.269 120.455 126.826 120.43C127.494 120.418 128.484 119.467 128.781 119.22" stroke="black" stroke-width="0.5" stroke-miterlimit="10"/>
<path d="M102.785 81.4396C102.661 81.8472 102.797 83.0699 102.785 83.8479C102.785 84.5396 102.772 84.9348 102.921 84.9965C103.453 85.1942 105.321 81.0444 105.754 81.2296C105.952 81.3161 105.68 82.2547 105.556 84.3296C105.408 86.6021 105.655 86.775 105.754 86.8244C106.175 87.0097 107.016 86.0834 107.511 85.3424C108.786 83.4033 108.526 81.3037 108.724 81.3037C108.885 81.3037 109.219 82.6252 109.058 84.2061C108.922 85.5647 108.526 86.1698 108.86 86.491C109.231 86.8615 110.332 86.6639 110.889 86.0216C111.471 85.3547 111.025 84.6754 111.434 82.724C111.632 81.736 111.768 81.1185 112.238 80.9085C112.844 80.6368 113.352 81.3408 114.329 81.3778C115.282 81.4272 116.804 80.4762 117.385 79.8958" stroke="black" stroke-width="0.5" stroke-miterlimit="10"/>
<path d="M99.6913 85.7129C99.6418 86.3181 99.7408 87.5902 99.4933 88.5659C99.4562 88.7141 99.2582 89.4428 98.887 90.3814C98.5653 91.1965 98.2189 91.8635 97.6745 92.938C97.0929 94.0742 97.0063 94.1607 96.9321 94.5559C96.8826 94.8276 96.6722 95.9021 97.2661 96.7172C97.5755 97.1371 97.7734 97.0507 98.4787 97.5941C98.5282 97.6312 99.3943 98.3105 99.9635 99.212C100.496 100.064 100.595 100.842 100.706 101.571C101.065 103.782 101.362 103.547 101.857 106.017C102.475 109.179 102.871 111.167 102.537 113.699C102.389 114.811 102.116 115.873 102.735 116.528C103.23 117.046 104.195 117.232 104.962 116.997C105.804 116.75 105.89 116.145 106.583 116.12C107.251 116.095 107.981 116.626 108.068 117.194C108.105 117.417 108.031 117.602 107.524 118.343C106.534 119.8 106.323 119.825 106.237 120.294C106.15 120.801 106.36 121.258 106.781 122.184C107.103 122.9 107.264 123.259 107.585 123.53C108.13 123.987 108.749 123.938 110.147 123.938C111.941 123.938 112.832 123.926 113.661 124C115.529 124.185 116.247 124.629 116.828 124.135C117.224 123.802 117.36 123.234 117.298 122.789C117.224 122.184 116.791 121.999 115.541 120.838C115.207 120.517 114.725 120.047 113.784 119.084C113.364 118.652 112.832 118.108 112.238 117.466C111.31 116.453 110.79 115.898 110.419 115.379C109.54 114.156 109.454 113.119 109.07 111.402C108.353 108.216 107.994 108.784 107.251 105.61C106.447 102.189 106.435 99.7184 106.447 99.1379C106.447 97.5077 106.459 96.3097 106.917 94.7535C107.313 93.432 107.994 92.3081 109.342 90.1097C110.728 87.8619 111.087 87.5655 111.904 86.0711C112.819 84.3914 113.351 82.9217 113.661 81.9583" stroke="black" stroke-width="0.5" stroke-miterlimit="10"/>
<path d="M117.397 81.0444C117.063 81.3655 115.714 82.4153 115.492 83.181C115.121 84.4531 115.752 85.1571 115.43 86.4169C115.195 87.3432 114.613 87.9113 114.007 88.5041C112.757 89.7392 109.85 90.4555 109.021 90.6531" stroke="black" stroke-width="0.5" stroke-miterlimit="10"/>
<path d="M117.372 92.2093C117.248 92.7774 117.149 93.6543 117.31 94.7041C117.521 96.075 118.09 97.0754 118.461 97.6065" stroke="black" stroke-width="0.5" stroke-miterlimit="10"/>
<path d="M102.525 89.0352C102.537 89.7268 102.525 90.5049 102.463 91.32C102.376 92.3451 102.228 93.2714 102.055 94.0866" stroke="black" stroke-width="0.5" stroke-miterlimit="10"/>
<path d="M97.1552 88.3435C97.1057 89.2698 97.712 92.024 97.6749 92.938" stroke="black" stroke-width="0.5" stroke-miterlimit="10"/>
<path d="M97.5255 96.9889C97.2162 97.2606 96.0531 98.3104 95.7067 98.9403C95.2612 99.7431 94.9643 100.768 95.1004 103.72C95.2365 106.598 95.5458 106.449 95.3726 107.623C95.1375 109.179 94.6549 109.043 93.9497 111.526C93.9126 111.649 93.4795 113.242 93.4795 115.367C93.4795 116.725 93.6527 117.133 93.9497 117.318C94.5065 117.664 95.1004 116.935 96.0408 117.256C96.7708 117.491 97.1667 118.17 97.3894 118.541C97.5503 118.8 97.8596 119.331 97.8596 120.023C97.8596 120.616 97.6369 120.653 97.5874 121.369C97.5379 122.073 97.7111 122.629 97.7854 122.851C97.8844 123.147 98.0328 123.617 98.3298 123.925C99.0351 124.691 100.013 124.012 102.24 124.333C103.551 124.518 104.158 124.901 105.073 124.531C105.284 124.444 105.754 124.259 106.014 123.79C106.397 123.123 106.125 122.357 106.014 122.036C105.704 121.171 105.147 120.69 104.195 119.875C102.586 118.504 101.782 117.812 101.695 117.713C100.73 116.602 100.47 115.441 100.013 113.403C99.8393 112.649 99.53 111.056 99.5424 108.957C99.5424 107.549 100.013 104.794 100.668 102.473" stroke="black" stroke-width="0.5" stroke-miterlimit="10"/>
<path d="M99.6914 100.225C99.3449 100.422 98.8005 100.768 98.3427 101.373C98.1324 101.645 97.7859 102.164 97.5384 103.189C97.1301 104.869 97.3281 106.449 97.5384 107.438" stroke="black" stroke-width="0.5" stroke-miterlimit="10"/>
<path d="M106.917 92.271C105.024 93.7407 103.91 95.2228 103.267 96.2479C102.599 97.31 102.45 97.8658 102.388 98.2734C102.165 99.7925 102.908 100.929 103.465 102.114C104.046 103.337 104.69 105.165 104.888 107.709" stroke="black" stroke-width="0.5" stroke-miterlimit="10"/>
<path d="M98.0703 119.516C98.7508 118.985 99.9139 118.714 100.236 118.751C101.077 118.862 101.374 119.702 102.401 119.899C102.859 119.986 103.539 119.59 103.774 119.516" stroke="black" stroke-width="0.5" stroke-miterlimit="10"/>
<path d="M107.523 118.343C108.08 118.454 109.788 118.17 110.357 118.281C111.161 118.429 112.72 118.627 113.5 118.751" stroke="black" stroke-width="0.5" stroke-miterlimit="10"/>
<path d="M159.194 69.9289C159.85 70.7934 160.654 72.0779 161.174 73.7946C162.251 77.3886 161.335 80.4762 160.902 81.6989" stroke="black" stroke-width="0.5" stroke-miterlimit="10"/>
<path d="M173.955 80.5256C173.411 80.9332 172.706 81.6001 172.248 82.5882C171.691 83.8109 171.852 84.8236 171.802 85.5523C171.716 86.8615 170.85 88.6523 167.397 90.7642" stroke="black" stroke-width="0.5" stroke-miterlimit="10"/>
<path d="M161.719 85.2065C161.793 85.9352 161.88 86.6762 161.991 87.4543C162.189 88.8252 162.436 90.122 162.709 91.32" stroke="black" stroke-width="0.5" stroke-miterlimit="10"/>
<path d="M160.098 89.7762C160.296 90.5914 160.469 91.5547 160.543 92.6539C160.617 93.6543 160.605 94.5682 160.543 95.3463" stroke="black" stroke-width="0.5" stroke-miterlimit="10"/>
<path d="M162.349 97.4212C162.498 97.73 162.745 98.3722 162.708 99.212C162.696 99.5579 162.609 100.287 162.164 101.003C161.78 101.62 161.421 101.781 161.174 102.077C160.716 102.633 160.518 103.782 161.718 106.388" stroke="black" stroke-width="0.5" stroke-miterlimit="10"/>
<path d="M163.945 119.084C164.242 118.788 165.442 118.763 166.036 118.701C166.754 118.639 167.199 119.047 168.288 119.504C168.746 119.702 170.565 119.949 171.419 120.134" stroke="black" stroke-width="0.5" stroke-miterlimit="10"/>
</g>
<defs>
<clipPath id="clip0_170_1689">
<rect width="205" height="125" fill="white"/>
</clipPath>
</defs>
</svg>
