<svg width="33" height="54" viewBox="0 0 33 54" fill="none" xmlns="http://www.w3.org/2000/svg">
<g clip-path="url(#clip0_97_3286)">
<path d="M22.1568 50.9016C21.915 51.0094 21.2068 50.1414 19.8063 48.4018C18.4524 46.718 17.7676 45.8779 17.2259 44.937C16.5064 43.6705 16.0845 42.2496 15.2558 39.4711C14.6253 37.3141 14.1725 35.4826 14.2953 35.4366C14.4219 35.4065 14.8784 37.2538 16.3686 39.4402C16.6481 39.8417 16.9593 40.2358 17.5657 41.0276C18.7169 42.4922 19.5034 43.4083 19.7837 43.7428C21.9437 46.3549 22.7121 50.6357 22.1568 50.9016Z" stroke="#231F20" stroke-width="0.5" stroke-miterlimit="10"/>
<path d="M16.7725 40.0128C17.5409 40.4317 18.7471 40.8634 19.2466 40.9952C19.6753 41.1105 20.3202 41.2913 21.1406 41.2966C21.6612 41.3064 22.7823 41.2401 22.8207 40.9802C22.8471 40.7398 21.9016 40.6306 20.5877 39.957C18.8737 39.0778 18.6379 38.2981 17.1876 37.8242C16.4606 37.5793 15.6755 37.5823 15.277 37.5936" stroke="#231F20" stroke-width="0.5" stroke-miterlimit="10"/>
<path d="M14.4038 35.6114C14.6004 35.6649 15.3078 35.8977 15.6469 35.9173C16.0725 35.9497 16.6677 35.9919 17.2237 35.6589C17.2953 35.6084 17.9387 35.2212 18.0999 34.5642C18.3855 33.3761 16.9623 31.8927 15.4759 31.4775C15.1888 31.3954 13.8832 31.0375 13.2564 31.705C12.6454 32.3688 13.0718 34.0895 14.2523 35.3967" stroke="#231F20" stroke-width="0.5" stroke-miterlimit="10"/>
<path d="M9.8747 44.1127C9.76018 44.1232 9.64265 43.6998 9.385 42.407C8.95333 40.1023 8.72582 38.9361 8.74918 38.2618C8.82002 35.8208 9.85746 34.0692 10.3683 33.1952C10.9996 32.1254 12.1132 30.6232 12.4899 30.801C12.6428 30.8816 12.6744 31.2251 12.4891 32.2723C12.1417 34.3947 11.6407 35.4502 11.1683 37.1174C10.6718 38.8238 10.4496 40.348 10.3516 40.9899C10.0744 42.8447 10.0563 44.1029 9.85887 44.1164L9.8747 44.1127Z" stroke="#231F20" stroke-width="0.5" stroke-miterlimit="10"/>
<path d="M8.4433 31.0789C7.78483 30.7007 7.65149 29.93 7.56561 29.4991C7.2605 27.8664 8.19095 26.5081 8.46745 26.1246C8.91648 25.4827 9.65029 24.4219 10.5325 24.5463C11.4464 24.663 11.8977 25.9265 11.982 26.1405C12.6096 27.8635 11.5104 29.4961 11.1774 29.9933C10.8685 30.4514 10.4835 31.0111 9.76324 31.2161C9.63667 31.2462 9.01135 31.4285 8.44706 31.0948L8.4433 31.0789Z" stroke="#231F20" stroke-width="0.5" stroke-miterlimit="10"/>
<path d="M13.0721 31.983L11.9842 28.3969" stroke="#231F20" stroke-width="0.5" stroke-miterlimit="10"/>
<path d="M14.2057 28.6704C14.7504 29.3432 15.2423 29.7944 15.3945 29.9421C16.1479 30.6488 17.3593 31.3133 19.7506 32.6499C21.1934 33.4432 21.9618 33.8621 23.0821 33.8629C23.5161 33.8598 24.1873 33.8003 24.2371 33.5879C24.2875 33.3084 23.1266 33.0665 21.9912 32.3003C20.895 31.5582 20.7911 30.9811 19.5924 29.5278C18.4834 28.1702 17.4905 27.37 16.0598 26.206C14.5236 24.9501 12.8624 23.5902 12.3411 23.9986C11.8596 24.3639 12.5821 26.0644 12.7358 26.429C13.1472 27.3843 13.6919 28.0571 14.2094 28.6862L14.2057 28.6704Z" stroke="#231F20" stroke-width="0.5" stroke-miterlimit="10"/>
<path d="M6.58604 25.3855C6.15812 25.2032 6.68702 23.0711 6.91003 22.1821C7.15339 21.2381 7.6627 19.445 8.93746 16.9347C10.7042 13.4714 12.1116 12.1499 12.538 11.7642C13.2552 11.1253 14.4893 10.1293 14.6023 10.2529C14.7349 10.3885 13.4782 11.6406 12.7128 13.06C11.9111 14.5382 12.0829 15.049 11.4161 17.1638C10.6718 19.5143 9.72246 21.1447 9.13933 22.1361C8.82139 22.6967 7.09232 25.6161 6.57022 25.3893L6.58604 25.3855Z" stroke="#231F20" stroke-width="0.5" stroke-miterlimit="10"/>
<path d="M12.7682 21.0882C13.9322 23.1683 15.3659 24.0641 15.3659 24.0641C17.3835 25.3058 24.042 28.8362 24.5693 27.8915C24.9476 27.233 22.0824 24.8892 20.1439 23.6287C16.9405 21.5493 12.9784 20.2858 12.7004 20.8034C12.6522 20.8818 12.7102 20.985 12.7682 21.0882Z" stroke="#231F20" stroke-width="0.5" stroke-miterlimit="10"/>
<path d="M13.6206 18.6284C13.8082 19.1354 14.0342 19.7336 14.649 20.1389C15.303 20.5684 16.1618 20.6648 16.8986 20.3891C17.0373 20.3394 17.802 20.0403 18.193 19.2952C18.9713 17.7891 17.7093 15.2977 15.8831 14.5789C15.6044 14.4614 14.7048 14.1238 14.0177 14.5382C12.9095 15.22 13.1807 17.4124 13.6169 18.6126L13.6206 18.6284Z" stroke="#231F20" stroke-width="0.5" stroke-miterlimit="10"/>
<path d="M15.2931 14.4184C14.5925 13.2311 14.1969 12.6231 14.2527 12.5764C14.3521 12.5025 15.0912 13.43 15.9614 13.925C16.6198 14.3032 17.1751 14.3883 17.4975 14.4787C19.7321 15.0167 22.0962 17.3627 21.8303 17.8607C21.7617 17.9941 21.4702 17.9632 20.9104 17.9293C19.9091 17.8667 19.1437 17.5307 18.6886 17.3047L18.0837 17.0809" stroke="#231F20" stroke-width="0.5" stroke-miterlimit="10"/>
<path d="M11.3774 24.7964C13.1472 22.8203 12.2258 19.8632 12.2401 18.9403C12.2823 15.8875 14.2766 13.5904 14.6518 10.0404C14.7407 9.14993 15.6644 7.34179 16.897 5.42667C18.1296 3.51155 19.2981 1.67856 20.3423 0.376702" stroke="#231F20" stroke-width="0.5" stroke-miterlimit="10"/>
</g>
<defs>
<clipPath id="clip0_97_3286">
<rect width="50.3032" height="21.0938" fill="white" transform="translate(11.6509 53.8209) rotate(-103.392)"/>
</clipPath>
</defs>
</svg>
