<?xml version="1.0" encoding="UTF-8"?>
<svg xmlns="http://www.w3.org/2000/svg" version="1.1" viewBox="0 0 19.07 30.38">
  <defs>
    <style>
      .cls-1 {
        fill: none;
        stroke: #231f20;
        stroke-miterlimit: 10;
        stroke-width: .25px;
      }
    </style>
  </defs>
  <!-- Generator: Adobe Illustrator 28.7.2, SVG Export Plug-In . SVG Version: 1.2.0 Build 154)  -->
  <g>
    <g id="Layer_1">
      <g>
        <path class="cls-1" d="M2.26,1.45c.09-.03.25-.08.45-.06.23.02.29.16.49.17.17.01.27-.06.49-.17,0,0,.28-.13.8-.26.47-.11.68,0,1.14,0,.55,0,.75-.16,1.53-.41.83-.26,1.5-.36,1.98-.43.56-.08,1.8-.26,2.58-.09.07.02.25.06.49.06.38,0,.5-.09.84-.13.1-.01.59-.06,1.12.17.33.15.53.35.67.47.19.18.31.36.56.71.27.39.26.42.41.6.31.37.46.35.73.62.5.51.59,1.21.62,1.44.06.45-.05.5.04,1.03.06.32.14.58.24.86.14.42.18.44.32.84.09.26.19.63.39,1.38.18.68.18.74.17.84-.06.44-.32.58-.26.92.04.2.14.19.3.54.14.29.18.53.21.71.06.31.12.65.02,1.03-.11.43-.31.54-.26.84.03.17.11.16.24.45.08.17.1.28.19.77.15.76.15.75.16.82.03.3.01.41,0,.9-.01.6.01.65,0,1.5-.01.73-.03.84-.11.97-.16.25-.35.26-.9.54-.57.28-.87.44-1.18.73-.4.38-.4.61-.92,1.05-.25.21-.27.18-.41.32-.38.41-.24.7-.52,1.27-.32.66-.8.86-.69,1.16.04.12.18.23.3.34.21.18.3.18.34.28.1.24-.27.62-.34.69-.48.48-1.06.62-1.16.64-.99.25-1.93.67-2.92.92-.63.16-1.54.41-2.64.75"/>
        <path class="cls-1" d="M2.35,1.42c-.18.06-.62.32-.73.5-.06.09-.18.29-.21.56-.06.43.16.6.02.9-.06.14-.12.12-.21.3-.13.24-.14.47-.15.67-.05,1.34.04,1.43.11,1.46.15.06.28-.13.49-.04.12.05.22.17.24.3.01.12-.07.17-.13.32-.11.27.05.4,0,.69-.05.3-.24.27-.39.62-.02.06-.24.59,0,.92.18.26.46.17.6.43.07.13.05.29,0,.6-.06.41-.13.53-.28,1.16-.08.36-.07.36-.13.56-.09.33-.15.4-.15.58,0,.12,0,.39.17.56.21.2.62.18.86.13.12-.03.18-.06.24-.02.1.07-.03.28,0,.62.01.16.03.38.17.54.19.2.47.19.47.3,0,.08-.15.1-.17.21-.02.14.19.22.17.37-.02.12-.19.12-.21.26-.02.11.08.15.11.3.03.18-.09.41-.26.49-.18.09-.3-.06-.45.04-.06.04-.04.07-.21.41-.09.18-.12.23-.11.3.03.13.16.14.17.24.01.14-.24.2-.26.37-.01.13.14.17.26.39.11.2.04.28.13.62.07.27.11.43.24.58.13.15.29.24.62.41.11.06.1.05.21.11.37.2.38.27.52.3.28.07.36-.17.62-.11.28.07.31.38.54.39.19,0,.28-.22.43-.17.1.03.07.14.21.26.18.16.34.09.39.21.02.04,0,.13-.02.32,0,.01,0,.05-.01.1,0,.03,0,.08-.01.13,0,0,0,.08-.01.17-.02.32,0,.67-.09.9-.04.11-.08.09-.58.49-.28.22-.58.47-1.05.77-.19.12-.25.15-.28.13-.08-.07.31-.66.56-.99.07-.09.16-.21.86-1.01.13-.15.55-.63.62-.71"/>
        <path class="cls-1" d="M4.95,19.53c-.07.12-.4.57-.58.7-.35.25-.55.11-.92.32-.38.22-.27.44-.75.73-.16.1-.27.13-.39.28-.15.19-.14.34-.21.54-.13.33-.34.39-.6.67-.2.22-.33.56-.58,1.25-.26.72-.34,1.18-.37,1.33-.07.46-.05.67-.04.73.04.37.15.41.15.71,0,.24-.07.21-.19.77-.08.38-.05.41-.13.58-.11.24-.23.33-.19.45.01.04.05.12.34.21.41.13.55.04.8.13.21.08.22.19.58.6.31.35.7.79.88.71.18-.08-.05-.6.26-.92.15-.16.28-.1.64-.24.16-.06.29-.13,1.07-.71.78-.58.74-.58.88-.64.37-.16.55-.11,1.23-.24.41-.08.74-.17.95-.24"/>
        <path class="cls-1" d="M1.11,5.74c.26-.03,2.09-.83,2.5-1.06.37-.2.42-.34.99-.77.34-.26.7-.53,1.21-.76.51-.23.86-.38,1.19-.25.36.15.51.56.62.9.39,1.17,0,2.06.24,2.16.16.07.49-.33,1.14-1.13.61-.76.67-.93.96-1.03.66-.23,1.41.34,1.58.47.72.55.98,1.34,1.27,2.2.04.11.18.55.28,1.14.14.81.13,1.43.12,1.84-.04,2,.04,2.2,0,2.98-.04.8-.18,1.56-1.73,5.72-1.35,3.63-1.71,4.31-2.55,4.84-.39.25-.98.45-2.14.86-2.22.78-3.15,1.02-3.15,1.02-.59.16-.96.23-1.4.54-.28.2-.91.63-1.04,1.43-.15.86.39,1.52.52,1.68.46.57,1.05.76,1.28.82"/>
        <path class="cls-1" d="M3.24,4.86c.07.18.21.47.27.54.28.33.55.27.87.62.17.18.14.25.28.33.25.15.41-.02.69.1.33.13.26.42.62.57.23.1.33,0,.53.14.16.12.14.21.32.33.19.13.32.08.38.19.06.12-.06.2-.06.4,0,.34.38.43.38.75,0,.2-.15.21-.15.43,0,.24.17.27.21.53.05.29-.11.55-.2.69-.12.19-.27.31-.37.39-.08.06-.22.17-.42.25-.17.07-.19.04-.3.1-.13.07-.13.13-.33.35-.21.23-.26.23-.3.34-.05.15.03.19-.03.35-.05.13-.11.15-.15.28-.04.15.05.22,0,.29-.06.09-.25.09-.4.04-.17-.06-.21-.16-.44-.42-.27-.3-.42-.47-.57-.44-.15.03-.13.21-.34.3-.16.07-.23,0-.41.04-.11.03-.43.2-.58.4"/>
        <path class="cls-1" d="M2.8,13.69c.07-.05.4-.24.57-.27.23-.04.42.03.62.1.22.08.35.12.48.25.06.06.15.23.33.59.11.21.13.26.11.31-.05.12-.25.07-.54.19-.25.11-.25.23-.51.38-.13.08-.33.16-.61.19"/>
        <path class="cls-1" d="M11.29,7.17c-.11.08-.75-.33-1.13-.24-.04.01-.32.09-.43.32-.05.11-.03.18-.03.41,0,.35,0,.57-.06.8-.11.34-.27.3-.3.56-.01.09,0,.16.23.71.13.32.19.48.23.54.19.37.34.45.52.71.26.39.31.78.35,1.12.04.32.1.8-.1,1.31-.17.44-.35.45-.42.84-.04.26.03.31.05.89.02.38.02.58-.02.8-.08.39-.26.69-.44,1-.21.35-.27.36-.3.54-.06.34.13.5.01.75-.07.15-.24.28-.41.31-.3.05-.49-.24-.63-.15-.12.07,0,.28-.13.52-.14.25-.49.42-.74.34-.23-.07-.27-.31-.4-.29-.14.02-.12.3-.32.59-.14.19-.43.41-.57.47"/>
        <path class="cls-1" d="M11.18,7.17c.12,0,.34.04.53.19.32.26.35.67.37.85.05.59-.26.72-.18,1.31.04.35.18.58.23.64.07.11.23.35.54.48.16.07.44.09.54.1"/>
      </g>
    </g>
  </g>
</svg>